<svg xmlns="http://www.w3.org/2000/svg" xmlns:xlink="http://www.w3.org/1999/xlink" width="10" height="9.214" viewBox="0 0 10 9.214">
  <defs>
    <clipPath id="clip-path">
      <rect id="Rectangle_819" data-name="Rectangle 819" width="10" height="9.214" fill="#191919"/>
    </clipPath>
  </defs>
  <g id="Group_14785" data-name="Group 14785" clip-path="url(#clip-path)">
    <path id="Path_4002" data-name="Path 4002" d="M211.5,36.977h1V37.9H217s-.075-2.054-.1-2.7c-.025-.611-.262-.989-1-.989h-1.6l-.6-1.039c-.165-.287-.222-.343-.59-.343h-2.216c-.367,0-.424.056-.59.343-.082.143-.35.607-.6,1.039h-1.6c-.738,0-.972.378-1,.989s-.1,2.7-.1,2.7h4.5Zm-.676-3.263c.115-.2.154-.238.409-.238h1.533c.254,0,.294.039.408.238l.288.5h-2.925Zm1.676,5.567h-1v-.921h-4.25s.062.828.1,1.53c.015.292.109.773.9.773h7.5c.791,0,.883-.482.9-.773.044-.722.1-1.53.1-1.53H212.5Z" transform="translate(-207 -32.371)" fill="#191919"/>
  </g>
</svg>
