<svg xmlns="http://www.w3.org/2000/svg" width="15.176" height="12" viewBox="0 0 15.176 12">
  <g id="_7089160_google_meet_icon" data-name="7089160_google_meet_icon" transform="translate(-3 -7)">
    <rect id="Rectangle_863" data-name="Rectangle 863" width="6" height="6" transform="translate(6.088 16) rotate(-90)" fill="#fff"/>
    <path id="Path_4928" data-name="Path 4928" d="M3,16.353v4.941l1.765.353,1.765-.353V16.353L4.765,16Z" transform="translate(0 -5.824)" fill="#1e88e5"/>
    <path id="Path_4929" data-name="Path 4929" d="M20.824,23.353v4.941a1.059,1.059,0,0,1-1.059,1.059H12.353L12,27.588l.353-1.765h4.941V23.353L19.059,23Z" transform="translate(-5.824 -10.353)" fill="#4caf50"/>
    <path id="Path_4930" data-name="Path 4930" d="M20.824,8.059V13H17.294V10.529H12.353L12,8.765,12.353,7h7.412A1.059,1.059,0,0,1,20.824,8.059Z" transform="translate(-5.824)" fill="#fbc02d"/>
    <path id="Path_4931" data-name="Path 4931" d="M6.529,31v3.529H4.059A1.059,1.059,0,0,1,3,33.471V31Z" transform="translate(0 -15.529)" fill="#1565c0"/>
    <path id="Path_4932" data-name="Path 4932" d="M6.529,7v3.529H3Z" fill="#e53935"/>
    <path id="Path_4933" data-name="Path 4933" d="M30.882,18.532l-.353,2.982L27,18.532l3.529-2.982Z" transform="translate(-15.529 -5.532)" fill="#2e7d32"/>
    <path id="Path_4934" data-name="Path 4934" d="M40.176,9.46v9.8a.354.354,0,0,1-.575.275l-2.6-2.2V11.38l2.6-2.2A.354.354,0,0,1,40.176,9.46Z" transform="translate(-22 -1.363)" fill="#4caf50"/>
  </g>
</svg>
