<svg xmlns="http://www.w3.org/2000/svg" xmlns:xlink="http://www.w3.org/1999/xlink" width="15.381" height="14.171" viewBox="0 0 15.381 14.171">
  <defs>
    <clipPath id="clip-path">
      <rect id="Rectangle_750" data-name="Rectangle 750" width="15.381" height="14.171" fill="#51cf66"/>
    </clipPath>
  </defs>
  <g id="Group_14673" data-name="Group 14673" clip-path="url(#clip-path)">
    <path id="Path_3787" data-name="Path 3787" d="M213.921,39.208h1.538v1.417h6.921s-.115-3.16-.154-4.148c-.039-.94-.4-1.521-1.538-1.521h-2.467l-.92-1.6c-.255-.441-.341-.527-.907-.527h-3.409c-.565,0-.651.086-.907.527-.127.22-.538.934-.92,1.6h-2.468c-1.135,0-1.5.581-1.538,1.521S207,40.625,207,40.625h6.921Zm-1.039-5.02c.177-.306.237-.366.628-.366h2.359c.391,0,.452.06.628.366l.442.768h-4.5Zm2.577,8.562h-1.538V41.334h-6.537s.1,1.273.153,2.354c.024.449.168,1.189,1.384,1.189h11.536c1.217,0,1.357-.742,1.384-1.189.067-1.111.154-2.354.154-2.354H215.46Z" transform="translate(-207 -32.123)" fill="#51cf66"/>
  </g>
</svg>
