<svg xmlns="http://www.w3.org/2000/svg" width="29.165" height="26.548" viewBox="0 0 29.165 26.548">
  <g id="heart" transform="translate(0.25 -22.293)">
    <path id="Path_4051" data-name="Path 4051" d="M20.308,22.543a8.266,8.266,0,0,0-3.8.911,8.421,8.421,0,0,0-2.179,1.606,8.422,8.422,0,0,0-2.179-1.606,8.266,8.266,0,0,0-3.8-.911A8.366,8.366,0,0,0,0,30.9c0,3.264,1.724,6.73,5.123,10.3a49.536,49.536,0,0,0,8.728,7.03l.481.311.481-.311a49.536,49.536,0,0,0,8.728-7.03c3.4-3.573,5.123-7.039,5.123-10.3A8.366,8.366,0,0,0,20.308,22.543ZM22.257,39.98a46.885,46.885,0,0,1-7.925,6.449A46.886,46.886,0,0,1,6.407,39.98c-3.075-3.232-4.634-6.287-4.634-9.08a6.583,6.583,0,0,1,11.85-3.95l.709.944.709-.944a6.583,6.583,0,0,1,11.85,3.95C26.892,33.693,25.332,36.748,22.257,39.98Z" fill="#42474f"/>
    <path id="Path_4051_-_Outline" data-name="Path 4051 - Outline" d="M8.356,22.293a8.514,8.514,0,0,1,3.91.938,8.616,8.616,0,0,1,2.066,1.476A8.616,8.616,0,0,1,16.4,23.231a8.514,8.514,0,0,1,3.91-.938A8.616,8.616,0,0,1,28.915,30.9c0,3.33-1.747,6.854-5.192,10.475a49.786,49.786,0,0,1-8.774,7.068l-.617.4-.617-.4a49.789,49.789,0,0,1-8.774-7.068C1.5,37.753-.25,34.229-.25,30.9A8.616,8.616,0,0,1,8.356,22.293Zm5.976,3.124-.179-.183a8.133,8.133,0,0,0-2.114-1.558,8.019,8.019,0,0,0-3.683-.883A8.116,8.116,0,0,0,.25,30.9c0,3.2,1.7,6.605,5.054,10.13a49.286,49.286,0,0,0,8.683,6.993l.345.223.345-.223a49.283,49.283,0,0,0,8.683-6.993C26.714,37.5,28.415,34.1,28.415,30.9a8.116,8.116,0,0,0-8.106-8.106,8.018,8.018,0,0,0-3.683.883,8.132,8.132,0,0,0-2.114,1.558ZM8.356,24.066A6.782,6.782,0,0,1,13.823,26.8l.509.677.509-.677a6.833,6.833,0,0,1,12.3,4.1c0,2.86-1.582,5.973-4.7,9.252a47.369,47.369,0,0,1-7.968,6.485l-.138.091-.138-.091a47.371,47.371,0,0,1-7.968-6.485c-3.121-3.28-4.7-6.393-4.7-9.252A6.841,6.841,0,0,1,8.356,24.066Zm5.976,4.244-.909-1.21a6.333,6.333,0,0,0-11.4,3.8c0,2.727,1.536,5.724,4.565,8.908a46.615,46.615,0,0,0,7.744,6.322,46.612,46.612,0,0,0,7.744-6.322c3.029-3.184,4.565-6.181,4.565-8.908a6.333,6.333,0,0,0-11.4-3.8Z" fill="#42474f"/>
  </g>
</svg>
