<svg id="Group_17139" data-name="Group 17139" xmlns="http://www.w3.org/2000/svg" width="20" height="20" viewBox="0 0 20 20">
  <g id="Group_14570" data-name="Group 14570" transform="translate(7.083 7.083)">
    <g id="Group_14569" data-name="Group 14569">
      <path id="Path_3552" data-name="Path 3552" d="M138.917,136a2.917,2.917,0,1,0,2.917,2.917A2.92,2.92,0,0,0,138.917,136Zm0,4.167a1.25,1.25,0,1,1,1.25-1.25A1.252,1.252,0,0,1,138.917,140.167Z" transform="translate(-136 -136)" fill="#ffa00a"/>
    </g>
  </g>
  <g id="Group_17138" data-name="Group 17138">
    <g id="Group_14572" data-name="Group 14572">
      <g id="Group_17137" data-name="Group 17137">
        <g id="Group_14571" data-name="Group 14571">
          <path id="Path_3553" data-name="Path 3553" d="M19.167,9.167H17.451a7.51,7.51,0,0,0-6.617-6.617V.833a.833.833,0,0,0-1.667,0V2.549A7.51,7.51,0,0,0,2.549,9.167H.833a.833.833,0,0,0,0,1.667H2.549a7.51,7.51,0,0,0,6.617,6.617v1.716a.833.833,0,1,0,1.667,0V17.451a7.51,7.51,0,0,0,6.617-6.617h1.716a.833.833,0,1,0,0-1.667ZM10,15.833A5.833,5.833,0,1,1,15.833,10,5.84,5.84,0,0,1,10,15.833Z" fill="#ffa00a"/>
        </g>
      </g>
    </g>
  </g>
</svg>
