<svg id="menu_5_" data-name="menu (5)" xmlns="http://www.w3.org/2000/svg" width="24.015" height="24.015" viewBox="0 0 24.015 24.015">
  <g id="Group_1594" data-name="Group 1594">
    <g id="Group_1593" data-name="Group 1593" transform="translate(0)">
      <path id="Path_3544" data-name="Path 3544" d="M8.724,0H1.829A1.83,1.83,0,0,0,0,1.828V8.723a1.83,1.83,0,0,0,1.828,1.828H8.724a1.83,1.83,0,0,0,1.828-1.828V1.828A1.83,1.83,0,0,0,8.724,0Z" transform="translate(-0.001)" fill="#ffa00a"/>
      <path id="Path_3545" data-name="Path 3545" d="M175.229,0h-6.895a1.83,1.83,0,0,0-1.828,1.828V8.723a1.83,1.83,0,0,0,1.828,1.828h6.895a1.83,1.83,0,0,0,1.828-1.828V1.828A1.83,1.83,0,0,0,175.229,0Z" transform="translate(-153.043)" fill="#ffa00a"/>
      <path id="Path_3546" data-name="Path 3546" d="M8.724,166.507H1.829A1.83,1.83,0,0,0,0,168.335v6.895a1.83,1.83,0,0,0,1.828,1.828H8.724a1.83,1.83,0,0,0,1.828-1.828v-6.895A1.83,1.83,0,0,0,8.724,166.507Z" transform="translate(-0.001 -153.044)" fill="#ffa00a"/>
      <path id="Path_3547" data-name="Path 3547" d="M175.229,166.507h-6.895a1.83,1.83,0,0,0-1.828,1.828v6.895a1.83,1.83,0,0,0,1.828,1.828h6.895a1.831,1.831,0,0,0,1.828-1.828v-6.895A1.83,1.83,0,0,0,175.229,166.507Z" transform="translate(-153.043 -153.044)" fill="#ffa00a"/>
    </g>
  </g>
</svg>
