<svg xmlns="http://www.w3.org/2000/svg" width="12.087" height="16.403" viewBox="0 0 12.087 16.403">
  <path id="Path_3935" data-name="Path 3935" d="M6.043,0A5.866,5.866,0,0,0,1.772,1.89a6.743,6.743,0,0,0-.555,8.421s.165.231.192.265L6.043,16.4l4.636-5.831c.024-.031.189-.262.189-.262v0a6.742,6.742,0,0,0-.555-8.419A5.866,5.866,0,0,0,6.043,0Zm0,8.788a2.1,2.1,0,0,1-1.221-.395,2.318,2.318,0,0,1-.809-1.052,2.488,2.488,0,0,1-.125-1.354,2.4,2.4,0,0,1,.6-1.2,2.159,2.159,0,0,1,1.125-.641,2.071,2.071,0,0,1,1.27.133,2.235,2.235,0,0,1,.986.863,2.455,2.455,0,0,1,.37,1.3A2.427,2.427,0,0,1,7.6,8.1,2.133,2.133,0,0,1,6.043,8.788Z" fill="#ffa00a"/>
</svg>
