<svg xmlns="http://www.w3.org/2000/svg" width="7.491" height="10.166" viewBox="0 0 7.491 10.166">
  <path id="Path_3933" data-name="Path 3933" d="M3.745,0A3.636,3.636,0,0,0,1.1,1.171,4.179,4.179,0,0,0,.755,6.39s.1.143.119.164l2.872,3.612L6.619,6.552c.015-.019.117-.162.117-.162h0a4.178,4.178,0,0,0-.344-5.218A3.636,3.636,0,0,0,3.745,0Zm0,5.446A1.3,1.3,0,0,1,2.989,5.2a1.436,1.436,0,0,1-.5-.652A1.542,1.542,0,0,1,2.41,3.71a1.484,1.484,0,0,1,.373-.744,1.338,1.338,0,0,1,.7-.4,1.283,1.283,0,0,1,.787.083,1.385,1.385,0,0,1,.611.535,1.522,1.522,0,0,1,.23.807,1.5,1.5,0,0,1-.4,1.026A1.322,1.322,0,0,1,3.745,5.446Z" fill="#191919"/>
</svg>
