<svg id="tick-circle" xmlns="http://www.w3.org/2000/svg" width="12.241" height="12.241" viewBox="0 0 12.241 12.241">
  <path id="Vector" d="M5.483,10.966a5.483,5.483,0,1,1,5.483-5.483A5.488,5.488,0,0,1,5.483,10.966Zm0-10.2A4.718,4.718,0,1,0,10.2,5.483,4.724,4.724,0,0,0,5.483.765Z" transform="translate(0.638 0.638)" fill="#cecece"/>
  <path id="Vector-2" data-name="Vector" d="M1.825,3.656a.382.382,0,0,1-.27-.112L.111,2.1a.382.382,0,1,1,.541-.541L1.825,2.733,4.446.111a.382.382,0,1,1,.541.541L2.1,3.544A.382.382,0,0,1,1.825,3.656Z" transform="translate(3.572 4.291)" fill="#cecece"/>
  <path id="Vector-3" data-name="Vector" d="M0,0H12.241V12.241H0Z" fill="none" opacity="0"/>
</svg>
