<svg xmlns="http://www.w3.org/2000/svg" width="26.007" height="26.007" viewBox="0 0 26.007 26.007">
  <path id="user" d="M23.944,16.509a12.182,12.182,0,0,0-3.107-1.945,1.016,1.016,0,1,0-.825,1.857A10.16,10.16,0,0,1,22.6,18.036a4.051,4.051,0,0,1,1.372,3.045V22.96a1.017,1.017,0,0,1-1.016,1.016H3.048A1.017,1.017,0,0,1,2.032,22.96V21.08A4.051,4.051,0,0,1,3.4,18.036c1.026-.9,4.017-3,9.6-3a7.526,7.526,0,1,0-4.579-1.56,14.123,14.123,0,0,0-6.361,3.034A6.083,6.083,0,0,0,0,21.08V22.96a3.051,3.051,0,0,0,3.048,3.048H22.959a3.051,3.051,0,0,0,3.048-3.048V21.08a6.083,6.083,0,0,0-2.063-4.571ZM7.518,7.518A5.486,5.486,0,1,1,13,13,5.492,5.492,0,0,1,7.518,7.518Zm0,0" transform="translate(0 0)" fill="#42474f"/>
</svg>
