<svg xmlns="http://www.w3.org/2000/svg" width="30.243" height="23.501" viewBox="0 0 30.243 23.501">
  <g id="Icon_ionic-ios-arrow-round-back" data-name="Icon ionic-ios-arrow-round-back" transform="translate(-20 -60)">
    <g id="spacer" transform="translate(20 60)" fill="rgba(255,255,255,0)" stroke="rgba(0,0,0,0)" stroke-width="1">
      <rect width="30.243" height="23.501" stroke="none"/>
      <rect x="0.5" y="0.5" width="29.243" height="22.501" fill="none"/>
    </g>
    <path id="Icon_ionic-ios-arrow-round-back-2" data-name="Icon ionic-ios-arrow-round-back" d="M15.216,11.51a.919.919,0,0,1,.007,1.294l-4.268,4.282H27.218a.914.914,0,0,1,0,1.828H10.955L15.23,23.2a.925.925,0,0,1-.007,1.294.91.91,0,0,1-1.287-.007L8.142,18.647h0a1.026,1.026,0,0,1-.19-.288.872.872,0,0,1-.07-.352.916.916,0,0,1,.26-.64l5.794-5.836A.9.9,0,0,1,15.216,11.51Z" transform="translate(17.118 53.748)" fill="#ffa00a"/>
  </g>
</svg>
