<svg xmlns="http://www.w3.org/2000/svg" width="35.713" height="39.902" viewBox="0 0 35.713 39.902">
  <g id="Group_14860" data-name="Group 14860" transform="translate(-0.212 -13.786)">
    <path id="Path_3978" data-name="Path 3978" d="M7.181,79.546q2.582-2.183,5.241-4.274a71.927,71.927,0,0,0,6.3-5.347q.338-.334.663-.677l-.686-.542c-4.664,3.51-9.334,7.025-14.278,10.129.085.091.387.533.472.624a23.841,23.841,0,0,0,2.836-1.849c.9-.628,1.818-1.254,2.683-1.923q2.757-2.128,5.649-4.078a24.076,24.076,0,0,1-2.955,2.611c-2.543,2.021-5.187,3.962-7.647,6.086a2.808,2.808,0,0,0,.326.431Q6.485,80.137,7.181,79.546Z" transform="translate(-3.073 -40.1)" fill="#dedaef"/>
    <path id="Path_3979" data-name="Path 3979" d="M2.972,71.878Q5.554,69.7,8.214,67.6a71.931,71.931,0,0,0,6.3-5.347q.338-.334.663-.677l-.686-.542C9.826,64.548,5.156,68.063.212,71.168c.085.091.387.533.472.624A23.816,23.816,0,0,0,3.52,69.943c.9-.628,1.818-1.254,2.683-1.923q2.757-2.128,5.649-4.078A24.077,24.077,0,0,1,8.9,66.553c-2.543,2.021-5.187,3.962-7.647,6.086a2.809,2.809,0,0,0,.326.431Q2.276,72.469,2.972,71.878Z" transform="translate(0 -34.501)" fill="#dedaef"/>
    <path id="Path_3980" data-name="Path 3980" d="M2.972,65.823q2.582-2.183,5.241-4.274a71.933,71.933,0,0,0,6.3-5.347q.338-.335.663-.677l-.686-.542C9.826,58.493,5.156,62.008.212,65.113c.085.091.387.533.472.624A23.847,23.847,0,0,0,3.52,63.888c.9-.628,1.818-1.254,2.683-1.923q2.757-2.128,5.649-4.078A24.078,24.078,0,0,1,8.9,60.5c-2.543,2.021-5.187,3.962-7.647,6.085a2.8,2.8,0,0,0,.326.431Q2.276,66.414,2.972,65.823Z" transform="translate(0 -30.08)" fill="#dedaef"/>
    <path id="Path_3981" data-name="Path 3981" d="M10.8,86.281c.641-.485,4.36-3.4,4.731-3.69,1.64-1.3,3.257-2.621,4.931-3.873-1.617,1.39-3.212,2.8-4.819,4.208-1.509,1.3-3.134,2.481-4.632,3.77l.115.152c.006.008,12.228-9.826,13.351-10.72.208-.157.409-.326.613-.49a.56.56,0,0,0-.249-.108.554.554,0,0,0-.27.023,1.624,1.624,0,0,0-.478.263c-1.469,1.041-2.9,2.072-4.331,3.155l-5.93,4.48-1.9,1.436c-.479.362-1.058.752-1.486,1.151a3.63,3.63,0,0,0,.259.31A1.037,1.037,0,0,0,10.8,86.281Z" transform="translate(-7.476 -45.078)" fill="#dedaef"/>
    <path id="Path_3982" data-name="Path 3982" d="M51.884,158.472a.343.343,0,0,1,.161.032.349.349,0,0,1,.129.1.455.455,0,0,1,.1.329.46.46,0,0,1-.148.3.332.332,0,0,1-.146.082.335.335,0,0,1-.167,0,.951.951,0,0,0,.122-.227.738.738,0,0,0,.036-.375A.992.992,0,0,0,51.884,158.472Z" transform="translate(-37.675 -105.642)" fill="#dedaef"/>
    <path id="Path_3983" data-name="Path 3983" d="M39.566,142.757a.468.468,0,0,1,.244-.08.453.453,0,0,1,.257.067.392.392,0,0,1,.176.233.242.242,0,0,1-.077.269.394.394,0,0,0-.132-.16c-.043-.034-.084-.061-.121-.086l-.153-.093A.939.939,0,0,1,39.566,142.757Z" transform="translate(-28.735 -94.109)" fill="#dedaef"/>
    <path id="Path_3984" data-name="Path 3984" d="M51.283,19.941c-9.1,3.216-8.628,3.856-14.207,11.44l-1.652,1.248A16.443,16.443,0,0,0,40.991,40l1.627-1.28c11.1-3.532,10.123-4.3,14.937-10.475L58,25.955l-4.57-6.049Z" transform="translate(-25.711 -4.469)" fill="#cf1818"/>
    <g id="Group_14782" data-name="Group 14782" transform="translate(9.715 19.834)" opacity="0.31">
      <path id="Path_3985" data-name="Path 3985" d="M56.9,36.252A22.371,22.371,0,0,1,53.717,42.5a13.167,13.167,0,0,1-2.06,2.386,8.425,8.425,0,0,1-3.843,1.879c-1.111.226-2.711.425-3.574-.541a1.813,1.813,0,0,1-.367-1.324c.027-.469.146-.928.172-1.4a3.646,3.646,0,0,0-2.018-3.4,2.7,2.7,0,0,0-2.953.508,6.84,6.84,0,0,0-1.09,1.325,5.855,5.855,0,0,1-.9,1.348L35.43,44.53A16.443,16.443,0,0,0,41,51.9l1.627-1.28c11.1-3.532,10.123-4.3,14.936-10.475L58,37.852a10.791,10.791,0,0,1-.652-1.022c-.045-.074-.443-.631-.444-.63Z" transform="translate(-35.43 -36.2)" fill="#0083c9"/>
    </g>
    <path id="Path_3986" data-name="Path 3986" d="M37.075,62.43l-1.652,1.248a16.443,16.443,0,0,0,5.566,7.369l1.627-1.28A15.3,15.3,0,0,1,37.075,62.43Z" transform="translate(-25.71 -35.518)" fill="#cf1818"/>
    <path id="Path_3987" data-name="Path 3987" d="M104.461,14.212C101.779,12.853,94.193,15.5,94.193,15.5a22.348,22.348,0,0,0,6.271,8.3S105.163,17.067,104.461,14.212Z" transform="translate(-68.621 -0.028)" fill="#c9c9c0"/>
    <path id="Path_3988" data-name="Path 3988" d="M98.274,22.737A24.032,24.032,0,0,1,95.62,18.5a13.273,13.273,0,0,0-1.376.433,22.348,22.348,0,0,0,6.271,8.3,14.652,14.652,0,0,1,.841-1.2,8.843,8.843,0,0,1-2.11-2.046C98.917,23.565,98.59,23.153,98.274,22.737Z" transform="translate(-68.658 -3.439)" fill="#cf1818"/>
    <g id="Group_14783" data-name="Group 14783" transform="translate(30.235 13.786)" opacity="0.31">
      <path id="Path_3989" data-name="Path 3989" d="M117.09,14.2a3.253,3.253,0,0,0-.8-.268,5.22,5.22,0,0,0-2.351-.022,4.435,4.435,0,0,1,1.42.411l-1.989,4.085c-.334.683-.651,1.378-.977,2.063-.166.35-.334.7-.507,1.051-.064.132-.484.776-.4.869a13.043,13.043,0,0,0,.989.879c.043.037.626.5.617.524C113.095,23.787,117.792,17.057,117.09,14.2Z" transform="translate(-111.472 -13.786)" fill="#bfbfbf"/>
    </g>
    <path id="Path_3990" data-name="Path 3990" d="M74.508,44.126A3.785,3.785,0,0,0,78.8,40.884a3.85,3.85,0,0,0-3.265-4.322A3.785,3.785,0,0,0,71.242,39.8,3.85,3.85,0,0,0,74.508,44.126Z" transform="translate(-51.837 -16.601)" fill="#cf1818"/>
    <path id="Path_3991" data-name="Path 3991" d="M76.07,45.35a2.877,2.877,0,0,0,3.949-1.037,2.912,2.912,0,0,0-1.061-3.964,2.877,2.877,0,0,0-3.949,1.037A2.912,2.912,0,0,0,76.07,45.35Z" transform="translate(-54.331 -19.105)" fill="#9acccd"/>
    <path id="Path_3992" data-name="Path 3992" d="M80.226,46.32h.1a2.223,2.223,0,0,1,.188.538,3.052,3.052,0,0,1,.041.435c0,.031-1.182.026-1.293.03-1.418-.021-2.847.008-4.264-.046a2.1,2.1,0,0,1,.151-.8.094.094,0,0,1,.1-.074c.61-.073,1.259-.056,1.878-.075C78.163,46.29,79.192,46.305,80.226,46.32Z" transform="translate(-54.608 -23.744)" fill="#fff" opacity="0.47"/>
    <path id="Path_3993" data-name="Path 3993" d="M80.574,52.345a3.84,3.84,0,0,1-.1.473.031.031,0,0,1-.007.018.04.04,0,0,1-.037.011c-.8-.037-1.606-.026-2.409-.044-.92-.021-1.84-.047-2.758-.1a1.214,1.214,0,0,1-.111-.4c0-.014,1.293.017,1.405.019C76.91,52.337,80.572,52.379,80.574,52.345Z" transform="translate(-54.721 -28.124)" fill="#fff" opacity="0.47"/>
    <path id="Path_3994" data-name="Path 3994" d="M81.691,56.235A2.5,2.5,0,0,1,78.935,57.3a2.987,2.987,0,0,1-1.612-.995c.92,0,1.836.006,2.755-.018Q80.885,56.265,81.691,56.235Z" transform="translate(-56.303 -30.994)" fill="#fff" opacity="0.47"/>
    <path id="Path_3995" data-name="Path 3995" d="M81.816,40.973a2.908,2.908,0,0,0-1.794-.578,3.429,3.429,0,0,0-1,.225,3.078,3.078,0,0,0-.493.261c-.085.055-.31.3-.4.3a30.991,30.991,0,0,1,3.832-.1C81.915,41.044,81.865,41.008,81.816,40.973Z" transform="translate(-56.893 -19.424)" fill="#fff" opacity="0.47"/>
    <path id="Path_3996" data-name="Path 3996" d="M30.494,41.52l-3.055,4.065a4.123,4.123,0,0,0-2.766.28,4.271,4.271,0,0,1-2.909.058l-.751-.247a.739.739,0,0,1-.439-1.009.728.728,0,0,1,.266-.307l4.525-2.923a2.154,2.154,0,0,1,1.411-.332Z" transform="translate(-14.819 -19.938)" fill="#c9c9c0"/>
    <path id="Path_3997" data-name="Path 3997" d="M29.8,45.823c-.254.067-.54.658-.687.852q-.391.523-.785,1.044l-.9,1.2a4.124,4.124,0,0,0-2.766.28,4.271,4.271,0,0,1-2.909.058L21,49.011c-.233-.077-.656-.441-.457-.717-.056.078.887.157.962.148a2.686,2.686,0,0,0,.959-.368,25.354,25.354,0,0,0,2.428-1.441,5.252,5.252,0,0,1,2.379-.964C28.115,45.6,28.986,46.039,29.8,45.823Z" transform="translate(-14.808 -23.274)" fill="#bfbfbf" opacity="0.49"/>
    <path id="Path_3998" data-name="Path 3998" d="M68.417,80.4l-4.809,1.751a4.1,4.1,0,0,1-.915,2.726,4.366,4.366,0,0,0-.724,2.948l.079.851a.812.812,0,0,0,1.291.617l3.991-3.632a2.1,2.1,0,0,0,.656-1.329Z" transform="translate(-45.072 -48.641)" fill="#c9c9c0"/>
    <path id="Path_3999" data-name="Path 3999" d="M66.754,82.718c-1.045.383-2.1.745-3.145,1.127a4.1,4.1,0,0,1-.915,2.726,4.366,4.366,0,0,0-.724,2.947l.079.851a.873.873,0,0,0,.5.728c.413.165.26-.37.313-.615a3.762,3.762,0,0,1,1.069-1.754,8.711,8.711,0,0,0,1.784-2.052,5.717,5.717,0,0,0,.37-1.073Q66.469,84.17,66.754,82.718Z" transform="translate(-45.072 -50.331)" fill="#bfbfbf" opacity="0.49"/>
    <path id="Path_4000" data-name="Path 4000" d="M46.156,62.023a27.42,27.42,0,0,0-6.863,3.909c-.786.562-2.181,1.985-1.615,2.734.716.947,2.317-.2,3.042-.845a26.825,26.825,0,0,0,5.6-5.579.141.141,0,0,0,.032-.087.143.143,0,0,0-.107-.14A.141.141,0,0,0,46.156,62.023Z" transform="translate(-27.26 -35.211)" fill="#c9c9c0"/>
    <path id="Path_4001" data-name="Path 4001" d="M46.638,62.355c-.006-.045-.019-.118-.03-.106A20.533,20.533,0,0,1,44.843,63.7c-1.442,1.124-2.889,2.245-4.348,3.349a19.144,19.144,0,0,1-2.528,1.779c.854,1.058,2.34-.274,3.066-.823a29.733,29.733,0,0,0,3.321-2.9q.675-.7,1.306-1.439c.192-.228.382-.459.563-.7.107-.14.222-.281.317-.429.032-.05.095-.089.1-.151Z" transform="translate(-27.567 -35.385)" fill="#bfbfbf" opacity="0.49"/>
  </g>
</svg>
