<svg xmlns="http://www.w3.org/2000/svg" width="35.838" height="27.429" viewBox="0 0 35.838 27.429">
  <path id="Union_2" data-name="Union 2" d="M1586.007-4604.572H1564v-1.072a.642.642,0,0,1,.643-.642h1.071v-24.43A1.287,1.287,0,0,1,1567-4632h18a1.286,1.286,0,0,1,1.286,1.286v24.43H1587v-13.352a.74.74,0,0,1,.74-.741h10.374a.74.74,0,0,1,.74.741v14.079h.617a.37.37,0,0,1,.371.37v.617Zm5.927-3.582v2.595h1.976v-2.595a.37.37,0,0,0-.371-.37h-1.234A.37.37,0,0,0,1591.935-4608.153Zm-17.649-2.632v4.5h3.428v-4.5a.643.643,0,0,0-.643-.644h-2.142A.644.644,0,0,0,1574.286-4610.785Zm19.625-1.319v1.234a.37.37,0,0,0,.37.371h1.236a.37.37,0,0,0,.37-.371v-1.234a.369.369,0,0,0-.37-.37h-1.236A.369.369,0,0,0,1593.911-4612.1Zm-3.952,0v1.234a.371.371,0,0,0,.371.371h1.234a.371.371,0,0,0,.371-.371v-1.234a.37.37,0,0,0-.371-.37h-1.234A.37.37,0,0,0,1589.958-4612.1Zm3.952-2.964v1.236a.37.37,0,0,0,.37.371h1.236a.37.37,0,0,0,.37-.371v-1.236a.369.369,0,0,0-.37-.37h-1.236A.369.369,0,0,0,1593.911-4615.069Zm-3.952,0v1.236a.371.371,0,0,0,.371.371h1.234a.371.371,0,0,0,.371-.371v-1.236a.37.37,0,0,0-.371-.37h-1.234A.37.37,0,0,0,1589.958-4615.069Zm-12.244-2.574v2.143a.643.643,0,0,0,.643.643h2.144a.643.643,0,0,0,.643-.643v-2.143a.643.643,0,0,0-.643-.643h-2.144A.643.643,0,0,0,1577.714-4617.643Zm-6.856,0v2.143a.642.642,0,0,0,.643.643h2.142a.643.643,0,0,0,.643-.643v-2.143a.643.643,0,0,0-.643-.643H1571.5A.642.642,0,0,0,1570.858-4617.643Zm23.053-.39v1.236a.369.369,0,0,0,.37.37h1.236a.369.369,0,0,0,.37-.37v-1.236a.37.37,0,0,0-.37-.371h-1.236A.37.37,0,0,0,1593.911-4618.032Zm-3.952,0v1.236a.37.37,0,0,0,.371.37h1.234a.37.37,0,0,0,.371-.37v-1.236a.371.371,0,0,0-.371-.371h-1.234A.371.371,0,0,0,1589.958-4618.032Zm-12.244-4.753v2.143a.643.643,0,0,0,.643.643h2.144a.643.643,0,0,0,.643-.643v-2.143a.643.643,0,0,0-.643-.643h-2.144A.643.643,0,0,0,1577.714-4622.786Zm-6.856,0v2.143a.642.642,0,0,0,.643.643h2.142a.643.643,0,0,0,.643-.643v-2.143a.643.643,0,0,0-.643-.643H1571.5A.642.642,0,0,0,1570.858-4622.786Zm6.856-5.143v2.143a.643.643,0,0,0,.643.643h2.144a.643.643,0,0,0,.643-.643v-2.143a.643.643,0,0,0-.643-.643h-2.144A.643.643,0,0,0,1577.714-4627.928Zm-6.856,0v2.143a.643.643,0,0,0,.643.643h2.142a.643.643,0,0,0,.643-.643v-2.143a.643.643,0,0,0-.643-.643H1571.5A.642.642,0,0,0,1570.858-4627.928Z" transform="translate(-1564 4632)" fill="#fff"/>
</svg>
