<svg xmlns="http://www.w3.org/2000/svg" width="331.013" height="206.043" viewBox="0 0 331.013 206.043">
  <g id="Group_14913" data-name="Group 14913" transform="translate(0 0.922)">
    <path id="Path_4478" data-name="Path 4478" d="M329,192.532a12.681,12.681,0,0,1-12.589,12.589H12.589A12.681,12.681,0,0,1,0,192.532V12.589A12.681,12.681,0,0,1,12.589,0H316.411A12.681,12.681,0,0,1,329,12.589Z" fill="#191919" fill-rule="evenodd"/>
    <g id="Group_14912" data-name="Group 14912" opacity="0.26">
      <g id="Group_14909" data-name="Group 14909" opacity="0.29">
        <path id="Path_4479" data-name="Path 4479" d="M328.383,191.768a2,2,0,0,1-2.032-1.964,2.05,2.05,0,0,1,1.229-1.978,2.033,2.033,0,0,1,.8-.171,2.151,2.151,0,0,1,2.072,2.15,2.068,2.068,0,0,1-2.071,1.963Z" fill="#faba52"/>
      </g>
      <g id="Group_14910" data-name="Group 14910" opacity="0.29">
        <path id="Path_4480" data-name="Path 4480" d="M328.379,166.292c1.151.589,1.39,1.029,1.114,1.692s-.848.808-1.967.365C327.8,167.666,328.1,167.038,328.379,166.292Z" fill="#faba52"/>
      </g>
      <g id="Group_14911" data-name="Group 14911" opacity="0.29">
        <path id="Path_4481" data-name="Path 4481" d="M317.383,199.656c.859.234,1.17.678,1.075,1.323a1.329,1.329,0,0,1-1.338,1.1C316.739,201.218,317.2,200.495,317.383,199.656Z" fill="#faba52"/>
      </g>
      <path id="Path_4482" data-name="Path 4482" d="M209.919,104.91a4.969,4.969,0,0,0-.321-.728,5,5,0,0,1-.164-5.807,4.414,4.414,0,0,0,.258-.557l.718-.606a5.221,5.221,0,0,1,5.628-.615l.283-.061a5.649,5.649,0,0,1,.164-5.479l-1.085.378a5,5,0,1,1-3.077-9.483,5.034,5.034,0,0,1,6.388,3.549,4.808,4.808,0,0,1-.124,2.7c-.093.327-.221.631-.343.965a15.521,15.521,0,0,1,2.492-.54,14.721,14.721,0,0,1,2.5.237c-.426-2.916-.426-2.916.384-4.984-.378.143-.673.248-.95.339a5,5,0,1,1-3.077-9.483,4.761,4.761,0,0,1,5.033,1.222,4.829,4.829,0,0,1,1.223,5.035c-.1.317-.211.629-.374,1.1a6,6,0,0,1,5.381-.143,9.96,9.96,0,0,1-.283-1.31,5.14,5.14,0,0,1,7.722-5.4c.267.147.529.315.788.474l.511.514a5.818,5.818,0,0,1,1.1,3.854c-.085.6-.254,1.191-.421,1.933a5.641,5.641,0,0,1,5.309.18c-.939-3.531-.3-5.666,1.991-6.959a5,5,0,0,1,6.736,6.911c-1.327,2.232-3.486,2.8-6.844,1.892a5.877,5.877,0,0,1,.275,4.954,14.549,14.549,0,0,1,2.525-.291,14.891,14.891,0,0,1,2.571.579,5.224,5.224,0,0,1,.028-4.876,4.915,4.915,0,0,1,2.3-2.135,5,5,0,0,1,6.261,7.269c-1.392,2.123-3.513,2.674-6.8,1.687a5.771,5.771,0,0,1,.175,5.2,17.006,17.006,0,0,1,2.953-.21,5.07,5.07,0,0,1,3.655,7.8c-.222.345-.389.708-.587,1.068l.048-.01a3.886,3.886,0,0,0-.649.263,5.11,5.11,0,0,1-5.267.578.786.786,0,0,0-.2-.059l-.176.038a5.706,5.706,0,0,1-.271,5.594,5.285,5.285,0,0,1,4.9-.3,4.881,4.881,0,0,1,2.279,2.156,5,5,0,0,1-6.907,6.612,4.847,4.847,0,0,1-2.271-3.069,5.7,5.7,0,0,1,.548-3.986,5.8,5.8,0,0,1-5.477.317,5.994,5.994,0,0,1-.414,5.553,5.413,5.413,0,0,1,4.547-.5A4.94,4.94,0,1,1,247.3,127.2a4.878,4.878,0,0,1-2.266-3.142,5.56,5.56,0,0,1,.565-3.816c-2.982,1.066-3.173.892-5.714.123.121.321.231.594.322.871a5.09,5.09,0,0,1-7.624,5.9l-.941-.615-.015-.068c-.117-.21-.205-.426-.34-.622a5,5,0,0,1-.4-5.184l.149-.349a14.8,14.8,0,0,1-2.855.516,15.891,15.891,0,0,1-2.889-.582,5.132,5.132,0,0,1,.183,4.575,4.939,4.939,0,1,1-8.771-4.5,4.81,4.81,0,0,1,3.071-2.261,5.724,5.724,0,0,1,4,.638,5.669,5.669,0,0,1-.331-5.494,6,6,0,0,1-5.4-.346c1.123,3.3.547,5.55-1.661,6.929a5,5,0,0,1-6.893-6.693c1.337-2.284,3.581-2.883,6.975-1.807a5.68,5.68,0,0,1-.1-5.585l-.958.3a5.122,5.122,0,0,1-4.622-.646,7.876,7.876,0,0,0-.888-.463Zm27.649,8.94a6.884,6.884,0,0,1-4.176.086,18.839,18.839,0,0,1-.02,2.316,18.3,18.3,0,0,1-.611,2.281,5.647,5.647,0,0,1,5.317-.016,5.914,5.914,0,0,1-.51-4.667Zm-19.222-10.233a6.215,6.215,0,0,1,4.127-.362l0-4a15.014,15.014,0,0,1-2.052-.026,18.22,18.22,0,0,1-2.166-.554,5.937,5.937,0,0,1,.088,4.943Zm29.636-.168a6.089,6.089,0,0,1,4.372.342,15.441,15.441,0,0,1-.439-2.452,16.185,16.185,0,0,1,.341-2.489,6.282,6.282,0,0,1-4.254.3,6.417,6.417,0,0,1,.01,4.3ZM237.474,88.331a6.1,6.1,0,0,1,.453-4.191,6,6,0,0,1-4.86.142,6.475,6.475,0,0,1,.377,4.011ZM244.9,110.85a6.556,6.556,0,0,1-.221-4.045c-.707.091-1.295.209-1.9.248s-1.186,0-1.677,0c-.065,1.211-.13,2.371-.249,3.574a6.914,6.914,0,0,1,4.071.182Zm-15.164-3.878-3.671-.177a6.646,6.646,0,0,1-.285,3.929,16.529,16.529,0,0,1,2.1-.4,12.93,12.93,0,0,1,1.865.108c-.012-1.236,0-2.383-.012-3.456Zm.055-15.145a6.11,6.11,0,0,1-3.877-.184,6.438,6.438,0,0,1,.3,3.783l3.344-.008c.091-1.186.159-2.286.235-3.591Zm15.31-.175a6.482,6.482,0,0,1-3.927.39c.059,1.215.11,2.35.156,3.363l3.427.281a6.15,6.15,0,0,1,.305-4.026Zm-8.3,11.118c-.006-1.022,0-1.965.005-2.907h-2.926c.006,1.021.008,1.973.007,2.914Z" fill="#faba52"/>
      <path id="Path_4483" data-name="Path 4483" d="M239.466,76.225l-.51-.514-.512-.994a4.977,4.977,0,1,1,4.19,2.53,10.476,10.476,0,0,1-2.251-.617,6.438,6.438,0,0,1-.917-.405Z" fill="#faba52"/>
      <path id="Path_4484" data-name="Path 4484" d="M228.285,77.132a4.873,4.873,0,1,1,1.863-.383,4.874,4.874,0,0,1-1.863.383Z" fill="#faba52"/>
      <path id="Path_4485" data-name="Path 4485" d="M210.411,97.211l-.718.606a6.452,6.452,0,0,1-3.186.976,4.814,4.814,0,1,1,4.342-2.537Z" fill="#faba52"/>
      <path id="Path_4486" data-name="Path 4486" d="M259.492,94.09a4.884,4.884,0,0,1,6.662-4.557,4.852,4.852,0,0,1,3.078,4.5,4.91,4.91,0,0,1-4.85,4.867,4.852,4.852,0,0,1-4.89-4.814Z" fill="#faba52"/>
      <path id="Path_4487" data-name="Path 4487" d="M260.773,105.058l-.049.01a4.892,4.892,0,1,1-1.3,3.1,4.815,4.815,0,0,1,.479-1.876A11.023,11.023,0,0,1,260.773,105.058Z" fill="#faba52"/>
      <path id="Path_4488" data-name="Path 4488" d="M209.919,104.91a4.983,4.983,0,1,1-.891-.667C209.327,104.445,209.62,104.709,209.919,104.91Z" fill="#faba52"/>
      <path id="Path_4489" data-name="Path 4489" d="M231.554,126.469l.015.068c.243.367.506.73.731,1.11a4.8,4.8,0,1,1-1.576-1.7Z" fill="#faba52"/>
      <path id="Path_4490" data-name="Path 4490" d="M242.59,125.316a4.821,4.821,0,1,1-.992,9.544,4.82,4.82,0,0,1,.982-9.541Z" fill="#faba52"/>
      <path id="Path_4491" data-name="Path 4491" d="M230.809,65.167a34.309,34.309,0,1,0,.01.049Z" fill="#faba52"/>
      <path id="Path_4492" data-name="Path 4492" d="M206.578,84.147a4.658,4.658,0,0,1-4.255-6.448,4.639,4.639,0,0,1,4.307-2.854,4.651,4.651,0,1,1-.052,9.3Z" fill="#faba52"/>
      <path id="Path_4493" data-name="Path 4493" d="M259.7,79.607a4.65,4.65,0,1,1,9.212.916,4.65,4.65,0,0,1-9.212-.916Z" fill="#faba52"/>
      <path id="Path_4494" data-name="Path 4494" d="M252.486,72.371a4.58,4.58,0,0,1,4.647-4.619,4.648,4.648,0,0,1,4.65,4.651,4.71,4.71,0,0,1-4.686,4.627,4.65,4.65,0,0,1-4.611-4.66Z" fill="#faba52"/>
      <path id="Path_4495" data-name="Path 4495" d="M213.793,76.926a4.581,4.581,0,0,1-4.613-4.669,4.649,4.649,0,0,1,4.665-4.633,4.7,4.7,0,0,1,4.639,4.694,4.64,4.64,0,0,1-4.691,4.607Z" fill="#faba52"/>
      <path id="Path_4496" data-name="Path 4496" d="M271.5,96.625a4.648,4.648,0,0,1,3.2,7.952,4.639,4.639,0,0,1-3.29,1.339,4.711,4.711,0,0,1-4.612-4.71,4.661,4.661,0,0,1,4.707-4.581Z" fill="#faba52"/>
      <path id="Path_4497" data-name="Path 4497" d="M203.9,101.2a4.629,4.629,0,0,1-9.257-.031,4.7,4.7,0,0,1,4.651-4.65A4.632,4.632,0,0,1,203.9,101.2Z" fill="#faba52"/>
      <path id="Path_4498" data-name="Path 4498" d="M211.1,122.805a4.614,4.614,0,0,1-9.227.013,4.669,4.669,0,0,1,4.665-4.632,4.609,4.609,0,0,1,4.562,4.619Z" fill="#faba52"/>
      <path id="Path_4499" data-name="Path 4499" d="M264.256,118.3a4.617,4.617,0,1,1-1.849.272,4.615,4.615,0,0,1,1.849-.272Z" fill="#faba52"/>
      <path id="Path_4500" data-name="Path 4500" d="M218.321,130a4.58,4.58,0,0,1-4.623,4.634A4.611,4.611,0,1,1,218.321,130Z" fill="#faba52"/>
      <path id="Path_4501" data-name="Path 4501" d="M257.041,125.522a4.612,4.612,0,1,1-1.78.328A4.605,4.605,0,0,1,257.041,125.522Z" fill="#faba52"/>
      <path id="Path_4502" data-name="Path 4502" d="M239.965,137.385a4.61,4.61,0,1,1-1.31-3.247A4.592,4.592,0,0,1,239.965,137.385Z" fill="#faba52"/>
      <path id="Path_4503" data-name="Path 4503" d="M254.461,65.15a4.593,4.593,0,1,1-1.383-3.232,4.591,4.591,0,0,1,1.383,3.232Z" fill="#faba52"/>
      <path id="Path_4504" data-name="Path 4504" d="M221.043,60.519a4.57,4.57,0,1,1-3.055,1.409,4.532,4.532,0,0,1,3.055-1.409Z" fill="#faba52"/>
      <path id="Path_4505" data-name="Path 4505" d="M276.091,86.78a4.53,4.53,0,1,1-1.325-3.2,4.551,4.551,0,0,1,1.325,3.2Z" fill="#faba52"/>
      <path id="Path_4506" data-name="Path 4506" d="M199.329,82.188a4.5,4.5,0,0,1,4.6,4.54,4.55,4.55,0,1,1-4.6-4.54Z" fill="#faba52"/>
      <path id="Path_4507" data-name="Path 4507" d="M199.247,111.049a4.519,4.519,0,0,1,4.551,4.478,4.6,4.6,0,0,1-4.583,4.584,4.529,4.529,0,0,1-4.468-4.567,4.46,4.46,0,0,1,4.5-4.495Z" fill="#faba52"/>
      <path id="Path_4508" data-name="Path 4508" d="M271.451,120.2a4.477,4.477,0,0,1-4.514-4.5,4.537,4.537,0,0,1,4.578-4.562,4.609,4.609,0,0,1,4.46,4.579,4.538,4.538,0,0,1-4.524,4.479Z" fill="#faba52"/>
      <path id="Path_4509" data-name="Path 4509" d="M220.911,132.744a4.521,4.521,0,0,1,4.559,4.466,4.581,4.581,0,0,1-4.495,4.566,4.548,4.548,0,0,1-4.213-6.232,4.469,4.469,0,0,1,4.149-2.8Z" fill="#faba52"/>
      <path id="Path_4510" data-name="Path 4510" d="M249.773,141.85a4.519,4.519,0,1,1,2.523-.737A4.493,4.493,0,0,1,249.773,141.85Z" fill="#faba52"/>
      <path id="Path_4511" data-name="Path 4511" d="M238.3,57.928a4.36,4.36,0,0,1,4.392-4.379,4.41,4.41,0,1,1-4.392,4.379Z" fill="#faba52"/>
      <path id="Path_4512" data-name="Path 4512" d="M223.854,57.812a4.383,4.383,0,1,1,.313,1.681,4.412,4.412,0,0,1-.313-1.681Z" fill="#faba52"/>
      <path id="Path_4513" data-name="Path 4513" d="M283.124,94.025a4.309,4.309,0,0,1-4.365,4.363,4.36,4.36,0,1,1,4.365-4.363Z" fill="#faba52"/>
      <path id="Path_4514" data-name="Path 4514" d="M192.193,89.586a4.327,4.327,0,1,1-1.686.314A4.358,4.358,0,0,1,192.193,89.586Z" fill="#faba52"/>
      <path id="Path_4515" data-name="Path 4515" d="M192.051,104.044a4.288,4.288,0,1,1-1.653.319,4.293,4.293,0,0,1,1.653-.319Z" fill="#faba52"/>
      <path id="Path_4516" data-name="Path 4516" d="M278.691,112.81a4.3,4.3,0,0,1-4.356-4.377,4.35,4.35,0,1,1,4.356,4.377Z" fill="#faba52"/>
      <path id="Path_4517" data-name="Path 4517" d="M242.565,148.865a4.258,4.258,0,0,1-4.282-4.321,4.34,4.34,0,0,1,4.334-4.315,4.388,4.388,0,0,1,4.312,4.366,4.319,4.319,0,0,1-4.364,4.27Z" fill="#faba52"/>
      <path id="Path_4518" data-name="Path 4518" d="M223.873,144.432a4.268,4.268,0,0,1,4.331-4.284,4.34,4.34,0,0,1,4.315,4.335,4.39,4.39,0,0,1-4.388,4.306,4.33,4.33,0,0,1-4.258-4.357Z" fill="#faba52"/>
      <path id="Path_4519" data-name="Path 4519" d="M268.635,65.159a4.321,4.321,0,1,1-1.28-3.048,4.329,4.329,0,0,1,1.28,3.048Z" fill="#faba52"/>
      <path id="Path_4520" data-name="Path 4520" d="M203.67,72.233a4.3,4.3,0,1,1-1.284-2.959,4.3,4.3,0,0,1,1.284,2.959Z" fill="#faba52"/>
      <path id="Path_4521" data-name="Path 4521" d="M206.563,60.791a4.289,4.289,0,0,1,.078,8.578A4.339,4.339,0,0,1,202.3,65.06a4.29,4.29,0,0,1,4.263-4.269Z" fill="#faba52"/>
      <path id="Path_4522" data-name="Path 4522" d="M275.806,72.425a4.29,4.29,0,1,1-.291-1.668,4.308,4.308,0,0,1,.291,1.668Z" fill="#faba52"/>
      <path id="Path_4523" data-name="Path 4523" d="M268.47,137.33a4.232,4.232,0,0,1-4.2,4.255,4.292,4.292,0,0,1-4.244-4.289,4.241,4.241,0,0,1,4.207-4.2,4.193,4.193,0,0,1,4.232,4.23Z" fill="#faba52"/>
      <path id="Path_4524" data-name="Path 4524" d="M206.5,141.472a4.24,4.24,0,0,1-4.257-4.255,4.29,4.29,0,0,1,4.314-4.22,4.233,4.233,0,0,1,4.177,4.212,4.182,4.182,0,0,1-4.234,4.263Z" fill="#faba52"/>
      <path id="Path_4525" data-name="Path 4525" d="M203.515,129.995a4.17,4.17,0,0,1-4.195,4.254,4.229,4.229,0,0,1-4.257-4.255,4.278,4.278,0,0,1,4.2-4.225,4.222,4.222,0,0,1,4.251,4.226Z" fill="#faba52"/>
      <path id="Path_4526" data-name="Path 4526" d="M275.69,130.087a4.2,4.2,0,1,1-1.257-3,4.2,4.2,0,0,1,1.257,3Z" fill="#faba52"/>
      <path id="Path_4527" data-name="Path 4527" d="M213.8,62.056A4.16,4.16,0,0,1,209.61,57.9a4.24,4.24,0,0,1,4.19-4.274,4.29,4.29,0,0,1,4.216,4.2,4.22,4.22,0,0,1-4.211,4.227Z" fill="#faba52"/>
      <path id="Path_4528" data-name="Path 4528" d="M252.921,57.942a4.149,4.149,0,0,1,4.207-4.2,4.222,4.222,0,0,1,4.264,4.192,4.29,4.29,0,0,1-4.2,4.225,4.218,4.218,0,0,1-4.27-4.222Z" fill="#faba52"/>
      <path id="Path_4529" data-name="Path 4529" d="M192.188,83.7a4.172,4.172,0,0,1-4.213-4.142,4.221,4.221,0,0,1,4.195-4.254,4.2,4.2,0,1,1-.012,8.4Z" fill="#faba52"/>
      <path id="Path_4530" data-name="Path 4530" d="M274.582,79.627a4.15,4.15,0,0,1,4.133-4.21,4.2,4.2,0,0,1,4.264,4.192A4.261,4.261,0,0,1,278.77,83.8a4.21,4.21,0,0,1-4.188-4.168Z" fill="#faba52"/>
      <path id="Path_4531" data-name="Path 4531" d="M196.244,122.79a4.168,4.168,0,1,1-1.255-2.887A4.177,4.177,0,0,1,196.244,122.79Z" fill="#faba52"/>
      <path id="Path_4532" data-name="Path 4532" d="M282.848,122.888a4.165,4.165,0,1,1-.313-1.618,4.162,4.162,0,0,1,.313,1.618Z" fill="#faba52"/>
      <path id="Path_4533" data-name="Path 4533" d="M239.607,50.706a4.11,4.11,0,0,1-4.209,4.186,4.158,4.158,0,1,1,4.209-4.186Z" fill="#faba52"/>
      <path id="Path_4534" data-name="Path 4534" d="M257.031,148.668a4.091,4.091,0,0,1-4.157-4.215,4.151,4.151,0,1,1,4.157,4.215Z" fill="#faba52"/>
      <path id="Path_4535" data-name="Path 4535" d="M209.563,144.5a4.154,4.154,0,1,1,1.241,2.925,4.154,4.154,0,0,1-1.241-2.925Z" fill="#faba52"/>
      <path id="Path_4536" data-name="Path 4536" d="M285.935,105.347a4.052,4.052,0,0,1-4.137-4.077,4.1,4.1,0,0,1,4.1-4.141,4.18,4.18,0,0,1,4.121,4.049,4.131,4.131,0,0,1-4.08,4.169Z" fill="#faba52"/>
      <path id="Path_4537" data-name="Path 4537" d="M184.841,97.072a4.111,4.111,0,0,1,4.134,4.108,4.182,4.182,0,0,1-4.166,4.105,4.11,4.11,0,0,1-4.066-4.082,4.06,4.06,0,0,1,4.1-4.131Z" fill="#faba52"/>
      <path id="Path_4538" data-name="Path 4538" d="M235.4,147.705a4.07,4.07,0,1,1-2.876,1.17,4.075,4.075,0,0,1,2.876-1.17Z" fill="#faba52"/>
      <path id="Path_4539" data-name="Path 4539" d="M225.1,50.6a4.06,4.06,0,0,1-4.024,4.095,4,4,0,0,1-4.083-4.017A4.054,4.054,0,0,1,225.1,50.6Z" fill="#faba52"/>
      <path id="Path_4540" data-name="Path 4540" d="M253.963,50.707a4.051,4.051,0,0,1-8.1.107,4.051,4.051,0,1,1,8.1-.107Z" fill="#faba52"/>
      <path id="Path_4541" data-name="Path 4541" d="M184.906,90.755a4.025,4.025,0,0,1,.077-8.049,4.07,4.07,0,0,1,4.045,4.076,4,4,0,0,1-4.122,3.973Z" fill="#faba52"/>
      <path id="Path_4542" data-name="Path 4542" d="M286.033,82.8a4,4,0,0,1,3.958,4.105,4.069,4.069,0,0,1-4.046,3.946,4.026,4.026,0,0,1,.088-8.051Z" fill="#faba52"/>
      <path id="Path_4543" data-name="Path 4543" d="M285.874,111.725a4.026,4.026,0,1,1,.055,8.051,4.09,4.09,0,0,1-4.082-4.109,4,4,0,0,1,4.027-3.942Z" fill="#faba52"/>
      <path id="Path_4544" data-name="Path 4544" d="M188.844,115.645a4.025,4.025,0,0,1-8.05-.037,4.091,4.091,0,0,1,4.1-4.029,4,4,0,0,1,3.95,4.066Z" fill="#faba52"/>
      <path id="Path_4545" data-name="Path 4545" d="M224.924,151.693a4,4,0,1,1-1.16-2.817A4,4,0,0,1,224.924,151.693Z" fill="#faba52"/>
      <path id="Path_4546" data-name="Path 4546" d="M253.794,151.814a4,4,0,0,1-4.027,3.942,4.051,4.051,0,0,1-3.948-4.056,4,4,0,0,1,7.988.08Z" fill="#faba52"/>
      <path id="Path_4547" data-name="Path 4547" d="M271.467,61.844a3.911,3.911,0,0,1-3.908-3.87,4,4,0,0,1,3.959-3.927,3.911,3.911,0,0,1,3.835,4.009,3.85,3.85,0,0,1-3.886,3.789Z" fill="#faba52"/>
      <path id="Path_4548" data-name="Path 4548" d="M203.265,57.893A3.9,3.9,0,0,1,199.4,61.8a4,4,0,0,1-3.925-3.949,3.9,3.9,0,0,1,4-3.843,3.851,3.851,0,0,1,3.789,3.886Z" fill="#faba52"/>
      <path id="Path_4549" data-name="Path 4549" d="M196.051,65.073a3.9,3.9,0,0,1-3.929,3.921,4,4,0,0,1-3.855-3.912,3.91,3.91,0,0,1,3.948-3.925,3.859,3.859,0,0,1,3.836,3.917Z" fill="#faba52"/>
      <path id="Path_4550" data-name="Path 4550" d="M282.649,65.193a3.849,3.849,0,0,1-3.841,3.9,3.911,3.911,0,0,1-3.918-3.919,4,4,0,0,1,3.87-3.908,3.909,3.909,0,0,1,3.889,3.926Z" fill="#faba52"/>
      <path id="Path_4551" data-name="Path 4551" d="M282.506,137.368a3.839,3.839,0,1,1-3.833-3.856,3.789,3.789,0,0,1,3.833,3.856Z" fill="#faba52"/>
      <path id="Path_4552" data-name="Path 4552" d="M195.9,137.229a3.847,3.847,0,1,1-.283-1.492,3.842,3.842,0,0,1,.283,1.492Z" fill="#faba52"/>
      <path id="Path_4553" data-name="Path 4553" d="M271.478,140.73a3.788,3.788,0,0,1,3.815,3.87,3.84,3.84,0,1,1-3.815-3.87Z" fill="#faba52"/>
      <path id="Path_4554" data-name="Path 4554" d="M242.659,47.416a3.878,3.878,0,1,1,3.894-3.893,3.889,3.889,0,0,1-3.894,3.893Z" fill="#faba52"/>
      <path id="Path_4555" data-name="Path 4555" d="M203.122,144.476a3.829,3.829,0,1,1-.278-1.486A3.842,3.842,0,0,1,203.122,144.476Z" fill="#faba52"/>
      <path id="Path_4556" data-name="Path 4556" d="M260.523,50.76a3.759,3.759,0,0,1,3.744-3.829,3.811,3.811,0,0,1,3.891,3.792,3.88,3.88,0,0,1-3.861,3.906,3.819,3.819,0,0,1-3.774-3.869Z" fill="#faba52"/>
      <path id="Path_4557" data-name="Path 4557" d="M206.572,54.456a3.761,3.761,0,0,1-3.787-3.784,3.82,3.82,0,0,1,3.831-3.9,3.88,3.88,0,0,1,3.813,3.809,3.82,3.82,0,0,1-3.857,3.874Z" fill="#faba52"/>
      <path id="Path_4558" data-name="Path 4558" d="M228.213,47.23a3.759,3.759,0,0,1-3.777-3.786,3.819,3.819,0,0,1,3.841-3.9,3.879,3.879,0,0,1,3.805,3.821,3.82,3.82,0,0,1-3.869,3.867Z" fill="#faba52"/>
      <path id="Path_4559" data-name="Path 4559" d="M184.952,76.092a3.749,3.749,0,0,1-3.794-3.772,3.8,3.8,0,0,1,3.733-3.878,3.891,3.891,0,0,1,3.9,3.841,3.82,3.82,0,0,1-3.841,3.809Z" fill="#faba52"/>
      <path id="Path_4560" data-name="Path 4560" d="M282.2,72.351a3.749,3.749,0,0,1,3.8-3.76,3.8,3.8,0,0,1,3.816,3.778,3.869,3.869,0,0,1-3.885,3.84,3.8,3.8,0,0,1-3.731-3.857Z" fill="#faba52"/>
      <path id="Path_4561" data-name="Path 4561" d="M177.723,97.744a3.75,3.75,0,0,1-3.78-3.8,3.8,3.8,0,0,1,3.768-3.814,3.879,3.879,0,0,1,3.857,3.871,3.82,3.82,0,0,1-3.845,3.739Z" fill="#faba52"/>
      <path id="Path_4562" data-name="Path 4562" d="M289.427,94.073a3.739,3.739,0,0,1,3.746-3.82A3.8,3.8,0,0,1,297.054,94a3.841,3.841,0,0,1-3.763,3.885,3.8,3.8,0,0,1-3.864-3.808Z" fill="#faba52"/>
      <path id="Path_4563" data-name="Path 4563" d="M296.917,108.483a3.8,3.8,0,0,1-3.8,3.791,3.87,3.87,0,0,1-3.788-3.835,3.8,3.8,0,0,1,3.832-3.756,3.74,3.74,0,0,1,3.759,3.8Z" fill="#faba52"/>
      <path id="Path_4564" data-name="Path 4564" d="M181.413,108.4a3.757,3.757,0,0,1-3.81,3.761,3.809,3.809,0,0,1-3.779-3.795,3.868,3.868,0,0,1,3.837-3.778,3.79,3.79,0,0,1,3.752,3.812Z" fill="#faba52"/>
      <path id="Path_4565" data-name="Path 4565" d="M188.626,129.986a3.78,3.78,0,0,1-7.306,1.535,3.78,3.78,0,1,1,7.306-1.535Z" fill="#faba52"/>
      <path id="Path_4566" data-name="Path 4566" d="M289.664,130.12a3.788,3.788,0,1,1-1.122-2.673,3.781,3.781,0,0,1,1.122,2.673Z" fill="#faba52"/>
      <path id="Path_4567" data-name="Path 4567" d="M238.841,158.88a3.75,3.75,0,1,1,1,2.665A3.757,3.757,0,0,1,238.841,158.88Z" fill="#faba52"/>
      <path id="Path_4568" data-name="Path 4568" d="M231.917,158.9a3.749,3.749,0,1,1-1.07-2.631A3.753,3.753,0,0,1,231.917,158.9Z" fill="#faba52"/>
      <path id="Path_4569" data-name="Path 4569" d="M206.519,147.924a3.766,3.766,0,1,1-1.447.289,3.767,3.767,0,0,1,1.447-.289Z" fill="#faba52"/>
      <path id="Path_4570" data-name="Path 4570" d="M264.256,148.013a3.761,3.761,0,1,1-2.639,1.08,3.766,3.766,0,0,1,2.639-1.08Z" fill="#faba52"/>
      <path id="Path_4571" data-name="Path 4571" d="M260.789,43.488a3.65,3.65,0,0,1-3.748,3.718,3.69,3.69,0,0,1-3.669-3.666,3.75,3.75,0,0,1,3.738-3.716,3.7,3.7,0,0,1,3.679,3.664Z" fill="#faba52"/>
      <path id="Path_4572" data-name="Path 4572" d="M213.924,39.746a3.7,3.7,0,0,1-.231,7.386,3.761,3.761,0,0,1-3.532-3.788,3.69,3.69,0,0,1,3.763-3.6Z" fill="#faba52"/>
      <path id="Path_4573" data-name="Path 4573" d="M177.767,83.164a3.628,3.628,0,1,1,1.4-.286A3.649,3.649,0,0,1,177.767,83.164Z" fill="#faba52"/>
      <path id="Path_4574" data-name="Path 4574" d="M296.863,79.56a3.66,3.66,0,1,1-.3-1.4A3.659,3.659,0,0,1,296.863,79.56Z" fill="#faba52"/>
      <path id="Path_4575" data-name="Path 4575" d="M181.262,122.823a3.637,3.637,0,1,1-.273-1.392A3.635,3.635,0,0,1,181.262,122.823Z" fill="#faba52"/>
      <path id="Path_4576" data-name="Path 4576" d="M296.727,122.859a3.639,3.639,0,1,1-3.609-3.577,3.569,3.569,0,0,1,3.609,3.577Z" fill="#faba52"/>
      <path id="Path_4577" data-name="Path 4577" d="M213.778,162.5a3.61,3.61,0,0,1-3.681-3.531,3.67,3.67,0,0,1,3.629-3.7,3.621,3.621,0,0,1,3.6,3.6,3.558,3.558,0,0,1-3.551,3.634Z" fill="#faba52"/>
      <path id="Path_4578" data-name="Path 4578" d="M256.946,155.408a3.561,3.561,0,0,1,3.642,3.539,3.609,3.609,0,0,1-3.545,3.663,3.66,3.66,0,0,1-3.658-3.566,3.611,3.611,0,0,1,3.561-3.636Z" fill="#faba52"/>
      <path id="Path_4579" data-name="Path 4579" d="M235.492,32.751a3.549,3.549,0,1,1-2.5,1.031A3.541,3.541,0,0,1,235.492,32.751Z" fill="#faba52"/>
      <path id="Path_4580" data-name="Path 4580" d="M166.941,101.206a3.43,3.43,0,0,1,3.414-3.513,3.489,3.489,0,0,1,3.57,3.494,3.569,3.569,0,0,1-3.488,3.5,3.5,3.5,0,0,1-3.5-3.478Z" fill="#faba52"/>
      <path id="Path_4581" data-name="Path 4581" d="M303.9,101.271a3.442,3.442,0,0,1-3.478,3.455,3.491,3.491,0,0,1-3.5-3.448,3.56,3.56,0,0,1,3.553-3.532,3.5,3.5,0,0,1,3.424,3.525Z" fill="#faba52"/>
      <path id="Path_4582" data-name="Path 4582" d="M249.926,39.774a3.479,3.479,0,0,1-3.506-3.436,3.458,3.458,0,1,1,6.915-.055,3.451,3.451,0,0,1-3.409,3.491Z" fill="#faba52"/>
      <path id="Path_4583" data-name="Path 4583" d="M220.991,32.741a3.45,3.45,0,0,1,3.507,3.435,3.456,3.456,0,0,1-5.9,2.507,3.533,3.533,0,0,1-1.057-2.443,3.49,3.49,0,0,1,3.447-3.5Z" fill="#faba52"/>
      <path id="Path_4584" data-name="Path 4584" d="M286,61.406a3.451,3.451,0,1,1,1.327-.271,3.451,3.451,0,0,1-1.327.271Z" fill="#faba52"/>
      <path id="Path_4585" data-name="Path 4585" d="M188.4,57.9a3.449,3.449,0,1,1-.254-1.335A3.448,3.448,0,0,1,188.4,57.9Z" fill="#faba52"/>
      <path id="Path_4586" data-name="Path 4586" d="M282.223,50.756a3.445,3.445,0,1,1-.256-1.331,3.454,3.454,0,0,1,.256,1.331Z" fill="#faba52"/>
      <path id="Path_4587" data-name="Path 4587" d="M195.619,50.606a3.464,3.464,0,1,1-.288-1.329,3.44,3.44,0,0,1,.288,1.329Z" fill="#faba52"/>
      <path id="Path_4588" data-name="Path 4588" d="M235.364,169.66a3.453,3.453,0,1,1,1.324-.262,3.442,3.442,0,0,1-1.324.262Z" fill="#faba52"/>
      <path id="Path_4589" data-name="Path 4589" d="M297,86.856a3.431,3.431,0,1,1,.275,1.31,3.43,3.43,0,0,1-.275-1.31Z" fill="#faba52"/>
      <path id="Path_4590" data-name="Path 4590" d="M170.543,90.151a3.39,3.39,0,0,1-3.447-3.346,3.43,3.43,0,1,1,3.447,3.346Z" fill="#faba52"/>
      <path id="Path_4591" data-name="Path 4591" d="M303.718,115.646a3.4,3.4,0,0,1-3.342,3.466,3.458,3.458,0,0,1-3.487-3.44,3.389,3.389,0,0,1,3.363-3.368,3.329,3.329,0,0,1,3.466,3.342Z" fill="#faba52"/>
      <path id="Path_4592" data-name="Path 4592" d="M173.815,115.606a3.341,3.341,0,0,1-3.359,3.388,3.411,3.411,0,0,1-3.446-3.347,3.471,3.471,0,0,1,3.432-3.475,3.409,3.409,0,0,1,3.373,3.434Z" fill="#faba52"/>
      <path id="Path_4593" data-name="Path 4593" d="M188.232,144.468a3.328,3.328,0,0,1-3.363,3.368,3.39,3.39,0,0,1-3.4-3.357,3.46,3.46,0,0,1,3.418-3.4,3.389,3.389,0,0,1,3.343,3.389Z" fill="#faba52"/>
      <path id="Path_4594" data-name="Path 4594" d="M289.272,144.559a3.39,3.39,0,0,1-3.355,3.408,3.49,3.49,0,0,1-3.42-3.414,3.4,3.4,0,0,1,3.363-3.368,3.33,3.33,0,0,1,3.412,3.374Z" fill="#faba52"/>
      <path id="Path_4595" data-name="Path 4595" d="M199.36,46.809a3.332,3.332,0,0,1-3.349-3.367,3.39,3.39,0,0,1,3.361-3.378,3.47,3.47,0,0,1,3.393,3.429,3.4,3.4,0,0,1-3.4,3.316Z" fill="#faba52"/>
      <path id="Path_4596" data-name="Path 4596" d="M268.167,43.538a3.349,3.349,0,0,1,3.356-3.4,3.4,3.4,0,0,1,3.427,3.35,3.479,3.479,0,0,1-3.35,3.427,3.4,3.4,0,0,1-3.433-3.38Z" fill="#faba52"/>
      <path id="Path_4597" data-name="Path 4597" d="M195.458,151.7a3.34,3.34,0,0,1-3.368,3.349,3.391,3.391,0,0,1-3.378-3.361,3.471,3.471,0,0,1,3.429-3.393,3.409,3.409,0,0,1,3.317,3.4Z" fill="#faba52"/>
      <path id="Path_4598" data-name="Path 4598" d="M278.7,148.393a3.34,3.34,0,0,1,3.349,3.367,3.41,3.41,0,0,1-3.361,3.378,3.458,3.458,0,0,1-3.385-3.441,3.4,3.4,0,0,1,3.4-3.3Z" fill="#faba52"/>
      <path id="Path_4599" data-name="Path 4599" d="M220.829,169.493a3.411,3.411,0,0,1-3.3-3.5,3.46,3.46,0,0,1,3.524-3.29,3.4,3.4,0,0,1,3.268,3.517,3.36,3.36,0,0,1-3.5,3.275Z" fill="#faba52"/>
      <path id="Path_4600" data-name="Path 4600" d="M289.832,65.193a3.36,3.36,0,0,1,3.359-3.388,3.4,3.4,0,0,1,3.368,3.363,3.45,3.45,0,0,1-3.425,3.412,3.389,3.389,0,0,1-3.3-3.388Z" fill="#faba52"/>
      <path id="Path_4601" data-name="Path 4601" d="M249.788,162.841a3.38,3.38,0,0,1,.05,6.753,3.431,3.431,0,0,1-3.42-3.414,3.391,3.391,0,0,1,3.37-3.339Z" fill="#faba52"/>
      <path id="Path_4602" data-name="Path 4602" d="M177.679,68.449a3.341,3.341,0,0,1-3.309-3.468,3.39,3.39,0,0,1,3.38-3.29,3.44,3.44,0,0,1,3.339,3.369,3.39,3.39,0,0,1-3.41,3.389Z" fill="#faba52"/>
      <path id="Path_4603" data-name="Path 4603" d="M293.074,140.667a3.331,3.331,0,0,1-2.7-5.221,3.33,3.33,0,1,1,2.7,5.221Z" fill="#faba52"/>
      <path id="Path_4604" data-name="Path 4604" d="M177.6,133.92a3.333,3.333,0,1,1-2.339,1.011,3.331,3.331,0,0,1,2.339-1.011Z" fill="#faba52"/>
      <path id="Path_4605" data-name="Path 4605" d="M271.443,162.295a3.259,3.259,0,0,1-3.29-3.38,3.321,3.321,0,0,1,3.268-3.287,3.359,3.359,0,0,1,3.368,3.364,3.31,3.31,0,0,1-3.346,3.3Z" fill="#faba52"/>
      <path id="Path_4606" data-name="Path 4606" d="M199.29,155.6a3.3,3.3,0,0,1,3.339,3.37,3.36,3.36,0,0,1-3.376,3.309A3.32,3.32,0,0,1,196,158.971a3.251,3.251,0,0,1,3.291-3.373Z" fill="#faba52"/>
      <path id="Path_4607" data-name="Path 4607" d="M267.584,36.266a3.26,3.26,0,0,1-4.506,3.044,3.275,3.275,0,1,1,4.506-3.044Z" fill="#faba52"/>
      <path id="Path_4608" data-name="Path 4608" d="M206.613,39.436a3.238,3.238,0,0,1-3.032-4.411,3.239,3.239,0,0,1,6.251,1.084,3.221,3.221,0,0,1-3.219,3.327Z" fill="#faba52"/>
      <path id="Path_4609" data-name="Path 4609" d="M297.272,72.328a3.159,3.159,0,0,1,3.223-3.164,3.21,3.21,0,0,1,3.2,3.2A3.25,3.25,0,0,1,300.4,75.6a3.2,3.2,0,0,1-3.133-3.271Z" fill="#faba52"/>
      <path id="Path_4610" data-name="Path 4610" d="M170.56,75.5a3.159,3.159,0,0,1-3.227-3.138,3.21,3.21,0,0,1,3.215-3.3,3.262,3.262,0,0,1,3.194,3.217A3.19,3.19,0,0,1,170.56,75.5Z" fill="#faba52"/>
      <path id="Path_4611" data-name="Path 4611" d="M300.352,126.934a3.129,3.129,0,0,1,3.152,3.216,3.2,3.2,0,0,1-3.248,3.19,3.25,3.25,0,0,1-3.178-3.241,3.2,3.2,0,0,1,3.274-3.165Z" fill="#faba52"/>
      <path id="Path_4612" data-name="Path 4612" d="M173.584,130.032a3.14,3.14,0,0,1-3.109,3.17,3.2,3.2,0,0,1-3.254-3.163,3.253,3.253,0,0,1,3.247-3.2,3.19,3.19,0,0,1,3.116,3.193Z" fill="#faba52"/>
      <path id="Path_4613" data-name="Path 4613" d="M242.719,25.916a3.181,3.181,0,0,1,3.15,3.155,3.251,3.251,0,0,1-3.225,3.205,3.207,3.207,0,0,1-2.872-4.487,3.14,3.14,0,0,1,2.947-1.873Z" fill="#faba52"/>
      <path id="Path_4614" data-name="Path 4614" d="M228.2,32.131a3.131,3.131,0,0,1-3.13-3.159,3.181,3.181,0,0,1,3.193-3.209,3.252,3.252,0,0,1,3.166,3.182,3.19,3.19,0,0,1-3.229,3.186Z" fill="#faba52"/>
      <path id="Path_4615" data-name="Path 4615" d="M206.425,169.267a3.17,3.17,0,1,1,2.243-.86,3.16,3.16,0,0,1-2.243.86Z" fill="#faba52"/>
      <path id="Path_4616" data-name="Path 4616" d="M267.4,166.26a3.138,3.138,0,1,1-.875-2.238,3.157,3.157,0,0,1,.875,2.238Z" fill="#faba52"/>
      <path id="Path_4617" data-name="Path 4617" d="M307.674,97.159a3.126,3.126,0,1,1,1.2-.251,3.131,3.131,0,0,1-1.2.251Z" fill="#faba52"/>
      <path id="Path_4618" data-name="Path 4618" d="M166.435,93.957a3.115,3.115,0,1,1-.232-1.2,3.137,3.137,0,0,1,.232,1.2Z" fill="#faba52"/>
      <path id="Path_4619" data-name="Path 4619" d="M310.679,108.48a3.137,3.137,0,1,1-.233-1.2,3.135,3.135,0,0,1,.233,1.2Z" fill="#faba52"/>
      <path id="Path_4620" data-name="Path 4620" d="M163.213,105.3a3.1,3.1,0,0,1,3.11,3.164,3.14,3.14,0,0,1-3.116,3.048,3.1,3.1,0,0,1-3.1-3.143,3,3,0,0,1,3.111-3.069Z" fill="#faba52"/>
      <path id="Path_4621" data-name="Path 4621" d="M225.082,173.35a3,3,0,0,1,3.038-3.073,3.1,3.1,0,0,1,3.161,3.112,3.171,3.171,0,0,1-3.119,3.08,3.1,3.1,0,0,1-3.08-3.119Z" fill="#faba52"/>
      <path id="Path_4622" data-name="Path 4622" d="M242.583,176.486a3,3,0,0,1-3.048-3.064,3.059,3.059,0,0,1,3.068-3.079,3.139,3.139,0,0,1,3.085,3.1,3.08,3.08,0,0,1-3.105,3.046Z" fill="#faba52"/>
      <path id="Path_4623" data-name="Path 4623" d="M257.089,32.124a3,3,0,1,1,1.178-.2A3,3,0,0,1,257.089,32.124Z" fill="#faba52"/>
      <path id="Path_4624" data-name="Path 4624" d="M216.848,28.962a3.008,3.008,0,1,1-.234-1.161A3,3,0,0,1,216.848,28.962Z" fill="#faba52"/>
      <path id="Path_4625" data-name="Path 4625" d="M163.289,82.5A2.939,2.939,0,0,1,160.3,79.5a3,3,0,0,1,3.012-3.006,3.011,3.011,0,0,1,2.763,4.182,3,3,0,0,1-2.791,1.831Z" fill="#faba52"/>
      <path id="Path_4626" data-name="Path 4626" d="M307.638,76.632a3,3,0,0,1,3,2.992,3.061,3.061,0,0,1-3.047,2.983,3,3,0,0,1-2.927-2.978,2.92,2.92,0,0,1,2.973-3Z" fill="#faba52"/>
      <path id="Path_4627" data-name="Path 4627" d="M163.188,125.776a2.911,2.911,0,1,1,2.98-2.866,2.93,2.93,0,0,1-2.98,2.866Z" fill="#faba52"/>
      <path id="Path_4628" data-name="Path 4628" d="M310.5,122.946a2.954,2.954,0,1,1-2.909-2.991,2.923,2.923,0,0,1,2.084.884,2.948,2.948,0,0,1,.625.97,2.91,2.91,0,0,1,.2,1.137Z" fill="#faba52"/>
      <path id="Path_4629" data-name="Path 4629" d="M288.985,43.52a2.945,2.945,0,0,1-5.89.017,2.94,2.94,0,0,1,2.931-2.957,3,3,0,0,1,2.959,2.94Z" fill="#faba52"/>
      <path id="Path_4630" data-name="Path 4630" d="M184.981,40.469a2.944,2.944,0,0,1-.065,5.887,2.941,2.941,0,0,1-2.9-2.972,3,3,0,0,1,2.97-2.915Z" fill="#faba52"/>
      <path id="Path_4631" data-name="Path 4631" d="M213.714,176.273a2.95,2.95,0,1,1,2.958-2.922,3,3,0,0,1-2.958,2.922Z" fill="#faba52"/>
      <path id="Path_4632" data-name="Path 4632" d="M177.776,53.592a2.94,2.94,0,0,1-2.99-2.892,2.927,2.927,0,1,1,2.99,2.892Z" fill="#faba52"/>
      <path id="Path_4633" data-name="Path 4633" d="M293.233,53.681a2.942,2.942,0,1,1,1.127-.235,2.941,2.941,0,0,1-1.127.235Z" fill="#faba52"/>
      <path id="Path_4634" data-name="Path 4634" d="M259.97,173.477a2.95,2.95,0,1,1-.826-2.094A2.939,2.939,0,0,1,259.97,173.477Z" fill="#faba52"/>
      <path id="Path_4635" data-name="Path 4635" d="M281.625,36.325a2.81,2.81,0,0,1-2.885,2.835,2.88,2.88,0,0,1-2.867-2.889,2.94,2.94,0,0,1,2.929-2.824,2.88,2.88,0,0,1,2.823,2.878Z" fill="#faba52"/>
      <path id="Path_4636" data-name="Path 4636" d="M195.035,36.244a2.9,2.9,0,0,1-2.872,2.894,3,3,0,0,1-2.891-2.9,2.88,2.88,0,0,1,2.9-2.859,2.83,2.83,0,0,1,2.862,2.869Z" fill="#faba52"/>
      <path id="Path_4637" data-name="Path 4637" d="M174.776,151.639a2.829,2.829,0,0,1,2.909-2.82,2.89,2.89,0,0,1,2.849,2.9,3,3,0,0,1-2.924,2.894,2.889,2.889,0,0,1-2.834-2.977Z" fill="#faba52"/>
      <path id="Path_4638" data-name="Path 4638" d="M293.112,154.633a2.819,2.819,0,0,1-2.862-2.869,2.889,2.889,0,0,1,2.862-2.891,3,3,0,0,1,2.9,2.892,2.89,2.89,0,0,1-2.9,2.868Z" fill="#faba52"/>
      <path id="Path_4639" data-name="Path 4639" d="M181.986,158.9a2.819,2.819,0,0,1,2.869-2.862,2.89,2.89,0,0,1,2.884,2.875,3,3,0,0,1-2.894,2.888,2.889,2.889,0,0,1-2.859-2.9Z" fill="#faba52"/>
      <path id="Path_4640" data-name="Path 4640" d="M285.9,161.855a2.82,2.82,0,0,1-2.658-1.765,2.807,2.807,0,0,1-.2-1.1,2.867,2.867,0,0,1,2.862-2.891,3,3,0,0,1,2.9,2.892,2.9,2.9,0,0,1-2.9,2.869Z" fill="#faba52"/>
      <path id="Path_4641" data-name="Path 4641" d="M173.4,57.836a2.85,2.85,0,0,1-2.844,2.887,2.909,2.909,0,0,1-2.868-2.9A2.87,2.87,0,0,1,170.5,55a2.833,2.833,0,0,1,2.895,2.831Z" fill="#faba52"/>
      <path id="Path_4642" data-name="Path 4642" d="M303.266,57.964a2.83,2.83,0,0,1-2.885,2.835,2.871,2.871,0,0,1-2.82-2.766,2.9,2.9,0,0,1,2.851-2.9,2.86,2.86,0,0,1,2.854,2.83Z" fill="#faba52"/>
      <path id="Path_4643" data-name="Path 4643" d="M170.411,141.646a2.81,2.81,0,0,1,2.809,2.809,2.749,2.749,0,0,1-2.79,2.8,2.788,2.788,0,0,1-2.817-2.756,2.841,2.841,0,0,1,2.8-2.857Z" fill="#faba52"/>
      <path id="Path_4644" data-name="Path 4644" d="M238.247,21.85a2.83,2.83,0,0,1-2.781,2.843,2.809,2.809,0,0,1-2.6-3.822,2.74,2.74,0,0,1,2.578-1.74,2.78,2.78,0,0,1,2.8,2.719Z" fill="#faba52"/>
      <path id="Path_4645" data-name="Path 4645" d="M303.125,144.556a2.8,2.8,0,0,1-2.8,2.816,2.852,2.852,0,0,1-2.82-2.817,2.82,2.82,0,0,1,4.808-1.988,2.771,2.771,0,0,1,.809,1.989Z" fill="#faba52"/>
      <path id="Path_4646" data-name="Path 4646" d="M194.811,166.146a2.72,2.72,0,0,1-2.714,2.726,2.789,2.789,0,0,1-2.826-2.795,2.851,2.851,0,0,1,2.776-2.771,2.781,2.781,0,0,1,2.764,2.84Z" fill="#faba52"/>
      <path id="Path_4647" data-name="Path 4647" d="M275.882,166.163a2.771,2.771,0,0,1,2.9-2.675,2.719,2.719,0,0,1,2.657,2.822,2.769,2.769,0,0,1-2.761,2.746,2.838,2.838,0,0,1-2.8-2.893Z" fill="#faba52"/>
      <path id="Path_4648" data-name="Path 4648" d="M314.892,98.5a2.771,2.771,0,0,1,2.747,2.761,2.842,2.842,0,0,1-2.767,2.769,2.78,2.78,0,0,1-2.764-2.839,2.71,2.71,0,0,1,2.784-2.691Z" fill="#faba52"/>
      <path id="Path_4649" data-name="Path 4649" d="M158.735,101.161a2.726,2.726,0,0,1-.2,1.052,2.719,2.719,0,0,1-2.522,1.706,2.78,2.78,0,0,1-2.814-2.695A2.83,2.83,0,0,1,156,98.388a2.78,2.78,0,0,1,2.739,2.773Z" fill="#faba52"/>
      <path id="Path_4650" data-name="Path 4650" d="M220.979,19.032a2.74,2.74,0,1,1-1.913.818,2.751,2.751,0,0,1,1.913-.818Z" fill="#faba52"/>
      <path id="Path_4651" data-name="Path 4651" d="M247.157,21.885a2.749,2.749,0,1,1,.83,1.924,2.742,2.742,0,0,1-.83-1.924Z" fill="#faba52"/>
      <path id="Path_4652" data-name="Path 4652" d="M271.493,31.828a2.749,2.749,0,0,1-2.653-2.8,2.719,2.719,0,0,1,2.792-2.651,2.727,2.727,0,1,1-.139,5.453Z" fill="#faba52"/>
      <path id="Path_4653" data-name="Path 4653" d="M202.124,29.01a2.76,2.76,0,1,1-.795-1.944,2.75,2.75,0,0,1,.795,1.944Z" fill="#faba52"/>
      <path id="Path_4654" data-name="Path 4654" d="M165.994,65.046a2.7,2.7,0,0,1-2.72,2.748,2.74,2.74,0,0,1-2.683-2.7,2.7,2.7,0,1,1,5.4-.045Z" fill="#faba52"/>
      <path id="Path_4655" data-name="Path 4655" d="M235.411,177.906a2.716,2.716,0,0,1-.041,5.432,2.716,2.716,0,0,1,.041-5.432Z" fill="#faba52"/>
      <path id="Path_4656" data-name="Path 4656" d="M307.663,67.868a2.71,2.71,0,1,1,2.672-2.687,2.659,2.659,0,0,1-1.645,2.485A2.654,2.654,0,0,1,307.663,67.868Z" fill="#faba52"/>
      <path id="Path_4657" data-name="Path 4657" d="M314.864,89.494a2.69,2.69,0,0,1-2.711-2.646,2.739,2.739,0,0,1,2.743-2.733,2.679,2.679,0,0,1,2.634,2.714,2.64,2.64,0,0,1-2.666,2.665Z" fill="#faba52"/>
      <path id="Path_4658" data-name="Path 4658" d="M156.1,89.432a2.741,2.741,0,0,1-2.724-2.654,2.681,2.681,0,0,1,2.634-2.719,2.62,2.62,0,0,1,2.74,2.681,2.671,2.671,0,0,1-2.65,2.692Z" fill="#faba52"/>
      <path id="Path_4659" data-name="Path 4659" d="M160.553,137.233a2.632,2.632,0,0,1,2.7-2.63,2.681,2.681,0,0,1,2.615,2.626,2.741,2.741,0,0,1-2.648,2.7,2.661,2.661,0,0,1-2.662-2.7Z" fill="#faba52"/>
      <path id="Path_4660" data-name="Path 4660" d="M307.538,139.988a2.632,2.632,0,0,1-2.63-2.694,2.661,2.661,0,0,1,2.617-2.613,2.718,2.718,0,0,1,2.725,2.663,2.668,2.668,0,0,1-2.712,2.644Z" fill="#faba52"/>
      <path id="Path_4661" data-name="Path 4661" d="M153.327,115.634a2.621,2.621,0,0,1,2.652-2.683,2.658,2.658,0,0,1,2.686,2.672,2.718,2.718,0,0,1-2.635,2.617,2.667,2.667,0,0,1-2.7-2.606Z" fill="#faba52"/>
      <path id="Path_4662" data-name="Path 4662" d="M314.645,118.333a2.62,2.62,0,0,1-2.54-2.795A2.66,2.66,0,0,1,314.821,113a2.72,2.72,0,0,1,2.645,2.763,2.658,2.658,0,0,1-2.821,2.565Z" fill="#faba52"/>
      <path id="Path_4663" data-name="Path 4663" d="M218.308,180.527a2.643,2.643,0,1,1,.2,1.019A2.644,2.644,0,0,1,218.308,180.527Z" fill="#faba52"/>
      <path id="Path_4664" data-name="Path 4664" d="M199.316,170.694a2.649,2.649,0,0,1,2.611,2.606,2.69,2.69,0,0,1-2.672,2.687,2.665,2.665,0,0,1-2.424-3.656,2.613,2.613,0,0,1,.579-.873,2.615,2.615,0,0,1,1.906-.764Z" fill="#faba52"/>
      <path id="Path_4665" data-name="Path 4665" d="M271.426,176.061a2.648,2.648,0,1,1,1.015-.186,2.642,2.642,0,0,1-1.015.186Z" fill="#faba52"/>
      <path id="Path_4666" data-name="Path 4666" d="M249.8,178.033a2.61,2.61,0,1,1-1,.2,2.616,2.616,0,0,1,1-.2Z" fill="#faba52"/>
      <path id="Path_4667" data-name="Path 4667" d="M264.31,19.357a2.53,2.53,0,1,1-1.763.7,2.5,2.5,0,0,1,1.763-.7Z" fill="#faba52"/>
      <path id="Path_4668" data-name="Path 4668" d="M206.579,19.3a2.44,2.44,0,0,1,2.489,2.469,2.48,2.48,0,0,1-2.523,2.521,2.54,2.54,0,0,1-2.512-2.526,2.49,2.49,0,0,1,2.546-2.465Z" fill="#faba52"/>
      <path id="Path_4669" data-name="Path 4669" d="M156.066,69.847a2.42,2.42,0,0,1,2.469,2.473A2.49,2.49,0,0,1,156,74.792a2.552,2.552,0,0,1-2.405-2.457,2.491,2.491,0,0,1,2.47-2.489Z" fill="#faba52"/>
      <path id="Path_4670" data-name="Path 4670" d="M317.3,72.359a2.42,2.42,0,0,1-2.452,2.475,2.48,2.48,0,0,1-2.482-2.532,2.52,2.52,0,0,1,2.429-2.439,2.471,2.471,0,0,1,2.505,2.5Z" fill="#faba52"/>
      <path id="Path_4671" data-name="Path 4671" d="M314.777,132.548a2.419,2.419,0,0,1-2.451-2.385,2.337,2.337,0,1,1,2.5,2.375Z" fill="#faba52"/>
      <path id="Path_4672" data-name="Path 4672" d="M158.387,130.019a2.4,2.4,0,0,1-4.8.129,2.431,2.431,0,0,1,2.352-2.556,2.391,2.391,0,0,1,2.45,2.427Z" fill="#faba52"/>
      <path id="Path_4673" data-name="Path 4673" d="M208.879,180.5a2.318,2.318,0,0,1-2.252,2.4,2.372,2.372,0,0,1-2.546-2.3,2.429,2.429,0,0,1,2.4-2.433,2.378,2.378,0,0,1,2.4,2.335Z" fill="#faba52"/>
      <path id="Path_4674" data-name="Path 4674" d="M266.614,180.673a2.37,2.37,0,0,1-2.344,2.36,2.419,2.419,0,0,1-2.415-2.413,2.37,2.37,0,0,1,2.469-2.346,2.318,2.318,0,0,1,2.29,2.4Z" fill="#faba52"/>
      <path id="Path_4675" data-name="Path 4675" d="M240.335,14.625a2.32,2.32,0,0,1,1.47-2.155,2.322,2.322,0,0,1,.9-.16,2.371,2.371,0,0,1,2.347,2.377,2.43,2.43,0,0,1-2.4,2.341,2.37,2.37,0,0,1-2.321-2.4Z" fill="#faba52"/>
      <path id="Path_4676" data-name="Path 4676" d="M177.729,38.541a2.341,2.341,0,1,1,1.632-.678A2.324,2.324,0,0,1,177.729,38.541Z" fill="#faba52"/>
      <path id="Path_4677" data-name="Path 4677" d="M290.874,36.277a2.31,2.31,0,0,1,2.4-2.3,2.328,2.328,0,1,1-2.225,3.2,2.318,2.318,0,0,1-.172-.9Z" fill="#faba52"/>
      <path id="Path_4678" data-name="Path 4678" d="M228.269,16.88a2.319,2.319,0,0,1-2.352-2.356,2.3,2.3,0,1,1,2.352,2.356Z" fill="#faba52"/>
      <path id="Path_4679" data-name="Path 4679" d="M170.544,45.755a2.335,2.335,0,0,1-.03-4.67,2.335,2.335,0,1,1,.03,4.67Z" fill="#faba52"/>
      <path id="Path_4680" data-name="Path 4680" d="M298.094,43.532a2.31,2.31,0,0,1,2.357-2.342,2.332,2.332,0,1,1-2.357,2.342Z" fill="#faba52"/>
      <path id="Path_4681" data-name="Path 4681" d="M151.155,93.942a2.3,2.3,0,0,1-2.25,2.319,2.322,2.322,0,0,1-2.34-2.348,2.291,2.291,0,0,1,2.316-2.251,2.25,2.25,0,0,1,2.11,1.4A2.228,2.228,0,0,1,151.155,93.942Z" fill="#faba52"/>
      <path id="Path_4682" data-name="Path 4682" d="M146.477,108.339a2.219,2.219,0,0,1,2.336-2.2,2.28,2.28,0,0,1,2.239,2.257,2.322,2.322,0,0,1-2.31,2.281,2.281,2.281,0,0,1-2.265-2.334Z" fill="#faba52"/>
      <path id="Path_4683" data-name="Path 4683" d="M324.326,94.013a2.2,2.2,0,0,1-2.261,2.27,2.268,2.268,0,0,1-2.276-2.29,2.329,2.329,0,0,1,2.245-2.246,2.261,2.261,0,0,1,1.621.653,2.257,2.257,0,0,1,.671,1.614Z" fill="#faba52"/>
      <path id="Path_4684" data-name="Path 4684" d="M321.959,110.723a2.211,2.211,0,0,1-2.239-2.308A2.271,2.271,0,0,1,322,106.172a2.319,2.319,0,0,1,2.313,2.271,2.28,2.28,0,0,1-2.351,2.28Z" fill="#faba52"/>
      <path id="Path_4685" data-name="Path 4685" d="M293.142,168.471a2.223,2.223,0,0,1-1.583-.627,2.239,2.239,0,0,1-.492-.716,2.214,2.214,0,0,1-.18-.849,2.245,2.245,0,0,1,.645-1.629,2.254,2.254,0,0,1,1.619-.672,2.309,2.309,0,0,1,2.229,2.259,2.259,2.259,0,0,1-2.238,2.234Z" fill="#faba52"/>
      <path id="Path_4686" data-name="Path 4686" d="M175.41,166.092a2.21,2.21,0,0,1,2.232-2.213,2.27,2.27,0,0,1,2.259,2.212,2.308,2.308,0,0,1-2.309,2.28,2.249,2.249,0,0,1-2.182-2.279Z" fill="#faba52"/>
      <path id="Path_4687" data-name="Path 4687" d="M170.411,156.666a2.261,2.261,0,0,1,2.277,2.2,2.331,2.331,0,0,1-2.3,2.3,2.259,2.259,0,0,1-2.2-2.275,2.21,2.21,0,0,1,.647-1.574,2.21,2.21,0,0,1,1.573-.647Z" fill="#faba52"/>
      <path id="Path_4688" data-name="Path 4688" d="M300.319,161.217A2.209,2.209,0,0,1,298.1,159a2.238,2.238,0,0,1,2.19-2.265,2.289,2.289,0,0,1,2.3,2.286,2.249,2.249,0,0,1-2.266,2.2Z" fill="#faba52"/>
      <path id="Path_4689" data-name="Path 4689" d="M163.272,48.415a2.211,2.211,0,0,1,2.255,2.192,2.25,2.25,0,0,1-2.264,2.3,2.32,2.32,0,0,1-2.231-2.269,2.26,2.26,0,0,1,2.24-2.225Z" fill="#faba52"/>
      <path id="Path_4690" data-name="Path 4690" d="M187.18,28.983a2.26,2.26,0,0,1-2.149,2.266,2.309,2.309,0,0,1-2.3-2.3,2.25,2.25,0,0,1,2.278-2.192,2.21,2.21,0,0,1,2.169,2.221Z" fill="#faba52"/>
      <path id="Path_4691" data-name="Path 4691" d="M288.215,29.056a2.21,2.21,0,0,1-2.18,2.263,2.259,2.259,0,0,1-2.311-2.262,2.3,2.3,0,0,1,2.259-2.229,2.249,2.249,0,0,1,2.232,2.228Z" fill="#faba52"/>
      <path id="Path_4692" data-name="Path 4692" d="M309.873,50.772a2.229,2.229,0,0,1-2.256,2.2,2.261,2.261,0,0,1-2.242-2.226,2.321,2.321,0,0,1,2.322-2.273,2.259,2.259,0,0,1,2.176,2.3Z" fill="#faba52"/>
      <path id="Path_4693" data-name="Path 4693" d="M230.376,187.869a2.2,2.2,0,1,1-.59-1.575,2.216,2.216,0,0,1,.59,1.575Z" fill="#faba52"/>
      <path id="Path_4694" data-name="Path 4694" d="M242.613,185.647a2.2,2.2,0,1,1-1.537.65,2.212,2.212,0,0,1,1.537-.65Z" fill="#faba52"/>
      <path id="Path_4695" data-name="Path 4695" d="M254.943,14.52a2.133,2.133,0,0,1,.2-.815,2.12,2.12,0,0,1,2.052-1.217,2.178,2.178,0,0,1,2.106,2.306,2.231,2.231,0,0,1-2.266,2.056,2.191,2.191,0,0,1-2.091-2.33Z" fill="#faba52"/>
      <path id="Path_4696" data-name="Path 4696" d="M213.777,16.725a2.12,2.12,0,0,1-2.135-2.157,2.18,2.18,0,0,1,2.2-2.206A2.231,2.231,0,0,1,216,14.534a2.17,2.17,0,0,1-2.227,2.191Z" fill="#faba52"/>
      <path id="Path_4697" data-name="Path 4697" d="M307.507,149.622a2.1,2.1,0,0,1,.83.142,2.111,2.111,0,0,1,1.348,1.975,2.16,2.16,0,0,1-2.113,2.2,2.239,2.239,0,0,1-2.2-2.132,2.18,2.18,0,0,1,2.136-2.182Z" fill="#faba52"/>
      <path id="Path_4698" data-name="Path 4698" d="M165.348,151.665a2.107,2.107,0,0,1-.608,1.532,2.109,2.109,0,0,1-1.523.628,2.168,2.168,0,0,1-2.18-2.126,2.23,2.23,0,0,1,2.164-2.147,2.171,2.171,0,0,1,2.147,2.113Z" fill="#faba52"/>
      <path id="Path_4699" data-name="Path 4699" d="M285.851,171.278a2.111,2.111,0,0,1,2.186,2.1,2.171,2.171,0,0,1-2.1,2.215,2.24,2.24,0,0,1-2.211-2.13,2.17,2.17,0,0,1,2.124-2.19Z" fill="#faba52"/>
      <path id="Path_4700" data-name="Path 4700" d="M187,173.3a2.108,2.108,0,0,1-2.107,2.175,2.179,2.179,0,0,1-2.207-2.111,2.23,2.23,0,0,1,2.142-2.2A2.16,2.16,0,0,1,187,173.3Z" fill="#faba52"/>
      <path id="Path_4701" data-name="Path 4701" d="M322.125,81.73a2.15,2.15,0,1,1,1.466-.647,2.139,2.139,0,0,1-1.466.647Z" fill="#faba52"/>
      <path id="Path_4702" data-name="Path 4702" d="M151,79.468a2.128,2.128,0,0,1-4.255.1,2.138,2.138,0,0,1,.6-1.54,2.139,2.139,0,0,1,1.521-.65A2.17,2.17,0,0,1,151,79.468Z" fill="#faba52"/>
      <path id="Path_4703" data-name="Path 4703" d="M150.866,122.838a2.092,2.092,0,0,1-3.59,1.454,2.1,2.1,0,0,1-.592-1.489,2,2,0,0,1,2.1-2.062,2.071,2.071,0,0,1,2.081,2.1Z" fill="#faba52"/>
      <path id="Path_4704" data-name="Path 4704" d="M324.083,122.888a2.079,2.079,0,0,1-2.105,2.093,2,2,0,0,1-1.505-.561,2.008,2.008,0,0,1-.459-.681,1.976,1.976,0,0,1-.147-.807,2.062,2.062,0,0,1,.14-.8,2.071,2.071,0,0,1,1.907-1.319,2.11,2.11,0,0,1,2.169,2.078Z" fill="#faba52"/>
      <path id="Path_4705" data-name="Path 4705" d="M280.841,21.843a2,2,0,0,1-2.061,2.1,2.08,2.08,0,0,1-1.951-1.268,2.107,2.107,0,0,1,1.9-2.905,2.07,2.07,0,0,1,2.116,2.069Z" fill="#faba52"/>
      <path id="Path_4706" data-name="Path 4706" d="M192.192,23.877a2.129,2.129,0,0,1-2.135-2.065,2.08,2.08,0,0,1,2.069-2.116,2,2,0,0,1,2.1,2.052,2.071,2.071,0,0,1-1.24,1.956,2.071,2.071,0,0,1-.8.173Z" fill="#faba52"/>
      <path id="Path_4707" data-name="Path 4707" d="M316.89,57.939a2,2,0,0,1-2.017,2.023,2.061,2.061,0,0,1-2.1-2.061,2.132,2.132,0,0,1,2.041-2.059,2.06,2.06,0,0,1,2.081,2.1Z" fill="#faba52"/>
      <path id="Path_4708" data-name="Path 4708" d="M156.036,55.824a2,2,0,0,1,2.091,1.952,2.066,2.066,0,0,1-.551,1.5,2.07,2.07,0,0,1-1.457.661,2.121,2.121,0,0,1-2.157-2.07,2.061,2.061,0,0,1,2.074-2.045Z" fill="#faba52"/>
      <path id="Path_4709" data-name="Path 4709" d="M215.765,187.873a2,2,0,1,1-.1-.783A2.01,2.01,0,0,1,215.765,187.873Z" fill="#faba52"/>
      <path id="Path_4710" data-name="Path 4710" d="M259.074,187.9a2,2,0,0,1-.623,1.426,1.975,1.975,0,0,1-.672.422,2.05,2.05,0,0,1-2.607-2.711,2,2,0,0,1,1.12-1.088,2.023,2.023,0,0,1,.785-.134,2.081,2.081,0,0,1,2,2.085Z" fill="#faba52"/>
      <path id="Path_4711" data-name="Path 4711" d="M314.756,142.558a2,2,0,1,1-.773,3.832,2,2,0,0,1-1.222-1.9,2,2,0,0,1,2-1.936Z" fill="#faba52"/>
      <path id="Path_4712" data-name="Path 4712" d="M278.639,182.622a1.963,1.963,0,0,1,.081-3.926,1.912,1.912,0,0,1,1.792,1.233,1.9,1.9,0,0,1,.122.757,2,2,0,0,1-1.995,1.936Z" fill="#faba52"/>
      <path id="Path_4713" data-name="Path 4713" d="M155.943,146.417a1.948,1.948,0,1,1,2-1.865,1.9,1.9,0,0,1-2,1.865Z" fill="#faba52"/>
      <path id="Path_4714" data-name="Path 4714" d="M192.061,182.5a1.947,1.947,0,1,1,1.964-1.94,1.91,1.91,0,0,1-1.964,1.94Z" fill="#faba52"/>
      <path id="Path_4715" data-name="Path 4715" d="M237.279,7.459a1.8,1.8,0,0,1-1.841,1.8,1.84,1.84,0,0,1-1.82-1.836,1.89,1.89,0,0,1,1.868-1.817,1.84,1.84,0,0,1,1.793,1.852Z" fill="#faba52"/>
      <path id="Path_4716" data-name="Path 4716" d="M271.527,16.443a1.78,1.78,0,0,1-1.762-1.757,1.77,1.77,0,0,1,1.795-1.821,1.784,1.784,0,0,1,1.255,3.044,1.811,1.811,0,0,1-1.288.534Z" fill="#faba52"/>
      <path id="Path_4717" data-name="Path 4717" d="M201.172,14.554a1.8,1.8,0,0,1-1.75,1.791,1.772,1.772,0,1,1-.082-3.543,1.809,1.809,0,0,1,1.832,1.752Z" fill="#faba52"/>
      <path id="Path_4718" data-name="Path 4718" d="M323.845,65.2a1.81,1.81,0,0,1-1.8,1.731,1.75,1.75,0,0,1-1.71-1.8,1.71,1.71,0,0,1,1.777-1.715,1.78,1.78,0,0,1,1.737,1.783Z" fill="#faba52"/>
      <path id="Path_4719" data-name="Path 4719" d="M148.894,66.827a1.7,1.7,0,0,1-1.23-.463,1.679,1.679,0,0,1-.387-.547,1.7,1.7,0,0,1-.146-.654,1.76,1.76,0,0,1,1.709-1.843,1.81,1.81,0,0,1,1.8,1.729,1.769,1.769,0,0,1-1.742,1.779Z" fill="#faba52"/>
      <path id="Path_4720" data-name="Path 4720" d="M141.572,99.435a1.7,1.7,0,0,1,1.542,2.358,1.7,1.7,0,0,1-1.645,1.041,1.741,1.741,0,0,1-1.669-1.705,1.769,1.769,0,0,1,1.772-1.694Z" fill="#faba52"/>
      <path id="Path_4721" data-name="Path 4721" d="M329.329,99.538a1.73,1.73,0,0,1,1.684,1.682,1.781,1.781,0,0,1-1.675,1.713,1.749,1.749,0,0,1-1.729-1.795,1.7,1.7,0,0,1,1.72-1.6Z" fill="#faba52"/>
      <path id="Path_4722" data-name="Path 4722" d="M251.626,7.422a1.771,1.771,0,0,1-1.669,1.743A1.731,1.731,0,0,1,248.2,7.4a1.691,1.691,0,0,1,1.686-1.665,1.74,1.74,0,0,1,1.738,1.691Z" fill="#faba52"/>
      <path id="Path_4723" data-name="Path 4723" d="M221.057,9.05A1.719,1.719,0,0,1,219.433,6.7a1.738,1.738,0,0,1,1.613-1.109,1.782,1.782,0,0,1,1.694,1.679,1.731,1.731,0,0,1-1.683,1.776Z" fill="#faba52"/>
      <path id="Path_4724" data-name="Path 4724" d="M323.626,137.312a1.69,1.69,0,0,1-1.683,1.675,1.683,1.683,0,0,1-1.2-2.839,1.665,1.665,0,0,1,1.209-.519,1.71,1.71,0,0,1,1.674,1.683Z" fill="#faba52"/>
      <path id="Path_4725" data-name="Path 4725" d="M148.788,135.588a1.671,1.671,0,0,1,1.183.5,1.67,1.67,0,0,1,.482,1.189,1.71,1.71,0,0,1-1.751,1.648,1.658,1.658,0,0,1-1.606-1.7,1.627,1.627,0,0,1,1.048-1.529,1.61,1.61,0,0,1,.644-.106Z" fill="#faba52"/>
      <path id="Path_4726" data-name="Path 4726" d="M200.954,187.8a1.721,1.721,0,0,1-1.692,1.635,1.649,1.649,0,0,1-1.606-1.7,1.593,1.593,0,0,1,.518-1.147,1.6,1.6,0,0,1,1.191-.411,1.651,1.651,0,0,1,1.589,1.621Z" fill="#faba52"/>
      <path id="Path_4727" data-name="Path 4727" d="M237.041,195.111a1.66,1.66,0,0,1-1.7,1.606,1.592,1.592,0,0,1-.638-.128,1.6,1.6,0,0,1-.968-1.57,1.65,1.65,0,0,1,1.705-1.577,1.721,1.721,0,0,1,1.6,1.669Z" fill="#faba52"/>
      <path id="Path_4728" data-name="Path 4728" d="M271.419,189.486a1.591,1.591,0,0,1-1.574-1.644,1.641,1.641,0,0,1,1.622-1.631,1.72,1.72,0,0,1,1.654,1.688,1.659,1.659,0,0,1-1.7,1.587Z" fill="#faba52"/>
      <path id="Path_4729" data-name="Path 4729" d="M143.27,86.778a1.65,1.65,0,0,1-1.645,1.615,1.72,1.72,0,0,1-1.645-1.69,1.648,1.648,0,0,1,.136-.634,1.674,1.674,0,0,1,.371-.533,1.653,1.653,0,0,1,1.187-.459,1.58,1.58,0,0,1,1.6,1.7Z" fill="#faba52"/>
      <path id="Path_4730" data-name="Path 4730" d="M330.921,86.814a1.6,1.6,0,0,1-1.612,1.628,1.65,1.65,0,0,1-1.672-1.582,1.709,1.709,0,0,1,1.677-1.7,1.649,1.649,0,0,1,1.607,1.657Z" fill="#faba52"/>
      <path id="Path_4731" data-name="Path 4731" d="M143.152,115.566A1.6,1.6,0,0,1,141,117.109a1.6,1.6,0,0,1-1.05-1.474,1.58,1.58,0,0,1,1.51-1.627,1.6,1.6,0,0,1,1.688,1.558Z" fill="#faba52"/>
      <path id="Path_4732" data-name="Path 4732" d="M329.162,114.073a1.609,1.609,0,1,1-1.1.478A1.607,1.607,0,0,1,329.162,114.073Z" fill="#faba52"/>
      <path id="Path_4733" data-name="Path 4733" d="M222.459,194.965a1.486,1.486,0,0,1-.9,1.4,1.473,1.473,0,0,1-.571.121,1.521,1.521,0,0,1-1.523-1.552,1.58,1.58,0,0,1,1.549-1.492,1.53,1.53,0,0,1,1.447,1.528Z" fill="#faba52"/>
      <path id="Path_4734" data-name="Path 4734" d="M249.8,193.565a1.5,1.5,0,0,1,1.526,1.47,1.53,1.53,0,0,1-1.552,1.574,1.569,1.569,0,0,1-1.489-1.539,1.528,1.528,0,0,1,1.515-1.505Z" fill="#faba52"/>
      <path id="Path_4735" data-name="Path 4735" d="M163.34,34.751a1.43,1.43,0,0,1,1.315.911,1.416,1.416,0,0,1,.1.554,1.456,1.456,0,0,1-.112.575,1.439,1.439,0,0,1-.329.485,1.459,1.459,0,0,1-1.071.413,1.47,1.47,0,1,1,.1-2.938Z" fill="#faba52"/>
      <path id="Path_4736" data-name="Path 4736" d="M307.638,37.761a1.469,1.469,0,0,1-1.483-1.51,1.5,1.5,0,0,1,1.47-1.434,1.481,1.481,0,0,1,1.376.944,1.5,1.5,0,0,1,.1.578,1.45,1.45,0,0,1-1.463,1.422Z" fill="#faba52"/>
      <path id="Path_4737" data-name="Path 4737" d="M300.455,27.6a1.462,1.462,0,0,1,1.367,1.587,1.42,1.42,0,0,1-1.509,1.35,1.459,1.459,0,0,1-1.378-1.451,1.5,1.5,0,0,1,.118-.576,1.49,1.49,0,0,1,1.4-.91Z" fill="#faba52"/>
      <path id="Path_4738" data-name="Path 4738" d="M171.963,29.118a1.46,1.46,0,0,1-1.528,1.354,1.514,1.514,0,0,1-1.219-2.17,1.46,1.46,0,0,1,1.476-.8,1.425,1.425,0,0,1,.983.536,1.44,1.44,0,0,1,.255.511,1.407,1.407,0,0,1,.033.57Z" fill="#faba52"/>
      <path id="Path_4739" data-name="Path 4739" d="M294.583,21.844a1.4,1.4,0,0,1-1.357,1.389,1.386,1.386,0,0,1-.981-2.39,1.36,1.36,0,0,1,.976-.372,1.4,1.4,0,0,1,1.362,1.373Z" fill="#faba52"/>
      <path id="Path_4740" data-name="Path 4740" d="M177.726,20.39a1.389,1.389,0,0,1,1.381,1.369,1.383,1.383,0,1,1-2.765-.015,1.389,1.389,0,0,1,1.384-1.354Z" fill="#faba52"/>
      <path id="Path_4741" data-name="Path 4741" d="M206.635,5.953a1.4,1.4,0,0,1,1.329,1.411,1.411,1.411,0,0,1-2.734.441,1.349,1.349,0,0,1-.08-.538,1.38,1.38,0,0,1,1.485-1.314Z" fill="#faba52"/>
      <path id="Path_4742" data-name="Path 4742" d="M265.715,7.418a1.383,1.383,0,1,1-2.766-.015,1.359,1.359,0,0,1,1.391-1.325,1.381,1.381,0,0,1,1.375,1.339Z" fill="#faba52"/>
      <path id="Path_4743" data-name="Path 4743" d="M329.3,71.06a1.34,1.34,0,0,1,1.234.86,1.327,1.327,0,0,1,.088.521,1.418,1.418,0,0,1-1.342,1.314,1.341,1.341,0,0,1-1.327-1.4A1.28,1.28,0,0,1,329.3,71.06Z" fill="#faba52"/>
      <path id="Path_4744" data-name="Path 4744" d="M314.87,42.19a1.351,1.351,0,0,1,1.306,1.3,1.392,1.392,0,0,1-1.382,1.322,1.33,1.33,0,0,1-1.329-1.411,1.27,1.27,0,0,1,1.4-1.215Z" fill="#faba52"/>
      <path id="Path_4745" data-name="Path 4745" d="M156.062,44.748a1.28,1.28,0,0,1-.92-.369,1.276,1.276,0,0,1-.381-.915A1.339,1.339,0,0,1,156.1,42.08a1.408,1.408,0,0,1,1.307,1.313,1.34,1.34,0,0,1-1.343,1.355Z" fill="#faba52"/>
      <path id="Path_4746" data-name="Path 4746" d="M141.649,73.624a1.293,1.293,0,0,1-.918-.372,1.289,1.289,0,0,1-.384-.912,1.354,1.354,0,0,1,.085-.52,1.341,1.341,0,0,1,1.221-.868,1.4,1.4,0,0,1,1.327,1.4,1.34,1.34,0,0,1-1.331,1.271Z" fill="#faba52"/>
      <path id="Path_4747" data-name="Path 4747" d="M300.333,172.1a1.286,1.286,0,0,1,.494.092,1.271,1.271,0,0,1,.421.274,1.286,1.286,0,0,1,.283.416,1.263,1.263,0,0,1,.1.492,1.341,1.341,0,0,1-.8,1.29,1.337,1.337,0,0,1-.522.112,1.411,1.411,0,0,1-1.329-1.41,1.342,1.342,0,0,1,1.353-1.266Z" fill="#faba52"/>
      <path id="Path_4748" data-name="Path 4748" d="M171.739,173.282a1.276,1.276,0,0,1-.364.91,1.274,1.274,0,0,1-.412.283,1.3,1.3,0,0,1-.488.1,1.342,1.342,0,0,1-1.4-1.231,1.41,1.41,0,0,1,1.391-1.325,1.342,1.342,0,0,1,1.276,1.259Z" fill="#faba52"/>
      <path id="Path_4749" data-name="Path 4749" d="M307.539,164.881a1.281,1.281,0,0,1,1.3,1.274,1.339,1.339,0,0,1-.364.982,1.347,1.347,0,0,1-.959.42,1.4,1.4,0,0,1-1.327-1.4,1.342,1.342,0,0,1,1.351-1.275Z" fill="#faba52"/>
      <path id="Path_4750" data-name="Path 4750" d="M164.527,166.064a1.288,1.288,0,0,1-1.227,1.371,1.339,1.339,0,0,1-1.432-1.224,1.41,1.41,0,0,1,1.355-1.4,1.34,1.34,0,0,1,1.3,1.252Z" fill="#faba52"/>
      <path id="Path_4751" data-name="Path 4751" d="M330.476,130.109a1.28,1.28,0,1,1-1.3-1.284,1.283,1.283,0,0,1,.92.369,1.276,1.276,0,0,1,.381.915Z" fill="#faba52"/>
      <path id="Path_4752" data-name="Path 4752" d="M314.772,160.205a1.183,1.183,0,0,1-.878-.342,1.2,1.2,0,0,1-.265-.4,1.183,1.183,0,0,1-.083-.474,1.239,1.239,0,0,1,.332-.9,1.255,1.255,0,0,1,.4-.282,1.222,1.222,0,0,1,.476-.106,1.311,1.311,0,0,1,1.29,1.235,1.224,1.224,0,0,1-.089.49,1.24,1.24,0,0,1-1.181.778Z" fill="#faba52"/>
      <path id="Path_4753" data-name="Path 4753" d="M154.767,158.889a1.191,1.191,0,0,1,1.244-1.2,1.233,1.233,0,0,1,1.228,1.228,1.3,1.3,0,0,1-1.258,1.234,1.238,1.238,0,0,1-1.214-1.261Z" fill="#faba52"/>
      <path id="Path_4754" data-name="Path 4754" d="M293.094,181.855a1.189,1.189,0,0,1-1.2-1.244,1.241,1.241,0,0,1,1.249-1.223,1.3,1.3,0,0,1,1.217,1.272,1.219,1.219,0,0,1-1.266,1.195Z" fill="#faba52"/>
      <path id="Path_4755" data-name="Path 4755" d="M176.444,180.55a1.192,1.192,0,0,1,1.218-1.226,1.242,1.242,0,0,1,.483.079,1.226,1.226,0,0,1,.415.259,1.24,1.24,0,0,1,.389.877,1.3,1.3,0,0,1-1.246,1.242,1.228,1.228,0,0,1-.889-.35,1.23,1.23,0,0,1-.37-.881Z" fill="#faba52"/>
      <path id="Path_4756" data-name="Path 4756" d="M140.331,130.083a1.189,1.189,0,0,1,.314-.9,1.193,1.193,0,0,1,.872-.381,1.251,1.251,0,0,1,1.28,1.186,1.3,1.3,0,0,1-1.205,1.284,1.23,1.23,0,0,1-1.261-1.19Z" fill="#faba52"/>
      <path id="Path_4757" data-name="Path 4757" d="M206.481,196.165a1.179,1.179,0,1,1,.835-.318,1.18,1.18,0,0,1-.835.318Z" fill="#faba52"/>
      <path id="Path_4758" data-name="Path 4758" d="M264.259,193.892a1.18,1.18,0,1,1-.828.337,1.183,1.183,0,0,1,.828-.337Z" fill="#faba52"/>
      <path id="Path_4759" data-name="Path 4759" d="M320.961,50.755a1.069,1.069,0,0,1,1.073-1.092A1.12,1.12,0,0,1,323.21,50.7a1.181,1.181,0,0,1-1.131,1.207,1.129,1.129,0,0,1-1.118-1.149Z" fill="#faba52"/>
      <path id="Path_4760" data-name="Path 4760" d="M148.873,51.759a1.079,1.079,0,0,1-1.123-1.076,1.14,1.14,0,0,1,1.056-1.17A1.189,1.189,0,0,1,150,50.666a1.129,1.129,0,0,1-1.124,1.093Z" fill="#faba52"/>
      <path id="Path_4761" data-name="Path 4761" d="M184.93,15.668a1.07,1.07,0,0,1-.787-.315,1.058,1.058,0,0,1-.237-.362,1.071,1.071,0,0,1-.075-.426,1.12,1.12,0,0,1,1.073-1.143A1.19,1.19,0,0,1,186.08,14.6a1.131,1.131,0,0,1-1.15,1.068Z" fill="#faba52"/>
      <path id="Path_4762" data-name="Path 4762" d="M284.863,14.669a1.108,1.108,0,0,1,.069-.427,1.09,1.09,0,0,1,1.006-.706,1.141,1.141,0,0,1,1.178,1.044,1.19,1.19,0,0,1-1.14,1.209,1.151,1.151,0,0,1-1.113-1.12Z" fill="#faba52"/>
      <path id="Path_4763" data-name="Path 4763" d="M242.692,1.274A1.061,1.061,0,0,1,241.94.99,1.057,1.057,0,0,1,241.6.261a1.085,1.085,0,0,1,.078-.425,1.11,1.11,0,0,1,.238-.361,1.093,1.093,0,0,1,.36-.24,1.087,1.087,0,0,1,.424-.082,1,1,0,0,1,.4.076.994.994,0,0,1,.34.233,1,1,0,0,1,.274.759.987.987,0,0,1-.063.406,1,1,0,0,1-.967.646Z" fill="#faba52"/>
      <path id="Path_4764" data-name="Path 4764" d="M229.295.174a1.058,1.058,0,0,1-.319.737,1.061,1.061,0,0,1-.745.3,1.08,1.08,0,0,1-.77-.354,1.083,1.083,0,0,1-.221-.372,1.077,1.077,0,0,1-.057-.429A1.06,1.06,0,0,1,228.3-.92a1,1,0,0,1,.4.086,1.007,1.007,0,0,1,.335.242,1.008,1.008,0,0,1,.208.356A1,1,0,0,1,229.295.174Z" fill="#faba52"/>
      <path id="Path_4765" data-name="Path 4765" d="M185.874,187.808a1.049,1.049,0,0,1-1.1.965,1,1,0,0,1-.215-1.942,1.018,1.018,0,0,1,.4-.042,1,1,0,0,1,.916,1.019Z" fill="#faba52"/>
      <path id="Path_4766" data-name="Path 4766" d="M285.916,186.837a1.08,1.08,0,0,1,1,1.083,1.014,1.014,0,1,1-1-1.083Z" fill="#faba52"/>
      <path id="Path_4767" data-name="Path 4767" d="M135.427,93.983a1,1,0,0,1-.972.988,1.08,1.08,0,0,1-1.035-1.045,1,1,0,0,1,.338-.717,1,1,0,0,1,1.669.773Z" fill="#faba52"/>
      <path id="Path_4768" data-name="Path 4768" d="M322.993,151.773a1,1,0,0,1-.719.908.983.983,0,0,1-.407.032,1,1,0,0,1,.109-2,1.08,1.08,0,0,1,1.017,1.058Z" fill="#faba52"/>
      <path id="Path_4769" data-name="Path 4769" d="M149.788,151.679a1.068,1.068,0,0,1-1.057,1.027,1.01,1.01,0,1,1,1.057-1.027Z" fill="#faba52"/>
      <path id="Path_4770" data-name="Path 4770" d="M135.235,108.4a.849.849,0,0,1-.06.352.868.868,0,0,1-.2.3.865.865,0,0,1-.653.252.931.931,0,0,1-.95-.889,1,1,0,0,1,.987-.971.93.93,0,0,1,.872.957Z" fill="#faba52"/>
      <path id="Path_4771" data-name="Path 4771" d="M257.965.175a.829.829,0,0,1-.043.339.841.841,0,0,1-.45.494.843.843,0,0,1-.334.073.857.857,0,0,1-.34-.043.853.853,0,0,1-.3-.172A.874.874,0,0,1,256.3.591a.873.873,0,0,1-.082-.333.835.835,0,0,1,.062-.324.846.846,0,0,1,.182-.275.842.842,0,0,1,.273-.184,1.086,1.086,0,0,1,.65-.03.846.846,0,0,1,.288.158.837.837,0,0,1,.206.256.83.83,0,0,1,.091.315Z" fill="#faba52"/>
      <path id="Path_4772" data-name="Path 4772" d="M229.033,202.217a.881.881,0,0,1-.842.838.863.863,0,0,1-.637-.28.864.864,0,0,1-.221-.66.838.838,0,0,1,.087-.318.852.852,0,0,1,1.392-.18.862.862,0,0,1,.221.6Z" fill="#faba52"/>
      <path id="Path_4773" data-name="Path 4773" d="M242.556,203.1a.76.76,0,0,1-.818-.846.869.869,0,0,1,.842-.837.891.891,0,0,1,.345.075.908.908,0,0,1,.288.2.889.889,0,0,1,.243.647.8.8,0,0,1-.082.318.8.8,0,0,1-.818.44Z" fill="#faba52"/>
      <path id="Path_4774" data-name="Path 4774" d="M279.622,7.475a.851.851,0,0,1-.849.808.88.88,0,0,1-.837-.842.831.831,0,0,1,.764-.82,1,1,0,0,1,.922.854Z" fill="#faba52"/>
      <path id="Path_4775" data-name="Path 4775" d="M213.926-.681a.752.752,0,0,1,.3.043.751.751,0,0,1,.257.157.752.752,0,0,1,.175.245.745.745,0,0,1,.064.294.869.869,0,0,1-.227.623.869.869,0,0,1-.6.282.859.859,0,0,1-.6-.245.861.861,0,0,1-.259-.593C212.968-.382,213.285-.665,213.926-.681Z" fill="#faba52"/>
      <path id="Path_4776" data-name="Path 4776" d="M192.94,7.3a.809.809,0,0,1-.73.833.851.851,0,0,1-.843-.728.859.859,0,0,1,.842-.837.78.78,0,0,1,.731.732Z" fill="#faba52"/>
      <path id="Path_4777" data-name="Path 4777" d="M141.653,57.068c.731.394.894.676.72,1.1s-.523.512-1.29.279Z" fill="#faba52"/>
      <path id="Path_4778" data-name="Path 4778" d="M134.5,78.754c.563.144.74.443.7.871s-.378.665-.867.72C134.085,79.755,134.384,79.291,134.5,78.754Z" fill="#faba52"/>
      <path id="Path_4779" data-name="Path 4779" d="M134.814,123.082a3.357,3.357,0,0,0-.217-.721c.117-.025.205-.044.225,0a4.281,4.281,0,0,0,.246.663Z" fill="#faba52"/>
    </g>
    <path id="Path_4780" data-name="Path 4780" d="M75.2,82.419a6.2,6.2,0,0,1-6.211,6.211H37.768a6.2,6.2,0,0,1-6.211-6.211V60.262a6.2,6.2,0,0,1,6.211-6.211H68.99A6.2,6.2,0,0,1,75.2,60.262Z" fill="#ffca3f" fill-rule="evenodd"/>
    <path id="Path_4781" data-name="Path 4781" d="M75.2,64.794v-.839H67.143V53.883H66.3V63.954H59.757a7.258,7.258,0,0,0-6.211-5.036V53.883h-.839v5.036a7.05,7.05,0,0,0-6.714,5.036H40.286V53.883h-.839V63.954H31.389v.839h8.057V76.208H31.389v.839h8.057V88.629h.839V77.047h5.707a7.022,7.022,0,0,0,6.882,5.539v6.043h.839V82.586a7.156,7.156,0,0,0,6.379-5.539h6.379V88.629h.671V77.047H75.2v-.839H70.5V64.794ZM45.993,76.208H40.286V64.794h5.707c0,.5-.168.839-.168,1.343A7.163,7.163,0,0,0,47.5,70.669,6.617,6.617,0,0,0,45.825,75.2C45.825,75.7,45.993,75.872,45.993,76.208Zm7.05,5.539a6.376,6.376,0,0,1-6.379-6.379A6.711,6.711,0,0,1,48.343,71l.168-.336-.168-.336a5.944,5.944,0,0,1-1.679-4.364,6.379,6.379,0,0,1,12.757,0,6.711,6.711,0,0,1-1.679,4.364l-.336.336.336.336a5.945,5.945,0,0,1,1.679,4.364A6.376,6.376,0,0,1,53.043,81.747Zm16.618-5.539h-9.4v-.839a7.163,7.163,0,0,0-1.679-4.532A6.617,6.617,0,0,0,60.261,66.3a3.7,3.7,0,0,0-.168-1.343h9.568V76.208Z" fill="#fff"/>
    <path id="Path_4782" data-name="Path 4782" d="M33.236,112.632l-1.007-1.007,3.021-3.357h2.518v15.275H36.089V109.61Z" fill="#d6d6d6"/>
    <path id="Path_4783" data-name="Path 4783" d="M41.125,123.542v-2.853l.336-.336,7.218-6.546c.168-.168.336-.336.336-.5v-3.189l-.168-.168c-.168-.168-.168-.168-.336-.168H43.643a.52.52,0,0,0-.336.168l-.168.168v.839H41.293v-.839a1.524,1.524,0,0,1,.5-1.175l.5-.5a1.453,1.453,0,0,1,1.007-.5h5.539a1.453,1.453,0,0,1,1.007.5l.5.5a1.523,1.523,0,0,1,.5,1.175v3.693c0,.167-.168.335-.336.5l-7.218,6.547c-.168.167-.336.335-.336.5v.672h8.057v1.51Z" fill="#d6d6d6"/>
    <path id="Path_4784" data-name="Path 4784" d="M63.114,115.821l.839.671.336.336V122.2c0,.168-.168.336-.336.5l-.336.336a1.453,1.453,0,0,1-1.007.5H56.4a1.453,1.453,0,0,1-1.007-.5l-.5-.5a1.451,1.451,0,0,1-.5-1.007v-.839h1.846v.839l.168.168c.168.168.168.168.336.168h5.371a.52.52,0,0,0,.336-.168l.168-.168v-3.861a1.283,1.283,0,0,0-.336-.839l-.336-.336c-.168-.167-.336-.335-.5-.335H57.407v-1.343H61.1c.168,0,.168-.168.5-.336l.336-.336.336-.335v-3.693l-.168-.168c-.168-.168-.168-.168-.336-.168H57.239a.52.52,0,0,0-.336.168l-.168.168v.839H54.889v-.839a1.524,1.524,0,0,1,.5-1.175l.5-.5a1.453,1.453,0,0,1,1.007-.5h5.2a1.453,1.453,0,0,1,1.007.5l.5.5a1.524,1.524,0,0,1,.5,1.175v4.028l-.336.336-.672.5a1.277,1.277,0,0,1-.671.335v.168A.872.872,0,0,1,63.114,115.821Z" fill="#d6d6d6"/>
    <path id="Path_4785" data-name="Path 4785" d="M75.2,114.142h1.846v4.365h2.014v1.51H77.046v3.525H75.2v-3.525H67.479v-1.846L74.864,108.1h2.014l-7.218,9.735-.336.336v.168H75.2v-4.2Z" fill="#d6d6d6"/>
    <path id="Path_4786" data-name="Path 4786" d="M102.225,113.471h4.868a1.45,1.45,0,0,1,1.007.5l.5.5a1.454,1.454,0,0,1,.5,1.007v6.043a1.014,1.014,0,0,1-.5,1.007l-.5.5a1.45,1.45,0,0,1-1.007.5h-6.379a1.451,1.451,0,0,1-1.007-.5l-.5-.5a1.448,1.448,0,0,1-.5-1.007v-.839h1.847v.839l.167.168c.168.168.168.168.336.168h5.875a.52.52,0,0,0,.336-.168l.168-.168v-6.21l-.168-.168c-.168-.168-.168-.168-.336-.168h-4.7a1.453,1.453,0,0,0-1.007.5c-.336.336-.5.5-.5.84H98.868v-8.057h10.239v1.51h-8.393v4.7h.168c0-.168.168-.335.5-.671A2.835,2.835,0,0,1,102.225,113.471Z" fill="#d6d6d6"/>
    <path id="Path_4787" data-name="Path 4787" d="M124.047,111.121H122.2v-.839l-.168-.168c-.168-.168-.168-.168-.335-.168h-6.211a.52.52,0,0,0-.336.168l-.168.168v4.868h.168l.168-.168c.5-.5.839-.84,1.175-.84h5.875a1.45,1.45,0,0,1,1.007.5l.5.5a1.524,1.524,0,0,1,.5,1.175V121.7a1.015,1.015,0,0,1-.5,1.007l-.5.5a1.453,1.453,0,0,1-1.007.5h-7.05a1.453,1.453,0,0,1-1.007-.5l-.5-.5a1.453,1.453,0,0,1-.5-1.007V110.282a1.524,1.524,0,0,1,.5-1.175l.5-.5a1.449,1.449,0,0,1,1.007-.5H122.2a1.447,1.447,0,0,1,1.007.5l.5.5a1.521,1.521,0,0,1,.5,1.175v.839Zm-1.511,9.9v-5.036l-.168-.168c-.168-.168-.168-.168-.336-.168h-5.875c-.168,0-.335.168-.5.336q-.5.252-.5.5v5.036l.168.168c.168.168.168.168.336.168h6.378a.52.52,0,0,0,.336-.168l.168-.168C122.368,121.36,122.536,121.36,122.536,121.025Z" fill="#d6d6d6"/>
    <path id="Path_4788" data-name="Path 4788" d="M128.578,123.543l7.218-13.261c.168-.168.336-.336.336-.5h-9.4v-1.51h11.246v1.678l-7.217,13.6Z" fill="#d6d6d6"/>
    <path id="Path_4789" data-name="Path 4789" d="M141.5,116.66l1.007-.839a1.274,1.274,0,0,1,.672-.336v-.168c-.168,0-.336-.168-.672-.335l-.671-.5a1.274,1.274,0,0,1-.336-.671v-3.693a1.523,1.523,0,0,1,.5-1.175l.5-.5a1.454,1.454,0,0,1,1.007-.5h6.715a1.454,1.454,0,0,1,1.007.5l.5.5a1.523,1.523,0,0,1,.5,1.175v3.693a.872.872,0,0,1-.336.671l-.671.5a1.279,1.279,0,0,1-.672.335v.168c.168,0,.336.168.672.336l1.007.839a1.283,1.283,0,0,1,.336.839v3.861a1.013,1.013,0,0,1-.5,1.007c-.168.168-.336.168-.5.5a1.447,1.447,0,0,1-1.007.5h-7.218a1.45,1.45,0,0,1-1.007-.5l-.5-.5a1.448,1.448,0,0,1-.5-1.007v-3.693A.94.94,0,0,1,141.5,116.66Zm7.554-.168h-4.868a.587.587,0,0,1-.336.168l-.5.336-.335.336v4.028l.168.168c.167.168.167.168.335.168h6.547a.517.517,0,0,0,.335-.168l.168-.168v-4.028l-.335-.336-.5-.336a.52.52,0,0,0-.336-.168Zm.335-6.714h-5.539a.52.52,0,0,0-.336.168l-.168.168v3.861l.336.335.5.5a.519.519,0,0,0,.335.168h4.7a.587.587,0,0,1,.336-.168l.5-.5.335-.335v-3.861l-.167-.168c-.168-.168-.168-.168-.336-.168Z" fill="#d6d6d6"/>
    <path id="Path_4790" data-name="Path 4790" d="M172.893,120.689h1.846v.839l.168.168c.168.168.168.168.336.168h6.211a.519.519,0,0,0,.335-.168l.168-.168V116.66h-.168l-.168.168c-.5.5-.839.839-1.175.839h-5.875a1.45,1.45,0,0,1-1.007-.5l-.5-.5a1.448,1.448,0,0,1-.5-1.007v-5.371a1.522,1.522,0,0,1,.5-1.175l.5-.5a1.45,1.45,0,0,1,1.007-.5h7.05a1.45,1.45,0,0,1,1.008.5l.5.5a1.522,1.522,0,0,1,.5,1.175V121.7a1.014,1.014,0,0,1-.5,1.007l-.5.5a1.455,1.455,0,0,1-1.008.5h-6.882a1.454,1.454,0,0,1-1.007-.5l-.5-.5a1.45,1.45,0,0,1-.5-1.007v-1.007Zm1.511-10.072v5.036l.167.168c.168.168.168.168.336.168h5.875c.168,0,.336-.168.5-.336q.5-.252.5-.5v-5.036l-.168-.168c-.167-.168-.167-.168-.335-.168h-6.379a.52.52,0,0,0-.336.168l-.167.168Z" fill="#d6d6d6"/>
    <path id="Path_4791" data-name="Path 4791" d="M189.846,108.268h8.561a1.448,1.448,0,0,1,1.007.5l.5.5a1.524,1.524,0,0,1,.5,1.175v11.414a1.015,1.015,0,0,1-.5,1.007l-.5.5a1.453,1.453,0,0,1-1.007.5h-8.561a1.454,1.454,0,0,1-1.007-.5l-.5-.5a1.45,1.45,0,0,1-.5-1.007V110.45a1.522,1.522,0,0,1,.5-1.175l.5-.5A1.45,1.45,0,0,1,189.846,108.268Zm8.9,12.757V110.114l-.168-.168c-.168-.168-.168-.168-.336-.168h-8.057a.52.52,0,0,0-.336.168l-.168.168v11.414l.168.168c.168.168.168.168.336.168h8.057a.52.52,0,0,0,.336-.168l.168-.168Z" fill="#d6d6d6"/>
    <path id="Path_4792" data-name="Path 4792" d="M204.785,112.632l-1.007-1.007,3.022-3.357h2.518v15.275h-1.679V109.61Z" fill="#d6d6d6"/>
    <path id="Path_4793" data-name="Path 4793" d="M212.675,123.542v-2.853l.336-.336,7.217-6.546c.168-.168.336-.336.336-.5v-3.189l-.168-.168c-.168-.168-.168-.168-.335-.168h-4.868a.52.52,0,0,0-.336.168l-.168.168v.839h-1.846v-.839a1.526,1.526,0,0,1,.5-1.175l.5-.5a1.453,1.453,0,0,1,1.007-.5H220.4a1.451,1.451,0,0,1,1.007.5l.5.5a1.523,1.523,0,0,1,.5,1.175v3.693c0,.167-.168.335-.336.5l-7.218,6.547c-.168.167-.336.335-.336.5v.672h8.057v1.51Z" fill="#d6d6d6"/>
    <path id="Path_4794" data-name="Path 4794" d="M251.114,115.821l.839.671.336.336V122.2c0,.168-.168.336-.336.5l-.336.336a1.451,1.451,0,0,1-1.007.5H244.4a1.455,1.455,0,0,1-1.008-.5l-.5-.5a1.45,1.45,0,0,1-.5-1.007v-.839h1.847v.839l.168.168c.167.168.167.168.335.168h5.372a.517.517,0,0,0,.335-.168l.168-.168v-3.861a1.287,1.287,0,0,0-.335-.839l-.336-.336c-.168-.167-.336-.335-.5-.335h-4.028v-1.343H249.1c.167,0,.167-.168.5-.336l.336-.336.336-.335v-3.693l-.168-.168c-.168-.168-.168-.168-.336-.168h-4.532a.52.52,0,0,0-.336.168l-.168.168v.839h-1.846v-.839a1.526,1.526,0,0,1,.5-1.175l.5-.5a1.453,1.453,0,0,1,1.007-.5h5.2a1.454,1.454,0,0,1,1.007.5l.5.5a1.523,1.523,0,0,1,.5,1.175v4.028c0,.168-.168.168-.336.336l-.671.5a1.279,1.279,0,0,1-.672.335v.168A1.274,1.274,0,0,1,251.114,115.821Z" fill="#d6d6d6"/>
    <path id="Path_4795" data-name="Path 4795" d="M263.2,114.142h1.846v4.365h2.015v1.51h-2.015v3.525H263.2v-3.525h-7.721v-1.846l7.385-10.071h2.015l-7.218,9.735-.336.336v.168H263.2Z" fill="#d6d6d6"/>
    <path id="Path_4796" data-name="Path 4796" d="M273.943,113.471h4.868a1.452,1.452,0,0,1,1.007.5l.5.5a1.452,1.452,0,0,1,.5,1.007v6.043a1.013,1.013,0,0,1-.5,1.007l-.5.5a1.452,1.452,0,0,1-1.007.5h-6.547a1.452,1.452,0,0,1-1.007-.5l-.5-.5a1.448,1.448,0,0,1-.5-1.007v-.839H272.1v.839l.168.168c.168.168.168.168.336.168h5.875a.52.52,0,0,0,.336-.168l.168-.168v-6.21l-.168-.168c-.168-.168-.168-.168-.336-.168h-4.7a1.453,1.453,0,0,0-1.007.5c-.336.336-.5.5-.5.84h-1.846v-8.057h10.239v1.51h-8.393v4.7h.168c0-.168.168-.335.5-.671A2.379,2.379,0,0,1,273.943,113.471Z" fill="#d6d6d6"/>
    <path id="Path_4797" data-name="Path 4797" d="M295.6,111.121H293.75v-.839l-.168-.168c-.168-.168-.168-.168-.336-.168h-6.21a.52.52,0,0,0-.336.168l-.168.168v4.868h.168l.168-.168c.5-.5.839-.84,1.175-.84h5.875a1.45,1.45,0,0,1,1.007.5l.5.5a1.524,1.524,0,0,1,.5,1.175V121.7a1.015,1.015,0,0,1-.5,1.007l-.5.5a1.453,1.453,0,0,1-1.007.5h-7.05a1.451,1.451,0,0,1-1.007-.5l-.5-.5a1.448,1.448,0,0,1-.5-1.007V110.282a1.521,1.521,0,0,1,.5-1.175l.5-.5a1.447,1.447,0,0,1,1.007-.5h6.882a1.448,1.448,0,0,1,1.007.5l.5.5a1.524,1.524,0,0,1,.5,1.175v.839Zm-1.51,9.9v-5.036l-.168-.168c-.168-.168-.168-.168-.336-.168h-5.875c-.168,0-.336.168-.5.336q-.5.252-.5.5v5.036l.168.168c.168.168.168.168.336.168h6.378a.52.52,0,0,0,.336-.168l.168-.168Z" fill="#d6d6d6"/>
    <path id="Path_4798" data-name="Path 4798" d="M41.125,171.046V160.807h1.511v12.757H41.125l-6.714-10.24a1.515,1.515,0,0,1,.168.84v9.4H33.067V160.807h1.511Z" fill="#d6d6d6"/>
    <path id="Path_4799" data-name="Path 4799" d="M51.868,172.725q0,.252-.5.5a.619.619,0,0,1-.5.167H47.168c-.336,0-.5-.167-.839-.335l-.5-.336a.923.923,0,0,1-.5-.839V169.7a.924.924,0,0,1,.5-.84l.5-.335c.336-.168.5-.336.839-.336h3.693a.164.164,0,0,1,.168.168c.168.168.168.168.168.335v-2.685a.165.165,0,0,0-.168-.168c-.168,0-.168-.168-.336-.168H46.832a2.078,2.078,0,0,1-.5.336l-1.175-.84.5-.335c.168-.168.336-.336.5-.336h4.7c.336,0,.5.168.839.336l.5.335a.924.924,0,0,1,.5.84v5.707a.164.164,0,0,0,.168.168l.168.168v1.175H51.868a.586.586,0,0,0-.336-.168C52.035,173.061,51.868,172.893,51.868,172.725Zm-4.7-2.686v1.679a.165.165,0,0,0,.168.168c.168.168.168.168.336.168h3.189a.735.735,0,0,1,.5-.168c.168-.168.336-.168.336-.336V169.7a.165.165,0,0,0-.168-.168c-.168-.168-.168-.168-.336-.168H47.839a.52.52,0,0,0-.336.168l-.168.168A.582.582,0,0,0,47.168,170.039Z" fill="#d6d6d6"/>
    <path id="Path_4800" data-name="Path 4800" d="M62.946,165.171l.336-.335.336-.168a.616.616,0,0,1,.5-.168h3.357c.336,0,.5.168.839.336l.5.335a.924.924,0,0,1,.5.84V173.4H67.813v-7.385a.165.165,0,0,0-.168-.168c-.168,0-.168-.168-.336-.168H64.456a.735.735,0,0,1-.5.168q-.5.252-.5.5v7.05H61.938v-7.385a.165.165,0,0,0-.168-.168c-.168,0-.168-.168-.336-.168H58.749a.735.735,0,0,1-.5.168c-.168.168-.336.168-.336.336V173.4H56.4v-7.385a.165.165,0,0,0-.168-.168.164.164,0,0,1-.168-.168V164.5h1.175a.586.586,0,0,0,.336.168c.168.168.336.336.336.5,0-.167.168-.335.336-.5a.616.616,0,0,1,.5-.168h3.189c.336,0,.5.168.839.336A.583.583,0,0,0,62.946,165.171Z" fill="#d6d6d6"/>
    <path id="Path_4801" data-name="Path 4801" d="M78.221,171.886l1.175.839-.5.336c-.168.167-.336.335-.5.335H73.017c-.336,0-.5-.168-.839-.335l-.5-.336a.923.923,0,0,1-.5-.839v-5.875a.924.924,0,0,1,.5-.84l.5-.5c.336-.168.5-.336.839-.336h4.2a2.835,2.835,0,0,1,.839.336l.5.335a.924.924,0,0,1,.5.84v3.693H72.85v2.014a.164.164,0,0,0,.168.168c.168.168.168.168.336.168h4.364Q77.717,172.136,78.221,171.886Zm-.671-3.358v-2.517a.165.165,0,0,0-.168-.168c-.168,0-.168-.168-.336-.168H73.521a.52.52,0,0,0-.336.168l-.168.168v2.517Z" fill="#d6d6d6"/>
    <path id="Path_4802" data-name="Path 4802" d="M92.321,167.689H87.957c-.336,0-.5-.168-.839-.336l-.5-.335a.671.671,0,0,1-.336-.672v-3.693a.924.924,0,0,1,.5-.839l.5-.336c.336-.168.5-.335.839-.335h4.868c.336,0,.5.167.839.335l.5.336a.924.924,0,0,1,.5.839v.672H93.328v-.672a.164.164,0,0,0-.168-.168c-.168,0-.168-.167-.336-.167h-4.2a.521.521,0,0,0-.336.167l-.168.168v3.525a.165.165,0,0,0,.168.168c.168.168.168.168.336.168h4.7c.336,0,.5.168.839.336l.5.335a.924.924,0,0,1,.5.84v3.86a.924.924,0,0,1-.5.84l-.5.335c-.336.168-.5.336-.839.336h-5.2c-.336,0-.5-.168-.839-.336l-.5-.335a.924.924,0,0,1-.5-.84v-.671h1.511v.671a.165.165,0,0,0,.168.168c.168.168.168.168.336.168h4.532a.52.52,0,0,0,.336-.168l.168-.168v-3.692a.164.164,0,0,0-.168-.168c-.168-.168-.168-.168-.336-.168A.616.616,0,0,0,92.321,167.689Z" fill="#d6d6d6"/>
    <path id="Path_4803" data-name="Path 4803" d="M101.888,173.4H99.035c-.336,0-.5-.167-.839-.335l-.5-.336a.924.924,0,0,1-.5-.839V164.5H98.7v7.386a.164.164,0,0,0,.168.168c.168.167.168.167.336.167h2.853a.738.738,0,0,1,.5-.167c.168-.168.336-.168.336-.336V164.5h1.51v7.386a.165.165,0,0,0,.168.168l.168.167V173.4h-1.175a.588.588,0,0,0-.336-.167c-.168-.168-.335-.336-.335-.5,0,.168-.168.336-.336.5a.62.62,0,0,1-.5.167Z" fill="#d6d6d6"/>
    <path id="Path_4804" data-name="Path 4804" d="M107.093,164.332h1.175a.586.586,0,0,0,.335.168c.168.168.336.336.336.5,0-.167.168-.335.336-.5a.616.616,0,0,1,.5-.168h2.183c.335,0,.5.168.839.336l.5.335-1.175.84-.167-.168c-.168,0-.168-.168-.336-.168h-1.679a.735.735,0,0,1-.5.168c-.168.168-.336.168-.336.336v7.217H107.6v-7.217a.165.165,0,0,0-.168-.168.164.164,0,0,1-.167-.168v-1.343Z" fill="#d6d6d6"/>
    <path id="Path_4805" data-name="Path 4805" d="M114.646,164.332h1.175a.587.587,0,0,0,.336.168c.168.168.336.336.336.5,0-.167.168-.335.336-.5a.614.614,0,0,1,.5-.168h3.693c.336,0,.5.168.839.336l.5.335a.923.923,0,0,1,.5.84v7.385h-1.51v-7.217a.165.165,0,0,0-.168-.168c-.168,0-.168-.168-.336-.168h-3.189a.736.736,0,0,1-.5.168c-.168.168-.335.168-.335.335V173.4h-1.511v-7.385a.165.165,0,0,0-.168-.168.165.165,0,0,1-.168-.168v-1.343Z" fill="#d6d6d6"/>
    <path id="Path_4806" data-name="Path 4806" d="M131.264,172.725q0,.252-.5.5a.62.62,0,0,1-.5.167h-3.693c-.336,0-.5-.167-.839-.335l-.5-.336a.924.924,0,0,1-.5-.839V169.7a.925.925,0,0,1,.5-.84l.5-.335c.336-.168.5-.336.839-.336h3.693a.165.165,0,0,1,.168.168c.168.168.168.168.168.335v-2.685a.165.165,0,0,0-.168-.168c-.168,0-.168-.168-.336-.168h-3.861a2.057,2.057,0,0,1-.5.336l-1.175-.84.5-.335c.168-.168.336-.336.5-.336h4.7c.336,0,.5.168.839.336l.5.335a.923.923,0,0,1,.5.84v5.707a.165.165,0,0,0,.168.168l.168.168v1.175h-1.175a.587.587,0,0,0-.336-.168C131.432,173.061,131.264,172.893,131.264,172.725Zm-4.7-2.686v1.679a.165.165,0,0,0,.168.168c.168.168.168.168.336.168h3.021a.736.736,0,0,1,.5-.168c.168-.168.335-.168.335-.336V169.7a.164.164,0,0,0-.167-.168c-.168-.168-.168-.168-.336-.168h-3.189a.52.52,0,0,0-.336.168l-.168.168C126.564,169.7,126.564,169.871,126.564,170.039Z" fill="#d6d6d6"/>
    <path id="Path_4807" data-name="Path 4807" d="M142.342,165.171l.336-.335.336-.168a.614.614,0,0,1,.5-.168h3.357c.336,0,.5.168.84.336l.5.335a.924.924,0,0,1,.5.84V173.4H147.21v-7.385a.165.165,0,0,0-.168-.168c-.168,0-.168-.168-.336-.168h-2.853a.736.736,0,0,1-.5.168q-.5.252-.5.5v7.05h-1.511v-7.385a.165.165,0,0,0-.168-.168c-.168,0-.168-.168-.336-.168h-2.685a.736.736,0,0,1-.5.168c-.168.168-.336.168-.336.336V173.4H135.8v-7.385a.165.165,0,0,0-.168-.168.165.165,0,0,1-.168-.168V164.5h1.175a.587.587,0,0,0,.336.168c.168.168.335.336.335.5,0-.167.168-.335.336-.5a.617.617,0,0,1,.5-.168h3.189c.336,0,.5.168.839.336A.582.582,0,0,0,142.342,165.171Z" fill="#d6d6d6"/>
    <path id="Path_4808" data-name="Path 4808" d="M157.449,171.886l1.175.839-.5.336c-.168.168-.336.335-.5.335h-5.371c-.336,0-.5-.167-.839-.335l-.5-.336a.923.923,0,0,1-.5-.839v-5.875a.924.924,0,0,1,.5-.84l.5-.335c.335-.168.5-.336.839-.336h4.2a2.838,2.838,0,0,1,.84.336l.5.335a.924.924,0,0,1,.5.84V169.7h-6.211v2.014a.165.165,0,0,0,.168.168c.168.168.168.168.336.168h4.364A.614.614,0,0,0,157.449,171.886Zm-.5-3.357v-2.518a.165.165,0,0,0-.168-.168c-.168,0-.168-.168-.336-.168h-3.525a.517.517,0,0,0-.335.168l-.168.168v2.518Z" fill="#d6d6d6"/>
    <path id="Path_4809" data-name="Path 4809" d="M38.775,135.8a5.912,5.912,0,0,1-.671,3.357,2.621,2.621,0,0,1-2.182,1.175,2.278,2.278,0,0,1-2.182-1.175,6.271,6.271,0,0,1-.671-3.357,5.912,5.912,0,0,1,.671-3.357,2.618,2.618,0,0,1,2.182-1.175,2.276,2.276,0,0,1,2.182,1.175A5.912,5.912,0,0,1,38.775,135.8Zm-4.532,0a8.18,8.18,0,0,0,.336,2.518,1.242,1.242,0,0,0,2.35,0,9.611,9.611,0,0,0,0-5.036,1.242,1.242,0,0,0-2.35,0A8.18,8.18,0,0,0,34.242,135.8Z" fill="#d6d6d6"/>
    <path id="Path_4810" data-name="Path 4810" d="M43.978,140.16H42.635v-7.385l-.336.335a14.626,14.626,0,0,1-1.343,1.175l-.671-.839,2.518-2.014h1.175Z" fill="#d6d6d6"/>
    <path id="Path_4811" data-name="Path 4811" d="M52.875,140.16H47v-1.007l2.182-2.182a8.5,8.5,0,0,0,1.343-1.511c.168-.336.336-.5.5-.839a1.516,1.516,0,0,0,.168-.84,2.389,2.389,0,0,0-.336-1.007,1.418,1.418,0,0,0-1.007-.335,2.139,2.139,0,0,0-1.007.167,3.511,3.511,0,0,0-1.007.672L47,132.271a15.486,15.486,0,0,1,1.343-.84,4.924,4.924,0,0,1,1.511-.335,2.678,2.678,0,0,1,2.014.671,2.156,2.156,0,0,1,.671,1.679,2.858,2.858,0,0,1-.168,1.175A9.709,9.709,0,0,1,51.7,135.8l-1.511,1.51-1.511,1.511h4.2Z" fill="#d6d6d6"/>
    <path id="Path_4812" data-name="Path 4812" d="M59.421,133.446a1.907,1.907,0,0,1-.5,1.343,2.075,2.075,0,0,1-1.343.671,3.162,3.162,0,0,1,1.511.672,1.9,1.9,0,0,1,.5,1.342,2.781,2.781,0,0,1-.839,2.015,4.049,4.049,0,0,1-2.518.671,5.615,5.615,0,0,1-2.518-.5v-1.175c.336.167.839.335,1.175.5a2.854,2.854,0,0,0,1.175.168,3.35,3.35,0,0,0,1.511-.336,1.307,1.307,0,0,0,.5-1.175,1.015,1.015,0,0,0-.5-1.007A4.209,4.209,0,0,0,55.9,136.3h-.839v-1.175H55.9q2.014,0,2.014-1.51a1.284,1.284,0,0,0-.336-.84,1.806,1.806,0,0,0-1.007-.335,2.127,2.127,0,0,0-1.007.168l-1.007.5-.672-1.007a4.128,4.128,0,0,1,2.854-.839,3.586,3.586,0,0,1,2.014.5A2.156,2.156,0,0,1,59.421,133.446Z" fill="#d6d6d6"/>
    <path id="Path_4813" data-name="Path 4813" d="M244.4,142.343h6.042a1.279,1.279,0,0,1,.672.335l.335.336a1.283,1.283,0,0,1,.336.84v7.889c0,.335-.168.5-.336.839l-.335.336a1.271,1.271,0,0,1-.672.335H244.4a1.271,1.271,0,0,1-.672-.335l-.336-.336a1.282,1.282,0,0,1-.335-.839v-7.889c0-.336.167-.5.335-.84l.336-.336A.671.671,0,0,1,244.4,142.343Zm6.21,8.9v-7.721a.165.165,0,0,0-.168-.168.163.163,0,0,1-.167-.168h-5.54a80.132,80.132,0,0,0-.335.336v8.057a.163.163,0,0,0,.167.168.165.165,0,0,1,.168.168h5.54a80.132,80.132,0,0,1,.335-.336Z" fill="#d6d6d6"/>
    <path id="Path_4814" data-name="Path 4814" d="M254.807,145.364l-.672-.671,2.182-2.35h1.847v10.743h-1.175V143.35Z" fill="#d6d6d6"/>
    <path id="Path_4815" data-name="Path 4815" d="M266.725,142.343H267.9l-8.058,12.085h-1.175Z" fill="#d6d6d6"/>
    <path id="Path_4816" data-name="Path 4816" d="M268.739,148.218l.671-.672a.28.28,0,1,0,0-.335l-.5-.336a.617.617,0,0,1-.168-.5v-2.685c0-.336.168-.5.335-.84l.336-.335a1.274,1.274,0,0,1,.672-.336h4.7a1.274,1.274,0,0,1,.671.336l.336.335a1.283,1.283,0,0,1,.335.84v2.685a.62.62,0,0,1-.167.5l-.5.336a.28.28,0,1,0,0,.335l.671.672c.168.168.168.335.168.671v2.686c0,.336-.168.5-.335.839l-.336.336a1.274,1.274,0,0,1-.672.336h-5.035a1.274,1.274,0,0,1-.672-.336c-.168-.168-.335-.168-.335-.336a1.281,1.281,0,0,1-.336-.839v-2.686C268.571,148.553,268.739,148.386,268.739,148.218Zm5.371-.168h-3.357a.52.52,0,0,0-.336.168l-.335.335-.168.168v2.854a.165.165,0,0,0,.168.168.164.164,0,0,1,.167.167h4.533a.163.163,0,0,0,.167-.167.165.165,0,0,0,.168-.168v-2.854l-.168-.168-.335-.335c-.168-.168-.168-.168-.336-.168Zm.168-4.7h-3.861a78.912,78.912,0,0,0-.335.336v2.685l.167.168.336.336a.165.165,0,0,1,.168.168h3.189a.165.165,0,0,0,.168-.168l.336-.336.168-.168v-2.685a.165.165,0,0,0-.168-.168.165.165,0,0,1-.168-.168Z" fill="#d6d6d6"/>
    <path id="Path_4817" data-name="Path 4817" d="M280.824,142.343h6.043a1.279,1.279,0,0,1,.672.335l.335.336a1.283,1.283,0,0,1,.336.84v7.889c0,.335-.168.5-.336.839l-.335.336a1.271,1.271,0,0,1-.672.335h-6.043a1.269,1.269,0,0,1-.671-.335l-.336-.336a1.283,1.283,0,0,1-.336-.839v-7.889c0-.336.168-.5.336-.84l.336-.336A.67.67,0,0,1,280.824,142.343Zm6.211,8.9v-7.721a.165.165,0,0,0-.168-.168.165.165,0,0,1-.168-.168H281.16a348305994837.8,348305994837.8,0,0,0-.336.336v8.057a.165.165,0,0,0,.168.168.165.165,0,0,1,.168.168H286.7a928815986239.612,928815986239.612,0,0,1,.336-.336Z" fill="#d6d6d6"/>
    <path id="Path_4818" data-name="Path 4818" d="M215.528,145.2h0l1.343-4.029h.5l-1.51,4.532h-.672l-1.51-4.532h.5l1.343,4.029Z" fill="#d6d6d6"/>
    <path id="Path_4819" data-name="Path 4819" d="M217.71,145.532,219.221,141h.672l1.51,4.532h-.5l-.336-1.007h-2.182l-.336,1.007Zm2.015-4.028v.167l-.84,2.518h1.847l-.839-2.518Z" fill="#d6d6d6"/>
    <path id="Path_4820" data-name="Path 4820" d="M225.264,145.029v.5h-2.686V141h.5v4.029Z" fill="#d6d6d6"/>
    <path id="Path_4821" data-name="Path 4821" d="M225.936,141h.5v4.532h-.5Z" fill="#d6d6d6"/>
    <path id="Path_4822" data-name="Path 4822" d="M227.781,145.532V141h2.35c.168,0,.168,0,.336.168l.671.5c.168.168.168.168.168.336v2.686c0,.168,0,.168-.168.336l-.671.5c-.168.168-.168.168-.336.168h-2.35Zm2.854-1.175v-2.35c0-.168,0-.168-.168-.336l-.336-.335c-.168-.168-.168-.168-.335-.168h-1.679v3.525H229.8c.167,0,.167,0,.335-.168l.336-.336C230.635,144.693,230.635,144.525,230.635,144.357Z" fill="#d6d6d6"/>
    <path id="Path_4823" data-name="Path 4823" d="M214.689,148.722h3.357v.5h-1.511v4.029h-.5v-4.029h-1.343v-.5Z" fill="#d6d6d6"/>
    <path id="Path_4824" data-name="Path 4824" d="M221.571,148.722h.5v4.532h-.5V151.24h-2.35v2.014h-.5v-4.532h.5v2.014h2.35Z" fill="#d6d6d6"/>
    <path id="Path_4825" data-name="Path 4825" d="M223.25,148.722h2.35c.167,0,.167,0,.335.168l.168.167c.168.168.168.168.168.336V150.9c0,.168,0,.168-.168.336l-.168.167c-.168,0-.168.168-.335.168h-.336l.671,1.007a.165.165,0,0,0,.168.168l.168.168a.165.165,0,0,1,.168.168v.336h-.672a.164.164,0,0,1-.167-.168l-.84-1.343h-.839v1.846h-.671Zm.671.5v1.847h1.846v-1.679h-1.846Z" fill="#d6d6d6"/>
    <path id="Path_4826" data-name="Path 4826" d="M230.467,148.722h.5v3.86c0,.168,0,.168-.168.336l-.168.168c-.168.168-.168.168-.336.168h-2.014c-.168,0-.168,0-.336-.168l-.167-.168c-.168-.168-.168-.168-.168-.336v-3.86h.5v3.86h2.35v-3.86Z" fill="#d6d6d6"/>
    <path id="Path_4827" data-name="Path 4827" d="M234.16,144.357v5.54l4.2-2.686Z" fill="#d6d6d6" fill-rule="evenodd"/>
    <path id="Path_4828" data-name="Path 4828" d="M248.764,40.79l-4.364-13.6h3.357l1.679,5.707c.5,1.679.839,3.189,1.175,4.868.335-1.679.839-3.189,1.175-4.868l1.678-5.875h3.189l-4.532,13.6h-3.357Z" fill="#d6d6d6"/>
    <path id="Path_4829" data-name="Path 4829" d="M261.521,27.361v13.6H258.5v-13.6Z" fill="#d6d6d6"/>
    <path id="Path_4830" data-name="Path 4830" d="M264.207,37.768a6.61,6.61,0,0,0,3.357.839c1.343,0,2.182-.5,2.182-1.511,0-.839-.672-1.343-2.35-1.846-2.182-.839-3.693-2.014-3.693-4.029,0-2.35,2.014-4.029,5.2-4.029a9.373,9.373,0,0,1,3.525.671l-.672,2.518a5.424,5.424,0,0,0-2.853-.671c-1.343,0-2.015.671-2.015,1.343,0,.839.84,1.175,2.518,1.846q3.525,1.259,3.525,4.029c0,2.35-1.678,4.2-5.539,4.2a8.229,8.229,0,0,1-3.861-.839Z" fill="#d6d6d6"/>
    <path id="Path_4831" data-name="Path 4831" d="M278.14,37.433l-1.007,3.525h-3.19l4.2-13.6h4.028l4.2,13.6h-3.357L282,37.433Zm3.357-2.35-.839-2.854c-.168-.839-.5-1.846-.672-2.686a15.8,15.8,0,0,1-.671,2.686l-.84,2.854Z" fill="#d6d6d6"/>
  </g>
</svg>
