<svg xmlns="http://www.w3.org/2000/svg" width="25.053" height="20.182" viewBox="0 0 25.053 20.182">
  <g id="Group_14672" data-name="Group 14672" transform="translate(0 -1)">
    <path id="Path_3782" data-name="Path 3782" d="M2.784,20.1q0,.308.023.612A4.57,4.57,0,0,0,1.392,23.93,4.851,4.851,0,0,0,3.723,27.9l.516.348.085.616q.055.4.074.806.415-.236.766-.482l.5-.351.6.129a8.345,8.345,0,0,0,3.453.008,13.564,13.564,0,0,0,2.365.649A9.274,9.274,0,0,1,8,30.541a9.648,9.648,0,0,1-2.038-.216,14.18,14.18,0,0,1-3.182,1.608,7.526,7.526,0,0,0,.161-2.879A6.239,6.239,0,0,1,0,23.93a6.221,6.221,0,0,1,2.881-5.08A8.033,8.033,0,0,0,2.784,20.1Z" transform="translate(0 -10.752)" fill="#fff"/>
    <path id="Path_3783" data-name="Path 3783" d="M24.915,20.061a8.232,8.232,0,0,1,.215-2.738l.086-.348.333-.132c3.552-1.4,5.828-4.3,5.828-7.492C31.377,4.775,26.732,1,20.939,1S10.5,4.775,10.5,9.351,15.145,17.7,20.932,17.7l.228,0,.464-.011.215.253a8.708,8.708,0,0,0,3.076,2.118Z" transform="translate(-6.325)" fill="#fff" fill-rule="evenodd"/>
    <path id="Path_3784" data-name="Path 3784" d="M24.142,21.284a1.392,1.392,0,1,0-1.392-1.392A1.392,1.392,0,0,0,24.142,21.284Z" transform="translate(-13.703 -10.541)" fill="#cf1818"/>
    <path id="Path_3785" data-name="Path 3785" d="M34.642,21.284a1.392,1.392,0,1,0-1.392-1.392A1.392,1.392,0,0,0,34.642,21.284Z" transform="translate(-20.028 -10.541)" fill="#cf1818"/>
    <path id="Path_3786" data-name="Path 3786" d="M45.142,21.284a1.392,1.392,0,1,0-1.392-1.392A1.392,1.392,0,0,0,45.142,21.284Z" transform="translate(-26.352 -10.541)" fill="#cf1818"/>
  </g>
</svg>
