<svg xmlns="http://www.w3.org/2000/svg" xmlns:xlink="http://www.w3.org/1999/xlink" width="112.258" height="80.349" viewBox="0 0 112.258 80.349">
  <defs>
    <linearGradient id="linear-gradient" x1="0.5" y1="1" x2="0.5" gradientUnits="objectBoundingBox">
      <stop offset="0" stop-color="gray" stop-opacity="0.251"/>
      <stop offset="0.54" stop-color="gray" stop-opacity="0.122"/>
      <stop offset="1" stop-color="gray" stop-opacity="0.102"/>
    </linearGradient>
    <linearGradient id="linear-gradient-2" y2="0" xlink:href="#linear-gradient"/>
    <linearGradient id="linear-gradient-3" y2="0" xlink:href="#linear-gradient"/>
  </defs>
  <g id="undraw_segmentation_uioo" transform="translate(-3.461)">
    <path id="Shape" d="M10.292,3.385c-.451.913.2,1.9-.029,2.84-.282,1.189-1.9,2.114-3.647,2.7s-3.694.949-5.395,1.585c-.736.274-1.5.781-1.12,1.246a1.712,1.712,0,0,0,.622.38,43.459,43.459,0,0,0,17.2,3.289C24.4,15.39,30.734,14.043,37.2,14.2c8.34.2,16.406,2.879,24.651,2.106,3.5-.328,6.753-1.263,10.161-1.847A136.54,136.54,0,0,1,87.488,13.23c3.9-.212,8.352-.762,10.216-2.829,1.346-1.494.782-3.468-1.116-4.733a12.758,12.758,0,0,0-7.729-1.56,25.571,25.571,0,0,1-4.506.338A12.946,12.946,0,0,1,81.876,3.9C75.712,2.1,69.32.3,62.473.035,51.332-.394,41.015,3.26,30.167,4.84a13.409,13.409,0,0,1-5.12.023c-1.682-.435-2.784-1.462-4.467-1.9-.8-.206-1.69-.266-2.477-.489-2.161-.616-1.16-1.463-4.154-.892C12.378,1.885,10.8,2.366,10.292,3.385Z" transform="translate(3.461 54.404)" fill="#42474f" opacity="0.3"/>
    <path id="Shape-2" data-name="Shape" d="M0,26.066s7.405-11.6,8.3-16.554A63.6,63.6,0,0,1,10.885,0" transform="translate(71.222 1.288)" fill="none" stroke="#535461" stroke-miterlimit="10" stroke-width="0.5"/>
    <path id="Shape-3" data-name="Shape" d="M4.673,0,0,.4S2.486,4.657,4.673,0Z" transform="translate(79.125 11.196)" fill="#897edc"/>
    <path id="Shape-4" data-name="Shape" d="M.162,0l3.7,2.954S-.931,4.855.162,0Z" transform="translate(75.482 8.62)" fill="#897edc"/>
    <path id="Shape-5" data-name="Shape" d="M4.208,0,0,.562S3.711,3.567,4.208,0Z" transform="translate(80.186 7.134)" fill="#51cf66"/>
    <path id="Shape-6" data-name="Shape" d="M.071,0,2.849,1.943S-.526,3.369.071,0Z" transform="translate(77.364 5.647)" fill="#51cf66"/>
    <path id="Shape-7" data-name="Shape" d="M0,.741S3.449-.17,3.946.028s.2,2.378-1.193,2.477S0,.741,0,.741Z" transform="translate(81.243 3.142)" fill="#51cf66"/>
    <path id="Shape-8" data-name="Shape" d="M.839,0A15.448,15.448,0,0,1,3.126,2.576c.1.5-1.79,1.684-2.784,0A1.79,1.79,0,0,1,.839,0Z" transform="translate(78.087 1.288)" fill="#51cf66"/>
    <path id="Oval" d="M.994,0A.991.991,0,1,1,0,.991.993.993,0,0,1,.994,0Z" transform="translate(82.008 0.495)" fill="#ffd037"/>
    <path id="Oval-2" data-name="Oval" d="M.994,0A.991.991,0,1,1,0,.991.993.993,0,0,1,.994,0Z" transform="translate(80.218 0)" fill="#ffd037"/>
    <path id="Shape-9" data-name="Shape" d="M1.745,27.057s-3.164-8.275-.677-14.738A13.372,13.372,0,0,0,1.5,3.843,22.516,22.516,0,0,0,0,0" transform="translate(14.468 34.229)" fill="none" stroke="#535461" stroke-miterlimit="10" stroke-width="0.5"/>
    <path id="Shape-10" data-name="Shape" d="M3.777,1.739c.081,1.038-1.57,4.194-1.57,4.194S.086,3.07.006,2.031a1.892,1.892,0,0,1,3.772-.292Z" transform="translate(12.233 28.404)" fill="#897edc"/>
    <path id="Shape-11" data-name="Shape" d="M3.653,2.784C3.155,3.7.047,5.454.047,5.454S-.17,1.9.328.987a1.89,1.89,0,0,1,3.326,1.8Z" transform="translate(15.923 32.866)" fill="#897edc"/>
    <path id="Shape-12" data-name="Shape" d="M4.464,3.493c-.895.539-4.464.5-4.464.5S1.612.812,2.5.273A1.887,1.887,0,1,1,4.464,3.5Z" transform="translate(15.741 41.992)" fill="#897edc"/>
    <path id="Shape-13" data-name="Shape" d="M4.317,3.309C3.528,3.991,0,4.545,0,4.545S1.05,1.143,1.838.461A1.888,1.888,0,1,1,4.317,3.309Z" transform="translate(14.683 49.724)" fill="#897edc"/>
    <path id="Shape-14" data-name="Shape" d="M.683,3.334C1.487,4,5.025,4.48,5.025,4.48S3.9,1.1,3.1.435a1.888,1.888,0,1,0-2.418,2.9Z" transform="translate(11.342 35.494)" fill="#897edc"/>
    <path id="Shape-15" data-name="Shape" d="M1.173,3.625c.966.4,4.487-.2,4.487-.2S3.572.537,2.61.141A1.886,1.886,0,1,0,1.173,3.629Z" transform="translate(9.556 44.049)" fill="#897edc"/>
    <path id="Shape-16" data-name="Shape" d="M.888,3.479c.886.552,4.457.557,4.457.557S3.78.835,2.9.288a1.887,1.887,0,1,0-2.007,3.2Z" transform="translate(9.765 52.964)" fill="#897edc"/>
    <path id="Shape-17" data-name="Shape" d="M3.777,1.739c.081,1.038-1.57,4.194-1.57,4.194S.086,3.07.006,2.031a1.892,1.892,0,0,1,3.772-.292Z" transform="translate(12.233 28.404)" fill="#51cf66"/>
    <path id="Shape-18" data-name="Shape" d="M3.653,2.784C3.155,3.7.047,5.454.047,5.454S-.17,1.9.328.987a1.89,1.89,0,0,1,3.326,1.8Z" transform="translate(15.923 32.866)" fill="#51cf66"/>
    <path id="Shape-19" data-name="Shape" d="M4.464,3.493c-.895.539-4.464.5-4.464.5S1.612.812,2.5.273A1.887,1.887,0,1,1,4.464,3.5Z" transform="translate(15.741 41.992)" fill="#51cf66"/>
    <path id="Shape-20" data-name="Shape" d="M4.317,3.309C3.528,3.991,0,4.545,0,4.545S1.05,1.143,1.838.461A1.888,1.888,0,1,1,4.317,3.309Z" transform="translate(14.683 49.724)" fill="#51cf66"/>
    <path id="Shape-21" data-name="Shape" d="M.683,3.334C1.487,4,5.025,4.48,5.025,4.48S3.9,1.1,3.1.435a1.888,1.888,0,1,0-2.418,2.9Z" transform="translate(11.342 35.494)" fill="#51cf66"/>
    <path id="Shape-22" data-name="Shape" d="M1.173,3.625c.966.4,4.487-.2,4.487-.2S3.572.537,2.61.141A1.886,1.886,0,1,0,1.173,3.629Z" transform="translate(9.556 44.049)" fill="#51cf66"/>
    <path id="Shape-23" data-name="Shape" d="M.888,3.479c.886.552,4.457.557,4.457.557S3.78.835,2.9.288a1.887,1.887,0,1,0-2.007,3.2Z" transform="translate(9.765 52.964)" fill="#51cf66"/>
    <path id="Shape-24" data-name="Shape" d="M9.192,1.842A8.92,8.92,0,0,1,6.109.976C5.427.4,2.509-.483,2.255.327S-1.729,4.109.985,4.374s6.354.139,7.113-.236S9.192,1.842,9.192,1.842Z" transform="translate(13.259 57.953)" fill="#a8a8a8"/>
    <path id="Shape-25" data-name="Shape" d="M.966,2.249c2.715.264,6.35.14,7.114-.235C8.662,1.729,8.989.548,9.112,0l.081.01S8.867,1.93,8.1,2.306,3.7,2.8.985,2.54C.2,2.464-.045,2.162.007,1.748.1,2.01.382,2.193.966,2.249Z" transform="translate(13.259 59.786)" opacity="0.2"/>
    <path id="Shape-26" data-name="Shape" d="M104.1,45.4c-3.9,5.323-2.605,12.92-.358,18.973.754,2.026,1.61,4.169,1.219,6.374-.477,2.695-2.72,4.714-5.052,5.814a13.428,13.428,0,0,1-13.074-.841c-3.281-2.18-5.591-5.8-8.936-7.878-5.6-3.473-12.865-1.921-19.1.73-4.408,1.876-9.236,4.291-13.531,2.559-3.023-1.219-5.058-4.321-6.129-7.637-.517-1.6-.879-3.339-1.909-4.592a7.045,7.045,0,0,0-2.254-1.7c-7.6-3.963-17.365-1.486-24.729-5.908C5.283,48.311,2.188,42.516.9,36.423S-.065,23.9.447,17.578c.364-4.492.94-9.293,3.65-12.823A12.93,12.93,0,0,1,16.065.124c4.3.586,8.147,2.966,11.518,5.8,4.215,3.543,8.092,7.989,13.334,9.33,3.57.915,7.364.268,11.075-.019a104.393,104.393,0,0,1,18.531.694c5.882.594,11.805,1.258,17.376,3.207,3.942,1.379,7.067,3.986,10.779,5.767,2.419,1.161,5.081,1.431,7.358,2.931,2.81,1.848,5.349,5.121,4.525,9.05C109.782,40.618,106.169,42.577,104.1,45.4Z" transform="translate(5 2.481)" fill="#ffa00a" opacity="0.3"/>
    <path id="Shape-27" data-name="Shape" d="M67.457,0H2.54A2.534,2.534,0,0,0,0,2.527v37.7a2.534,2.534,0,0,0,2.54,2.527H28.682v9.291h-2.46a.605.605,0,0,0-.607.6V53.9H44.694V52.644a.605.605,0,0,0-.607-.6H40.946V42.749h26.51A2.534,2.534,0,0,0,70,40.226V2.527A2.534,2.534,0,0,0,67.457,0Z" transform="translate(18.175 8.072)" fill="url(#linear-gradient)"/>
    <path id="Rectangle-path" d="M0,0H12.058V11.594H0Z" transform="translate(47.017 49.062)" fill="#474059"/>
    <path id="Rectangle-path-2" data-name="Rectangle-path" d="M0,0H12.058V1.028H0Z" transform="translate(47.017 59.628)" opacity="0.1"/>
    <path id="Shape-28" data-name="Shape" d="M.6,0H18.16a.6.6,0,0,1,.6.594V1.831H0V.594A.6.6,0,0,1,.6,0Z" transform="translate(44.003 59.744)" fill="#474059"/>
    <path id="Rectangle-path-3" data-name="Rectangle-path" d="M5.024,0H63.795a5.024,5.024,0,0,1,5.024,5.024v32.07a5.024,5.024,0,0,1-5.024,5.024H5.024A5.024,5.024,0,0,1,0,37.094V5.024A5.024,5.024,0,0,1,5.024,0Z" transform="translate(18.819 8.468)" fill="#474059"/>
    <path id="Rectangle-path-4" data-name="Rectangle-path" d="M0,0H65.776V34.408H0Z" transform="translate(20.267 13.388)" fill="#fff"/>
    <path id="Oval-3" data-name="Oval" d="M.58,0a.575.575,0,0,1,.58.571.575.575,0,0,1-.58.571A.575.575,0,0,1,0,.571.575.575,0,0,1,.58,0Z" transform="translate(52.576 11.039)" fill="#fff"/>
    <path id="Rectangle-path-5" data-name="Rectangle-path" d="M0,0H12.02V.227H0Z" transform="translate(47.043 50.615)" opacity="0.1"/>
    <path id="Shape-29" data-name="Shape" d="M4.969,0A13.654,13.654,0,0,0,9.891,23.659l3.834-13.132Z" transform="translate(52.176 21.423)" fill="#d6d6e3"/>
    <path id="Shape-30" data-name="Shape" d="M8.756,0A13.694,13.694,0,0,0,0,3.146L8.756,13.673l7.25-11.609A13.691,13.691,0,0,0,8.756,0Z" transform="translate(57.443 18.277)" fill="#d6d6e3"/>
    <path id="Shape-31" data-name="Shape" d="M3.834,0,0,13.131a13.768,13.768,0,0,0,11.972-2.124A13.666,13.666,0,0,0,17.555.241Z" transform="translate(62.365 31.95)" fill="#faba52" opacity="0.3"/>
    <path id="Rectangle-path-6" data-name="Rectangle-path" d="M0,0H4.971V2.972H0Z" transform="translate(26.13 25.312)" fill="#faba52"/>
    <path id="Rectangle-path-7" data-name="Rectangle-path" d="M0,0H4.971V2.972H0Z" transform="translate(26.13 30.464)" fill="#cf1818"/>
    <path id="Rectangle-path-8" data-name="Rectangle-path" d="M0,0H4.971V2.972H0Z" transform="translate(26.13 35.616)" fill="#51cf66"/>
    <path id="Rectangle-path-9" data-name="Rectangle-path" d="M0,0H9.346V1.189H0Z" transform="translate(33.786 26.203)" fill="#d6d6e3"/>
    <path id="Rectangle-path-10" data-name="Rectangle-path" d="M0,0H9.346V1.189H0Z" transform="translate(33.786 31.355)" fill="#d6d6e3"/>
    <path id="Rectangle-path-11" data-name="Rectangle-path" d="M0,0H9.346V1.189H0Z" transform="translate(33.786 36.508)" fill="#d6d6e3"/>
    <path id="Rectangle-path-12" data-name="Rectangle-path" d="M0,0H65.821V1.189H0Z" transform="translate(20.263 13.323)" fill="#d6d6e3"/>
    <path id="Oval-4" data-name="Oval" d="M.3,0A.3.3,0,1,1,0,.3.3.3,0,0,1,.3,0Z" transform="translate(20.761 13.62)" fill="#fc6681"/>
    <path id="Oval-5" data-name="Oval" d="M.3,0A.3.3,0,1,1,0,.3.3.3,0,0,1,.3,0Z" transform="translate(21.556 13.62)" fill="#ffc74c"/>
    <path id="Oval-6" data-name="Oval" d="M.3,0A.3.3,0,1,1,0,.3.3.3,0,0,1,.3,0Z" transform="translate(22.351 13.62)" fill="#85d459"/>
    <path id="Shape-32" data-name="Shape" d="M1.3,0s.474.618-.219,1.552S-.179,3.273.052,3.855c0,0,1.046-1.734,1.9-1.758S2.242,1.042,1.3,0Z" transform="translate(89.346 53.604)" fill="#51cf66"/>
    <path id="Shape-33" data-name="Shape" d="M1.276,0a.765.765,0,0,1,.1.2c.831.973,1.274,1.882.475,1.9C1.107,2.122.214,3.448,0,3.786a.717.717,0,0,0,.025.076S1.071,2.128,1.923,2.1,2.213,1.042,1.276,0Z" transform="translate(89.376 53.604)" opacity="0.1"/>
    <path id="Shape-34" data-name="Shape" d="M.148.14c0,.219-.034.4-.074.4S0,.361,0,.14.042.025.082.025.148-.078.148.14Z" transform="translate(91.424 54.251)" fill="#ffd037"/>
    <path id="Shape-35" data-name="Shape" d="M.374.15C.182.254.015.318,0,.291S.13.158.322.053s.116-.029.13,0S.566.046.374.15Z" transform="translate(91.463 54.501)" fill="#ffd037"/>
    <path id="Shape-36" data-name="Shape" d="M1.065,0s-.474.618.219,1.552,1.265,1.721,1.034,2.3c0,0-1.046-1.734-1.9-1.758S.129,1.042,1.065,0Z" transform="translate(87.08 53.604)" fill="#51cf66"/>
    <path id="Shape-37" data-name="Shape" d="M1.067,0a.765.765,0,0,0-.1.2C.136,1.171-.306,2.081.492,2.1c.744.021,1.637,1.346,1.85,1.684a.717.717,0,0,1-.025.076S1.272,2.128.419,2.1.13,1.042,1.067,0Z" transform="translate(87.079 53.604)" opacity="0.1"/>
    <path id="Shape-38" data-name="Shape" d="M0,.14c0,.219.034.4.074.4S.148.361.148.14.106.025.066.025,0-.078,0,.14Z" transform="translate(87.264 54.251)" fill="#ffd037"/>
    <path id="Shape-39" data-name="Shape" d="M.117.15c.192.1.359.168.373.141S.36.158.168.053.052.025.038.053-.075.046.117.15Z" transform="translate(86.845 54.501)" fill="#ffd037"/>
    <path id="Shape-40" data-name="Shape" d="M5.123,1.277A4.882,4.882,0,0,1,3.47.67C3.122.324,1.556-.283,1.382.15S-.966,2.057.512,2.317a12.777,12.777,0,0,0,3.914.173C4.861,2.317,5.123,1.277,5.123,1.277Z" transform="translate(87.524 56.323)" fill="#a8a8a8"/>
    <path id="Shape-41" data-name="Shape" d="M.512.888a12.777,12.777,0,0,0,3.914.173C4.758.929,4.988.3,5.079,0l.044.009s-.261,1.04-.7,1.214A12.777,12.777,0,0,1,.512,1.049C.086.974-.037.8.009.575.046.719.195.832.512.888Z" transform="translate(87.524 57.59)" opacity="0.2"/>
    <path id="Shape-42" data-name="Shape" d="M14.914,12.619A14.839,14.839,0,0,0,7.881,0L0,12.619l14.914.262Z" transform="translate(68.386 28.101)" fill="url(#linear-gradient-2)"/>
    <path id="Shape-43" data-name="Shape" d="M13.721,11.609A13.652,13.652,0,0,0,7.25,0L0,11.609l13.721.245Z" transform="translate(68.983 28.617)" fill="#cf1818" opacity="0.3"/>
    <path id="Shape-44" data-name="Shape" d="M23.689,9.938a.538.538,0,0,0-.011-.11q-.011-.053-.02-.121-.022-.119-.049-.23-.014-.055-.029-.109A2.945,2.945,0,0,0,23,8.251L22.958,8.2l-.091-.1a1.17,1.17,0,0,0-.088-.085c-.029-.027-.058-.052-.085-.074-.055-.046-.105-.083-.151-.115s-.065-.044-.091-.059a.509.509,0,0,0-.215-.071l-.473-.048h0l-.64-.063-2.313-.91-.091.033a5.468,5.468,0,0,1-.171-.576A.515.515,0,0,0,18.73,6a.422.422,0,0,0,.125-.163c.058-.136-.054-.427-.031-.594a2.882,2.882,0,0,1,.284-.766,3.6,3.6,0,0,0,.383-1.652,1.868,1.868,0,0,0-.76-1.466c-.246-.164-.535-.253-.789-.4-.2-.117-.374-.269-.564-.4A3.2,3.2,0,0,0,14.2.318a14.944,14.944,0,0,0-1.343.886,2.236,2.236,0,0,1-1.517.424.348.348,0,0,0-.016.066l-.045-.006c-.091.253.132.5.339.674a2.3,2.3,0,0,0,1.346.665,1.393,1.393,0,0,1,.586.045.522.522,0,0,1,.109.069,2.6,2.6,0,0,0,.791,2.571l-1.18-.43s-.05.026-.125.074l-1.64-1.1s-3.286-1.215-4.2.668,3.956.907,3.956.907l1.042.58a.974.974,0,0,0,.114.632l2.841,1.778a15.237,15.237,0,0,1-1.684.466c-.244,0-.913.243-1.339,1.213s-1.948,5.7-3.286,6.489-4.872,6.065-4.872,6.065l.016.042q-.094.025-.185.055a3.737,3.737,0,0,0-1.834,1.4.594.594,0,0,0,.412.937A2.549,2.549,0,0,0,5,24.521c.024-.032.046-.063.067-.093a.484.484,0,0,0,.344.016L7.121,23.05s-1.329,1.328-.552,2.539l-.06.084a19.419,19.419,0,0,0-2.858,6.293s-.731.546-.8,2.729a42.816,42.816,0,0,1-.8,5.7,27.877,27.877,0,0,0-.183,5.458s.035.051.1.128c-.023.028-.048.056-.076.087a1.455,1.455,0,0,1-1.3.573c-.852-.182-.852,1.335.365,1.455a32.236,32.236,0,0,1,3.322.676.7.7,0,0,0,.868-.756,6.5,6.5,0,0,0-.365-1.668c-.012-.029-.025-.057-.038-.085.036-.034.072-.068.107-.106a11.5,11.5,0,0,1,.426-3.4,57.161,57.161,0,0,0,1.094-6.914c-.048-1.09,3-5.341,4.326-7.134l-.011-.068c.351-.464.567-.741.567-.741L12.3,34.516a9.556,9.556,0,0,0,1.094,2.244s2.617,5.033,2.921,6.611a5.029,5.029,0,0,0,.923,2.175c-.025.026-.052.052-.08.077a1.323,1.323,0,0,1-1.147.417c-.852-.182-.852,1.335.365,1.455a32.238,32.238,0,0,1,3.322.676.7.7,0,0,0,.868-.756,5.538,5.538,0,0,0-.467-1.882q-.034-.058-.07-.11a.643.643,0,0,0,.242-.172s-1.582-3.82-1.582-4.855c0,0-.669-3.942-2.921-5.4a55.192,55.192,0,0,1,.854-7.674q.024-.1.049-.2a17.885,17.885,0,0,0,1.776-.375l.061-1.819.3,1.455,3.408-2.122s-.03-.382-.087-.969c-.029-.3-.065-.637-.107-1.011-.034-.3-.073-.615-.115-.939q-.016-.122-.033-.244c-.045-.327-.093-.658-.146-.981q-.03-.182-.062-.361c-.028-.159-.057-.314-.087-.465l-.046-.223q-.023-.11-.047-.216t-.049-.207l-.025-.1q-.025-.1-.051-.192a3.515,3.515,0,0,1-.123-.793q-.006-.161,0-.32a2.883,2.883,0,0,1,.03-.319q.011-.079.026-.159a3.643,3.643,0,0,1,.173-.619q.057-.152.127-.3c.11-.229.229-.478.35-.739l.185-.4q.093-.2.187-.416a18.133,18.133,0,0,0,1.333-3.806c.017-.1.028-.2.035-.291A1.974,1.974,0,0,0,23.689,9.938Z" transform="translate(79 15.934)" fill="url(#linear-gradient-3)"/>
    <path id="Shape-45" data-name="Shape" d="M6.2,1.727,4.188.373S1-.8.111,1.02,3.948,1.9,3.948,1.9L5.956,3.021Z" transform="translate(86.325 20.414)" fill="#f7bbc3"/>
    <path id="Shape-46" data-name="Shape" d="M4.158,3.075A31.291,31.291,0,0,0,.935,2.42C-.245,2.3-.245.835.581,1.008A1.274,1.274,0,0,0,1.695.6,2.6,2.6,0,0,0,1.93.354.682.682,0,0,1,2.311.121,3.184,3.184,0,0,1,4.242.184a.831.831,0,0,1,.305.334A5.34,5.34,0,0,1,5,2.341a.682.682,0,0,1-.843.734Z" transform="translate(94.301 60.31)" fill="#b77983"/>
    <path id="Shape-47" data-name="Shape" d="M4.158,3.075A31.291,31.291,0,0,0,.935,2.42C-.245,2.3-.245.835.581,1.008A1.415,1.415,0,0,0,1.845.453c.031-.035.06-.067.085-.1A.682.682,0,0,1,2.311.121,3.184,3.184,0,0,1,4.242.184a1.052,1.052,0,0,1,.4.538A6.2,6.2,0,0,1,5,2.341a.682.682,0,0,1-.843.734Z" transform="translate(79.367 60.898)" fill="#b77983"/>
    <path id="Shape-48" data-name="Shape" d="M2.8.724A1.732,1.732,0,0,1,0,.453C.031.419.06.386.085.354A.682.682,0,0,1,.466.121,3.184,3.184,0,0,1,2.4.184,1.065,1.065,0,0,1,2.8.724Z" transform="translate(81.211 60.896)" opacity="0.1"/>
    <path id="Shape-49" data-name="Shape" d="M2.852.519A6.858,6.858,0,0,1,.185.832,2.017,2.017,0,0,1,0,.6,2.6,2.6,0,0,0,.235.354.682.682,0,0,1,.616.121,3.184,3.184,0,0,1,2.547.184.831.831,0,0,1,2.852.519Z" transform="translate(95.995 60.309)" opacity="0.1"/>
    <path id="Shape-50" data-name="Shape" d="M17.867,19.764c-.414.529-2.774.412-2.774.412a4.5,4.5,0,0,1-1-2.235c-.3-1.53-2.829-6.412-2.829-6.412A9.207,9.207,0,0,1,10.2,9.349l-1-6.411S4.35,9.293,4.409,10.647a55.741,55.741,0,0,1-1.063,6.706,11.129,11.129,0,0,0-.414,3.294C1.4,22.232.1,20.35.1,20.35a26.793,26.793,0,0,1,.177-5.294,41.214,41.214,0,0,0,.768-5.53c.06-2.118.773-2.644.773-2.644A18.836,18.836,0,0,1,4.588.781,9.76,9.76,0,0,1,5.184,0l9.557,1.118a6,6,0,0,0-.412,1.262A53.633,53.633,0,0,0,13.5,9.824c2.187,1.412,2.834,5.235,2.834,5.235A25.65,25.65,0,0,0,17.867,19.764Z" transform="translate(81.087 40.789)" fill="#605d82"/>
    <g id="Group" transform="translate(82.446 40.788)" opacity="0.05">
      <path id="Shape-51" data-name="Shape" d="M7.3.784,7.182,0S2.345,6.352,2.4,7.706a56.561,56.561,0,0,1-1.063,6.706,11.129,11.129,0,0,0-.414,3.294A2.026,2.026,0,0,1,0,18.3a1.619,1.619,0,0,0,1.633-.594,11.133,11.133,0,0,1,.414-3.294A55.707,55.707,0,0,0,3.109,7.706C3.062,6.649,6.018,2.525,7.3.784Z" transform="translate(0 2.942)"/>
      <path id="Shape-52" data-name="Shape" d="M11.219,15.059s-.649-3.823-2.834-5.235A53.647,53.647,0,0,1,9.214,2.38a6,6,0,0,1,.412-1.262L.063,0,0,.075,8.918,1.118A6,6,0,0,0,8.506,2.38a53.632,53.632,0,0,0-.828,7.444c2.187,1.412,2.834,5.235,2.834,5.235a25.862,25.862,0,0,0,1.535,4.706c-.244.312-1.164.4-1.878.418.567.015,2.245.02,2.585-.418A25.615,25.615,0,0,1,11.219,15.059Z" transform="translate(3.813 0)"/>
    </g>
    <path id="Shape-53" data-name="Shape" d="M3.23,1a2.128,2.128,0,0,1-.279.487,2.473,2.473,0,0,1-2.445.934.578.578,0,0,1-.4-.91A3.635,3.635,0,0,1,1.888.153,3.216,3.216,0,0,1,2.641,0Z" transform="translate(81.264 38.965)" fill="#f7bbc3"/>
    <path id="Shape-54" data-name="Shape" d="M5.684,1.725.95,0S-.408.705.124,1.706l4.6,2.882Z" transform="translate(91.275 21.789)" fill="#d9d9ea"/>
    <path id="Shape-55" data-name="Shape" d="M5.684,1.725.95,0S-.408.705.124,1.706l4.6,2.882Z" transform="translate(91.275 21.789)" opacity="0.1"/>
    <path id="Shape-56" data-name="Shape" d="M2.54.116s-.059,2.764,1.18,3.706-3.6,1.47-3.6,1.47S.887,2.468.119,1,2.54.116,2.54.116Z" transform="translate(94.581 20.554)" fill="#f7bbc3"/>
    <path id="Shape-57" data-name="Shape" d="M10.156,1.116a6,6,0,0,0-.412,1.262A15.653,15.653,0,0,1,.062.88C.04.846.019.811,0,.781A9.76,9.76,0,0,1,.6,0Z" transform="translate(85.673 40.791)" opacity="0.1"/>
    <path id="Shape-58" data-name="Shape" d="M1.343,1a2.128,2.128,0,0,1-.279.487C.517,1.4.081.356,0,.153A3.216,3.216,0,0,1,.754,0Z" transform="translate(83.15 38.965)" opacity="0.1"/>
    <path id="Shape-59" data-name="Shape" d="M14.286,0,12.161.765l-.886,1.176s-1.829.589-2.066.589-.886.235-1.3,1.176S6.021,9.235,4.723,10,0,15.882,0,15.882s.591,1.585,1.3,1.353l1.653-1.353s-1.3,1.294-.531,2.471a15.936,15.936,0,0,0,11.511,1.118l.059-1.765.3,1.412,3.3-2.06a42.011,42.011,0,0,0-.829-5.73,3.48,3.48,0,0,1,.228-2.434C17.843,7.111,19.166,4.139,19,3.058a2.711,2.711,0,0,0-1.193-2A.5.5,0,0,0,17.6.989L16.529.882Z" transform="translate(83.311 23.142)" fill="#d9d9ea"/>
    <path id="Shape-60" data-name="Shape" d="M7.38,0S6.2,5.473,4.9,6.353.118,10.058,0,10.529" transform="translate(86.588 29.053)" opacity="0.05"/>
    <path id="Shape-61" data-name="Shape" d="M7.379,0S6.2,5.469,4.9,6.351.118,10.056,0,10.527" transform="translate(86.057 28.878)" fill="#d9d9ea"/>
    <path id="Shape-62" data-name="Shape" d="M0,1.059s4.077-1.353,5.254-1" transform="translate(94.557 23.994)" opacity="0.1"/>
    <g id="Group-2" data-name="Group" transform="translate(97.398 23.142)" opacity="0.05">
      <path id="Shape-63" data-name="Shape" d="M2.776,7.951C3.633,6.168,4.955,3.2,4.794,2.114A2.711,2.711,0,0,0,3.6.114.5.5,0,0,0,3.393.046L2.934,0A.486.486,0,0,1,3.07.055a2.721,2.721,0,0,1,1.193,2C4.425,3.14,3.1,6.112,2.245,7.893a3.48,3.48,0,0,0-.228,2.434,41.66,41.66,0,0,1,.829,5.73L0,17.829l.073.345,3.3-2.06a42.011,42.011,0,0,0-.829-5.73A3.48,3.48,0,0,1,2.776,7.951Z" transform="translate(0.128 0.944)"/>
      <path id="Shape-64" data-name="Shape" d="M1.911.823l.511.052L.2,0,0,.071,1.911.823Z" transform="translate(0 0)"/>
    </g>
    <path id="Shape-65" data-name="Shape" d="M0,.823s1.829-1,2.42-.765A10.17,10.17,0,0,0,5.194,0" transform="translate(93.435 33.759)" opacity="0.05"/>
    <path id="Shape-66" data-name="Shape" d="M2.336.613c-.068-.594.207-.5.207-.5S-.647-.474.119,1A3.379,3.379,0,0,1,.447,2.29h.03C1.362,2.29,1.879,1.3,2.336.613Z" transform="translate(94.586 20.793)" opacity="0.05"/>
    <path id="Oval-7" data-name="Oval" d="M2.538,0A2.529,2.529,0,1,1,0,2.529,2.534,2.534,0,0,1,2.538,0Z" transform="translate(92.52 17.789)" fill="#f7bbc3"/>
    <path id="Shape-67" data-name="Shape" d="M7.564,4.339a3.489,3.489,0,0,0,.371-1.6A1.815,1.815,0,0,0,7.2,1.314c-.239-.16-.519-.246-.766-.391C6.24.809,6.07.661,5.886.533A3.1,3.1,0,0,0,2.8.309a15.134,15.134,0,0,0-1.3.859A2.172,2.172,0,0,1,.02,1.58c-.088.245.128.486.329.654a2.231,2.231,0,0,0,1.305.645,1.338,1.338,0,0,1,.568.044.814.814,0,0,1,.29.269,5.253,5.253,0,0,1,.6,1.018.858.858,0,0,0,.269.4c.228.146.524.025.8.014a1.662,1.662,0,0,1,1.11.529,3.436,3.436,0,0,0,1,.753c.3.111.88.107,1.029-.242.057-.132-.052-.414-.03-.575A2.577,2.577,0,0,1,7.564,4.339Z" transform="translate(90.265 16.727)" opacity="0.1"/>
    <path id="Shape-68" data-name="Shape" d="M7.564,4.339a3.489,3.489,0,0,0,.371-1.6A1.815,1.815,0,0,0,7.2,1.314c-.239-.16-.519-.246-.766-.391C6.24.809,6.07.661,5.886.533A3.1,3.1,0,0,0,2.8.309a15.134,15.134,0,0,0-1.3.859A2.172,2.172,0,0,1,.02,1.58c-.088.245.128.486.329.654a2.231,2.231,0,0,0,1.305.645,1.338,1.338,0,0,1,.568.044.814.814,0,0,1,.29.269,5.253,5.253,0,0,1,.606,1.017.858.858,0,0,0,.269.4c.228.146.524.025.8.014a1.662,1.662,0,0,1,1.11.529,3.436,3.436,0,0,0,1,.753c.3.111.88.107,1.029-.242.057-.132-.052-.414-.03-.575A2.594,2.594,0,0,1,7.564,4.339Z" transform="translate(90.324 16.669)" fill="#a1616a"/>
  </g>
</svg>
