<svg xmlns="http://www.w3.org/2000/svg" xmlns:xlink="http://www.w3.org/1999/xlink" width="110.99" height="81.418" viewBox="0 0 110.99 81.418">
  <defs>
    <linearGradient id="linear-gradient" x1="0.5" y1="1" x2="0.5" gradientUnits="objectBoundingBox">
      <stop offset="0" stop-color="gray" stop-opacity="0.251"/>
      <stop offset="0.54" stop-color="gray" stop-opacity="0.122"/>
      <stop offset="1" stop-color="gray" stop-opacity="0.102"/>
    </linearGradient>
    <linearGradient id="linear-gradient-4" x1="0.5" y1="1.001" x2="0.5" y2="0" xlink:href="#linear-gradient"/>
    <linearGradient id="linear-gradient-5" x1="0" y1="0.5" x2="1" y2="0.5" xlink:href="#linear-gradient"/>
    <linearGradient id="linear-gradient-6" x1="0.5" x2="0.5" y2="0" xlink:href="#linear-gradient"/>
    <linearGradient id="linear-gradient-8" x1="0.501" y1="1.001" x2="0.501" y2="0" xlink:href="#linear-gradient"/>
  </defs>
  <g id="undraw_in_sync_xwsa" transform="translate(-0.001 0.075)">
    <path id="Shape" d="M15.47.007a7.562,7.562,0,0,0-2.439.239,4.1,4.1,0,0,0-2.773,4.625c.324,1.842,1.656,3.447,3.038,4.913a17.592,17.592,0,0,1,3.638,4.67,3.42,3.42,0,0,1,.171,2.729c-.592,1.347-2.379,2.1-4.094,2.256a34.5,34.5,0,0,1-5.159-.25,6.428,6.428,0,0,0-2.145.149,5.664,5.664,0,0,0-1.941,1.109c-2.236,1.789-4.026,4.233-3.734,6.8.327,2.91,3.242,5.209,6.435,6.443a18.39,18.39,0,0,1,3.106,1.323c2.452,1.539,3,4.425,2.758,6.972s-1.076,5.1-.613,7.621a9.6,9.6,0,0,0,6.2,6.829,10.831,10.831,0,0,0,9.091-.527A11.044,11.044,0,0,0,30.04,53a23.527,23.527,0,0,0,3.008-5.257,5.117,5.117,0,0,1,1.532-2.424,5.239,5.239,0,0,1,1.827-.746c1.974-.491,4.052-.625,6.044-1.062s3.991-1.252,5.074-2.709c1.532-2.061.817-4.7.824-7.126.012-5.531,4-10.481,5.465-15.873.48-1.762.659-3.711-.414-5.282a7.8,7.8,0,0,0-3.248-2.431,38.171,38.171,0,0,0-9.246-2.457c-4.414-.787-9.774-.89-13.195-3.437A21.193,21.193,0,0,0,15.47.007Z" transform="translate(0.2 4.475)" fill="#faba52" opacity="0.3"/>
    <g id="Group" transform="translate(2.532 33.107)" opacity="0.5">
      <path id="Shape-2" data-name="Shape" d="M.26,2.888a1.261,1.261,0,0,0-.112,1.35C.71,5.32,2.1,5.1,2.774,6.133a1.907,1.907,0,0,1,.291.958,6.556,6.556,0,0,1-.247,1.565,2.666,2.666,0,0,0,.268,1.787,3.137,3.137,0,0,0,1.43,1.287,7.554,7.554,0,0,0,1.522.406,9.311,9.311,0,0,1,1.8.618,3.4,3.4,0,0,1,.77.454,5.64,5.64,0,0,1,.779.847l2.173,2.707a7.724,7.724,0,0,0,.919,1.014,5.529,5.529,0,0,0,1.2.743,5.585,5.585,0,0,0,2.527.832c.753-.051,1.276-.783.919-1.808-.337-.975-1.287-1.8-1.718-2.77-.679-1.534.21-2.68-.359-4.216C14.506,9.082,12.977,8.093,12,6.745c-.7-.959-1.091-2.074-1.722-3.081A8.378,8.378,0,0,0,6.7.558a6.883,6.883,0,0,0-3.592-.5A2.287,2.287,0,0,0,1.856.477c-.351.3-.306.858-.535,1.254C1.058,2.188.557,2.446.26,2.888Z" transform="translate(0 0)" fill="#4ae600"/>
      <path id="Shape-3" data-name="Shape" d="M0,0S10.877,10.261,15.263,18.25" transform="translate(1.624 0.812)" fill="#4ae600" stroke="#535461" stroke-miterlimit="10" stroke-width="0.5"/>
      <path id="Shape-4" data-name="Shape" d="M0,.094A8.278,8.278,0,0,1,7.355,2.661" transform="translate(0.19 4.206)" fill="#4ae600" stroke="#535461" stroke-miterlimit="10" stroke-width="0.5"/>
      <path id="Shape-5" data-name="Shape" d="M0,2.033S4.8-1.355,6.462.616" transform="translate(3.279 8.71)" fill="#4ae600" stroke="#535461" stroke-miterlimit="10" stroke-width="0.5"/>
      <path id="Shape-6" data-name="Shape" d="M.065,0S-.441,2.593,1.378,6.83" transform="translate(6.618 0.533)" fill="#4ae600" stroke="#535461" stroke-miterlimit="10" stroke-width="0.5"/>
      <path id="Shape-7" data-name="Shape" d="M3.841,0S3.416,1.7,0,.45" transform="translate(11.206 10.598)" fill="#4ae600" stroke="#535461" stroke-miterlimit="10" stroke-width="0.5"/>
      <path id="Shape-8" data-name="Shape" d="M0,3.625S2.085,1.194,1.137,0" transform="translate(11.578 12.923)" fill="#4ae600" stroke="#535461" stroke-miterlimit="10" stroke-width="0.5"/>
    </g>
    <path id="Shape-9" data-name="Shape" d="M.748,6.146A2.211,2.211,0,0,0,.135,8.43c.723,1.633,3.4.834,4.356,2.354a2.263,2.263,0,0,1,.258,1.506,12.438,12.438,0,0,1-.934,2.68,3.669,3.669,0,0,0-.036,2.894,3.478,3.478,0,0,0,2.3,1.706,12.745,12.745,0,0,0,2.735.206,15.013,15.013,0,0,1,3.2.476,4.4,4.4,0,0,1,1.305.53,5.83,5.83,0,0,1,1.208,1.173L17.8,25.8a7.824,7.824,0,0,0,1.416,1.409,6.958,6.958,0,0,0,2.024.871,9.135,9.135,0,0,0,4.495.611A2.839,2.839,0,0,0,28,25.4c-.34-1.52-1.874-2.6-2.391-4.088-.817-2.347,1.2-4.524.595-6.912-.58-2.29-3.152-3.471-4.582-5.41C20.6,7.6,20.2,5.86,19.308,4.382A9.352,9.352,0,0,0,13.535.3a13.624,13.624,0,0,0-6.586.25A6.4,6.4,0,0,0,4.467,1.633c-.749.605-.835,1.523-1.38,2.253C2.454,4.735,1.436,5.321.748,6.146Z" transform="translate(0.001 17.947)" fill="#4ae600" opacity="0.4"/>
    <path id="Shape-10" data-name="Shape" d="M0,0S17.332,13.76,23.164,25.727" transform="translate(3.93 20.217)" fill="none" stroke="#535461" stroke-miterlimit="10" stroke-width="0.5" opacity="0.65"/>
    <path id="Shape-11" data-name="Shape" d="M0,.786S8.414-1.96,13.028,2.813" transform="translate(0.191 25.677)" fill="none" stroke="#535461" stroke-miterlimit="10" stroke-width="0.5" opacity="0.65"/>
    <path id="Shape-12" data-name="Shape" d="M0,4.98S10.022-2.132,12.555.642" transform="translate(4.052 31.275)" fill="none" stroke="#535461" stroke-miterlimit="10" stroke-width="0.5" opacity="0.65"/>
    <path id="Shape-13" data-name="Shape" d="M.66,0s-1.727,4.472.409,10.973" transform="translate(12.85 18.205)" fill="none" stroke="#535461" stroke-miterlimit="10" stroke-width="0.5" opacity="0.65"/>
    <path id="Shape-14" data-name="Shape" d="M7.345,0S6.036,2.961,0,1.925" transform="translate(18.837 32.41)" fill="none" stroke="#535461" stroke-miterlimit="10" stroke-width="0.5"/>
    <path id="Shape-15" data-name="Shape" d="M0,6.391S4.645,1.7,3.225,0" transform="translate(17.886 36.987)" fill="none" stroke="#535461" stroke-miterlimit="10" stroke-width="0.5"/>
    <path id="Oval" d="M47.5,0C73.733,0,95,5.746,95,12.835S73.733,25.669,47.5,25.669,0,19.923,0,12.835,21.266,0,47.5,0Z" transform="translate(15.626 53.856)" fill="#faba52" opacity="0.3"/>
    <path id="Shape-16" data-name="Shape" d="M5.136,0A8.873,8.873,0,0,0,3.543,9.173C5.609,14.654,0,23.768,0,23.768l.172-.029A10.775,10.775,0,0,0,7.244,7.279C5.691,4.884,4.415,2.074,5.136,0Z" transform="translate(94.986 0.029)" fill="#51cf66"/>
    <path id="Shape-17" data-name="Shape" d="M5.136,0s-2.066,4.527,0,8.22S5.491,22.278,0,23.768" transform="translate(94.986 0.029)" fill="none" stroke="#535461" stroke-miterlimit="10" stroke-width="0.5"/>
    <path id="Shape-18" data-name="Shape" d="M12.588.046S8.411-.625,8.031,3.152,0,7.452,0,7.452l.143.1C6.46,11.731,12.5,10.213,11.584,4.662,11.25,2.592,11.277.514,12.588.046Z" transform="translate(94.053 14.921)" fill="#897edc"/>
    <path id="Shape-19" data-name="Shape" d="M12.588.046S8.411-.625,8.031,3.152,0,7.452,0,7.452l.143.1C6.46,11.731,12.5,10.213,11.584,4.662,11.25,2.592,11.277.514,12.588.046Z" transform="translate(94.053 14.921)" fill="#51cf66"/>
    <path id="Shape-20" data-name="Shape" d="M12.588,0S9.346.722,9.612,3.692,4.8,10.232,0,7.4" transform="translate(94.053 14.967)" fill="none" stroke="#535461" stroke-miterlimit="10" stroke-width="0.5"/>
    <path id="Shape-21" data-name="Shape" d="M.533,14.808S-.821,10.17.788,6.754a7.387,7.387,0,0,0,.587-4.6A12.408,12.408,0,0,0,.73,0" transform="translate(24.667 14.018)" fill="none" stroke="#535461" stroke-miterlimit="10" stroke-width="0.5"/>
    <path id="Shape-22" data-name="Shape" d="M2.043,1.031A8.179,8.179,0,0,1,1.022,3.248,8.2,8.2,0,0,1,0,1.031a1.022,1.022,0,1,1,2.043,0Z" transform="translate(24.353 10.827)" fill="#4ae600"/>
    <path id="Shape-23" data-name="Shape" d="M2.051,1.63A8.081,8.081,0,0,1,0,2.932,8.225,8.225,0,0,1,.338.51a1.017,1.017,0,0,1,1.8.065A1.039,1.039,0,0,1,2.051,1.63Z" transform="translate(26.033 13.378)" fill="#4ae600"/>
    <path id="Shape-24" data-name="Shape" d="M2.422,1.969A8.032,8.032,0,0,1,0,2.048,8.155,8.155,0,0,1,1.5.131,1.014,1.014,0,0,1,2.549.161,1.035,1.035,0,0,1,2.422,1.97Z" transform="translate(25.588 18.422)" fill="#4ae600"/>
    <path id="Shape-25" data-name="Shape" d="M2.374,1.888A8.027,8.027,0,0,1,0,2.379,8.17,8.17,0,0,1,1.16.233,1.014,1.014,0,0,1,2.2.079a1.035,1.035,0,0,1,.175,1.809Z" transform="translate(24.672 22.561)" fill="#4ae600"/>
    <path id="Shape-26" data-name="Shape" d="M.345,1.8a8.1,8.1,0,0,0,2.287.807A8.188,8.188,0,0,0,1.767.326,1.016,1.016,0,0,0,.758.035,1.034,1.034,0,0,0,.345,1.8Z" transform="translate(23.545 14.618)" fill="#4ae600"/>
    <path id="Shape-27" data-name="Shape" d="M.523,1.929a8.032,8.032,0,0,0,2.422.079A8.155,8.155,0,0,0,1.442.092,1.017,1.017,0,0,0,.11.567,1.036,1.036,0,0,0,.523,1.93Z" transform="translate(22.298 19.253)" fill="#4ae600"/>
    <path id="Shape-28" data-name="Shape" d="M.375,1.829a8.027,8.027,0,0,0,2.374.491A8.17,8.17,0,0,0,1.588.173,1.016,1.016,0,0,0,.2.418,1.037,1.037,0,0,0,.375,1.829Z" transform="translate(22.037 24.126)" fill="#4ae600"/>
    <path id="Shape-29" data-name="Shape" d="M4.305,49.924A4.324,4.324,0,0,1,0,45.58v-.625a.773.773,0,0,1,.769-.777h9a2.956,2.956,0,0,1-.306-1.306V2.937A2.924,2.924,0,0,1,12.372,0H79.656a2.924,2.924,0,0,1,2.91,2.934V42.873a2.956,2.956,0,0,1-.306,1.306h8.692a.768.768,0,0,1,.548.225.783.783,0,0,1,.228.552v.625a4.324,4.324,0,0,1-4.305,4.344Z" transform="translate(18.595 11.621)" fill="url(#linear-gradient)"/>
    <path id="Rectangle-path" d="M4.652,0H66.8a4.652,4.652,0,0,1,4.652,4.652v35.47A4.652,4.652,0,0,1,66.8,44.774H4.652A4.652,4.652,0,0,1,0,40.122V4.652A4.652,4.652,0,0,1,4.652,0Z" transform="translate(28.882 12.185)" fill="#535461"/>
    <path id="Rectangle-path-2" data-name="Rectangle-path" d="M0,0H68.289V36.577H0Z" transform="translate(30.386 18.711)" fill="#f1f1f4"/>
    <path id="Oval-2" data-name="Oval" d="M.6,0A.607.607,0,1,1,0,.607.6.6,0,0,1,.6,0Z" transform="translate(63.929 14.916)" fill="#fff"/>
    <path id="Shape-30" data-name="Shape" d="M55.444,0,53.095,2.428H36.546L34.426,0H.752A.755.755,0,0,0,0,.759v.612a4.264,4.264,0,0,0,1.234,3A4.187,4.187,0,0,0,4.212,5.615h81.23a4.226,4.226,0,0,0,4.207-4.245V.759A.755.755,0,0,0,88.9,0Z" transform="translate(19.631 55.364)" fill="#535461"/>
    <path id="Rectangle-path-3" data-name="Rectangle-path" d="M0,0H18.67V14.2H0Z" transform="translate(34.557 21.499)" fill="#fff"/>
    <path id="Rectangle-path-4" data-name="Rectangle-path" d="M0,0H6.223V3.549H0Z" transform="translate(36.383 22.727)" fill="#cecece" opacity="0.2"/>
    <path id="Rectangle-path-5" data-name="Rectangle-path" d="M0,0H7.306V.819H0Z" transform="translate(44.095 22.727)" fill="#e6e8ec"/>
    <path id="Rectangle-path-6" data-name="Rectangle-path" d="M0,0H5.141V.819H0Z" transform="translate(44.095 24.092)" fill="#e6e8ec"/>
    <path id="Rectangle-path-7" data-name="Rectangle-path" d="M0,0H7.306V.819H0Z" transform="translate(44.095 25.457)" fill="#e6e8ec"/>
    <path id="Rectangle-path-8" data-name="Rectangle-path" d="M0,0H15.017V.819H0Z" transform="translate(36.383 26.822)" fill="#e6e8ec"/>
    <path id="Rectangle-path-9" data-name="Rectangle-path" d="M0,0H15.017V.819H0Z" transform="translate(36.383 28.187)" fill="#e6e8ec"/>
    <path id="Rectangle-path-10" data-name="Rectangle-path" d="M0,0H15.017V.819H0Z" transform="translate(36.383 29.553)" fill="#e6e8ec"/>
    <path id="Rectangle-path-11" data-name="Rectangle-path" d="M0,0H13.8V.819H0Z" transform="translate(36.383 30.917)" fill="#e6e8ec"/>
    <path id="Rectangle-path-12" data-name="Rectangle-path" d="M0,0H15.017V.819H0Z" transform="translate(36.383 32.282)" fill="#e6e8ec"/>
    <path id="Rectangle-path-13" data-name="Rectangle-path" d="M0,0H15.017V.819H0Z" transform="translate(36.383 33.648)" fill="#e6e8ec"/>
    <path id="Rectangle-path-14" data-name="Rectangle-path" d="M0,0H18.67V14.2H0Z" transform="translate(55.121 21.499)" fill="#fff"/>
    <path id="Rectangle-path-15" data-name="Rectangle-path" d="M0,0H6.223V3.549H0Z" transform="translate(56.946 22.727)" fill="#cecece" opacity="0.2"/>
    <path id="Rectangle-path-16" data-name="Rectangle-path" d="M0,0H7.306V.819H0Z" transform="translate(64.659 22.727)" fill="#e6e8ec"/>
    <path id="Rectangle-path-17" data-name="Rectangle-path" d="M0,0H5.141V.819H0Z" transform="translate(64.659 24.092)" fill="#e6e8ec"/>
    <path id="Rectangle-path-18" data-name="Rectangle-path" d="M0,0H7.306V.819H0Z" transform="translate(64.659 25.457)" fill="#e6e8ec"/>
    <path id="Rectangle-path-19" data-name="Rectangle-path" d="M0,0H15.017V.819H0Z" transform="translate(56.946 26.822)" fill="#e6e8ec"/>
    <path id="Rectangle-path-20" data-name="Rectangle-path" d="M0,0H15.017V.819H0Z" transform="translate(56.946 28.187)" fill="#e6e8ec"/>
    <path id="Rectangle-path-21" data-name="Rectangle-path" d="M0,0H15.017V.819H0Z" transform="translate(56.946 29.553)" fill="#e6e8ec"/>
    <path id="Rectangle-path-22" data-name="Rectangle-path" d="M0,0H13.8V.819H0Z" transform="translate(56.946 30.917)" fill="#e6e8ec"/>
    <path id="Rectangle-path-23" data-name="Rectangle-path" d="M0,0H15.017V.819H0Z" transform="translate(56.946 32.282)" fill="#e6e8ec"/>
    <path id="Rectangle-path-24" data-name="Rectangle-path" d="M0,0H15.017V.819H0Z" transform="translate(56.946 33.648)" fill="#e6e8ec"/>
    <path id="Rectangle-path-25" data-name="Rectangle-path" d="M0,0H18.67V14.2H0Z" transform="translate(75.684 21.499)" fill="#fff"/>
    <path id="Rectangle-path-26" data-name="Rectangle-path" d="M0,0H6.223V3.549H0Z" transform="translate(77.51 22.727)" fill="#cecece" opacity="0.2"/>
    <path id="Rectangle-path-27" data-name="Rectangle-path" d="M0,0H7.306V.819H0Z" transform="translate(85.222 22.727)" fill="#e6e8ec"/>
    <path id="Rectangle-path-28" data-name="Rectangle-path" d="M0,0H5.141V.819H0Z" transform="translate(85.222 24.092)" fill="#e6e8ec"/>
    <path id="Rectangle-path-29" data-name="Rectangle-path" d="M0,0H7.306V.819H0Z" transform="translate(85.222 25.457)" fill="#e6e8ec"/>
    <path id="Rectangle-path-30" data-name="Rectangle-path" d="M0,0H15.017V.819H0Z" transform="translate(77.51 26.822)" fill="#e6e8ec"/>
    <path id="Rectangle-path-31" data-name="Rectangle-path" d="M0,0H15.017V.819H0Z" transform="translate(77.51 28.187)" fill="#e6e8ec"/>
    <path id="Rectangle-path-32" data-name="Rectangle-path" d="M0,0H15.017V.819H0Z" transform="translate(77.51 29.553)" fill="#e6e8ec"/>
    <path id="Rectangle-path-33" data-name="Rectangle-path" d="M0,0H13.8V.819H0Z" transform="translate(77.51 30.917)" fill="#e6e8ec"/>
    <path id="Rectangle-path-34" data-name="Rectangle-path" d="M0,0H15.017V.819H0Z" transform="translate(77.51 32.282)" fill="#e6e8ec"/>
    <path id="Rectangle-path-35" data-name="Rectangle-path" d="M0,0H15.017V.819H0Z" transform="translate(77.51 33.648)" fill="#e6e8ec"/>
    <path id="Rectangle-path-36" data-name="Rectangle-path" d="M0,0H18.67V14.2H0Z" transform="translate(34.557 37.47)" fill="#fff"/>
    <path id="Rectangle-path-37" data-name="Rectangle-path" d="M0,0H6.223V3.549H0Z" transform="translate(36.383 38.698)" fill="#897edc" opacity="0.2"/>
    <path id="Rectangle-path-38" data-name="Rectangle-path" d="M0,0H7.306V.819H0Z" transform="translate(44.095 38.698)" fill="#e6e8ec"/>
    <path id="Rectangle-path-39" data-name="Rectangle-path" d="M0,0H5.141V.819H0Z" transform="translate(44.095 40.064)" fill="#e6e8ec"/>
    <path id="Rectangle-path-40" data-name="Rectangle-path" d="M0,0H7.306V.819H0Z" transform="translate(44.095 41.429)" fill="#e6e8ec"/>
    <path id="Rectangle-path-41" data-name="Rectangle-path" d="M0,0H15.017V.819H0Z" transform="translate(36.383 42.793)" fill="#e6e8ec"/>
    <path id="Rectangle-path-42" data-name="Rectangle-path" d="M0,0H15.017V.819H0Z" transform="translate(36.383 44.159)" fill="#e6e8ec"/>
    <path id="Rectangle-path-43" data-name="Rectangle-path" d="M0,0H15.017V.819H0Z" transform="translate(36.383 45.524)" fill="#e6e8ec"/>
    <path id="Rectangle-path-44" data-name="Rectangle-path" d="M0,0H13.8V.819H0Z" transform="translate(36.383 46.889)" fill="#e6e8ec"/>
    <path id="Rectangle-path-45" data-name="Rectangle-path" d="M0,0H15.017V.819H0Z" transform="translate(36.383 48.254)" fill="#e6e8ec"/>
    <path id="Rectangle-path-46" data-name="Rectangle-path" d="M0,0H15.017V.819H0Z" transform="translate(36.383 49.619)" fill="#e6e8ec"/>
    <path id="Rectangle-path-47" data-name="Rectangle-path" d="M0,0H18.67V14.2H0Z" transform="translate(55.121 37.47)" fill="#fff"/>
    <path id="Rectangle-path-48" data-name="Rectangle-path" d="M0,0H6.223V3.549H0Z" transform="translate(56.946 38.698)" fill="#cecece" opacity="0.2"/>
    <path id="Rectangle-path-49" data-name="Rectangle-path" d="M0,0H7.306V.819H0Z" transform="translate(64.659 38.698)" fill="#e6e8ec"/>
    <path id="Rectangle-path-50" data-name="Rectangle-path" d="M0,0H5.141V.819H0Z" transform="translate(64.659 40.064)" fill="#e6e8ec"/>
    <path id="Rectangle-path-51" data-name="Rectangle-path" d="M0,0H7.306V.819H0Z" transform="translate(64.659 41.429)" fill="#e6e8ec"/>
    <path id="Rectangle-path-52" data-name="Rectangle-path" d="M0,0H15.017V.819H0Z" transform="translate(56.946 42.793)" fill="#e6e8ec"/>
    <path id="Rectangle-path-53" data-name="Rectangle-path" d="M0,0H15.017V.819H0Z" transform="translate(56.946 44.159)" fill="#e6e8ec"/>
    <path id="Rectangle-path-54" data-name="Rectangle-path" d="M0,0H15.017V.819H0Z" transform="translate(56.946 45.524)" fill="#e6e8ec"/>
    <path id="Rectangle-path-55" data-name="Rectangle-path" d="M0,0H13.8V.819H0Z" transform="translate(56.946 46.889)" fill="#e6e8ec"/>
    <path id="Rectangle-path-56" data-name="Rectangle-path" d="M0,0H15.017V.819H0Z" transform="translate(56.946 48.254)" fill="#e6e8ec"/>
    <path id="Rectangle-path-57" data-name="Rectangle-path" d="M0,0H15.017V.819H0Z" transform="translate(56.946 49.619)" fill="#e6e8ec"/>
    <path id="Rectangle-path-58" data-name="Rectangle-path" d="M0,0H18.67V14.2H0Z" transform="translate(75.684 37.47)" opacity="0.1"/>
    <path id="Shape-31" data-name="Shape" d="M31.45,0H2.644A2.627,2.627,0,0,0,.775.778,2.675,2.675,0,0,0,0,2.661V42.936a2.675,2.675,0,0,0,.775,1.882,2.627,2.627,0,0,0,1.867.777H31.449a2.627,2.627,0,0,0,1.867-.777,2.675,2.675,0,0,0,.775-1.882V2.661A2.675,2.675,0,0,0,33.317.778,2.627,2.627,0,0,0,31.45,0Z" transform="translate(13.707 26.276)" fill="url(#linear-gradient)"/>
    <path id="Rectangle-path-59" data-name="Rectangle-path" d="M4,0H29.281a4,4,0,0,1,4,4V40.639a4,4,0,0,1-4,4H4a4,4,0,0,1-4-4V4A4,4,0,0,1,4,0Z" transform="translate(14.114 26.822)" fill="#535461"/>
    <path id="Rectangle-path-60" data-name="Rectangle-path" d="M0,0H29.9V36.194H0Z" transform="translate(15.804 31.045)" fill="#f1f1f4"/>
    <path id="Oval-3" data-name="Oval" d="M.406,0A.409.409,0,1,1,0,.409.407.407,0,0,1,.406,0Z" transform="translate(30.213 28.461)" fill="#fff"/>
    <path id="Oval-4" data-name="Oval" d="M1.218,0A1.229,1.229,0,1,1,0,1.229,1.223,1.223,0,0,1,1.218,0Z" transform="translate(29.4 68.048)" fill="#fff"/>
    <path id="Rectangle-path-61" data-name="Rectangle-path" d="M0,0H8.528V6.485H0Z" transform="translate(17.096 34.743)" fill="#fff"/>
    <path id="Rectangle-path-62" data-name="Rectangle-path" d="M0,0H2.843V1.621H0Z" transform="translate(17.931 35.305)" fill="#cecece" opacity="0.2"/>
    <path id="Rectangle-path-63" data-name="Rectangle-path" d="M0,0H3.337V.371H0Z" transform="translate(21.453 35.305)" fill="#e6e8ec"/>
    <path id="Rectangle-path-64" data-name="Rectangle-path" d="M0,0H2.348V.371H0Z" transform="translate(21.453 35.929)" fill="#e6e8ec"/>
    <path id="Rectangle-path-65" data-name="Rectangle-path" d="M0,0H3.337V.371H0Z" transform="translate(21.453 36.552)" fill="#e6e8ec"/>
    <path id="Rectangle-path-66" data-name="Rectangle-path" d="M0,0H6.859V.371H0Z" transform="translate(17.931 37.176)" fill="#e6e8ec"/>
    <path id="Rectangle-path-67" data-name="Rectangle-path" d="M0,0H6.859V.371H0Z" transform="translate(17.931 37.799)" fill="#e6e8ec"/>
    <path id="Rectangle-path-68" data-name="Rectangle-path" d="M0,0H6.859V.371H0Z" transform="translate(17.931 38.423)" fill="#e6e8ec"/>
    <path id="Rectangle-path-69" data-name="Rectangle-path" d="M0,0H6.3V.371H0Z" transform="translate(17.931 39.047)" fill="#e6e8ec"/>
    <path id="Rectangle-path-70" data-name="Rectangle-path" d="M0,0H6.859V.371H0Z" transform="translate(17.931 39.67)" fill="#e6e8ec"/>
    <path id="Rectangle-path-71" data-name="Rectangle-path" d="M0,0H6.859V.371H0Z" transform="translate(17.931 40.294)" fill="#e6e8ec"/>
    <path id="Rectangle-path-72" data-name="Rectangle-path" d="M0,0H8.528V6.485H0Z" transform="translate(26.49 34.743)" fill="#fff"/>
    <path id="Rectangle-path-73" data-name="Rectangle-path" d="M0,0H2.843V1.621H0Z" transform="translate(27.324 35.305)" fill="#cecece" opacity="0.2"/>
    <path id="Rectangle-path-74" data-name="Rectangle-path" d="M0,0H3.337V.371H0Z" transform="translate(30.847 35.305)" fill="#e6e8ec"/>
    <path id="Rectangle-path-75" data-name="Rectangle-path" d="M0,0H2.348V.371H0Z" transform="translate(30.847 35.929)" fill="#e6e8ec"/>
    <path id="Rectangle-path-76" data-name="Rectangle-path" d="M0,0H3.337V.371H0Z" transform="translate(30.847 36.552)" fill="#e6e8ec"/>
    <path id="Rectangle-path-77" data-name="Rectangle-path" d="M0,0H6.859V.371H0Z" transform="translate(27.324 37.176)" fill="#e6e8ec"/>
    <path id="Rectangle-path-78" data-name="Rectangle-path" d="M0,0H6.859V.371H0Z" transform="translate(27.324 37.799)" fill="#e6e8ec"/>
    <path id="Rectangle-path-79" data-name="Rectangle-path" d="M0,0H6.859V.371H0Z" transform="translate(27.324 38.423)" fill="#e6e8ec"/>
    <path id="Rectangle-path-80" data-name="Rectangle-path" d="M0,0H6.3V.371H0Z" transform="translate(27.324 39.047)" fill="#e6e8ec"/>
    <path id="Rectangle-path-81" data-name="Rectangle-path" d="M0,0H6.859V.371H0Z" transform="translate(27.324 39.67)" fill="#e6e8ec"/>
    <path id="Rectangle-path-82" data-name="Rectangle-path" d="M0,0H6.859V.371H0Z" transform="translate(27.324 40.294)" fill="#e6e8ec"/>
    <path id="Rectangle-path-83" data-name="Rectangle-path" d="M0,0H8.528V6.485H0Z" transform="translate(35.883 34.743)" fill="#fff"/>
    <path id="Rectangle-path-84" data-name="Rectangle-path" d="M0,0H2.843V1.621H0Z" transform="translate(36.718 35.305)" fill="#cecece" opacity="0.2"/>
    <path id="Rectangle-path-85" data-name="Rectangle-path" d="M0,0H3.337V.371H0Z" transform="translate(40.24 35.305)" fill="#e6e8ec"/>
    <path id="Rectangle-path-86" data-name="Rectangle-path" d="M0,0H2.348V.371H0Z" transform="translate(40.24 35.929)" fill="#e6e8ec"/>
    <path id="Rectangle-path-87" data-name="Rectangle-path" d="M0,0H3.337V.371H0Z" transform="translate(40.24 36.552)" fill="#e6e8ec"/>
    <path id="Rectangle-path-88" data-name="Rectangle-path" d="M0,0H6.859V.371H0Z" transform="translate(36.718 37.176)" fill="#e6e8ec"/>
    <path id="Rectangle-path-89" data-name="Rectangle-path" d="M0,0H6.859V.371H0Z" transform="translate(36.718 37.799)" fill="#e6e8ec"/>
    <path id="Rectangle-path-90" data-name="Rectangle-path" d="M0,0H6.859V.371H0Z" transform="translate(36.718 38.423)" fill="#e6e8ec"/>
    <path id="Rectangle-path-91" data-name="Rectangle-path" d="M0,0H6.3V.371H0Z" transform="translate(36.718 39.047)" fill="#e6e8ec"/>
    <path id="Rectangle-path-92" data-name="Rectangle-path" d="M0,0H6.859V.371H0Z" transform="translate(36.718 39.67)" fill="#e6e8ec"/>
    <path id="Rectangle-path-93" data-name="Rectangle-path" d="M0,0H6.859V.371H0Z" transform="translate(36.718 40.294)" fill="#e6e8ec"/>
    <path id="Rectangle-path-94" data-name="Rectangle-path" d="M0,0H8.528V6.485H0Z" transform="translate(17.096 42.039)" fill="#fff"/>
    <path id="Rectangle-path-95" data-name="Rectangle-path" d="M0,0H2.843V1.621H0Z" transform="translate(17.931 42.601)" fill="#897edc" opacity="0.2"/>
    <path id="Rectangle-path-96" data-name="Rectangle-path" d="M0,0H3.337V.371H0Z" transform="translate(21.453 42.601)" fill="#e6e8ec"/>
    <path id="Rectangle-path-97" data-name="Rectangle-path" d="M0,0H2.348V.371H0Z" transform="translate(21.453 43.224)" fill="#e6e8ec"/>
    <path id="Rectangle-path-98" data-name="Rectangle-path" d="M0,0H3.337V.371H0Z" transform="translate(21.453 43.848)" fill="#e6e8ec"/>
    <path id="Rectangle-path-99" data-name="Rectangle-path" d="M0,0H6.859V.371H0Z" transform="translate(17.931 44.471)" fill="#e6e8ec"/>
    <path id="Rectangle-path-100" data-name="Rectangle-path" d="M0,0H6.859V.371H0Z" transform="translate(17.931 45.095)" fill="#e6e8ec"/>
    <path id="Rectangle-path-101" data-name="Rectangle-path" d="M0,0H6.859V.371H0Z" transform="translate(17.931 45.719)" fill="#e6e8ec"/>
    <path id="Rectangle-path-102" data-name="Rectangle-path" d="M0,0H6.3V.371H0Z" transform="translate(17.931 46.342)" fill="#e6e8ec"/>
    <path id="Rectangle-path-103" data-name="Rectangle-path" d="M0,0H6.859V.371H0Z" transform="translate(17.931 46.966)" fill="#e6e8ec"/>
    <path id="Rectangle-path-104" data-name="Rectangle-path" d="M0,0H6.859V.371H0Z" transform="translate(17.931 47.589)" fill="#e6e8ec"/>
    <path id="Rectangle-path-105" data-name="Rectangle-path" d="M0,0H8.528V6.485H0Z" transform="translate(26.49 42.039)" fill="#fff"/>
    <path id="Rectangle-path-106" data-name="Rectangle-path" d="M0,0H2.843V1.621H0Z" transform="translate(27.324 42.601)" fill="#897edc" opacity="0.2"/>
    <path id="Rectangle-path-107" data-name="Rectangle-path" d="M0,0H3.337V.371H0Z" transform="translate(30.847 42.601)" fill="#e6e8ec"/>
    <path id="Rectangle-path-108" data-name="Rectangle-path" d="M0,0H2.348V.371H0Z" transform="translate(30.847 43.224)" fill="#e6e8ec"/>
    <path id="Rectangle-path-109" data-name="Rectangle-path" d="M0,0H3.337V.371H0Z" transform="translate(30.847 43.848)" fill="#e6e8ec"/>
    <path id="Rectangle-path-110" data-name="Rectangle-path" d="M0,0H6.859V.371H0Z" transform="translate(27.324 44.471)" fill="#e6e8ec"/>
    <path id="Rectangle-path-111" data-name="Rectangle-path" d="M0,0H6.859V.371H0Z" transform="translate(27.324 45.095)" fill="#e6e8ec"/>
    <path id="Rectangle-path-112" data-name="Rectangle-path" d="M0,0H6.859V.371H0Z" transform="translate(27.324 45.719)" fill="#e6e8ec"/>
    <path id="Rectangle-path-113" data-name="Rectangle-path" d="M0,0H6.3V.371H0Z" transform="translate(27.324 46.342)" fill="#e6e8ec"/>
    <path id="Rectangle-path-114" data-name="Rectangle-path" d="M0,0H6.859V.371H0Z" transform="translate(27.324 46.966)" fill="#e6e8ec"/>
    <path id="Rectangle-path-115" data-name="Rectangle-path" d="M0,0H6.859V.371H0Z" transform="translate(27.324 47.589)" fill="#e6e8ec"/>
    <path id="Rectangle-path-116" data-name="Rectangle-path" d="M0,0H8.528V6.485H0Z" transform="translate(35.883 42.039)" fill="#fff"/>
    <path id="Rectangle-path-117" data-name="Rectangle-path" d="M0,0H2.843V1.621H0Z" transform="translate(36.718 42.601)" fill="#cecece" opacity="0.2"/>
    <path id="Rectangle-path-118" data-name="Rectangle-path" d="M0,0H3.337V.371H0Z" transform="translate(40.24 42.601)" fill="#e6e8ec"/>
    <path id="Rectangle-path-119" data-name="Rectangle-path" d="M0,0H2.348V.371H0Z" transform="translate(40.24 43.224)" fill="#e6e8ec"/>
    <path id="Rectangle-path-120" data-name="Rectangle-path" d="M0,0H3.337V.371H0Z" transform="translate(40.24 43.848)" fill="#e6e8ec"/>
    <path id="Rectangle-path-121" data-name="Rectangle-path" d="M0,0H6.859V.371H0Z" transform="translate(36.718 44.471)" fill="#e6e8ec"/>
    <path id="Rectangle-path-122" data-name="Rectangle-path" d="M0,0H6.859V.371H0Z" transform="translate(36.718 45.095)" fill="#e6e8ec"/>
    <path id="Rectangle-path-123" data-name="Rectangle-path" d="M0,0H6.859V.371H0Z" transform="translate(36.718 45.719)" fill="#e6e8ec"/>
    <path id="Rectangle-path-124" data-name="Rectangle-path" d="M0,0H6.3V.371H0Z" transform="translate(36.718 46.342)" fill="#e6e8ec"/>
    <path id="Rectangle-path-125" data-name="Rectangle-path" d="M0,0H6.859V.371H0Z" transform="translate(36.718 46.966)" fill="#e6e8ec"/>
    <path id="Rectangle-path-126" data-name="Rectangle-path" d="M0,0H6.859V.371H0Z" transform="translate(36.718 47.589)" fill="#e6e8ec"/>
    <path id="Rectangle-path-127" data-name="Rectangle-path" d="M0,0H8.528V6.485H0Z" transform="translate(17.096 49.623)" fill="#fff"/>
    <path id="Rectangle-path-128" data-name="Rectangle-path" d="M0,0H2.843V1.621H0Z" transform="translate(17.931 50.185)" fill="#897edc" opacity="0.2"/>
    <path id="Rectangle-path-129" data-name="Rectangle-path" d="M0,0H3.337V.371H0Z" transform="translate(21.453 50.185)" fill="#e6e8ec"/>
    <path id="Rectangle-path-130" data-name="Rectangle-path" d="M0,0H2.348V.371H0Z" transform="translate(21.453 50.808)" fill="#e6e8ec"/>
    <path id="Rectangle-path-131" data-name="Rectangle-path" d="M0,0H3.337V.371H0Z" transform="translate(21.453 51.432)" fill="#e6e8ec"/>
    <path id="Rectangle-path-132" data-name="Rectangle-path" d="M0,0H6.859V.371H0Z" transform="translate(17.931 52.055)" fill="#e6e8ec"/>
    <path id="Rectangle-path-133" data-name="Rectangle-path" d="M0,0H6.859V.371H0Z" transform="translate(17.931 52.679)" fill="#e6e8ec"/>
    <path id="Rectangle-path-134" data-name="Rectangle-path" d="M0,0H6.859V.371H0Z" transform="translate(17.931 53.303)" fill="#e6e8ec"/>
    <path id="Rectangle-path-135" data-name="Rectangle-path" d="M0,0H6.3V.371H0Z" transform="translate(17.931 53.926)" fill="#e6e8ec"/>
    <path id="Rectangle-path-136" data-name="Rectangle-path" d="M0,0H6.859V.371H0Z" transform="translate(17.931 54.55)" fill="#e6e8ec"/>
    <path id="Rectangle-path-137" data-name="Rectangle-path" d="M0,0H6.859V.371H0Z" transform="translate(17.931 55.173)" fill="#e6e8ec"/>
    <path id="Rectangle-path-138" data-name="Rectangle-path" d="M0,0H8.528V6.485H0Z" transform="translate(26.49 49.623)" fill="#fff"/>
    <path id="Rectangle-path-139" data-name="Rectangle-path" d="M0,0H2.843V1.621H0Z" transform="translate(27.324 50.185)" fill="#897edc" opacity="0.2"/>
    <path id="Rectangle-path-140" data-name="Rectangle-path" d="M0,0H3.337V.371H0Z" transform="translate(30.847 50.185)" fill="#e6e8ec"/>
    <path id="Rectangle-path-141" data-name="Rectangle-path" d="M0,0H2.348V.371H0Z" transform="translate(30.847 50.808)" fill="#e6e8ec"/>
    <path id="Rectangle-path-142" data-name="Rectangle-path" d="M0,0H3.337V.371H0Z" transform="translate(30.847 51.432)" fill="#e6e8ec"/>
    <path id="Rectangle-path-143" data-name="Rectangle-path" d="M0,0H6.859V.371H0Z" transform="translate(27.324 52.055)" fill="#e6e8ec"/>
    <path id="Rectangle-path-144" data-name="Rectangle-path" d="M0,0H6.859V.371H0Z" transform="translate(27.324 52.679)" fill="#e6e8ec"/>
    <path id="Rectangle-path-145" data-name="Rectangle-path" d="M0,0H6.859V.371H0Z" transform="translate(27.324 53.303)" fill="#e6e8ec"/>
    <path id="Rectangle-path-146" data-name="Rectangle-path" d="M0,0H6.3V.371H0Z" transform="translate(27.324 53.926)" fill="#e6e8ec"/>
    <path id="Rectangle-path-147" data-name="Rectangle-path" d="M0,0H6.859V.371H0Z" transform="translate(27.324 54.55)" fill="#e6e8ec"/>
    <path id="Rectangle-path-148" data-name="Rectangle-path" d="M0,0H6.859V.371H0Z" transform="translate(27.324 55.173)" fill="#e6e8ec"/>
    <path id="Rectangle-path-149" data-name="Rectangle-path" d="M0,0H8.528V6.485H0Z" transform="translate(35.883 49.623)" fill="#fff"/>
    <path id="Rectangle-path-150" data-name="Rectangle-path" d="M0,0H2.843V1.621H0Z" transform="translate(36.718 50.185)" fill="#cecece" opacity="0.2"/>
    <path id="Rectangle-path-151" data-name="Rectangle-path" d="M0,0H3.337V.371H0Z" transform="translate(40.24 50.185)" fill="#e6e8ec"/>
    <path id="Rectangle-path-152" data-name="Rectangle-path" d="M0,0H2.348V.371H0Z" transform="translate(40.24 50.808)" fill="#e6e8ec"/>
    <path id="Rectangle-path-153" data-name="Rectangle-path" d="M0,0H3.337V.371H0Z" transform="translate(40.24 51.432)" fill="#e6e8ec"/>
    <path id="Rectangle-path-154" data-name="Rectangle-path" d="M0,0H6.859V.371H0Z" transform="translate(36.718 52.055)" fill="#e6e8ec"/>
    <path id="Rectangle-path-155" data-name="Rectangle-path" d="M0,0H6.859V.371H0Z" transform="translate(36.718 52.679)" fill="#e6e8ec"/>
    <path id="Rectangle-path-156" data-name="Rectangle-path" d="M0,0H6.859V.371H0Z" transform="translate(36.718 53.303)" fill="#e6e8ec"/>
    <path id="Rectangle-path-157" data-name="Rectangle-path" d="M0,0H6.3V.371H0Z" transform="translate(36.718 53.926)" fill="#e6e8ec"/>
    <path id="Rectangle-path-158" data-name="Rectangle-path" d="M0,0H6.859V.371H0Z" transform="translate(36.718 54.55)" fill="#e6e8ec"/>
    <path id="Rectangle-path-159" data-name="Rectangle-path" d="M0,0H6.859V.371H0Z" transform="translate(36.718 55.173)" fill="#e6e8ec"/>
    <path id="Rectangle-path-160" data-name="Rectangle-path" d="M0,0H8.528V6.485H0Z" transform="translate(17.096 56.918)" fill="#fff"/>
    <path id="Rectangle-path-161" data-name="Rectangle-path" d="M0,0H2.843V1.621H0Z" transform="translate(17.931 57.48)" fill="#897edc" opacity="0.2"/>
    <path id="Rectangle-path-162" data-name="Rectangle-path" d="M0,0H3.337V.371H0Z" transform="translate(21.453 57.48)" fill="#e6e8ec"/>
    <path id="Rectangle-path-163" data-name="Rectangle-path" d="M0,0H2.348V.371H0Z" transform="translate(21.453 58.104)" fill="#e6e8ec"/>
    <path id="Rectangle-path-164" data-name="Rectangle-path" d="M0,0H3.337V.371H0Z" transform="translate(21.453 58.727)" fill="#e6e8ec"/>
    <path id="Rectangle-path-165" data-name="Rectangle-path" d="M0,0H6.859V.371H0Z" transform="translate(17.931 59.351)" fill="#e6e8ec"/>
    <path id="Rectangle-path-166" data-name="Rectangle-path" d="M0,0H6.859V.371H0Z" transform="translate(17.931 59.975)" fill="#e6e8ec"/>
    <path id="Rectangle-path-167" data-name="Rectangle-path" d="M0,0H6.859V.371H0Z" transform="translate(17.931 60.598)" fill="#e6e8ec"/>
    <path id="Rectangle-path-168" data-name="Rectangle-path" d="M0,0H6.3V.371H0Z" transform="translate(17.931 61.222)" fill="#e6e8ec"/>
    <path id="Rectangle-path-169" data-name="Rectangle-path" d="M0,0H6.859V.371H0Z" transform="translate(17.931 61.845)" fill="#e6e8ec"/>
    <path id="Rectangle-path-170" data-name="Rectangle-path" d="M0,0H6.859V.371H0Z" transform="translate(17.931 62.469)" fill="#e6e8ec"/>
    <path id="Rectangle-path-171" data-name="Rectangle-path" d="M0,0H8.528V6.485H0Z" transform="translate(26.49 56.918)" fill="#fff"/>
    <path id="Rectangle-path-172" data-name="Rectangle-path" d="M0,0H2.843V1.621H0Z" transform="translate(27.324 57.48)" fill="#897edc" opacity="0.2"/>
    <path id="Rectangle-path-173" data-name="Rectangle-path" d="M0,0H3.337V.371H0Z" transform="translate(30.847 57.48)" fill="#e6e8ec"/>
    <path id="Rectangle-path-174" data-name="Rectangle-path" d="M0,0H2.348V.371H0Z" transform="translate(30.847 58.104)" fill="#e6e8ec"/>
    <path id="Rectangle-path-175" data-name="Rectangle-path" d="M0,0H3.337V.371H0Z" transform="translate(30.847 58.727)" fill="#e6e8ec"/>
    <path id="Rectangle-path-176" data-name="Rectangle-path" d="M0,0H6.859V.371H0Z" transform="translate(27.324 59.351)" fill="#e6e8ec"/>
    <path id="Rectangle-path-177" data-name="Rectangle-path" d="M0,0H6.859V.371H0Z" transform="translate(27.324 59.975)" fill="#e6e8ec"/>
    <path id="Rectangle-path-178" data-name="Rectangle-path" d="M0,0H6.859V.371H0Z" transform="translate(27.324 60.598)" fill="#e6e8ec"/>
    <path id="Rectangle-path-179" data-name="Rectangle-path" d="M0,0H6.3V.371H0Z" transform="translate(27.324 61.222)" fill="#e6e8ec"/>
    <path id="Rectangle-path-180" data-name="Rectangle-path" d="M0,0H6.859V.371H0Z" transform="translate(27.324 61.845)" fill="#e6e8ec"/>
    <path id="Rectangle-path-181" data-name="Rectangle-path" d="M0,0H6.859V.371H0Z" transform="translate(27.324 62.469)" fill="#e6e8ec"/>
    <path id="Rectangle-path-182" data-name="Rectangle-path" d="M0,0H8.528V6.485H0Z" transform="translate(35.883 56.918)" opacity="0.1"/>
    <path id="Shape-32" data-name="Shape" d="M16.257,0H1.466A1.456,1.456,0,0,0,.431.43,1.483,1.483,0,0,0,0,1.473V34.156A1.483,1.483,0,0,0,.431,35.2a1.456,1.456,0,0,0,1.035.43H16.257a1.456,1.456,0,0,0,1.035-.43,1.483,1.483,0,0,0,.431-1.043V1.474A1.483,1.483,0,0,0,17.293.43,1.456,1.456,0,0,0,16.257,0Z" transform="translate(6.943 39.927)" fill="url(#linear-gradient)"/>
    <path id="Rectangle-path-183" data-name="Rectangle-path" d="M2.2,0H15.252a2.2,2.2,0,0,1,2.2,2.2V33.02a2.2,2.2,0,0,1-2.2,2.2H2.2A2.2,2.2,0,0,1,0,33.02V2.2A2.2,2.2,0,0,1,2.2,0Z" transform="translate(7.079 40.201)" fill="#535461"/>
    <path id="Rectangle-path-184" data-name="Rectangle-path" d="M0,0H14.881V28.667H0Z" transform="translate(8.364 43.477)" fill="#f1f1f4"/>
    <path id="Oval-5" data-name="Oval" d="M.135,0A.135.135,0,1,1,0,.135.135.135,0,0,1,.135,0Z" transform="translate(13.91 41.703)" fill="#fff"/>
    <path id="Rectangle-path-185" data-name="Rectangle-path" d="M.135,0H2.841a.135.135,0,0,1,0,.271H.135A.135.135,0,0,1,.135,0Z" transform="translate(14.723 41.702)" fill="#fff"/>
    <path id="Oval-6" data-name="Oval" d="M.947,0A.956.956,0,1,1,0,.955.951.951,0,0,1,.947,0Z" transform="translate(14.79 72.554)" fill="#fff"/>
    <path id="Rectangle-path-186" data-name="Rectangle-path" d="M0,0H10.148V7.717H0Z" transform="translate(10.73 45.193)" opacity="0.1"/>
    <path id="Rectangle-path-187" data-name="Rectangle-path" d="M0,0H10.148V7.717H0Z" transform="translate(10.73 53.875)" fill="#fff"/>
    <path id="Rectangle-path-188" data-name="Rectangle-path" d="M0,0H3.382V1.93H0Z" transform="translate(11.723 54.543)" fill="#cecece" opacity="0.2"/>
    <path id="Rectangle-path-189" data-name="Rectangle-path" d="M0,0H3.971V.441H0Z" transform="translate(15.915 54.543)" fill="#e6e8ec"/>
    <path id="Rectangle-path-190" data-name="Rectangle-path" d="M0,0H2.795V.441H0Z" transform="translate(15.915 55.285)" fill="#e6e8ec"/>
    <path id="Rectangle-path-191" data-name="Rectangle-path" d="M0,0H3.971V.441H0Z" transform="translate(15.915 56.026)" fill="#e6e8ec"/>
    <path id="Rectangle-path-192" data-name="Rectangle-path" d="M0,0H8.163V.441H0Z" transform="translate(11.723 56.768)" fill="#e6e8ec"/>
    <path id="Rectangle-path-193" data-name="Rectangle-path" d="M0,0H8.163V.441H0Z" transform="translate(11.723 57.51)" fill="#e6e8ec"/>
    <path id="Rectangle-path-194" data-name="Rectangle-path" d="M0,0H8.163V.441H0Z" transform="translate(11.723 58.252)" fill="#e6e8ec"/>
    <path id="Rectangle-path-195" data-name="Rectangle-path" d="M0,0H7.5V.441H0Z" transform="translate(11.723 58.994)" fill="#e6e8ec"/>
    <path id="Rectangle-path-196" data-name="Rectangle-path" d="M0,0H8.163V.441H0Z" transform="translate(11.723 59.736)" fill="#e6e8ec"/>
    <path id="Rectangle-path-197" data-name="Rectangle-path" d="M0,0H8.163V.441H0Z" transform="translate(11.723 60.479)" fill="#e6e8ec"/>
    <path id="Rectangle-path-198" data-name="Rectangle-path" d="M0,0H10.148V7.717H0Z" transform="translate(10.73 62.574)" fill="#fff"/>
    <path id="Rectangle-path-199" data-name="Rectangle-path" d="M0,0H3.382V1.93H0Z" transform="translate(11.723 63.242)" fill="#cecece" opacity="0.2"/>
    <path id="Rectangle-path-200" data-name="Rectangle-path" d="M0,0H3.971V.441H0Z" transform="translate(15.915 63.242)" fill="#e6e8ec"/>
    <path id="Rectangle-path-201" data-name="Rectangle-path" d="M0,0H2.795V.441H0Z" transform="translate(15.915 63.984)" fill="#e6e8ec"/>
    <path id="Rectangle-path-202" data-name="Rectangle-path" d="M0,0H3.971V.441H0Z" transform="translate(15.915 64.726)" fill="#e6e8ec"/>
    <path id="Rectangle-path-203" data-name="Rectangle-path" d="M0,0H8.163V.441H0Z" transform="translate(11.723 65.468)" fill="#e6e8ec"/>
    <path id="Rectangle-path-204" data-name="Rectangle-path" d="M0,0H8.163V.441H0Z" transform="translate(11.723 66.21)" fill="#e6e8ec"/>
    <path id="Rectangle-path-205" data-name="Rectangle-path" d="M0,0H8.163V.441H0Z" transform="translate(11.723 66.953)" fill="#e6e8ec"/>
    <path id="Rectangle-path-206" data-name="Rectangle-path" d="M0,0H7.5V.441H0Z" transform="translate(11.723 67.695)" fill="#e6e8ec"/>
    <path id="Rectangle-path-207" data-name="Rectangle-path" d="M0,0H8.163V.441H0Z" transform="translate(11.723 68.436)" fill="#e6e8ec"/>
    <path id="Rectangle-path-208" data-name="Rectangle-path" d="M0,0H8.163V.441H0Z" transform="translate(11.723 69.178)" fill="#e6e8ec"/>
    <path id="Shape-33" data-name="Shape" d="M4.26,19.9l-.141-.077L4.1,19.808l-.083-.044-.075-.043-.163-.089L3.547,19.5l-.136-.077-.021-.011-.212-.121c-.3-.172-.64-.361-.977-.568l-.129-.077-.159-.1L1.828,18.5l-.141-.088-.08-.049-.072-.045-.177-.112-.2-.128c-.105-.068-.205-.133-.3-.2A5.153,5.153,0,0,1,.12,17.3l-.032-.036A.593.593,0,0,1,.038,17.2.148.148,0,0,1,0,17.082c.009-.025.019-.048.029-.071a.6.6,0,0,1,.033-.065.569.569,0,0,1,.04-.059.691.691,0,0,1,.606-.213,4.757,4.757,0,0,1,1.17.191,2.124,2.124,0,0,0,.485.064,4.727,4.727,0,0,0,2.288-.8l.019.031.045-.031s.053.081.129.207h.576c.9-.277,3.327-1.371,5.191-2.236A35.705,35.705,0,0,0,13.3,10.344c.835-1.546,1.671-1.094,1.928-1.03a3.028,3.028,0,0,1,.414.224.842.842,0,0,1,.313-.1c-.007-.249.109-.429.557-.249.617.247,1.338.546,1.777.732-.1-.131-.172-.216-.172-.216.449.45,1.606.192,1.606.192a8.816,8.816,0,0,0,1.114-2.048,1.349,1.349,0,0,1-.228-.065l.121-.045c-.02-.008-.039-.013-.057-.02a2.387,2.387,0,0,0,.249-.1,8.97,8.97,0,0,0,.409-1.522A1.523,1.523,0,0,1,22.179,4.8,2.063,2.063,0,0,1,21.17,1.918,1.068,1.068,0,0,1,21.363.7a1.66,1.66,0,0,1,.862-.437A14.6,14.6,0,0,0,23.882.015a2.771,2.771,0,0,1,1.706.767A3.6,3.6,0,0,1,26.7,3.911c-.044.909.181,1.746.087,2.652-.116,1.118.716,2.084,1.4,2.925l-.077.032.02.027a1.753,1.753,0,0,1-1.125.276,20.012,20.012,0,0,0-.981,4.445,1.627,1.627,0,0,1-.466,1.141c-.057.444-.113.843-.176,1.115C25.194,17.359,23.91,18,23.91,18s-.049-.031-.128-.085c-.885.7-3.085.342-3.085.342-.133.016-.38-.143-.686-.413-1.73-.564-5.44-1.785-5.931-2.032a1.722,1.722,0,0,0-1.226-.129,4.465,4.465,0,0,1-2,1.122.729.729,0,0,1-.187.1.072.072,0,0,1-.024,0,1.788,1.788,0,0,1,.071.309,4.789,4.789,0,0,1,.072,1.6.148.148,0,0,0-.009.039l-.007.023q-.01.036-.024.072c-.013.032-.024.064-.035.1l-.011.031-.024.077a2.213,2.213,0,0,0-.057.458.093.093,0,0,1-.015.049v.011a.094.094,0,0,1-.1.092l-.1-.011h-.017l-.161-.016-.113-.013-.093-.009L9.851,19.7,9.793,19.7l-.139-.016-.276-.031-.762-.089-.2-.025-.1-.012-.321-.041-.125-.016-.181-.025-.127-.017-.077-.011-.353-.051-.27-.041-.306-.051-.157-.027-.068-.013-.084-.015-.172-.036-.041-.009-.08-.019-.053-.013c-.055-.013-.117-.032-.143-.04s-.048-.017-.071-.027l-.021-.009-.043-.02-.023-.012-.033-.019L5.539,19l-.028-.02-.017-.015-.024-.023-.013-.015L5.435,18.9l-.009-.013a.233.233,0,0,1-.024-.039v-.009a.325.325,0,0,1-.013-.032c0-.005.007-.009,0-.017a.038.038,0,0,1-.007-.025v-.149l.007-.019a.873.873,0,0,1,1.077-.516,1.213,1.213,0,0,0,.894-.316,5.657,5.657,0,0,1-.733.112H5.373a3.71,3.71,0,0,1-.7,1.4c-.107.029-.207.4-.248.58a.2.2,0,0,1-.131.048Z" transform="translate(27.342 56.733)" fill="url(#linear-gradient-4)"/>
    <path id="Shape-34" data-name="Shape" d="M2.646.946S1.467.445.538.07.166.946.166.946a14.8,14.8,0,0,1,1.551.5,9.129,9.129,0,0,0,1.3.125Z" transform="translate(43.245 65.799)" fill="#f7c4a7"/>
    <path id="Shape-35" data-name="Shape" d="M2.646.946S1.467.445.538.07.166.946.166.946a14.8,14.8,0,0,1,1.551.5,9.129,9.129,0,0,0,1.3.125Z" transform="translate(43.245 65.799)" opacity="0.05"/>
    <path id="Shape-36" data-name="Shape" d="M5.579.29S3.471-.837,3.1,1.353A8.984,8.984,0,0,1,1.551,5.046S.434,5.3,0,4.859c0,0,1.054,1.251.558,1.377,0,0,1.117.813,1.613.563s.868-1.94,1.054-2.378S4.093.164,5.579.29Z" transform="translate(45.333 61.512)" fill="#575988"/>
    <path id="Shape-37" data-name="Shape" d="M5.579.29S3.471-.837,3.1,1.353A8.984,8.984,0,0,1,1.551,5.046S.434,5.3,0,4.859c0,0,1.054,1.251.558,1.377,0,0,1.117.813,1.613.563s.868-1.94,1.054-2.378S4.093.164,5.579.29Z" transform="translate(45.333 61.512)" opacity="0.1"/>
    <path id="Shape-38" data-name="Shape" d="M0,1.634A5.91,5.91,0,0,1,1.365,4.387C1.427,5.639,2.853,3.073,2.978,3.01S1.737.821,1.612.134,0,1.634,0,1.634Z" transform="translate(49.737 59.416)" fill="#f7c4a7"/>
    <path id="Shape-39" data-name="Shape" d="M.821,0,0,.75.387,2.33l1.054-1-.124-1L.821,0Z" transform="translate(49.814 61.693)" fill="#f7c4a7"/>
    <path id="Shape-40" data-name="Shape" d="M1.426,0H0L.558,1.376,1.922,1l-.5-1Z" transform="translate(32.062 72.816)" fill="#f7c4a7"/>
    <path id="Shape-41" data-name="Shape" d="M4.494,0A3.98,3.98,0,0,1,1.756.714C.492.391.151.508,0,.93c-.136.383,3.525,2.413,4.108,2.733a.066.066,0,0,0,.063.006.067.067,0,0,0,.039-.05c.04-.17.136-.535.238-.563a3.365,3.365,0,0,0,.715-1.642A4.709,4.709,0,0,0,4.494,0Z" transform="translate(27.896 72.617)" opacity="0.1"/>
    <path id="Shape-42" data-name="Shape" d="M4.494,0A3.98,3.98,0,0,1,1.756.714C.492.391.151.508,0,.93c-.136.383,3.525,2.413,4.108,2.733a.066.066,0,0,0,.063.006.067.067,0,0,0,.039-.05c.04-.17.136-.535.238-.563a3.365,3.365,0,0,0,.715-1.642A4.709,4.709,0,0,0,4.494,0Z" transform="translate(27.835 72.617)" fill="#f3b5b7"/>
    <path id="Shape-43" data-name="Shape" d="M11.722.563,7.566,0S.806,3.254,0,3.317L.186,4.76h1.24c.5,0,5.333-1.064,6.016-2.127a1.648,1.648,0,0,1,1.179.125c.62.309,6.574,2.253,6.574,2.253Z" transform="translate(32.805 69.562)" fill="#575988"/>
    <path id="Shape-44" data-name="Shape" d="M11.722.563,7.566,0S.806,3.254,0,3.317L.186,4.76h1.24c.5,0,5.333-1.064,6.016-2.127a1.648,1.648,0,0,1,1.179.125c.62.309,6.574,2.253,6.574,2.253Z" transform="translate(32.805 69.562)" opacity="0.1"/>
    <path id="Shape-45" data-name="Shape" d="M.682,0,0,.876l.682.375L1.675.5.682,0Z" transform="translate(36.464 72.065)" fill="#f7c4a7"/>
    <path id="Shape-46" data-name="Shape" d="M12.089,5.176A24.784,24.784,0,0,1,9.7,2.9,28.055,28.055,0,0,0,5.64.107c-.248-.063-1.054-.5-1.86,1A53.837,53.837,0,0,1,0,6.239S.931,7.553,1.24,7.491s3.78-3,4.031-4.443c0,0,.248-.563.806.375S10.232,8.867,10.915,8.8c0,0,2.667.438,3.225-.626S12.089,5.176,12.089,5.176Z" transform="translate(36.902 65.888)" fill="#575988"/>
    <path id="Rectangle-path-209" data-name="Rectangle-path" d="M0,0H9.286V7.062H0Z" transform="translate(39.079 60.96)" fill="url(#linear-gradient-5)"/>
    <path id="Rectangle-path-210" data-name="Rectangle-path" d="M0,0H8.528V6.485H0Z" transform="translate(39.458 61.247)" fill="#fff"/>
    <path id="Rectangle-path-211" data-name="Rectangle-path" d="M0,0H2.843V1.621H0Z" transform="translate(40.293 61.809)" fill="#897edc" opacity="0.2"/>
    <path id="Rectangle-path-212" data-name="Rectangle-path" d="M0,0H3.337V.371H0Z" transform="translate(43.815 61.809)" fill="#e6e8ec"/>
    <path id="Rectangle-path-213" data-name="Rectangle-path" d="M0,0H2.348V.371H0Z" transform="translate(43.815 62.433)" fill="#e6e8ec"/>
    <path id="Rectangle-path-214" data-name="Rectangle-path" d="M0,0H3.337V.371H0Z" transform="translate(43.815 63.056)" fill="#e6e8ec"/>
    <path id="Rectangle-path-215" data-name="Rectangle-path" d="M0,0H6.859V.371H0Z" transform="translate(40.293 63.68)" fill="#e6e8ec"/>
    <path id="Rectangle-path-216" data-name="Rectangle-path" d="M0,0H6.859V.371H0Z" transform="translate(40.293 64.304)" fill="#e6e8ec"/>
    <path id="Rectangle-path-217" data-name="Rectangle-path" d="M0,0H6.859V.371H0Z" transform="translate(40.293 64.927)" fill="#e6e8ec"/>
    <path id="Rectangle-path-218" data-name="Rectangle-path" d="M0,0H6.3V.371H0Z" transform="translate(40.293 65.551)" fill="#e6e8ec"/>
    <path id="Rectangle-path-219" data-name="Rectangle-path" d="M0,0H6.859V.371H0Z" transform="translate(40.293 66.174)" fill="#e6e8ec"/>
    <path id="Rectangle-path-220" data-name="Rectangle-path" d="M0,0H6.859V.371H0Z" transform="translate(40.293 66.798)" fill="#e6e8ec"/>
    <path id="Shape-47" data-name="Shape" d="M2.268.1S1.492.442,1.43,1.881A12.266,12.266,0,0,1,0,5.761L.124,8.64A6.652,6.652,0,0,1,1.737,11.08a2.58,2.58,0,0,0,1.18,1.565s1.24-.626,1.43-1.443a32.863,32.863,0,0,1,.62-3.567c.314-.751.124-5.444.124-5.444L4.16.563,3.663,0l-1.3,1.5S1.648.535,2.268.1Z" transform="translate(47.996 61.798)" fill="#f3b5b7"/>
    <path id="Shape-48" data-name="Shape" d="M.559,7.615S.373,5.362.931,4.862l1.117-3.2A11.054,11.054,0,0,0,2.388.008C2.326-.117.931,1.229.931,1.229L0,4.546l.248,3.5Z" transform="translate(47.875 61.883)" opacity="0.1"/>
    <path id="Shape-49" data-name="Shape" d="M.559,7.646S.373,5.393.931,4.893L2.047,1.7A11.369,11.369,0,0,0,2.419.008C2.357-.117.931,1.259.931,1.259L0,4.576l.248,3.5Z" transform="translate(47.813 61.853)" fill="#575988"/>
    <path id="Shape-50" data-name="Shape" d="M6.235,2.4A24.405,24.405,0,0,1,2.948,1.144C2.764.894.777-.733.095.393S2.637,1.836,2.637,1.836l3.287,2Z" transform="translate(42.571 66.102)" fill="#f7c4a7"/>
    <path id="Shape-51" data-name="Shape" d="M4.249.167,3.33,0s-1.5,1.943-2.286,1.746-1.5.653-.676.928a44.233,44.233,0,0,0,4.592.656.089.089,0,0,0,.071-.021.091.091,0,0,0,.031-.068A2.008,2.008,0,0,1,5.2,2.536,4.157,4.157,0,0,0,5.152.911,1.626,1.626,0,0,0,4.971.349Z" transform="translate(33.031 72.768)" opacity="0.1"/>
    <path id="Shape-52" data-name="Shape" d="M4.253.167,3.334,0s-1.5,1.944-2.289,1.746-1.5.653-.676.928a44.233,44.233,0,0,0,4.592.656.089.089,0,0,0,.071-.021.091.091,0,0,0,.031-.068A2.008,2.008,0,0,1,5.2,2.536,4.157,4.157,0,0,0,5.153.911,1.626,1.626,0,0,0,4.972.349Z" transform="translate(33.013 72.829)" fill="#f3b5b7"/>
    <path id="Oval-7" data-name="Oval" d="M1.985,0A2,2,0,1,1,0,2,1.994,1.994,0,0,1,1.985,0Z" transform="translate(48.217 57.766)" opacity="0.1"/>
    <path id="Oval-8" data-name="Oval" d="M1.985,0A2,2,0,1,1,0,2,1.994,1.994,0,0,1,1.985,0Z" transform="translate(48.031 57.766)" fill="#f7c4a7"/>
    <path id="Shape-53" data-name="Shape" d="M2.7,0S5.058.813,5.058,2.5s-1.3,4.381-1.365,6.571S.221,10.951.221,10.951-.276,3.567.221,3,2.95.25,2.7,0Z" transform="translate(49.267 61.739)" fill="#575988"/>
    <path id="Shape-54" data-name="Shape" d="M3.49,1.642s-.868,3.88-2.915,3.2c0,0-1.054,1.565-.306,2.253a3.392,3.392,0,0,0,2.977-.751c1.178-1.189,2.044-1.63,2.23-3.073S5.781-.175,5.168.012,3.49,1.642,3.49,1.642Z" transform="translate(48.045 63.602)" opacity="0.1"/>
    <path id="Shape-55" data-name="Shape" d="M3.49,1.636s-.868,3.88-2.915,3.2c0,0-1.054,1.565-.306,2.253a3.392,3.392,0,0,0,2.977-.751C4.422,5.143,5.288,4.705,5.478,3.266S5.784-.175,5.171.012,3.49,1.636,3.49,1.636Z" transform="translate(48.107 63.545)" fill="#575988"/>
    <path id="Shape-56" data-name="Shape" d="M.148,0A.017.017,0,0,1,.14.017,1.486,1.486,0,0,0,0,.345,1.016,1.016,0,0,1,.071.2.725.725,0,0,0,.148,0Z" transform="translate(38.157 75.163)" fill="#dddbe2"/>
    <path id="Shape-57" data-name="Shape" d="M.411.37C.155.286.048.146.044,0c-.1.206-.039.433.322.552a44.272,44.272,0,0,0,4.592.656.089.089,0,0,0,.071-.021.091.091,0,0,0,.031-.068h0a.091.091,0,0,0-.081-.093A44.944,44.944,0,0,1,.411.37Z" transform="translate(33.021 74.95)" fill="#dddbe2"/>
    <path id="Shape-58" data-name="Shape" d="M.089.133A.774.774,0,0,1,.15,0,.611.611,0,0,0,0,.243C-.132.627,3.529,2.655,4.112,2.977a.067.067,0,0,0,.063,0,.068.068,0,0,0,.04-.049h0a.068.068,0,0,0-.033-.075C3.534,2.5-.045.512.089.133Z" transform="translate(27.834 73.304)" fill="#dddbe2"/>
    <path id="Shape-59" data-name="Shape" d="M.1.031C.065.04.031.085,0,.148H.011C.039.141.088.086.148,0A.127.127,0,0,1,.1.031Z" transform="translate(32.273 75.533)" fill="#dddbe2"/>
    <path id="Shape-60" data-name="Shape" d="M2,4.522a10.848,10.848,0,0,0-.34,1.237A2.707,2.707,0,0,1,0,7.5a1.811,1.811,0,0,0,1.9-.583,6.028,6.028,0,0,0,1.07-1.906c.723.491.635,1.618.877,2.5A2.762,2.762,0,0,0,5.311,9.265,2.594,2.594,0,0,0,7.548,9.22C6.885,8.4,5.941,7.284,6.053,6.2c.091-.88-.535-1.552-.491-2.435a3.021,3.021,0,0,0-1.3-2.691c-.52-.47.3-1.134-.372-.939-.264.076-.541-.206-.8-.114a13.935,13.935,0,0,1-1.6.24C-1.251.906,2.253,3.954,2,4.522Z" transform="translate(47.74 57.009)" opacity="0.1"/>
    <path id="Shape-61" data-name="Shape" d="M2,4.541a10.848,10.848,0,0,0-.34,1.237A2.707,2.707,0,0,1,0,7.515a1.811,1.811,0,0,0,1.9-.583,6.028,6.028,0,0,0,1.07-1.906c.723.491.635,1.618.877,2.5A2.762,2.762,0,0,0,5.311,9.284a2.594,2.594,0,0,0,2.237-.045C6.885,8.423,6,7.487,6.118,6.4c.091-.88-.045-1.784,0-2.666A4.229,4.229,0,0,0,4.682.474,1.939,1.939,0,0,0,3.091.038a13.935,13.935,0,0,1-1.6.24C-1.251.926,2.255,3.973,2,4.541Z" transform="translate(47.802 56.927)" fill="#b96b6b"/>
    <path id="Shape-62" data-name="Shape" d="M18.362,44.126a1.508,1.508,0,0,0-.51-.073c-.305.005-.955-.241-.593-.562a23.654,23.654,0,0,0,1.976-2.073,1.025,1.025,0,0,0-.143.084v-.015l-.021.015s-.005-.072-.016-.188l.023-.008c-.048-.481-.195-1.692-.488-1.84-.366-.184-3.071-5.6-3.071-5.6l-2.706-7.03s-2.151,3.747-3.989,4.394v1.574a41.92,41.92,0,0,1-1.376,5.135c-.366.509,0,2.545,0,2.545a1.25,1.25,0,0,1-.247.22l.293,1.678A18.59,18.59,0,0,0,1.808,43.4s-1.371-.6-.225-1.346a2.444,2.444,0,0,0,2.156-1.34A4.8,4.8,0,0,1,4.3,39.9a2.761,2.761,0,0,0,.4-1.456c-.047-1.063,1.054-6.893,1.054-6.893a6.053,6.053,0,0,1,.963-3.608,26.811,26.811,0,0,0,2.394-5.214.339.339,0,0,1-.148.079l.025-.145-.025.007.32-1.805a8.25,8.25,0,0,0,1.186-1.812l-.075-.016-.973-.207a11.338,11.338,0,0,1-1.68-3.384l-.128.007H7.434a37.4,37.4,0,0,0-4.382.232c0-.008.011-.036.023-.083a5.393,5.393,0,0,0,.143-.682l-.091-.007-.9-.061S-.893,11.338.253,10.69s2.338,2.915,2.338,2.915l.385.071.1.02a.5.5,0,0,0-.032-.044s5.09-.232,5.869-1.48c0,0,2.248-1.8,2.34-3a1.353,1.353,0,0,1,.807-1.154,1.745,1.745,0,0,1,.891-.168l1.051.073-.075.133h.029a3.58,3.58,0,0,0,.167-.47h-.021c.007-.036.013-.069.02-.1a2.482,2.482,0,0,1-1.571-1.149,2.522,2.522,0,0,1-.266-1.94.985.985,0,0,1-.306-.008.915.915,0,0,1-.672-.874V3.419a1.35,1.35,0,0,1,.51-1.031,7.705,7.705,0,0,0,.652-.5A5.163,5.163,0,0,0,13,1.066,2.421,2.421,0,0,1,14.241.089a1.129,1.129,0,0,1,1.137.135c.153.143.241.348.408.469a1.805,1.805,0,0,0,.867.157,1.656,1.656,0,0,1,1.247.942,2.188,2.188,0,0,1,.2,1,2.743,2.743,0,0,1-.083.7c-.059.227-.143.446-.2.673-.128.472-.159.966-.306,1.43a1.809,1.809,0,0,1-.574.878l.044.192c.028.007.742.161,1.237,1.25a6.56,6.56,0,0,0,2.29,2.1.961.961,0,0,1,.432.6,3.169,3.169,0,0,1,.073.769,5.37,5.37,0,0,1-.549,2.306,18.589,18.589,0,0,1-1.743,3.2s-.059.677-.059,1.4a4.184,4.184,0,0,0,.151,1.332,5.148,5.148,0,0,1,.123,1.452c0,1.258-.123,2.9-.123,2.9s-.35.067-.894.148l-.338,6a2.91,2.91,0,0,0,.648,2,4.361,4.361,0,0,0,.817.781c.963.7,3.027,8.005,3.027,8.005s-.1.005-.268.019l.634,1.785a7.444,7.444,0,0,1-3.482,1.516A1.8,1.8,0,0,1,18.362,44.126Z" transform="translate(14.927 37.123)" fill="url(#linear-gradient-6)"/>
    <path id="Shape-63" data-name="Shape" d="M4.312,0l.851,2.392S2.833,4.2,1.319,3.823A4.2,4.2,0,0,0,.625,3.71C.311,3.686-.228,3.456.1,3.162A28.749,28.749,0,0,0,2.612.452Z" transform="translate(31.939 76.948)" fill="#4f4d59"/>
    <path id="Shape-64" data-name="Shape" d="M5.818.55l.4,2.3a18.121,18.121,0,0,0-5.551.994S-.674,3.26.446,2.537a2.389,2.389,0,0,0,2.1-1.31c.806-1.4,1.3-1.219,1.3-1.219Z" transform="translate(16.288 76.172)" fill="#4f4d59"/>
    <path id="Shape-65" data-name="Shape" d="M13.7,4.3,13.3,11.309a2.916,2.916,0,0,0,.685,2.05,4.227,4.227,0,0,0,.74.7c.94.677,2.954,7.814,2.954,7.814a8.962,8.962,0,0,0-2.909.588s-.134-1.807-.492-1.987-3-5.463-3-5.463L8.64,8.14s-2.1,3.659-3.895,4.291v1.536A41,41,0,0,1,3.4,18.98c-.359.5,0,2.484,0,2.484s-1.03,1.31-3.4-.091a3.028,3.028,0,0,0,.715-1.9c-.046-1.039,1.032-6.729,1.032-6.729a5.919,5.919,0,0,1,.94-3.523c1.074-1.358,2.86-6.549,2.86-6.549L6.779,0Z" transform="translate(19.062 55.708)" fill="#787c9c"/>
    <g id="Group-2" data-name="Group" transform="translate(20.84 55.71)" opacity="0.1">
      <path id="Shape-66" data-name="Shape" d="M10.586,21.869s-2.014-7.137-2.954-7.814a4.281,4.281,0,0,1-.777-.741,2.883,2.883,0,0,1-.647-2L6.6,4.3,0,.195.09,0,7,4.3,6.61,11.309a2.883,2.883,0,0,0,.647,2,4.281,4.281,0,0,0,.777.741c.94.677,2.954,7.814,2.954,7.814a8.961,8.961,0,0,0-2.909.588s-.005-.07-.016-.184A12.513,12.513,0,0,1,10.586,21.869Z" transform="translate(4.893 0)"/>
      <path id="Shape-67" data-name="Shape" d="M1.2,13.324s-.359-1.987,0-2.484A41,41,0,0,0,2.543,5.827V4.291C4.333,3.658,6.438,0,6.438,0l.156.407c-.607.971-2.226,3.382-3.648,3.884V5.827A41,41,0,0,1,1.6,10.84c-.359.5,0,2.484,0,2.484a1.863,1.863,0,0,1-1.6.548A1.758,1.758,0,0,0,1.2,13.324Z" transform="translate(0 8.141)"/>
    </g>
    <path id="Shape-68" data-name="Shape" d="M2.177,4.147l.88.059.464.031V3.1l-.613-.111L2.53,2.923S1.367-.555.247.077,2.177,4.147,2.177,4.147Z" transform="translate(15.184 48.002)" fill="#714b4f"/>
    <path id="Shape-69" data-name="Shape" d="M3.4,0s.582,2.258.761,3.659S0,3.93,0,3.93,1.656,1.9.715.813Z" transform="translate(28.06 42.845)" fill="#714b4f"/>
    <path id="Shape-70" data-name="Shape" d="M.314,7.678l-.09.859,1.387-.091L3,7.226,4.385,3.3l.9-1.4.671-.859L5.685,0s-.123.1-.33.268c-.681.527-2.281,1.62-3.45,1.318a1.384,1.384,0,0,1-.159-.051L0,4.562Z" transform="translate(26.448 44.562)" fill="#e6e6f0"/>
    <path id="Shape-71" data-name="Shape" d="M13.608,0s.715.135,1.208,1.219a6.387,6.387,0,0,0,2.228,2.047.963.963,0,0,1,.433.609,4.532,4.532,0,0,1-.468,2.855,18.314,18.314,0,0,1-1.7,3.117,10.283,10.283,0,0,0,.09,2.8,20.734,20.734,0,0,1,0,4.111s-4.7.9-6.267,0-1.343-4.39-1.343-4.39-1.477,3.164-2.011,3.255l.306-1.762A7.619,7.619,0,0,0,7.923,9.526s.537-2.213.09-2.8c0,0-7.565.633-8.013.091,0,0,4.969-.226,5.73-1.443,0,0,2.193-1.762,2.283-2.936a1.3,1.3,0,0,1,.671-1.064,1.74,1.74,0,0,1,1-.226l1.011.07S8.953,4.329,9.046,4.741s-.09,3.7-.09,3.7,2.014-4.382,2.909-4.878a7.853,7.853,0,0,0,1.921-2.536L13.608,0" transform="translate(18.167 44.295)" opacity="0.1"/>
    <path id="Shape-72" data-name="Shape" d="M.314,7.678l-.09.859,1.387-.091L3,7.226,4.385,3.3l.9-1.4.671-.859L5.685,0s-.123.1-.33.268l.061.357A7.877,7.877,0,0,1,3.491,3.161C2.6,3.658.582,8.04.582,8.04s.179-3.3.09-3.7a11.862,11.862,0,0,1,1.233-2.75,1.384,1.384,0,0,1-.159-.051L0,4.562Z" transform="translate(26.448 44.562)" opacity="0.1"/>
    <path id="Shape-73" data-name="Shape" d="M.149,1.214l.464.031V.111L0,0A1.772,1.772,0,0,1,.149,1.214Z" transform="translate(18.091 50.995)" opacity="0.1"/>
    <path id="Shape-74" data-name="Shape" d="M13.608,0s.715.135,1.208,1.219a6.387,6.387,0,0,0,2.228,2.047.963.963,0,0,1,.433.609,4.532,4.532,0,0,1-.468,2.855,18.314,18.314,0,0,1-1.7,3.117,10.283,10.283,0,0,0,.09,2.8,20.734,20.734,0,0,1,0,4.111s-4.7.9-6.267,0-1.343-4.382-1.343-4.382-1.477,3.161-2.011,3.251l.306-1.762A7.619,7.619,0,0,0,7.923,9.53s.537-2.213.09-2.8c0,0-1.746,1.9-3.715,1.855A37.486,37.486,0,0,0,0,8.811S.447,7.368,0,6.823c0,0,4.969-.226,5.73-1.443,0,0,2.193-1.762,2.283-2.936a1.3,1.3,0,0,1,.672-1.068,1.74,1.74,0,0,1,1-.226l1.011.07S8.953,4.336,9.046,4.742s-.09,3.7-.09,3.7,2.014-4.382,2.909-4.878A7.877,7.877,0,0,0,13.79,1.031L13.612,0" transform="translate(18.167 44.155)" fill="#67647e"/>
    <path id="Shape-75" data-name="Shape" d="M7.339,0s-1.075,3.659-1.7,4.111S1.207,6.866.088,6.324c0,0-.269,1.355.134,1.671,0,0,4.174-.165,4.208-.18,0,0,2.73-.362,3.178-1.716s.985-3.659.985-3.659Z" transform="translate(25.421 48.897)" opacity="0.1"/>
    <path id="Oval-9" data-name="Oval" d="M.156,0C.243,0,.313.1.313.224S.243.447.156.447,0,.347,0,.224.07,0,.156,0Z" transform="translate(26.874 52.579)" fill="#ba7855"/>
    <path id="Oval-10" data-name="Oval" d="M.156,0C.243,0,.313.1.313.224S.243.447.156.447,0,.347,0,.224.07,0,.156,0Z" transform="translate(26.427 54.16)" fill="#ba7855"/>
    <g id="Group-3" data-name="Group" transform="translate(18.167 44.15)" opacity="0.1">
      <path id="Shape-76" data-name="Shape" d="M5.031,16.717a20.737,20.737,0,0,0,0-4.111,10.282,10.282,0,0,1-.09-2.8,18.18,18.18,0,0,0,1.7-3.117A4.539,4.539,0,0,0,7.11,3.834a.963.963,0,0,0-.434-.609A6.376,6.376,0,0,1,4.449,1.178,2.341,2.341,0,0,0,3.57.1L3.553,0s.715.135,1.208,1.219A6.393,6.393,0,0,0,6.988,3.266a.963.963,0,0,1,.434.609,4.532,4.532,0,0,1-.468,2.855,18.314,18.314,0,0,1-1.7,3.117,10.283,10.283,0,0,0,.09,2.8,20.734,20.734,0,0,1,0,4.111,19.45,19.45,0,0,1-5.343.3A20.7,20.7,0,0,0,5.031,16.717Z" transform="translate(10.055 0)"/>
      <path id="Shape-77" data-name="Shape" d="M.4,3.55a27.7,27.7,0,0,1-.05,2.917C.136,6.913,0,7.208,0,7.208s.179-3.3.09-3.7C.005,3.118,1.577.283,1.733,0l.326.023S.31,3.144.4,3.55Z" transform="translate(8.644 1.198)"/>
      <path id="Shape-78" data-name="Shape" d="M3.984,1.855C5.953,1.9,7.7,0,7.7,0a.724.724,0,0,1,.113.245A5.493,5.493,0,0,1,4.3,1.894,36.709,36.709,0,0,0,0,2.12s.009-.03.023-.081a35.319,35.319,0,0,1,3.96-.183Z" transform="translate(0 6.686)"/>
      <path id="Shape-79" data-name="Shape" d="M1.7,0s-.018.282-.008.706C1.227,1.634.379,3.233,0,3.3l.066-.371A21.325,21.325,0,0,0,1.7,0Z" transform="translate(5.775 12.336)"/>
    </g>
    <path id="Rectangle-path-221" data-name="Rectangle-path" d="M0,0H10.7V8.137H0Z" transform="translate(15.46 45.087)" fill="url(#linear-gradient)"/>
    <path id="Rectangle-path-222" data-name="Rectangle-path" d="M0,0H10.148V7.717H0Z" transform="translate(15.736 45.296)" fill="#fff"/>
    <path id="Rectangle-path-223" data-name="Rectangle-path" d="M0,0H3.382V1.93H0Z" transform="translate(16.729 45.964)" fill="#cecece" opacity="0.2"/>
    <path id="Rectangle-path-224" data-name="Rectangle-path" d="M0,0H3.971V.441H0Z" transform="translate(20.92 45.964)" fill="#e6e8ec"/>
    <path id="Rectangle-path-225" data-name="Rectangle-path" d="M0,0H2.795V.441H0Z" transform="translate(20.92 46.706)" fill="#e6e8ec"/>
    <path id="Rectangle-path-226" data-name="Rectangle-path" d="M0,0H3.971V.441H0Z" transform="translate(20.92 47.448)" fill="#e6e8ec"/>
    <path id="Rectangle-path-227" data-name="Rectangle-path" d="M0,0H8.163V.441H0Z" transform="translate(16.729 48.19)" fill="#e6e8ec"/>
    <path id="Rectangle-path-228" data-name="Rectangle-path" d="M0,0H8.163V.441H0Z" transform="translate(16.729 48.932)" fill="#e6e8ec"/>
    <path id="Rectangle-path-229" data-name="Rectangle-path" d="M0,0H8.163V.441H0Z" transform="translate(16.729 49.673)" fill="#e6e8ec"/>
    <path id="Rectangle-path-230" data-name="Rectangle-path" d="M0,0H7.5V.441H0Z" transform="translate(16.729 50.416)" fill="#e6e8ec"/>
    <path id="Rectangle-path-231" data-name="Rectangle-path" d="M0,0H8.163V.441H0Z" transform="translate(16.729 51.158)" fill="#e6e8ec"/>
    <path id="Rectangle-path-232" data-name="Rectangle-path" d="M0,0H8.163V.441H0Z" transform="translate(16.729 51.9)" fill="#e6e8ec"/>
    <path id="Shape-80" data-name="Shape" d="M1.644,3.9l.951.206.75.156-.4-1.134-.28-.071-.436-.109S1.6-.215.346.012,1.644,3.9,1.644,3.9Z" transform="translate(22.745 52.138)" fill="#714b4f"/>
    <path id="Shape-81" data-name="Shape" d="M.006,1.045l.75.16L.353.071.073,0A4.551,4.551,0,0,0,.006,1.045Z" transform="translate(25.334 55.191)" opacity="0.1"/>
    <path id="Shape-82" data-name="Shape" d="M7.339,0s-1.075,3.659-1.7,4.111S1.207,6.866.088,6.324c0,0-.269,1.355.134,1.671,0,0,4.174-.165,4.208-.18,0,0,2.73-.362,3.178-1.716s.985-3.659.985-3.659Z" transform="translate(25.421 48.808)" fill="#67647e"/>
    <path id="Shape-83" data-name="Shape" d="M2.687,0s.091.354.212.868A2.408,2.408,0,0,1,.231,2.1,1.417,1.417,0,0,0,0,.809Z" transform="translate(28.73 42.936)" opacity="0.1"/>
    <path id="Oval-11" data-name="Oval" d="M2.417,0A2.439,2.439,0,1,1,0,2.439,2.428,2.428,0,0,1,2.417,0Z" transform="translate(27.12 40.136)" fill="#714b4f"/>
    <path id="Shape-84" data-name="Shape" d="M1.194,4.157a1.283,1.283,0,0,1-.539.033A.892.892,0,0,1,0,3.336,1.315,1.315,0,0,1,.5,2.329c.2-.172.449-.295.636-.487a4.559,4.559,0,0,0,.511-.8A2.366,2.366,0,0,1,2.859.087,1.1,1.1,0,0,1,3.969.218c.146.139.232.34.4.458A1.75,1.75,0,0,0,5.211.83a1.616,1.616,0,0,1,1.217.919,2.32,2.32,0,0,1,.118,1.563c-.056.222-.138.437-.2.658-.126.46-.155.942-.3,1.4A1.491,1.491,0,0,1,5.15,6.4a2.883,2.883,0,0,0-.288-1.474.421.421,0,0,0-.2-.229.491.491,0,0,0-.246,0,2.433,2.433,0,0,1-1.634-.334c-.172-.1-.439-.465-.623-.5C1.922,3.816,1.439,4.1,1.194,4.157Z" transform="translate(26.244 37.746)" opacity="0.1"/>
    <path id="Shape-85" data-name="Shape" d="M1.194,4.157a1.283,1.283,0,0,1-.539.033A.892.892,0,0,1,0,3.336,1.315,1.315,0,0,1,.5,2.329c.2-.172.449-.295.636-.487a4.559,4.559,0,0,0,.511-.8A2.366,2.366,0,0,1,2.859.087,1.1,1.1,0,0,1,3.969.218c.146.139.232.34.4.458A1.75,1.75,0,0,0,5.211.83a1.616,1.616,0,0,1,1.217.919,2.32,2.32,0,0,1,.118,1.563c-.056.222-.138.437-.2.658-.126.46-.155.942-.3,1.4A1.491,1.491,0,0,1,5.15,6.4a2.883,2.883,0,0,0-.288-1.474.421.421,0,0,0-.2-.229.491.491,0,0,0-.246,0,2.433,2.433,0,0,1-1.634-.334c-.172-.1-.439-.465-.623-.5C1.922,3.816,1.439,4.1,1.194,4.157Z" transform="translate(26.244 37.655)" fill="#503f43"/>
    <path id="Shape-86" data-name="Shape" d="M3.8,1.909a1.2,1.2,0,0,0,.391-.6A.53.53,0,0,0,3.918.706c-.251-.1-.52.078-.723.257a.959.959,0,0,1-.7.342A1.086,1.086,0,0,0,2.822.294.424.424,0,0,0,2.73.088C2.59-.063,2.338,0,2.17.121a2.114,2.114,0,0,0-.682,1.76,3.405,3.405,0,0,1-.01-.722.748.748,0,0,0-.27-.641A.811.811,0,0,0,.8.421.845.845,0,0,0,.131.612a.668.668,0,0,0,.027.825A2.663,2.663,0,0,0,.849,2a1.538,1.538,0,0,1,.494.475.473.473,0,0,1,.037.085H2.875A4.17,4.17,0,0,0,3.8,1.909Z" transform="translate(5.001 76.442)" fill="#51cf66"/>
    <path id="Shape-87" data-name="Shape" d="M3.8,1.909a1.2,1.2,0,0,0,.391-.6A.53.53,0,0,0,3.918.706c-.251-.1-.52.078-.723.257a.959.959,0,0,1-.7.342A1.086,1.086,0,0,0,2.822.294.424.424,0,0,0,2.73.088C2.59-.063,2.338,0,2.17.121a2.114,2.114,0,0,0-.682,1.76,3.405,3.405,0,0,1-.01-.722.748.748,0,0,0-.27-.641A.811.811,0,0,0,.8.421.845.845,0,0,0,.131.612a.668.668,0,0,0,.027.825A2.663,2.663,0,0,0,.849,2a1.538,1.538,0,0,1,.494.475.473.473,0,0,1,.037.085h1.5A4.17,4.17,0,0,0,3.8,1.909Z" transform="translate(93.77 62.115)" fill="#51cf66"/>
    <path id="Shape-88" data-name="Shape" d="M8.436,43.157l-.124-.012H8.289l-.109-.016H8.159l-.1-.021H8.049l-.092-.024H7.943l-.085-.028-.016-.007-.077-.031H7.755l-.067-.033H7.679c-.021-.011-.041-.024-.061-.036L7.6,42.941c-.019-.013-.037-.025-.053-.039L7.542,42.9,7.5,42.857l-.005-.005c-.013-.013-.027-.027-.039-.041L7.445,42.8c-.012-.015-.023-.028-.032-.041l-.007-.012a.3.3,0,0,1-.024-.039V42.7c-.007-.013-.013-.027-.019-.04l-.005-.013a.375.375,0,0,1-.013-.041v-.013a.082.082,0,0,1-.007-.039v-.061c-.377,0-.7-.005-.945-.024l-.125-.012H6.247l-.111-.016h-.02l-.1-.021H6.007l-.093-.024H5.9l-.084-.028L5.8,42.36l-.079-.031H5.711L5.646,42.3H5.636a.463.463,0,0,1-.061-.036l-.012-.008a.548.548,0,0,1-.053-.039L5.5,42.207l-.044-.039-.007,0-.039-.041L5.4,42.112c-.012-.013-.021-.028-.032-.041l-.007-.012-.024-.039v-.009a.259.259,0,0,1-.017-.04l-.005-.012a.3.3,0,0,1-.013-.041V41.9a.082.082,0,0,1-.008-.039V41.75a.072.072,0,0,0,.007-.037.468.468,0,0,1,.516-.35,7.426,7.426,0,0,0,1.824-.236l1.6-1.428c-.153-.067-.244-.115-.244-.115.763-.654-1.178-6.41-1.178-6.41a2.684,2.684,0,0,1-1.47-2.493l.516-9.344.009-.175a2.356,2.356,0,0,1-.306.024H6.521a12.135,12.135,0,0,1,.841-4.357L1.992,16.2C-1.538,15.071.7,13.35.7,13.35l.424.405a1.75,1.75,0,0,1,.693-1.3l2.35,2.256a23.281,23.281,0,0,0,4.059-.277C8.333,14.163,8.4,14,8.4,14s2.117-4.036,2.589-4.57a2.227,2.227,0,0,0,.454-.9,2.614,2.614,0,0,0,.076-.405,4.444,4.444,0,0,0,1.444-.608A5.214,5.214,0,0,0,12.5,6.3l-.067-.12A2.467,2.467,0,0,1,10.82,5.021a2.511,2.511,0,0,1-.257-1.979.854.854,0,0,1-.726-.1.681.681,0,0,1-.273-.6,1.009,1.009,0,0,1,.248-.674,1.687,1.687,0,0,1,.926-.49A2.244,2.244,0,0,0,11.73.852c.312-.251.45-.73.833-.834a.908.908,0,0,1,.5.041A3.226,3.226,0,0,1,14.62,1.107a1.344,1.344,0,0,0,.358.362,2.369,2.369,0,0,1,.248.121.671.671,0,0,1,.2.266A2.59,2.59,0,0,1,15.7,3.022a2.584,2.584,0,0,1-.087.706c-.1.357-.268.689-.37,1.045a1.886,1.886,0,0,0-.079.494,1.074,1.074,0,0,0,.137.524l-.025.012c.008.016.016.032.025.048a.39.39,0,0,1-.428-.087,5.5,5.5,0,0,0,.2.854l.57-.091V7.3h.029a.22.22,0,0,1,.048.029,4.786,4.786,0,0,1,.758,1.6,3.285,3.285,0,0,1,.093,1.534c-.209,1.274-.658,3.892-1.17,6.168-.7,3.145-1.47,2.433-1.823,3.2a3.171,3.171,0,0,0-.06,1.84.533.533,0,0,1-.065,0,.518.518,0,0,1-.1-.007v.179a2.429,2.429,0,0,1-1.575,2.38,7.81,7.81,0,0,1,.06,4.213,4.92,4.92,0,0,0,.47,3.8s2.117,6.173,1.764,6.529.294,1.484.294,1.484a.863.863,0,0,1-.072.083,3.158,3.158,0,0,1,.55,2.553v.031s-3.584.261-5.573.261C8.942,43.181,8.655,43.174,8.436,43.157Z" transform="translate(94.368 24.109)" fill="url(#linear-gradient-8)"/>
    <path id="Shape-89" data-name="Shape" d="M8.025,1.8A34.625,34.625,0,0,1,3,2.216L.686,0s-2.2,1.691,1.272,2.8l6.472.758Z" transform="translate(94.519 37.611)" fill="#fdc2cc"/>
    <path id="Shape-90" data-name="Shape" d="M8.025,1.8A34.625,34.625,0,0,1,3,2.216L.686,0s-2.2,1.691,1.272,2.8l6.472.758Z" transform="translate(94.519 37.611)" opacity="0.05"/>
    <path id="Shape-91" data-name="Shape" d="M4.331,0,2.309,1.808a7.266,7.266,0,0,1-1.792.233c-.636-.059-.924.992.578,1.108s6.3-.233,6.3-.233A2.964,2.964,0,0,0,6.469,0Z" transform="translate(99.716 63.088)" fill="#47465a"/>
    <path id="Shape-92" data-name="Shape" d="M4.331,0,2.309,1.808a7.266,7.266,0,0,1-1.792.233c-.636-.059-.924.992.578,1.108s6.3-.233,6.3-.233A2.964,2.964,0,0,0,6.469,0Z" transform="translate(99.716 63.088)" opacity="0.05"/>
    <path id="Shape-93" data-name="Shape" d="M7.465,0a3.244,3.244,0,0,1-.073.632s-4.8.349-6.3.233C.372.809.065.537.01.276c-.065.3.2.695,1.085.764,1.5.116,6.3-.233,6.3-.233A3.4,3.4,0,0,0,7.465,0Z" transform="translate(99.716 65.196)" fill="#fff" opacity="0.3"/>
    <path id="Shape-94" data-name="Shape" d="M0,1.633S1.272,3.441.809,4.665,3.233,3.382,3.233,3.382A5.008,5.008,0,0,1,2.77,0Z" transform="translate(106.416 28.394)" fill="#fdc2cc"/>
    <path id="Shape-95" data-name="Shape" d="M4.331,0,2.309,1.808a7.266,7.266,0,0,1-1.792.233c-.636-.059-.924.992.578,1.108s6.3-.233,6.3-.233A2.964,2.964,0,0,0,6.469,0Z" transform="translate(101.742 63.787)" fill="#47465a"/>
    <path id="Shape-96" data-name="Shape" d="M5.895,21.225a1.54,1.54,0,0,1-1.171.541A4.872,4.872,0,0,1,2.6,21.225c.751-.641-1.155-6.3-1.155-6.3A2.638,2.638,0,0,1,0,12.478L.513,3.3.64.992,2.258,0,3.534.987l1.209.937a4.947,4.947,0,0,1,.151.91A2.429,2.429,0,0,1,3.357,5.481a7.673,7.673,0,0,1,.058,4.139,4.839,4.839,0,0,0,.463,3.731s2.081,6.064,1.737,6.414S5.895,21.225,5.895,21.225Z" transform="translate(100.753 42.154)" fill="#565171"/>
    <path id="Shape-97" data-name="Shape" d="M5.895,21.225a1.54,1.54,0,0,1-1.171.541A4.872,4.872,0,0,1,2.6,21.225c.751-.641-1.155-6.3-1.155-6.3A2.638,2.638,0,0,1,0,12.478L.513,3.3.64.992,2.258,0,3.534.987l1.209.937a4.947,4.947,0,0,1,.151.91A2.429,2.429,0,0,1,3.357,5.481a7.673,7.673,0,0,1,.058,4.139,4.839,4.839,0,0,0,.463,3.731s2.081,6.064,1.737,6.414S5.895,21.225,5.895,21.225Z" transform="translate(100.753 42.154)" opacity="0.05"/>
    <path id="Shape-98" data-name="Shape" d="M6.82,21.224c-.983,1.225-3.293,0-3.293,0a.371.371,0,0,0,.1-.159C4.052,19.9,2.2,14.344,2.2,14.344A3.411,3.411,0,0,1,.462,11.778L.053,2.435,0,1.225,2.431.288,3.178,0,5.663,1.924a4.586,4.586,0,0,1,.159,1.219A2.385,2.385,0,0,1,4.276,5.481a7.674,7.674,0,0,1,.058,4.139A4.839,4.839,0,0,0,4.8,13.352s2.081,6.064,1.737,6.414S6.82,21.224,6.82,21.224Z" transform="translate(101.851 42.855)" fill="#565171"/>
    <path id="Shape-99" data-name="Shape" d="M6.413,3.839A7.759,7.759,0,0,1,4.382,2.83l-.325-.206s-.52-1.457-1.907-.349a5.179,5.179,0,0,1-1.507.86A3.5,3.5,0,0,1,0,3.3L.128.992,1.746,0,3.022.987,3.768.7,6.254,2.624a4.586,4.586,0,0,1,.159,1.215Z" transform="translate(101.26 42.158)" opacity="0.1"/>
    <path id="Shape-100" data-name="Shape" d="M9.9,3.91c-.2,1.251-.648,3.823-1.149,6.06-.694,3.092-1.444,2.39-1.792,3.149A3.11,3.11,0,0,0,6.9,14.926c-.578.059-2.485-1.225-2.485-1.225s-.52-1.457-1.907-.349A4.044,4.044,0,0,1,.027,14.4c-.289-1.924,1.849-7.055,1.849-7.055s2.081-3.965,2.543-4.49a2.2,2.2,0,0,0,.446-.886,2.431,2.431,0,0,0,.074-.4,9.531,9.531,0,0,0,2.6-1.34L8.983,0V.758A.221.221,0,0,1,9.03.786a4.7,4.7,0,0,1,.745,1.575A3.223,3.223,0,0,1,9.9,3.91Z" transform="translate(100.897 30.903)" fill="#f68080"/>
    <path id="Shape-101" data-name="Shape" d="M6.529.179s-1.5-1.225-3.756,2.741S0,6.242,0,6.242s.463,1.752.231,2.1a12.568,12.568,0,0,1,2.138,0c.578.116,4.161-4.429,4.161-4.429S8.382,1.344,6.529.179Z" transform="translate(103.119 32.24)" opacity="0.1"/>
    <path id="Shape-102" data-name="Shape" d="M6.529.179s-1.5-1.225-3.756,2.741S0,6.242,0,6.242s1.792,1.982,2.369,2.1S6.529,3.91,6.529,3.91,8.378,1.345,6.529.179Z" transform="translate(103.065 32.006)" opacity="0.1"/>
    <path id="Shape-103" data-name="Shape" d="M.231,1.663A7.107,7.107,0,0,0,0,.077C.351.031.573,0,.573,0L.982,1.752Z" transform="translate(103.069 38.54)" opacity="0.1"/>
    <path id="Shape-104" data-name="Shape" d="M2.773,0,0,1.633a5.988,5.988,0,0,1,.323.534,2.417,2.417,0,0,0,.486.049c.741,0,1.086-.784,1.532-1.312C2.31.48,2.65.469,2.773,0Z" transform="translate(106.474 28.512)" opacity="0.1"/>
    <path id="Oval-12" data-name="Oval" d="M2.427,0A2.449,2.449,0,1,1,0,2.449,2.438,2.438,0,0,1,2.427,0Z" transform="translate(104.799 25.712)" fill="#fdc2cc"/>
    <path id="Rectangle-path-233" data-name="Rectangle-path" d="M0,0H19.546V14.863H0Z" transform="translate(83.928 30.952)" fill="url(#linear-gradient)"/>
    <path id="Rectangle-path-234" data-name="Rectangle-path" d="M0,0H18.67V14.2H0Z" transform="translate(84.367 31.285)" fill="#fff"/>
    <path id="Rectangle-path-235" data-name="Rectangle-path" d="M0,0H6.223V3.549H0Z" transform="translate(86.193 32.514)" fill="#cecece" opacity="0.2"/>
    <path id="Rectangle-path-236" data-name="Rectangle-path" d="M0,0H7.306V.819H0Z" transform="translate(93.904 32.514)" fill="#e6e8ec"/>
    <path id="Rectangle-path-237" data-name="Rectangle-path" d="M0,0H5.141V.819H0Z" transform="translate(93.904 33.88)" fill="#e6e8ec"/>
    <path id="Rectangle-path-238" data-name="Rectangle-path" d="M0,0H7.306V.819H0Z" transform="translate(93.904 35.244)" fill="#e6e8ec"/>
    <path id="Rectangle-path-239" data-name="Rectangle-path" d="M0,0H15.017V.819H0Z" transform="translate(86.193 36.609)" fill="#e6e8ec"/>
    <path id="Rectangle-path-240" data-name="Rectangle-path" d="M0,0H15.017V.819H0Z" transform="translate(86.193 37.975)" fill="#e6e8ec"/>
    <path id="Rectangle-path-241" data-name="Rectangle-path" d="M0,0H15.017V.819H0Z" transform="translate(86.193 39.339)" fill="#e6e8ec"/>
    <path id="Rectangle-path-242" data-name="Rectangle-path" d="M0,0H13.8V.819H0Z" transform="translate(86.193 40.705)" fill="#e6e8ec"/>
    <path id="Rectangle-path-243" data-name="Rectangle-path" d="M0,0H15.017V.819H0Z" transform="translate(86.193 42.07)" fill="#e6e8ec"/>
    <path id="Rectangle-path-244" data-name="Rectangle-path" d="M0,0H15.017V.819H0Z" transform="translate(86.193 43.434)" fill="#e6e8ec"/>
    <path id="Shape-105" data-name="Shape" d="M.244,1.627a1.654,1.654,0,0,1,.909-.481A2.3,2.3,0,0,0,2.13.836c.306-.246.441-.714.817-.818a.888.888,0,0,1,.489.039A3.165,3.165,0,0,1,4.968,1.088a1.318,1.318,0,0,0,.352.356,2.544,2.544,0,0,1,.243.12.667.667,0,0,1,.2.261A2.555,2.555,0,0,1,5.938,3.6c-.094.351-.264.677-.364,1.031a1.364,1.364,0,0,0,.058,1.059A.421.421,0,0,1,5.122,5.5a2.209,2.209,0,0,1-.2-.566,2.167,2.167,0,0,0-.626-.982c-.182-.163-.511-.272-.634-.062-.049.081-.046.185-.088.269a.348.348,0,0,1-.48.1.743.743,0,0,1-.3-.449c-.238-.812-.644-1.323-1.5-.976A1.025,1.025,0,0,1,.277,2.834.83.83,0,0,1,.244,1.627Z" transform="translate(103.911 24.553)" opacity="0.1"/>
    <path id="Shape-106" data-name="Shape" d="M.244,1.627a1.654,1.654,0,0,1,.909-.481A2.3,2.3,0,0,0,2.13.836c.306-.246.441-.714.817-.818a.888.888,0,0,1,.489.039A3.165,3.165,0,0,1,4.968,1.088a1.318,1.318,0,0,0,.352.356,2.544,2.544,0,0,1,.243.12.667.667,0,0,1,.2.261A2.555,2.555,0,0,1,5.938,3.6c-.094.351-.264.677-.364,1.031a1.364,1.364,0,0,0,.058,1.059A.421.421,0,0,1,5.122,5.5a2.209,2.209,0,0,1-.2-.566,2.167,2.167,0,0,0-.626-.982c-.182-.163-.511-.272-.634-.062-.049.081-.046.185-.088.269a.348.348,0,0,1-.48.1.743.743,0,0,1-.3-.449c-.238-.812-.644-1.323-1.5-.976A1.025,1.025,0,0,1,.277,2.834.83.83,0,0,1,.244,1.627Z" transform="translate(103.911 24.495)" fill="#b96b6b"/>
    <path id="Shape-107" data-name="Shape" d="M4.167.785H2.992S.68,1.951.623,1.893A1.948,1.948,0,0,0,0,1.97a2.431,2.431,0,0,0,.074-.4,9.531,9.531,0,0,0,2.6-1.34L4.119,0V.758a.221.221,0,0,1,.048.028Z" transform="translate(105.764 30.904)" opacity="0.05"/>
    <path id="Shape-108" data-name="Shape" d="M7.465,0a3.244,3.244,0,0,1-.073.632s-4.8.349-6.3.233C.372.809.065.537.01.276c-.065.3.2.695,1.085.764,1.5.116,6.3-.233,6.3-.233A3.4,3.4,0,0,0,7.465,0Z" transform="translate(101.739 65.896)" fill="#fff" opacity="0.3"/>
    <g id="Group-4" data-name="Group" transform="translate(100.94 31.663)" opacity="0.05">
      <path id="Shape-109" data-name="Shape" d="M1.921.413A4.89,4.89,0,0,1,0,1.393a.873.873,0,0,0,.014.128A4.044,4.044,0,0,0,2.5.472,1.857,1.857,0,0,1,3.242.08C2.94-.061,2.508-.052,1.921.413Z" transform="translate(0 12.117)"/>
      <path id="Shape-110" data-name="Shape" d="M3.564,1.6A4.671,4.671,0,0,0,2.82.029.221.221,0,0,0,2.773,0S2.295.016,2.31.029a4.431,4.431,0,0,1,.676,1.516,3.223,3.223,0,0,1,.126,1.546c-.2,1.251-.648,3.823-1.149,6.06C1.269,12.243.518,11.541.171,12.3A2.97,2.97,0,0,0,.09,14.012a1.451,1.451,0,0,0,.6.154,3.11,3.11,0,0,1,.058-1.808c.347-.759,1.1-.059,1.792-3.149.5-2.236.943-4.808,1.149-6.06A3.223,3.223,0,0,0,3.564,1.6Z" transform="translate(6.2 0)"/>
    </g>
    <path id="Shape-111" data-name="Shape" d="M8.424,3.557l-.747-.088L1.957,2.8C-1.51,1.69.685,0,.685,0L3,2.216a26.608,26.608,0,0,0,4.454-.331c.351-.046.573-.077.573-.077Z" transform="translate(95.622 36.733)" fill="#fdc2cc"/>
    <path id="Shape-112" data-name="Shape" d="M6.529.179s-1.5-1.225-3.756,2.741S0,6.242,0,6.242s.463,1.752.231,2.1a12.568,12.568,0,0,1,2.138,0c.578.116,4.161-4.432,4.161-4.432S8.382,1.344,6.529.179Z" transform="translate(103.119 32.123)" fill="#f68080"/>
  </g>
</svg>
