<svg xmlns="http://www.w3.org/2000/svg" xmlns:xlink="http://www.w3.org/1999/xlink" width="325" height="205" viewBox="0 0 325 205">
  <defs>
    <linearGradient id="linear-gradient" x2="1" y2="1" gradientUnits="objectBoundingBox">
      <stop offset="0" stop-color="#faba52"/>
      <stop offset="1" stop-color="#dbdbdb"/>
    </linearGradient>
    <filter id="Mask" x="0" y="0" width="325" height="205" filterUnits="userSpaceOnUse">
      <feOffset input="SourceAlpha"/>
      <feGaussianBlur stdDeviation="5" result="blur"/>
      <feFlood flood-color="#161965" flood-opacity="0.102"/>
      <feComposite operator="in" in2="blur"/>
      <feComposite in="SourceGraphic"/>
    </filter>
    <linearGradient id="linear-gradient-2" y1="0.5" x2="1" y2="0.5" gradientUnits="objectBoundingBox">
      <stop offset="0" stop-color="gray" stop-opacity="0.251"/>
      <stop offset="0.54" stop-color="gray" stop-opacity="0.122"/>
      <stop offset="1" stop-color="gray" stop-opacity="0.102"/>
    </linearGradient>
    <filter id="Design" x="9.98" y="11.72" width="306" height="176.58" filterUnits="userSpaceOnUse">
      <feOffset input="SourceAlpha"/>
      <feGaussianBlur stdDeviation="20" result="blur-2"/>
      <feFlood flood-color="#898ecf"/>
      <feComposite operator="in" in2="blur-2"/>
      <feComposite in="SourceGraphic"/>
    </filter>
    <linearGradient id="linear-gradient-3" x1="0.5" y1="1" x2="0.5" y2="0" xlink:href="#linear-gradient-2"/>
  </defs>
  <g id="undraw_design_tools_42tf" transform="translate(15 15)">
    <g transform="matrix(1, 0, 0, 1, -15, -15)" filter="url(#Mask)">
      <path id="Mask-2" data-name="Mask" d="M10,0H285a10,10,0,0,1,10,10V165a10,10,0,0,1-10,10H10A10,10,0,0,1,0,165V10A10,10,0,0,1,10,0Z" transform="translate(15 15)" fill="url(#linear-gradient)"/>
    </g>
    <g id="Group_14878" data-name="Group 14878">
      <g id="undraw_design_tools_42tf-2" data-name="undraw_design_tools_42tf" transform="translate(9 -5)">
        <path id="Shape" d="M270.492,99.254a19.588,19.588,0,0,1-5.385,6.465c-.318.255-.644.5-.974.743q-.667.468-1.367.921a44.935,44.935,0,0,1-12.021,5.025q-1.7.468-3.4.881-1.44.349-2.882.651c-.365.08-.731.155-1.1.234s-.784.157-1.171.234l-.555.105a143.051,143.051,0,0,1-32.547,1.86l-.52-.026-.831-.042q-3.334-.173-6.676-.443l-.843-.068-.372-.03q-1.873-.157-3.746-.344-2.468-.234-4.943-.518l-.213-.023-.173-.021h0c-5.889-.663-11.792-1.459-17.7-2.277l-.836-.117-1.5-.208-1.264-.176h0l-.375-.052q-2.992-.419-5.985-.829l-.323-.045c-3.746-.513-7.514-1.007-11.27-1.457l-.489-.059h0q-2.306-.274-4.61-.522l-1.171-.124-1.557-.157c-4.315-.429-8.628-.771-12.932-.984q-3.1-.155-6.224-.234-2.576-.059-5.151-.068-3.494-.016-7,.04h-.529c-3.294.054-6.6.148-9.9.26l-.595.019h-.2c-7.025.248-14.049.579-21.055.815l-1.712.056h-.248q-3.653.117-7.3.18H69.4l-1.086.014q-1.693.016-3.379.019H63.557c-4.126-.012-8.235-.1-12.319-.316l-.454-.026A155.852,155.852,0,0,1,27.3,105.686q-1.2-.251-2.388-.525A109.645,109.645,0,0,1,9.266,100.4a18.667,18.667,0,0,1-6.633-3.851c-4.627-4.685-2.889-13.86,3.131-16.528,4.709-2.087,10.225-.389,15.29-1.331a7.813,7.813,0,0,0,.92-.234,12.784,12.784,0,0,0,1.873-.773c.206-.1.412-.213.62-.328a15.8,15.8,0,0,0,1.386-.848,21.282,21.282,0,0,0,2.107-1.6q.445-.379.866-.787a16.576,16.576,0,0,0,2.557-3.062,10.821,10.821,0,0,0,.7-1.321,6.976,6.976,0,0,0,.29-.731,6.809,6.809,0,0,0,.279-1.082,5.01,5.01,0,0,0-1.845-4.868,4.9,4.9,0,0,0-.468-.354,7.155,7.155,0,0,0-1.016-.588c-.143-.068-.29-.134-.44-.2-2.14-.9-4.9-1.249-7.228-1.874h0a12.758,12.758,0,0,1-2.07-.719c-.424-.2-.845-.4-1.26-.618h0l-.11-.061h0a28.192,28.192,0,0,1-9.132-7.5,24.418,24.418,0,0,1-1.7-2.469c-.157-.258-.309-.522-.454-.787-4.114-7.426-4.538-16.941-.258-24.242a22.94,22.94,0,0,1,1.733-2.544q.309-.4.639-.787c4.074-4.809,9.928-8.067,15.838-10.48a111.423,111.423,0,0,1,24.7-6.629q2.576-.41,5.151-.736C61.927,1.561,69.2,1.074,76.421.7Q86.552.191,96.773.041q3.463-.047,6.933-.04,7.818,0,15.637.3,2.576.1,5.151.234,6.605.342,13.185.937,3.161.286,6.308.63a258.654,258.654,0,0,1,46.928,9.318q2.587.782,5.151,1.64a198.879,198.879,0,0,1,18.823,7.278q.871.391,1.737.787,5.758,2.642,11.352,5.695a126.234,126.234,0,0,1,14.19,8.9q2.651,1.944,5.151,4.057a74.11,74.11,0,0,1,8.221,8.114q.337.391.667.787,1.714,2.059,3.255,4.266c5.011,7.205,8.373,15.446,10.855,23.865C272.508,84.159,273.964,92.407,270.492,99.254Z" transform="translate(4.216 49.273)" fill="#42474f" opacity="0.2"/>
        <path id="Shape-2" data-name="Shape" d="M184.216,114.9l-.213-.023V74.926H117.576v32.706q-2.576-.069-5.151-.068V74.926H47.816v26.816q-2.576-.4-5.152-.768V74.926H21.036q.446-.379.867-.787H42.665V48.684H.455C.3,48.425.145,48.161,0,47.9H42.665V21.127H1.484q.309-.4.64-.787H42.669V3.24q2.576-.41,5.152-.736V20.323h63.087l.157-.149L89.86.04Q93.325,0,96.793,0L112.43,14.846V.3q2.576.1,5.152.234V13.982L130.766,1.464q3.16.284,6.307.63L118.035,20.174l.158.149h65.814v-8.9q2.576.79,5.152,1.64V20.34h18.824q.868.39,1.737.787H189.158v26.78h46.116V35.725q2.655,1.949,5.152,4.057V47.9h8.221q.338.391.668.787h-8.9V74.139h20c.052.262.1.525.155.787H240.409v38.365q-1.439.344-2.882.651c-.365.087-.712.15-1.1.235s-.778.161-1.171.234V74.926h-46.1v40.5Q186.688,115.182,184.216,114.9Z" transform="translate(11.139 49.257)" fill="#faba52" opacity="0.483"/>
        <path id="Shape-3" data-name="Shape" d="M.026,0A.333.333,0,0,1,0,.077H0A.206.206,0,0,1,.028,0Z" transform="translate(73.776 159.337)" fill="#eaecf0"/>
        <path id="Shape-4" data-name="Shape" d="M3.433,10.3H1.986L.9,10.309.78,9.075.67,7.9.159,2.56.143,2.4V2.324L0,.82,2.187,0l.267,2.181.019.162v.019l.541,4.427L3.18,8.147l.1.789.082.677v.023Z" transform="translate(71.592 147.92)" fill="#eaecf0"/>
        <path id="Shape-5" data-name="Shape" d="M.173,0,.2.077H.026L0,0Z" transform="translate(82.702 159.335)" fill="#3a3768"/>
        <path id="Shape-6" data-name="Shape" d="M42.414,2.646v.1a60.3,60.3,0,0,0-2.707,10.347q-.068.468-.112.937c-.033.33-.059.654-.073.967-.019.368-.023.724-.014,1.063V16.3c0,.157.016.319.026.485s.023.333.037.506.028.326.044.492a108.272,108.272,0,0,0,2.416,12.7s.063.2.145.55h-.529c-3.294.054-6.6.148-9.9.26l-.595.019h-.2c-7.025.248-14.049.579-21.055.815l-1.712.056H7.942q-3.653.117-7.3.18H0a3.947,3.947,0,0,1,.567-.639,4.121,4.121,0,0,1,.574-.445A12.908,12.908,0,0,1,4.735,29.73a2.865,2.865,0,0,1,.822-.1l1.639.033h.253l2.515.049,21.57.429h.054l.152-.03a4.038,4.038,0,0,0,.728-.258A2.558,2.558,0,0,0,34,27.865c0-.073.019-.15.023-.234a2.765,2.765,0,0,0,0-.342,1.163,1.163,0,0,0-.019-.251c-.019-.087-.023-.173-.04-.262-.52-2.907-1.4-11.855-1.4-11.855v.028s0-.382.021-1.024v-.3c0-.143.016-.3.026-.468,0-.1.014-.2.021-.312.012-.157.026-.319.04-.487a.138.138,0,0,1,0-.03q.014-.159.028-.323v-.035c.349-3.455,1.447-8.925,4.917-10.951,1.627-.953,2.7-1.145,3.414-.958a2.1,2.1,0,0,1,1.351,2.05V2.25a3.424,3.424,0,0,1,.033.4Z" transform="translate(74.376 125.827)" fill="#3a3768"/>
        <path id="Shape-7" data-name="Shape" d="M.026,0A.333.333,0,0,1,0,.077H0A.206.206,0,0,1,.028,0Z" transform="translate(73.776 159.337)" opacity="0.1"/>
        <path id="Shape-8" data-name="Shape" d="M.173,0,.2.077H.026L0,0Z" transform="translate(82.702 159.335)" opacity="0.1"/>
        <path id="Shape-9" data-name="Shape" d="M42.43,2.735v.073a63.773,63.773,0,0,0-2.487,9.016h0q-.084.468-.155.907c-.023.15-.044.3-.066.45q-.068.468-.112.937c-.033.33-.059.654-.073.967-.019.368-.023.724-.014,1.063v.234c0,.157.016.319.026.485s.023.335.037.506.028.326.044.492.033.326.052.49c.075.663.169,1.359.276,2.066.733,4.772,2.089,10.117,2.089,10.117s.068.216.15.576h-.529c-3.294.054-6.6.148-9.9.26l-.595.019h-.2c-7.025.248-14.049.579-21.055.815l-1.712.056H7.963q-3.653.117-7.3.18H0a4.024,4.024,0,0,1,.585-.663,3.878,3.878,0,0,1,.576-.45,13.049,13.049,0,0,1,3.594-1.544,2.947,2.947,0,0,1,.822-.1l1.639.033h.253l2.522.049,21.586.426h.037a.593.593,0,0,0,.169-.035,3.783,3.783,0,0,0,.733-.265,2.555,2.555,0,0,0,1.515-1.947c0-.073.019-.15.023-.234a2.765,2.765,0,0,0,0-.342,1.162,1.162,0,0,0-.019-.251c-.019-.087-.023-.19-.04-.288-.52-2.907-1.4-11.855-1.4-11.855s0-.382.021-1.024v-.3c0-.143.016-.3.026-.468,0-.1.014-.2.021-.312.012-.157.026-.319.04-.487a.138.138,0,0,1,0-.03q.014-.159.028-.323v-.035c.042-.431.1-.895.169-1.38.487-3.392,1.7-7.821,4.739-9.6C39.22.086,40.281-.111,40.993.051a2.085,2.085,0,0,1,1.4,2.092v.136a3.424,3.424,0,0,1,.033.457Z" transform="translate(74.359 125.737)" opacity="0.1"/>
        <path id="Shape-10" data-name="Shape" d="M.026,0A.333.333,0,0,1,0,.077H0A.206.206,0,0,1,.028,0Z" transform="translate(73.776 159.337)" fill="#3a3768"/>
        <path id="Shape-11" data-name="Shape" d="M.173,0,.2.077H.026L0,0Z" transform="translate(82.702 159.335)" fill="#3a3768"/>
        <path id="Shape-12" data-name="Shape" d="M42.613,2.725S39.557,11.079,39.7,16.077,42.238,30.47,42.238,30.47s.1.33.213.857c-3.294.054-6.6.148-9.9.26l-.595.019h-.2c-7.025.248-14.049.579-21.055.815l-1.712.056H8.746q-3.653.117-7.3.18H0a4.216,4.216,0,0,1,1.285-1.352l.063-.045A13.03,13.03,0,0,1,4.941,29.75a2.947,2.947,0,0,1,.822-.1l2.164.042h.253l2.606.052,21.015.419a3.532,3.532,0,0,0,.869-.283,2.5,2.5,0,0,0,.267-.143h0a2.81,2.81,0,0,0,.7-.574,2.654,2.654,0,0,0,.541-2.342c-.522-2.907-1.4-11.855-1.4-11.855s-.15-10.888,5.067-13.945C39.948-.212,41.133-.17,41.8.32a.44.44,0,0,1,.056.042A3.055,3.055,0,0,1,42.613,2.725Z" transform="translate(73.577 125.548)" fill="#42474f"/>
        <path id="Shape-13" data-name="Shape" d="M2.983.82,2.9,1.694l-.51,5.362Q1.192,6.8,0,6.531L.6,1.656.8,0Z" transform="translate(29.124 147.95)" fill="#eaecf0"/>
        <path id="Shape-14" data-name="Shape" d="M0,27.152,12.752,0,64.117,4.008l4.735,23.144Z" transform="translate(17.121 119.885)" fill="#efc6cd"/>
        <path id="Shape-15" data-name="Shape" d="M0,2.368V0H68.852V3.462L0,2.368Z" transform="translate(17.121 147.037)" fill="#d48a9b"/>
        <path id="Shape-16" data-name="Shape" d="M.512,13.286l30.8.628a.426.426,0,0,0,.414-.56L26.929.4,6.181,0,.043,12.57a.511.511,0,0,0,.468.717Z" transform="translate(36.025 129.784)" fill="#dfe6f5"/>
        <path id="Shape-17" data-name="Shape" d="M.512,13.286l30.8.628a.426.426,0,0,0,.414-.56L26.929.4,6.181,0,.043,12.57a.511.511,0,0,0,.468.717Z" transform="translate(36.025 129.784)" opacity="0.15"/>
        <path id="Shape-18" data-name="Shape" d="M0,13.27l31.123.656L26.892,1.106a1.056,1.056,0,0,0-.981-.726L5.91,0Z" transform="translate(36.289 129.26)" fill="#dfe6f5"/>
        <path id="Shape-19" data-name="Shape" d="M.088,8.791,3.818.581A1,1,0,0,1,4.722,0h9.27a.991.991,0,0,1,.99.991V9.862a.993.993,0,0,1-1.04.991l-13-.663a.991.991,0,0,1-.852-1.4Z" transform="translate(38.771 130.836)" fill="#4c4c56"/>
        <path id="Shape-20" data-name="Shape" d="M0,5.388.16.7A.719.719,0,0,1,.876,0h2.74a.717.717,0,0,1,.7.595l.805,4.659a.719.719,0,0,1-.7.841L.715,6.128A.717.717,0,0,1,0,5.388Z" transform="translate(57.142 133.2)" fill="#d1d9ec"/>
        <path id="Shape-21" data-name="Shape" d="M1.113.868,11.442.006a.7.7,0,0,1,.735.415l9.766,22.115L16.492,34.778c.171-.384.3,2.6-.937.014L.034,2.4C-.175,1.964.629.929,1.113.868Z" transform="translate(19.735 107.248)" fill="#4c4c56"/>
        <path id="Shape-22" data-name="Shape" d="M1.113.868,11.442.006a.7.7,0,0,1,.735.415l9.766,22.115L16.492,34.778c.171-.384.3,2.6-.937.014L.034,2.4C-.175,1.964.629.929,1.113.868Z" transform="translate(19.735 107.248)" opacity="0.15"/>
        <path id="Shape-23" data-name="Shape" d="M.625,1.393,11.478.006a.7.7,0,0,1,.735.415l9.769,22.115-5.91,13.27L.07,2.4a.7.7,0,0,1,.555-1Z" transform="translate(20.224 106.724)" fill="#4c4c56"/>
        <path id="Shape-24" data-name="Shape" d="M.6,1.231,8.446.009A.7.7,0,0,1,9.207.44l8.219,20.112a.637.637,0,0,1-.014.515l-3.763,7.866a.634.634,0,0,1-1.15,0L.068,2.229a.7.7,0,0,1,.532-1Z" transform="translate(22.958 108.44)" fill="#cecece"/>
        <path id="Shape-25" data-name="Shape" d="M63.512,62.825s-.162.267-.4.7l-.021.04c-.211.375-.468.867-.731,1.405l-.595.019h-.2c-7.025.248-14.049.579-21.055.815l-1.712.056h-.248q-3.653.117-7.3.18H29.81l-1.086.014q-1.693.016-3.379.019H24.006c-4.126-.012-8.235-.1-12.319-.316l-.454-.026c.8-1.747,2.238-4.612,3.4-5.528.9-.7,7.376-1.483,13.33-2.054l.628-.061h.014l1.662-.155c2.278-.208,4.346-.377,5.821-.492l.136-.012-.768-2.577-1.112-3.748.316-3.148.026-.253h-.035a2.067,2.067,0,0,1-.937-.117L22.6,47.205h-.2l-4.271-.152h0c-2.29-.082-3.917-.143-3.981-.155a1.009,1.009,0,0,1-.2-.054.885.885,0,0,1-.272-.164,1.087,1.087,0,0,1-.234-.281h-.15l-.6.04-.307.021c-.012-.033-.021-.066-.033-.1-.028-.091-.056-.178-.082-.267h-.162L10,46.053H9.961s-5.437.415-8.277-.621h0C.642,45.052-.051,44.478,0,43.619a1.961,1.961,0,0,1,.122-.572c-.913-1.708,3.547-4.823,6.947-3.963A6.015,6.015,0,0,0,9.9,39.2a3.633,3.633,0,0,0,1.4-.639c.042-.03.08-.061.115-.091-.056-.035-.115-.066-.169-.094a2.617,2.617,0,0,0-.742-.258l.923-.269h.014s3.278-.3,5.411-.419h.014c.635-.033,1.171-.054,1.489-.045a9.164,9.164,0,0,0,4.259-1.274c.117-.309,1.367,0,1.367,0l1.093-.426c1.093-.424,1.719-1,1.719-1.429s.976-.888.976-.888a9.234,9.234,0,0,1,2.21-2.237c.784-.607,1.6-1.148,2.2-1.525a44.465,44.465,0,0,1,.937-4.507,5.874,5.874,0,0,1,2.161-2.743l.169-.112a12.15,12.15,0,0,0-.515-1.715,1.319,1.319,0,0,0-.056-.141c-.047-.11-.1-.218-.145-.319l-.073-.141c-.119.023-.234.045-.361.061a8.192,8.192,0,0,1-1.171.087,8.034,8.034,0,0,1-7.762-5.856v-.014a7.935,7.935,0,0,1-.281-2.108,7.714,7.714,0,0,1,.267-2.024h0c.035-.141.077-.279.122-.417a.373.373,0,0,1,.016-.047c.021-.063.042-.129.066-.192a8.232,8.232,0,0,1-1.047.091h-.234a4.953,4.953,0,0,1-1.96-.326h0a2.66,2.66,0,0,1-.433-.234.056.056,0,0,1-.019-.014,2.2,2.2,0,0,1-.482-.382A2.483,2.483,0,0,0,22.336,6.9a3.057,3.057,0,0,1,.281-1.483,2.126,2.126,0,0,1,.548-.468,34.979,34.979,0,0,0,3.36-3.022,6.563,6.563,0,0,1,4-1.921c2.032-.063,3.821,1.352,5.835,1.619a15.8,15.8,0,0,1,1.857.208,6.391,6.391,0,0,1,1.885.956A4.733,4.733,0,0,1,41.45,3.928,4.032,4.032,0,0,1,42,5.237a14.486,14.486,0,0,1,.468,3c.054,1.061,0,2.129.112,3.183a5.462,5.462,0,0,0,.9,2.56h.03a3.513,3.513,0,0,0,.29.356c-.2.063-.4.119-.6.169a9.494,9.494,0,0,1-1.028.2,2.994,2.994,0,0,1-.48.04,1.43,1.43,0,0,1-.332-.03l.206.138.571.384h0l.215.143.433.288c.1-.288.234-.365.391-.347.318-.3.794.349.794.349a4.7,4.7,0,0,0,1.691,1.459,13.358,13.358,0,0,0,1.2.628c8.75,5.217,8.2,13.022,8.71,13.64s.548,2.858.548,2.858,1.29,7.611,1.873,8.269.037.888.546,1.623a6.035,6.035,0,0,1,.391,2.7s.351,4.636,1.6,5.641c1.122.9,2.62,8.489,2.918,10.04Z" transform="translate(43.767 92.165)" fill="url(#linear-gradient-2)"/>
        <path id="Shape-26" data-name="Shape" d="M11.581,0S10.366,1.914,6.924,1.033s-8,2.45-6.7,4.095,9.68-.468,9.68-.468l3.215-.651-.211-2.677Z" transform="translate(44.411 130.571)" fill="#d38884"/>
        <path id="Shape-27" data-name="Shape" d="M11.581,0S10.366,1.914,6.924,1.033s-8,2.45-6.7,4.095,9.68-.468,9.68-.468l3.215-.651-.211-2.677Z" transform="translate(44.411 130.571)" opacity="0.1"/>
        <path id="Shape-28" data-name="Shape" d="M2.409.077.918,0,0,.267S2.908.689,2.107,4.631l3.135-.19Z" transform="translate(54.702 130.391)" fill="#a36468"/>
        <path id="Shape-29" data-name="Shape" d="M2.409.077.918,0,0,.267S2.908.689,2.107,4.631l3.135-.19Z" transform="translate(54.702 130.391)" opacity="0.1"/>
        <path id="Shape-30" data-name="Shape" d="M21.235,0s-4.093,2.342-5.243,4.289c0,0-.955.468-.955.881s-.613.993-1.684,1.405L12.281,7s-1.225-.307-1.339,0A8.9,8.9,0,0,1,6.772,8.26C5.392,8.222,0,8.728,0,8.728a4.8,4.8,0,0,1,2.716,5.32l12.742-.534,4.819-1.073,2.833-2.832Z" transform="translate(55.62 121.651)" fill="#444053"/>
        <path id="Shape-31" data-name="Shape" d="M21.235,0s-4.093,2.342-5.243,4.289c0,0-.955.468-.955.881s-.613.993-1.684,1.405L12.281,7s-1.225-.307-1.339,0A8.9,8.9,0,0,1,6.772,8.26C5.392,8.222,0,8.728,0,8.728a4.8,4.8,0,0,1,2.716,5.32l12.742-.534,4.819-1.073,2.833-2.832Z" transform="translate(55.62 121.651)" opacity="0.1"/>
        <path id="Shape-32" data-name="Shape" d="M13.67,6.192l-1.8-.035L9.76,6.112S-.192,6.878,0,3.7,7.852-.606,8.917.308a11.032,11.032,0,0,0,3.529,1.476c.272.073.438.112.438.112Z" transform="translate(44.409 132.395)" fill="#d38884"/>
        <path id="Shape-33" data-name="Shape" d="M2.084,4.4l-1.8-.035C-.438,1.9.4.534.868,0c.272.073.438.112.438.112Z" transform="translate(55.995 134.186)" opacity="0.1"/>
        <path id="Shape-34" data-name="Shape" d="M3.163,4.823,1.29,4.954.4,5.015C-.825,1.417,1.154,0,1.154,0h.585L2.7.115Z" transform="translate(56.131 133.9)" fill="#a36468"/>
        <path id="Shape-35" data-name="Shape" d="M4.549,9.257l-2.22,4.216S1.99,9.2,1,7.191A1.782,1.782,0,0,0,.109,6.2C-.827,5.905,4.558,0,4.558,0A21.427,21.427,0,0,1,7.031,1.562c1.389.937,3.06,2.08,4.184,2.811C13.348,5.734,4.549,9.257,4.549,9.257Z" transform="translate(77.434 105.582)" fill="#d38884"/>
        <path id="Shape-36" data-name="Shape" d="M3.238,0A5.988,5.988,0,0,0,.958,2.83,47.276,47.276,0,0,0,0,7.538s.805,7.234,1.225,7.578,2.014,7.578,2.014,7.578l1.545-1.033-2.028-9.11S4.1.846,3.238,0Z" transform="translate(75.898 114.919)" fill="#444053"/>
        <path id="Shape-37" data-name="Shape" d="M3.238,0A5.988,5.988,0,0,0,.958,2.83,47.276,47.276,0,0,0,0,7.538s.805,7.234,1.225,7.578,2.014,7.578,2.014,7.578l1.545-1.033-2.028-9.11S4.1.846,3.238,0Z" transform="translate(75.898 114.919)" opacity="0.1"/>
        <path id="Shape-38" data-name="Shape" d="M8.919,14.076H0L1.445,0H8.919V14.076Z" transform="translate(77.981 116.98)" fill="#a36468"/>
        <path id="Shape-39" data-name="Shape" d="M.094,0H.2L0,.077Z" transform="translate(66.143 159.337)" fill="#67647e"/>
        <path id="Shape-40" data-name="Shape" d="M27.562,3.483l-1.744.67-.234.087L19.3,6.655l-2.4.921L13.649,8.829h-1.33C8.193,8.817,4.084,8.726,0,8.513.791,6.777,2.175,4,3.3,3.1c.88-.7,7.179-1.462,12.993-2.033.726-.07,1.442-.138,2.14-.2L18.6.85c2.309-.211,4.4-.382,5.854-.5l.234-.019L26.522.192,26.714,0l.234,1,.194.8Z" transform="translate(55.454 149.442)" fill="#67647e"/>
        <path id="Shape-41" data-name="Shape" d="M.094,0H.2L0,.077Z" transform="translate(66.143 159.337)" opacity="0.1"/>
        <path id="Shape-42" data-name="Shape" d="M27.562,3.483l-1.744.67-.234.087L19.3,6.655l-2.4.921L13.649,8.829h-1.33C8.193,8.817,4.084,8.726,0,8.513.791,6.777,2.175,4,3.3,3.1c.88-.7,7.179-1.462,12.993-2.033.726-.07,1.442-.138,2.14-.2L18.6.85c2.309-.211,4.4-.382,5.854-.5l.234-.019L26.522.192,26.714,0l.234,1,.194.8Z" transform="translate(55.454 149.442)" opacity="0.1"/>
        <path id="Shape-43" data-name="Shape" d="M.094,0H.2L0,.077Z" transform="translate(66.143 159.337)" fill="#67647e"/>
        <path id="Shape-44" data-name="Shape" d="M.026,0A.333.333,0,0,1,0,.077H0A.206.206,0,0,1,.028,0Z" transform="translate(73.776 159.337)" fill="#67647e"/>
        <path id="Shape-45" data-name="Shape" d="M.2.077H.026L0,0H.173L.2.077Z" transform="translate(82.702 159.335)" fill="#67647e"/>
        <path id="Shape-46" data-name="Shape" d="M16.735.03,16.59,4.851v.286l-.073,2.387-1.712.056h-.248q-3.653.117-7.3.18H5.812l-1.086.014q-1.693.016-3.379.019H0c1.218-.754,2.793-1.586,4.489-2.417C5.25,5,6.039,4.629,6.83,4.261c2.107-.979,4.24-1.9,5.98-2.642l.222-.094c.674-.286,1.285-.541,1.808-.757C15.969.3,16.686.019,16.735,0Z" transform="translate(67.773 150.447)" fill="#67647e"/>
        <path id="Shape-47" data-name="Shape" d="M.287.99A8.8,8.8,0,0,0,1.9,3.548c.115.112.314.216.417.091a.3.3,0,0,0,.044-.173A2.235,2.235,0,0,0,1.94,2.271c-.234-.361-.51-.689-.719-1.063S.774.111.306.013C-.3-.113.153.713.287.99Z" transform="translate(68.581 129.675)" opacity="0.1"/>
        <path id="Shape-48" data-name="Shape" d="M7.022,1.562c-.033.117-.068.234-.105.347A7.89,7.89,0,0,1,1,7.191,1.782,1.782,0,0,0,.109,6.2C-.827,5.905,4.558,0,4.558,0A24.947,24.947,0,0,1,7.022,1.562Z" transform="translate(77.434 105.575)" opacity="0.1"/>
        <path id="Shape-49" data-name="Shape" d="M15.763,7.885a7.867,7.867,0,1,1-2.3-5.58,7.885,7.885,0,0,1,2.3,5.58Z" transform="translate(68.973 97.001)" fill="#d38884"/>
        <path id="Shape-50" data-name="Shape" d="M1.405,0S-.234,1.991.028,3.294H2.016L3.47,1.654Z" transform="translate(78.473 116.599)" fill="#67647e"/>
        <path id="Shape-51" data-name="Shape" d="M6.252,0,0,8.6s1.606,2.3,2.372,2.413S7.5.841,7.5.841Z" transform="translate(79.457 108.191)" opacity="0.1"/>
        <path id="Shape-52" data-name="Shape" d="M6.254,0,0,8.611s1.606,2.3,2.372,2.41S7.5.853,7.5.853Z" transform="translate(79.534 108.037)" fill="#a36468"/>
        <path id="Shape-53" data-name="Shape" d="M.75,0A54.361,54.361,0,0,1,.136,5.779c-.307.958,0,9.759,0,9.759l2.871-1.185L2.508.841Z" transform="translate(77.981 119.051)" fill="#67647e"/>
        <path id="Shape-54" data-name="Shape" d="M.173,0,.2.077H.026L0,0Z" transform="translate(82.702 159.335)" opacity="0.1"/>
        <path id="Shape-55" data-name="Shape" d="M28.328,47.114l-.143.234c-.089.145-.185.326-.309.555a.176.176,0,0,0-.016.028c-.173.321-.379.714-.588,1.143-7.025.248-14.049.579-21.055.815l-1.712.056H4.257l-.735-2.483v-.026l-.077-.262-.468-1.56-.468-1.586-.485-1.691-.178-.614L1.8,41.57l-.763-2.6L0,35.439l.335-3.368h0l.023-.255L.66,28.8.7,27.9h0l.023-.468V27.3h0l.052-1.087.155-3.233.08-1.654h0l.014-.251h0l.159-3.319L1.637,16.4l.234-.675.52-1.567.112-.387h0c.164-.588.494-1.75.8-2.867h0l.028-.1h0l.021-.073.22-.794.274-1.019c.1-.391.171-.67.187-.766A15.02,15.02,0,0,1,5.086,6.285h0C6.257,4.348,8.017,1.5,8.219.541a.1.1,0,0,0,0-.023A1.172,1.172,0,0,1,8.268.347c.1-.286.234-.363.379-.344a.468.468,0,0,1,.185.073A1.473,1.473,0,0,1,9.2.427a4.662,4.662,0,0,0,1.655,1.445l.126.073.075.045c.539.307.974.5.974.5C20.6,7.66,20.064,15.393,20.561,16s.536,2.834.536,2.834,1.262,7.54,1.836,8.2.04.881.536,1.609a5.959,5.959,0,0,1,.382,2.654s.344,4.591,1.569,5.587S28.328,47.114,28.328,47.114Z" transform="translate(78.066 108.069)" opacity="0.1"/>
        <path id="Shape-56" data-name="Shape" d="M28.325,47.124l-.1.178h0c-.082.145-.213.375-.37.663L27.836,48c-.178.33-.389.731-.6,1.171h-.2c-7.025.248-14.049.579-21.055.815l-1.712.056-.733-2.492v-.026l-.077-.262-.485-1.64-.468-1.593-.468-1.591L1.859,41.8h0l-.8-2.736L0,35.458l.293-2.93.04-.391.323-3.329h0l.124-2.6.152-3.137.04-.822.044-.951.019-.4.152-3.134.452-1.354.194-.583.454-1.37.1-.29s.438-1.539.862-3.064c.016-.056.033-.112.047-.169.037-.131.073-.262.11-.391h0c.037-.131.073-.26.105-.389.119-.426.234-.825.314-1.152.115-.429.192-.74.208-.841A13.8,13.8,0,0,1,5.1,6.257,42.615,42.615,0,0,0,8.165.72,1.76,1.76,0,0,0,8.212.549h0a.893.893,0,0,1,.2-.468c.314-.3.78.347.78.347a4.64,4.64,0,0,0,1.655,1.445,12.408,12.408,0,0,0,1.171.621c8.57,5.167,8.036,12.9,8.532,13.514s.536,2.832.536,2.832,1.262,7.54,1.836,8.2.04.881.536,1.607a6.058,6.058,0,0,1,.382,2.68s.344,4.594,1.569,5.589S28.325,47.124,28.325,47.124Z" transform="translate(78.298 107.985)" fill="#444053"/>
        <path id="Shape-57" data-name="Shape" d="M9.207,1.859A18.1,18.1,0,0,0,6.631,6.779s-1.339,1.38-1.838,1.3.468,1.033.468,1.033L0,16.409l.747-2.242S2.316,8.655,2.386,8.158,6.266,1.972,6.568.541C6.8-.6,7.551.426,7.551.426A4.667,4.667,0,0,0,9.207,1.859Z" transform="translate(79.941 108.147)" opacity="0.1"/>
        <path id="Shape-58" data-name="Shape" d="M9.207,1.872A18.171,18.171,0,0,0,6.631,6.78s-1.339,1.377-1.838,1.3.468,1.033.468,1.033L0,16.41l.747-2.242S2.316,8.656,2.386,8.157,6.266,1.973,6.568.542C6.8-.606,7.551.427,7.551.427A4.622,4.622,0,0,0,9.207,1.872Z" transform="translate(79.941 107.982)" fill="#444053"/>
        <path id="Shape-59" data-name="Shape" d="M17.632,10.019c.04,1.673-2.409,3.956-2.524,4.09s-7.615,6.325-7.615,6.325L2.107,24.565A4.574,4.574,0,0,1,0,25.54l.368-3.7.363-7.5A8.559,8.559,0,0,0,2.4,12.113c.037-.649,1.4-1.34,1.4-1.34s.958-.8.8-1.263a10.168,10.168,0,0,1,.508-2.659C5.465.611,11.893,0,11.893,0a44.048,44.048,0,0,1,5.28,2.525C19.353,3.825,17.594,8.349,17.632,10.019Z" transform="translate(78.583 114.949)" opacity="0.1"/>
        <path id="Shape-60" data-name="Shape" d="M2.162,4.823.288,4.954C-.5,3.607.586,0,.586,0H.738L1.7.115Z" transform="translate(57.132 133.9)" opacity="0.1"/>
        <path id="Shape-61" data-name="Shape" d="M33.165,0s-6.427.614-6.772,6.852a10.171,10.171,0,0,0-.5,2.642c.152.459-.8,1.263-.8,1.263s-1.377.689-1.4,1.34-3.512,4.2-3.512,4.2a7.006,7.006,0,0,1-4.819,1.827,10.591,10.591,0,0,0-4.936,1.2s-1.639-1.148-2.833-.8-7,.8-7,.8-1.543,5.116.382,5.437c.234.037,19.177.689,19.177.689s1.295.611,3.245-.881,5.385-4.134,5.385-4.134,7.493-6.2,7.615-6.325,2.576-2.42,2.524-4.09,1.723-6.189-.468-7.5A44.129,44.129,0,0,0,33.165,0Z" transform="translate(57.311 114.57)" fill="#444053"/>
        <path id="Shape-62" data-name="Shape" d="M15.386,7.91A7.871,7.871,0,0,1,15,10.353a3.3,3.3,0,0,1-.29-.4q-.548-.843-1.1-1.687a4.558,4.558,0,0,0-1.117-1.316,1.559,1.559,0,0,0-1.639-.173,1.642,1.642,0,0,0-.7,1.314,14.925,14.925,0,0,0,.04,1.551.855.855,0,0,1-.143.56.918.918,0,0,1-.6.234l-.7.1A.5.5,0,0,1,8.1,10.21c-.583-1.056-.986-2.368-2.079-2.877-.674-.314-1.564-.293-2-.9a1.955,1.955,0,0,1-.169-1.473,11.634,11.634,0,0,1,.41-1.668c.124-.384.4-1.15-.213-1.227a1.615,1.615,0,0,0-1.2.7,6.257,6.257,0,0,0-.412,1.092A2.607,2.607,0,0,1,.993,5.2,4.124,4.124,0,0,1,0,5.469,7.881,7.881,0,0,1,15.384,7.891Z" transform="translate(69.351 96.977)" opacity="0.1"/>
        <path id="Shape-63" data-name="Shape" d="M6.835,6.655a6.4,6.4,0,0,0-.412,1.089A2.609,2.609,0,0,1,4.985,9.081a5.531,5.531,0,0,1-1.974.351A3.7,3.7,0,0,1,0,8.463a2.467,2.467,0,0,0,.937-1.64,3.041,3.041,0,0,1,.276-1.471A2.108,2.108,0,0,1,1.747,4.9,34.831,34.831,0,0,0,5.039,1.906,6.42,6.42,0,0,1,8.961,0c1.988-.061,3.746,1.34,5.713,1.6a15.623,15.623,0,0,1,1.817.206,6.2,6.2,0,0,1,1.847.937,4.728,4.728,0,0,1,1.318,1.134,4.079,4.079,0,0,1,.536,1.3,14.5,14.5,0,0,1,.468,2.973c.054,1.049,0,2.108.112,3.153a5,5,0,0,0,1.159,2.881,10.3,10.3,0,0,1-1.595.368,1.659,1.659,0,0,1-1.014-.08,1.787,1.787,0,0,1-.618-.668l-1.1-1.687a4.558,4.558,0,0,0-1.117-1.316,1.559,1.559,0,0,0-1.639-.173,1.649,1.649,0,0,0-.7,1.314,14.925,14.925,0,0,0,.04,1.551.855.855,0,0,1-.143.56.92.92,0,0,1-.606.234l-.7.1a.5.5,0,0,1-.646-.321c-.583-1.059-.986-2.368-2.079-2.877-.674-.314-1.564-.293-2-.9a1.955,1.955,0,0,1-.169-1.473,11.634,11.634,0,0,1,.41-1.668c.124-.384.4-1.15-.213-1.23A1.616,1.616,0,0,0,6.835,6.655Z" transform="translate(65.363 92.893)" fill="#444053"/>
        <path id="Shape-64" data-name="Shape" d="M3.341.242a3.428,3.428,0,0,1,1.77.091A6.473,6.473,0,0,0,0,.783C.119,1.057,2.882.305,3.341.242Z" transform="translate(86.685 117.828)" opacity="0.1"/>
        <path id="Shape-65" data-name="Shape" d="M3.922.708A10.951,10.951,0,0,0,8.214.537a15.717,15.717,0,0,0-3.6-.265A8.25,8.25,0,0,0,1.738.087C1.346.188-.094.851,0,1.336A7.778,7.778,0,0,1,3.922.708Z" transform="translate(86.795 119.282)" opacity="0.1"/>
        <path id="Shape-66" data-name="Shape" d="M0,.246A2.163,2.163,0,0,1,.894.34,13.676,13.676,0,0,0,4.191.7,3.447,3.447,0,0,0,6.57,0Z" transform="translate(86.903 122.893)" opacity="0.1"/>
        <path id="Shape-67" data-name="Shape" d="M0,.757a6.6,6.6,0,0,0,3.22.586A14.205,14.205,0,0,0,6.46.719,2.166,2.166,0,0,0,7.713,0Z" transform="translate(82.264 129.712)" opacity="0.1"/>
        <path id="Shape-68" data-name="Shape" d="M.728.314A17.2,17.2,0,0,0,7.874,2.528q-1.9-.764-3.835-1.445A27.771,27.771,0,0,0,0,0,2.053,2.053,0,0,1,.728.314Z" transform="translate(91.902 131.185)" opacity="0.1"/>
        <path id="Shape-69" data-name="Shape" d="M2.007.728A6.036,6.036,0,0,0,3.339.8.76.76,0,0,0,3.99.566,11.419,11.419,0,0,1,1.014.128C.735.063.234-.092,0,.075A6.434,6.434,0,0,0,2.007.728Z" transform="translate(94.161 129.429)" opacity="0.1"/>
        <path id="Shape-70" data-name="Shape" d="M1.568,3.933A13.259,13.259,0,0,0,3.357,6.51,13.13,13.13,0,0,0,4.7,7.662,28.667,28.667,0,0,0,1.557,1.274C1.206.787.681.089.042,0c-.183.541.279,1.5.5,2.007A19.326,19.326,0,0,0,1.568,3.933Z" transform="translate(100.638 147.149)" opacity="0.1"/>
        <path id="Shape-71" data-name="Shape" d="M.028.984a1.592,1.592,0,0,0,.148,1.1.791.791,0,0,0,.445.307A5.31,5.31,0,0,1,.358,1.108C.307.8.358.227.141,0,.084.323.063.656.028.984Z" transform="translate(76.579 133.528)" opacity="0.1"/>
        <path id="Shape-72" data-name="Shape" d="M.2.609A2.5,2.5,0,0,0,1.367,2.195,17.93,17.93,0,0,1,.468.468C.354.29.22.035,0,0Q.083.309.2.609Z" transform="translate(77.628 133.471)" opacity="0.1"/>
        <path id="Shape-73" data-name="Shape" d="M2.82.337A2.923,2.923,0,0,1,.5.63C.326.578-.083.4.015.138S.589.058.783.082L1.8.211C1.989.234,2.668.426,2.82.337Z" transform="translate(73.974 126.997)" opacity="0.1"/>
        <path id="Shape-74" data-name="Shape" d="M0,.045C.48-.016.911.317,1.36.5A4.143,4.143,0,0,0,2.906.7.863.863,0,0,0,3.627.469,10.12,10.12,0,0,0,0,.045Z" transform="translate(73.348 128.957)" opacity="0.1"/>
        <path id="Shape-75" data-name="Shape" d="M0,0H.077L.651,2.064,0,2.757V0Z" transform="translate(79.136 114.917)" fill="#a36468"/>
        <g id="Group" transform="translate(65.328 98.149)" opacity="0.1">
          <path id="Shape-76" data-name="Shape" d="M.105,0A4.836,4.836,0,0,0,0,1.019,2.252,2.252,0,0,0,.063.691C.091.466.089.23.105,0Z" transform="translate(1.016 0.405)"/>
          <path id="Shape-77" data-name="Shape" d="M8.038.473a.412.412,0,0,1,.384.468C8.532.552,8.593.074,8.116,0a1.608,1.608,0,0,0-1.2.714A6.555,6.555,0,0,0,6.5,1.81,2.6,2.6,0,0,1,5.062,3.148,5.531,5.531,0,0,1,3.088,3.5a3.985,3.985,0,0,1-2.81-.764A2.382,2.382,0,0,1,0,2.988a3.7,3.7,0,0,0,3.014.97,5.529,5.529,0,0,0,1.972-.351,2.614,2.614,0,0,0,1.44-1.338,6.4,6.4,0,0,1,.41-1.089A1.6,1.6,0,0,1,8.038.473Z" transform="translate(0.068 0.2)"/>
          <path id="Shape-78" data-name="Shape" d="M6.2,4.087a1.659,1.659,0,0,1-1.014-.08,1.808,1.808,0,0,1-.618-.668q-.548-.843-1.1-1.687A4.52,4.52,0,0,0,2.353.337,1.555,1.555,0,0,0,.714.163,1.679,1.679,0,0,0,0,1.477v.063A1.48,1.48,0,0,1,.639.622,1.56,1.56,0,0,1,2.278.8,4.6,4.6,0,0,1,3.4,2.112q.548.843,1.1,1.687a1.768,1.768,0,0,0,.618.668,1.652,1.652,0,0,0,1.012.08,10.379,10.379,0,0,0,1.6-.368,3.429,3.429,0,0,1-.286-.354A10.049,10.049,0,0,1,6.2,4.087Z" transform="translate(14.276 4.751)"/>
          <path id="Shape-79" data-name="Shape" d="M6.337,4.992a.936.936,0,0,1-.6.234l-.7.1A.5.5,0,0,1,4.384,5C3.8,3.942,3.4,2.633,2.305,2.125,1.631,1.811.743,1.832.31,1.227A1.725,1.725,0,0,1,.1,0C.09.073.074.143.062.213A1.956,1.956,0,0,0,.233,1.687c.433.6,1.323.583,1.995.9,1.1.508,1.5,1.818,2.082,2.877a.67.67,0,0,0,.269.321.686.686,0,0,0,.377.016l.7-.1a.918.918,0,0,0,.6-.234.841.841,0,0,0,.143-.56h0a.7.7,0,0,1-.068.084Z" transform="translate(7.841 3.347)"/>
        </g>
        <path id="Shape-80" data-name="Shape" d="M1.5,22.375,0,22.167V0L.307.094l.937.288V2.516l.012.963L1.276,5.46v2.7l.112,9.981v.267l.04,3.514v.054Z" transform="translate(174.917 139.349)" fill="#eaecf0"/>
        <path id="Shape-81" data-name="Shape" d="M1.021,22.115.185,22v-.454L.145,18.03v-.267L.033,7.782v-2.7L.012,3.1,0,2.134V0H.9V2.865L.92,5.006V7.271h0l.087,10.476v.269L1.035,21.5v.056Z" transform="translate(176.24 139.726)" fill="#d3dae1"/>
        <path id="Shape-82" data-name="Shape" d="M1.386,0V19.133q-.667.468-1.367.921L0,4.125V2.434Z" transform="translate(266.96 136.601)" fill="#eaecf0"/>
        <path id="Shape-83" data-name="Shape" d="M.974,0V18.669c-.318.255-.644.5-.974.743V.276Z" transform="translate(268.346 136.324)" fill="#d3dae1"/>
        <path id="Shape-84" data-name="Shape" d="M1.754,18.431c-.576.117-1.154.234-1.733.335L0,1.452V.7L1.669,0V1.588Z" transform="translate(245.823 145.008)" fill="#eaecf0"/>
        <path id="Shape-85" data-name="Shape" d="M1.173,0V18.74c-.365.08-.731.155-1.1.234L0,2.139V.55L.11.5h0Z" transform="translate(247.504 144.46)" fill="#d3dae1"/>
        <path id="Shape-86" data-name="Shape" d="M1.756,20.609.2,20.452,0,.93V0H1.529V1.061Z" transform="translate(147.676 137.643)" fill="#eaecf0"/>
        <path id="Shape-87" data-name="Shape" d="M1.4,20.733.234,20.609,0,1.061V0H1.182V1.164Z" transform="translate(149.187 137.643)" fill="#d3dae1"/>
        <path id="Shape-88" data-name="Shape" d="M0,.5,1.07,0V2.364L.028,2.713,0,.5Z" transform="translate(247.602 144.458)" opacity="0.1"/>
        <path id="Shape-89" data-name="Shape" d="M2.363,0V3.617l-.972.326L0,4.4,0,2.713,1.391.279,2.363,0Z" transform="translate(266.955 136.32)" opacity="0.1"/>
        <path id="Shape-90" data-name="Shape" d="M21.828,0V10.014L.14,17.245,0,6.535,21.828,0Z" transform="translate(247.49 129.367)" fill="#d48a9b"/>
        <path id="Shape-91" data-name="Shape" d="M0,5.425,28.5,0l93.428,6.121L100.1,12.656,0,5.425Z" transform="translate(147.388 123.246)" fill="#efc6cd"/>
        <path id="Shape-92" data-name="Shape" d="M2.711,0l.009,1.162-1.18-.1L.007.928,0,0Z" transform="translate(147.667 137.643)" opacity="0.1"/>
        <path id="Shape-93" data-name="Shape" d="M2.166,1.752l-.9-.08L0,1.565V0L1.25.379h.9l.012,1.373Z" transform="translate(174.917 139.349)" opacity="0.1"/>
        <path id="Shape-94" data-name="Shape" d="M0,0V9.318l100.242,8.623-.14-10.71L0,0Z" transform="translate(147.388 128.672)" fill="#d48a9b"/>
        <path id="Shape-95" data-name="Shape" d="M13.094,4.753H0V0L13.094.923v3.83Z" transform="translate(213.775 134.999)" fill="#d48a9b"/>
        <path id="Shape-96" data-name="Shape" d="M13.094,4.753H0V0L13.094.923v3.83Z" transform="translate(213.775 134.999)" opacity="0.1"/>
        <path id="Shape-97" data-name="Shape" d="M0,0V7.51l50.26,3.825v-8l-19.6-1.113L28.709,3.963l-7.994-.555-2.85-2.087L0,0Z" transform="translate(196.188 133.956)" opacity="0.1"/>
        <path id="Shape-98" data-name="Shape" d="M0,0V7.512l50.26,3.823v-8l-19.6-1.113-1.946,1.74-8-.558-2.85-2.087L0,0Z" transform="translate(195.909 133.677)" fill="#fff"/>
        <path id="Shape-99" data-name="Shape" d="M1.2,0,13.091.836l-.138,3.778H5.191L0,2.574,1.2,0Z" transform="translate(163.702 131.661)" fill="#d48a9b"/>
        <path id="Shape-100" data-name="Shape" d="M1.2,0,13.091.836l-.138,3.778H5.191L0,2.574,1.2,0Z" transform="translate(163.702 131.661)" opacity="0.1"/>
        <path id="Shape-101" data-name="Shape" d="M0,0V6.746l45.6,3.617V3.2L28.014,2.155,26.136,3.546l-7.09-.417-2.92-1.808L0,0Z" transform="translate(149.058 130.618)" opacity="0.1"/>
        <path id="Shape-102" data-name="Shape" d="M0,0V6.746l45.6,3.617V3.2L28.014,2.157,26.138,3.546,19.046,3.13l-2.92-1.808L0,0Z" transform="translate(148.779 130.339)" fill="#fff"/>
        <path id="Shape-103" data-name="Shape" d="M9.593,0l6.392.419L5.395,3.591,0,3.2,9.593,0Z" transform="translate(236.86 130.365)" opacity="0.1"/>
        <path id="Shape-104" data-name="Shape" d="M9.593,0l6.392.417L5.395,3.589,0,3.2,9.593,0Z" transform="translate(236.86 130.089)" fill="#fff"/>
        <path id="Shape-105" data-name="Shape" d="M0,.032c.253-.11.522.094.791.145.152.03.311,0,.468.03.314.042.623.25.923.145Z" transform="translate(245.689 130.776)" fill="#d3dae1"/>
        <path id="Shape-106" data-name="Shape" d="M0,.031c.251-.108.52.1.789.147.155.028.314,0,.468.028.311.042.623.253.923.147Z" transform="translate(245.359 130.967)" fill="#d3dae1"/>
        <path id="Shape-107" data-name="Shape" d="M0,.031C.251-.076.52.125.789.176c.155.03.311,0,.468.03.314.042.625.253.923.145Z" transform="translate(244.601 131.351)" fill="#d3dae1"/>
        <path id="Shape-108" data-name="Shape" d="M4.454,0,18.706.935,15.669,5.3,0,3.624,4.454,0Z" transform="translate(198.871 126.856)" opacity="0.1"/>
        <path id="Shape-109" data-name="Shape" d="M4.456,0,18.709.932,15.672,5.3,0,3.624,4.456,0Z" transform="translate(198.59 126.577)" fill="#3a3768"/>
        <path id="Shape-110" data-name="Shape" d="M3.885,0,16.316.761,13.667,4.317,0,2.952,3.885,0Z" transform="translate(199.789 126.898)" fill="#d5e1f4"/>
        <path id="Shape-111" data-name="Shape" d="M40.312,32.715a1.137,1.137,0,0,1-.012.2,1.347,1.347,0,0,1-.019.176,3.958,3.958,0,0,1-.34,1.192h0c-5.889-.663-11.792-1.459-17.7-2.277l-.836-.117-1.5-.208L18.639,31.5h0a30.446,30.446,0,0,1-4.13-.387,21.358,21.358,0,0,1-2.552-.539C8.21,30.066,4.443,29.572.687,29.122L.2,29.064c.089-.4.164-.639.164-.639s.805-3.167,1.475-6.706c.148-.768.288-1.551.41-2.326.1-.621.187-1.234.262-1.825.042-.326.077-.644.108-.956.016-.155.03-.309.042-.468s.026-.333.037-.494.016-.3.023-.452v-.22c0-.316,0-.647-.012-.986a29.058,29.058,0,0,0-.8-5.015c-.066-.281-.133-.562-.2-.836-.021-.089-.044-.176-.068-.262C.883,4.946,0,2.552,0,2.552a.269.269,0,0,1,0-.04.134.134,0,0,0,0-.028.553.553,0,0,0,0-.059V2.008a3.59,3.59,0,0,1,.126-.726,2.631,2.631,0,0,1,.089-.248A1.543,1.543,0,0,1,1.27.059h0c.663-.171,1.665,0,3.177.9a5.467,5.467,0,0,1,.7.483,2.969,2.969,0,0,1,.328.283C7.21,3.336,8.133,6,8.624,8.431c.019.087.035.173.052.26.059.3.108.593.152.881.08.506.143.993.19,1.445,0,.122.026.234.037.358s.023.234.03.347c.03.365.052.7.066.989.04.759.033,1.225.033,1.225v.023a.642.642,0,0,1-.012.1.045.045,0,0,0,0,.019v.211q-.014.148-.035.344c-.021.2-.044.438-.073.7-.019.2-.042.41-.066.635-.052.468-.108,1.012-.169,1.584-.014.108-.026.216-.037.323-.054.49-.11,1-.169,1.516h0c-.063.586-.133,1.171-.2,1.75-.016.126-.033.253-.047.377C8.2,22.926,8.03,24.2,7.889,25a3.3,3.3,0,0,0-.047.356,1.094,1.094,0,0,0,0,.122,2.4,2.4,0,0,0,0,.319,2.689,2.689,0,0,0,2.276,2.342l9.813-.194,1.456-.028.848-.016,7.65-.152h0l.7-.014,3.8-.075a2.72,2.72,0,0,1,.766.091A12.155,12.155,0,0,1,38.483,29.2a3.908,3.908,0,0,1,.859.75.25.25,0,0,1,.033.037,4.053,4.053,0,0,1,.92,2.193v.162A2.108,2.108,0,0,1,40.312,32.715Z" transform="translate(155.026 129.845)" fill="#3a3768"/>
        <path id="Shape-112" data-name="Shape" d="M40.311,32.735a1.137,1.137,0,0,1-.012.2,1.346,1.346,0,0,1-.019.176A4.1,4.1,0,0,1,39.93,34.3c-5.889-.663-11.792-1.459-17.7-2.277l-.836-.117-1.5-.208-1.264-.176h0a30.447,30.447,0,0,1-4.13-.387,21.359,21.359,0,0,1-2.552-.539C8.2,30.086,4.43,29.592.674,29.142l-.489-.059h0c.089-.412.169-.663.169-.663s.658-2.577,1.283-5.7h0c.044-.216.087-.431.129-.649l.063-.33c.145-.766.286-1.553.41-2.326.1-.621.187-1.234.262-1.825.042-.326.077-.644.108-.956.016-.155.03-.309.042-.468s.026-.333.037-.494.016-.3.023-.452V15c0-.316,0-.647-.012-.986A28.823,28.823,0,0,0,1.911,9q-.1-.426-.2-.836c-.023-.089-.044-.176-.068-.262C.88,4.961,0,2.553,0,2.553a.075.075,0,0,0,0-.016.134.134,0,0,0,0-.028A.553.553,0,0,0,0,2.45V2.033a3.6,3.6,0,0,1,.119-.726c.026-.082.054-.166.087-.248A1.548,1.548,0,0,1,1.316.049c.663-.155,1.653.037,3.133.9a5.666,5.666,0,0,1,.731.511h0c.11.091.215.183.318.281C7.217,3.368,8.132,6.027,8.619,8.451c.019.087.035.176.052.262.059.3.108.593.152.878.08.506.14.991.187,1.441.012.124.026.246.035.363s.023.234.03.347c.03.365.052.7.066.989.04.759.033,1.225.033,1.225v.124a.045.045,0,0,0,0,.019v.211q-.014.148-.035.344c-.021.2-.044.438-.073.7-.023.194-.044.408-.068.635-.052.468-.108,1.012-.169,1.584-.014.108-.026.216-.037.323-.054.49-.112,1-.169,1.52h0c-.068.586-.136,1.171-.206,1.747-.016.126-.03.253-.047.377C8.2,22.948,8.029,24.206,7.889,25a3.262,3.262,0,0,0-.047.382,1.094,1.094,0,0,0,0,.122,2.4,2.4,0,0,0,0,.319,2.683,2.683,0,0,0,2.276,2.307l9.813-.192,1.454-.03.85-.016,7.664-.15.717-.014,3.791-.075a2.561,2.561,0,0,1,.766.091,12.016,12.016,0,0,1,3.351,1.441,3.859,3.859,0,0,1,.871.764.251.251,0,0,1,.033.037,4.014,4.014,0,0,1,.909,2.2v.162A2.721,2.721,0,0,0,40.311,32.735Z" transform="translate(155.026 129.825)" opacity="0.1"/>
        <path id="Shape-113" data-name="Shape" d="M39.784,34.608l-.386-.045h0C33.509,33.9,27.606,33.1,21.7,32.287l-.836-.117-1.5-.208-1.264-.176h0a30.446,30.446,0,0,1-4.13-.387,21.359,21.359,0,0,1-2.552-.539C7.666,30.347,3.9,29.853.143,29.4a9.586,9.586,0,0,1,.234-.974S2.6,19.666,2.739,15.006a24.193,24.193,0,0,0-.728-5.692h0c-.066-.283-.131-.565-.2-.841l-.063-.262C.953,5.131.009,2.554.009,2.554A3.808,3.808,0,0,1,.063,1.6,2.552,2.552,0,0,1,.119,1.35,1.912,1.912,0,0,1,.723.338h0A.311.311,0,0,1,.768.305c.616-.468,1.721-.5,3.688.651a5.767,5.767,0,0,1,1.1.841c.094.089.187.183.276.279A13.809,13.809,0,0,1,8.689,8.759l.049.26c.052.293.1.581.138.86V9.9h0c.054.37.1.724.136,1.061h0a27.959,27.959,0,0,1,.169,2.991s-.091.925-.234,2.258c-.054.522-.117,1.108-.185,1.726v.094l-.035.328c-.119,1.08-.251,2.232-.384,3.3-.014.131-.03.26-.047.387-.15,1.2-.3,2.27-.424,2.966a2.613,2.613,0,0,0,2.224,3.13l9.258-.183,1.452-.028.85-.019h.471l7.343-.145h.7l4.215-.084a2.631,2.631,0,0,1,.766.094,12.075,12.075,0,0,1,3.353,1.438,3.981,3.981,0,0,1,.789.67.381.381,0,0,1,.04.047,4.058,4.058,0,0,1,.45,4.676Z" transform="translate(155.57 129.554)" fill="#42474f"/>
        <path id="Shape-114" data-name="Shape" d="M.974,0,3.838,6.137h-.48L0,.073.974,0Z" transform="translate(227.48 121.82)" fill="#4c4c56"/>
        <path id="Shape-115" data-name="Shape" d="M.974,0,3.838,6.137h-.48L0,.073.974,0Z" transform="translate(227.48 121.82)" opacity="0.1"/>
        <path id="Shape-116" data-name="Shape" d="M0,0H2.864V.642L0,.714V0Z" transform="translate(228.454 127.957)" fill="#4c4c56"/>
        <path id="Shape-117" data-name="Shape" d="M0,0H2.864V.642L0,.714V0Z" transform="translate(228.454 127.957)" opacity="0.1"/>
        <path id="Shape-118" data-name="Shape" d="M0,1.591V23.022a1.59,1.59,0,0,0,1.59,1.591H37.3A1.581,1.581,0,0,0,38.878,23l-.405-21.45A1.581,1.581,0,0,0,36.893,0H1.59A1.59,1.59,0,0,0,0,1.591Z" transform="translate(206.179 97.646)" fill="#4c4c56"/>
        <path id="Shape-119" data-name="Shape" d="M0,1.591V23.022a1.59,1.59,0,0,0,1.59,1.591H37.3A1.581,1.581,0,0,0,38.878,23l-.405-21.45A1.581,1.581,0,0,0,36.893,0H1.59A1.59,1.59,0,0,0,0,1.591Z" transform="translate(206.179 97.646)" opacity="0.1"/>
        <path id="Shape-120" data-name="Shape" d="M0,1.591V23.022a1.59,1.59,0,0,0,1.59,1.591H37.3A1.579,1.579,0,0,0,38.876,23l-.405-21.45A1.581,1.581,0,0,0,36.893,0H1.6A1.59,1.59,0,0,0,0,1.591Z" transform="translate(204.891 97.646)" fill="#4c4c56"/>
        <path id="Shape-121" data-name="Shape" d="M0,1.591V20.459A1.59,1.59,0,0,0,1.59,22.05H34.654a1.581,1.581,0,0,0,1.581-1.581V1.579A1.581,1.581,0,0,0,34.654,0H1.59A1.59,1.59,0,0,0,0,1.591Z" transform="translate(206.296 98.986)" fill="#cecece"/>
        <path id="Shape-122" data-name="Shape" d="M0,.871,3.14,6.922h7.095L6.687,0,0,.871Z" transform="translate(220.603 121.035)" fill="#4c4c56"/>
        <path id="Shape-123" data-name="Shape" d="M.524,0,0,.642H10.876V0Z" transform="translate(217.577 127.957)" fill="#4c4c56"/>
        <g transform="matrix(1, 0, 0, 1, -24, -10)" filter="url(#Design)">
          <path id="Design-2" data-name="Design" d="M134.34,56.58a17.966,17.966,0,0,1-5.85-.9,15.144,15.144,0,0,1-4.5-2.4,13.04,13.04,0,0,1-3.06-3.42,10.55,10.55,0,0,1-1.471-3.9L127.5,43.68a6.349,6.349,0,0,0,2.16,3.57,6.428,6.428,0,0,0,4.26,1.41,7.844,7.844,0,0,0,5.4-1.77c1.314-1.174,1.98-3.142,1.98-5.85V39.66a8.207,8.207,0,0,1-2.79,2.28,10.757,10.757,0,0,1-5.19,1.08,13.432,13.432,0,0,1-9.9-4.17,14.236,14.236,0,0,1-2.91-4.59,16.041,16.041,0,0,1-.03-11.34,14.773,14.773,0,0,1,2.849-4.65,13.293,13.293,0,0,1,9.99-4.35,13.058,13.058,0,0,1,3.21.36,11.069,11.069,0,0,1,2.43.9,6.991,6.991,0,0,1,1.68,1.2,5.035,5.035,0,0,1,.959,1.26V14.46h8.7v26.1a19.891,19.891,0,0,1-.93,6.12,14.363,14.363,0,0,1-2.88,5.1,13.7,13.7,0,0,1-4.95,3.51A18.25,18.25,0,0,1,134.34,56.58ZM135,21.9a6.752,6.752,0,0,0-2.43.45,6.1,6.1,0,0,0-3.48,3.42,7.109,7.109,0,0,0-.509,2.731,6.432,6.432,0,0,0,1.83,4.829A6.367,6.367,0,0,0,135,35.1a6.237,6.237,0,0,0,4.59-1.77,6.554,6.554,0,0,0,1.77-4.829,7.093,7.093,0,0,0-.51-2.731,6.426,6.426,0,0,0-1.38-2.1,5.836,5.836,0,0,0-2.04-1.32A6.752,6.752,0,0,0,135,21.9ZM86.64,45.18a15.474,15.474,0,0,1-5.91-.99,11.709,11.709,0,0,1-3.81-2.43,9.8,9.8,0,0,1-2.13-3.06,8.571,8.571,0,0,1-.75-2.88l7.74-1.38a4.623,4.623,0,0,0,1.229,2.79A4.447,4.447,0,0,0,86.46,38.46a3.826,3.826,0,0,0,2.61-.779,2.37,2.37,0,0,0,.869-1.8,2.024,2.024,0,0,0-.63-1.471A4.746,4.746,0,0,0,87,33.42l-3.42-.779A16.277,16.277,0,0,1,79.5,31.2a10.1,10.1,0,0,1-2.759-2.1,7.481,7.481,0,0,1-1.561-2.64,9.482,9.482,0,0,1-.48-3,9.012,9.012,0,0,1,.84-3.84,9.607,9.607,0,0,1,2.371-3.15,11.494,11.494,0,0,1,3.63-2.13,13.254,13.254,0,0,1,4.62-.779,14.633,14.633,0,0,1,5.46.9,11.377,11.377,0,0,1,3.63,2.25,8.914,8.914,0,0,1,2.07,2.88,9.448,9.448,0,0,1,.78,2.849L90.54,23.82a4.537,4.537,0,0,0-1.17-2.58,4.016,4.016,0,0,0-3.09-1.08A3.821,3.821,0,0,0,84,20.85a2.212,2.212,0,0,0-.959,1.89,1.838,1.838,0,0,0,.66,1.5,3.6,3.6,0,0,0,1.68.72l3.96.78a12.263,12.263,0,0,1,6.93,3.51,8.627,8.627,0,0,1,2.25,5.85,9.978,9.978,0,0,1-.72,3.72,8.971,8.971,0,0,1-2.22,3.21,11.516,11.516,0,0,1-3.72,2.28A14.331,14.331,0,0,1,86.64,45.18Zm-30.3,0a16.377,16.377,0,0,1-5.88-1.08,15.052,15.052,0,0,1-4.981-3.12A14.807,14.807,0,0,1,42.06,36a17,17,0,0,1-1.26-6.72,16.646,16.646,0,0,1,1.23-6.51,15.174,15.174,0,0,1,3.3-4.95,14.816,14.816,0,0,1,10.35-4.26,18.045,18.045,0,0,1,6.217,1,12.685,12.685,0,0,1,7.725,7.845,19.376,19.376,0,0,1,1,6.45c0,.628-.02,1.244-.06,1.83a4.776,4.776,0,0,1-.12.99H49.68a5.329,5.329,0,0,0,.63,2.31,6.317,6.317,0,0,0,1.5,1.83,6.777,6.777,0,0,0,2.129,1.2,7.611,7.611,0,0,0,2.52.42,5.767,5.767,0,0,0,6-3.9l7.62,2.16A13.218,13.218,0,0,1,68.4,39.36a11.873,11.873,0,0,1-2.88,3.03,14.069,14.069,0,0,1-4.05,2.04A16.641,16.641,0,0,1,56.34,45.18ZM55.8,20.76a6.18,6.18,0,0,0-2.52.48,6.349,6.349,0,0,0-1.83,1.2,5.012,5.012,0,0,0-1.14,1.62,5.351,5.351,0,0,0-.45,1.741H61.8a6.414,6.414,0,0,0-.391-1.741,4.462,4.462,0,0,0-1.049-1.62,5.861,5.861,0,0,0-1.831-1.2A6.9,6.9,0,0,0,55.8,20.76ZM167.1,44.281H157.98V14.46h8.82v3.42a6.392,6.392,0,0,1,1.561-1.86,9.671,9.671,0,0,1,2.07-1.29,11.521,11.521,0,0,1,2.34-.78,11.1,11.1,0,0,1,2.37-.27,11.693,11.693,0,0,1,4.86.93,9.477,9.477,0,0,1,3.39,2.551,10.41,10.41,0,0,1,1.98,3.78,16.524,16.524,0,0,1,.63,4.62V44.279H176.88V27.12a5.764,5.764,0,0,0-1.17-3.69,4.449,4.449,0,0,0-3.69-1.47,4.614,4.614,0,0,0-3.6,1.47,5.427,5.427,0,0,0-1.319,3.75v17.1Zm-53.52,0h-9.12V14.46h9.12V44.279Zm-98.22,0H0V1.74H15.42A24.864,24.864,0,0,1,24.15,3.21,19.148,19.148,0,0,1,30.9,7.44,18.767,18.767,0,0,1,35.25,14.16a24.6,24.6,0,0,1,1.53,8.88,24.349,24.349,0,0,1-1.53,8.85A18.831,18.831,0,0,1,30.9,38.58a19.109,19.109,0,0,1-6.78,4.23A25.114,25.114,0,0,1,15.36,44.28ZM9.48,10.68V35.34H15a14.593,14.593,0,0,0,4.62-.72,10,10,0,0,0,6.33-6.061,14.97,14.97,0,0,0,.931-5.52,14.97,14.97,0,0,0-.931-5.52,10.67,10.67,0,0,0-2.55-3.87,10.108,10.108,0,0,0-3.78-2.25A14.568,14.568,0,0,0,15,10.68Zm99.481,0a5.058,5.058,0,0,1-2.04-.42,5.453,5.453,0,0,1-1.68-1.14A5.354,5.354,0,0,1,104.1,7.41a5.307,5.307,0,0,1,0-4.14,5.373,5.373,0,0,1,1.139-1.71A5.466,5.466,0,0,1,106.92.42,5.058,5.058,0,0,1,108.96,0,5.24,5.24,0,0,1,112.8,1.56a5.17,5.17,0,0,1,1.561,3.78A5.168,5.168,0,0,1,112.8,9.12,5.238,5.238,0,0,1,108.96,10.68Z" transform="translate(69.98 71.72)" fill="#fff"/>
        </g>
        <path id="Shape-124" data-name="Shape" d="M51.521,75.552l-.831-.042q-3.337-.175-6.675-.443L43.172,75c-1.079-2.558-2.044-5.095-2.044-5.134s-.041-1.207-.085-2.49c-.014-.374-.026-.761-.04-1.131-.042-1.213-.077-2.261-.077-2.261s-.9.152-1.845.291h-.068l-.379.054-.183.026h-.058l-.256.032-.025.044A15.823,15.823,0,0,1,33.646,69.4c-.18.134-.344.247-.482.34-.318.215-.508.326-.508.326l-.035-.022c-1.159-.665-4.306-.778-4.306-.778L20.822,70.61a43.51,43.51,0,0,1-4.807.527q-.408.026-.836.042c-.482.021-.965.032-1.5.038s-1.082,0-1.639-.019A31.457,31.457,0,0,1,8.3,70.863a21.437,21.437,0,0,1-2.552-.539q-.807-.221-1.59-.522c-5.243-2.034-3.88-6.854-2.994-8.93.047-.11.091-.211.133-.3a3.994,3.994,0,0,1-.96-.734c-.806-.9.026-2.572.6-3.493l.1-.159a2.664,2.664,0,0,1-.152-.288c-.2-.428.869-2.169.869-2.169s.234-2.2.7-2.371c.134-.045.248-.274.368-.593a11.964,11.964,0,0,0,.4-1.389V49.35c.079-.335.143-.637.183-.834.032-.142.049-.234.049-.234V48.27a1.914,1.914,0,0,1,.206-1.358,12.014,12.014,0,0,0,.6-2.052,1.858,1.858,0,0,1,.234-.469c.317-.419.014-1.473-.2-2.326a.494.494,0,0,1-.031-.123c-.028-.115-.054-.225-.075-.329a1.551,1.551,0,0,1-.042-.646,2.974,2.974,0,0,0-.075-1.084,17.3,17.3,0,0,1-.417-2.4,4.671,4.671,0,0,0-.545-2.109c-.019-.053-.042-.11-.064-.166-.367-.949-.3-4.919-.253-6.536v-.56l-.576.455a.4.4,0,0,1-.059.044q-.5.4-1.011.776a3.524,3.524,0,0,0,.234-.283l-.234.178a3.238,3.238,0,0,0,.8-1.527.477.477,0,0,0,.023-.115,3.115,3.115,0,0,0,.048-.792.793.793,0,0,1-.282.436c-.016.049-.032.1-.051.142a1.258,1.258,0,0,1-.424.2,1.554,1.554,0,0,1-.335.04H.8A5.062,5.062,0,0,1,.208,27.6a.829.829,0,0,0,.171-.082L.208,27.5c.459-.148.639-.67.751-1.139q.351-1.419.653-2.849a17.715,17.715,0,0,0,.414-2.783c.038-.8-.025-1.593-.059-2.39A48.213,48.213,0,0,1,2.2,11.779c.178-1.879.492-3.917,1.9-5.2a8.213,8.213,0,0,1,2-1.232c0-.239,1.744-.7,1.978-.741a2.257,2.257,0,0,1,.291-.03.808.808,0,0,1,.114,0,.625.625,0,0,1,.564.234c.082-.117.155-.237.235-.352a5.65,5.65,0,0,1,.454-.562,25.574,25.574,0,0,1,3.131-2.507,7.972,7.972,0,0,1,1.25-.906A4.517,4.517,0,0,1,15.994.013,7.655,7.655,0,0,1,19.153.5c1.449.551,2.716,1.539,4.215,1.94a10.058,10.058,0,0,1,1.1.3A2.683,2.683,0,0,1,25.971,4.25a2.61,2.61,0,0,1,.164.975,2.7,2.7,0,0,1-.035.482.039.039,0,0,1,0,.014.291.291,0,0,1,0,.04,2.515,2.515,0,0,1-.234.7,1.2,1.2,0,0,1-.4.482,1.613,1.613,0,0,1-.958.15,2.51,2.51,0,0,0-.68.032l.085.131.037.063c.022.033.04.066.059.1a6.976,6.976,0,0,1,.937,3.514c0,.145,0,.29-.014.436a.034.034,0,0,1,0,.019,7.125,7.125,0,0,1-6.846,6.628h-.26c-.035.08-.072.158-.105.235L17.7,18.3c-.032.073-.063.148-.094.223a19.488,19.488,0,0,0-1.035,3.7h1.492l.051.255.3,1.457.082.115c2.37,3.284,3.767,5.573,4.147,6.889a.448.448,0,0,1,.031.115s.227.536,1.355,2.678l.032.066a6,6,0,0,1,.593,2.343l.032.014v-.6l4.371.2a.639.639,0,0,1,.22.234c1.482-.066,5.734-.269,6.235-.436.412-.13,3-.487,4.639-.7h.012L41.5,34.67s4.285.307,7.779.775h.009c3.236.44,5.782,1.033,3.6,1.678l-.038.012-.265.075c-.253.067-.51.131-.77.187a.284.284,0,0,1-.068.016l-.234.052.18.032c2.035.387,3.1.846,1.386,1.391l-.075.022c-4.548,1.314-10.635.749-10.635.749s-.632.174-1.517.408c-.382.108-.813.229-1.259.361l-.617.183A14.588,14.588,0,0,0,35.427,42a1.159,1.159,0,0,1-.354.19,24.6,24.6,0,0,1-5.372.595h-.234a1.608,1.608,0,0,0-.023.167c-.016.108-.037.253-.051.342s-.028.175-.04.26c-.164,1.04-.316,1.795-.316,1.795h-.059l-3.909.212-.014-.274v-.158h-.038a1.384,1.384,0,0,1-.192.083H24.81a5.094,5.094,0,0,1-3.045-.324l-.07-.023L21.672,45l-.032.188-.023.133-.365,2.108L21.1,49.708l-.016.256v.068l-.633.869c-.26.363-.55.761-.728,1.014a2.543,2.543,0,0,0-.2,2,.375.375,0,0,1-.234.417h.234a1.227,1.227,0,0,1,.41.085,21.919,21.919,0,0,0,4.112-.373,15.53,15.53,0,0,1,5.326-.57,15.118,15.118,0,0,0,1.64.066c.623,0,1.332-.016,2.079-.044l.784-.033c3.225-.145,6.791-.445,6.791-.445v.363c.124-.025.279-.059.469-.094,1.859-.339,6.823-.769,7.666,4.067,1.041,5.966,1.187,7.308,1.187,7.308l1.39,6.482s.3,2.164.67,4.434Z" transform="translate(161.23 90.076)" fill="url(#linear-gradient-3)"/>
        <path id="Shape-125" data-name="Shape" d="M13.684,17.956s.286,2.122.649,4.362l-.831-.042q-3.334-.173-6.676-.443C5.561,18.9,4.25,15.424,4.25,15.37s-.04-1.2-.084-2.478c-.014-.45-.03-.914-.044-1.349h0c-.023-.661-.044-1.256-.056-1.626,0-.253-.014-.4-.014-.4s-1.2.211-2.285.358l-.48.063c-.248.03-.468.054-.667.068A1.716,1.716,0,0,1,.1,10c-.37-.143.4-3.748.4-3.748L2.409,1.629,2.943.341,3.177.282c.115-.028.269-.061.454-.1,1.824-.335,6.7-.761,7.523,4.05,1.023,5.943,1.171,7.278,1.171,7.278Z" transform="translate(198.438 143.29)" fill="#efb7b9"/>
        <path id="Path" d="M.578,0h0Z" transform="translate(213.391 170.759)" fill="#efb7b9"/>
        <path id="Shape-126" data-name="Shape" d="M13.684,17.956s.286,2.122.649,4.362l-.831-.042q-3.334-.173-6.676-.443C5.561,18.9,4.25,15.424,4.25,15.37s-.04-1.2-.084-2.478c-.014-.45-.03-.914-.044-1.349h0c-.023-.661-.044-1.256-.056-1.626,0-.253-.014-.4-.014-.4s-1.2.211-2.285.358l-.48.063c-.248.03-.468.054-.667.068A1.716,1.716,0,0,1,.1,10c-.37-.143.4-3.748.4-3.748L2.409,1.629,2.943.341,3.177.282c.115-.028.269-.061.454-.1,1.824-.335,6.7-.761,7.523,4.05,1.023,5.943,1.171,7.278,1.171,7.278Z" transform="translate(198.438 143.29)" opacity="0.05"/>
        <path id="Path-2" data-name="Path" d="M.578,0h0Z" transform="translate(213.391 170.759)" opacity="0.05"/>
        <path id="Shape-127" data-name="Shape" d="M14.126,20.98q-3.334-.173-6.676-.443l-.843-.068-.372-.03c-1.049-2.532-1.981-5.008-1.981-5.053s-.04-1.2-.084-2.478c-.054-1.6-.115-3.378-.115-3.378L3.9,9.556l-.066.012H3.749l-.377.063-.206.033c-.372.061-.822.129-1.262.192l-.1.014L1.548,9.9l-.234.028h0c-.18.023-.351.042-.506.056L.618,10A1.638,1.638,0,0,1,.1,10c-.37-.143.4-3.748.4-3.748L2.943.341,3.028.317c.129-.033.4-.1.768-.159.138-.023.29-.047.454-.068C6.371-.181,10.408-.1,11.155,4.236c1.023,5.943,1.171,7.278,1.171,7.278l1.365,6.461S13.869,19.31,14.126,20.98Z" transform="translate(197.813 144.585)" fill="#efb7b9"/>
        <path id="Shape-128" data-name="Shape" d="M3.547,4.309c-.054-1.6-.115-3.38-.115-3.38s-2.342.41-3.433.49L.22.674S4.229-.434,4.313.191A28.544,28.544,0,0,1,3.547,4.309Z" transform="translate(198.436 153.184)" opacity="0.1"/>
        <path id="Shape-129" data-name="Shape" d="M4.25,0V1.694A33.8,33.8,0,0,1,2.487,9.4c-.033.1-.068.2-.105.3A10.632,10.632,0,0,1,1.8,11c-.44.061-.866.112-1.182.136a1.711,1.711,0,0,1-.517,0C-.269,11,.5,7.39.5,7.39L2.941,1.478l.087-.023L3.559.164A6.174,6.174,0,0,1,4.25,0Z" transform="translate(197.817 143.464)" opacity="0.1"/>
        <path id="Shape-130" data-name="Shape" d="M39.621,0V1.961a33.833,33.833,0,0,1-1.763,7.707c-.04.122-.084.234-.129.358s-.1.272-.162.4c-.129.312-.274.614-.426.9h0a15.643,15.643,0,0,1-4.276,4.9c-.173.134-.335.251-.468.349h-.012c-.234.159-.4.274-.51.342s-.117.073-.117.073c-1.11-.682-4.264-.8-4.264-.8l-7.362,1.338a42.652,42.652,0,0,1-4.863.553l-.836.04c-.482.019-.983.03-1.5.033-.414,0-.836,0-1.264-.016h0a30.446,30.446,0,0,1-4.13-.387,20.619,20.619,0,0,1-2.229-.494,15.684,15.684,0,0,1-1.543-.515C-1.381,14.722-.04,9.923.829,7.845c.047-.11.091-.211.133-.3.192-.424.335-.672.335-.672l.342-.827h0L2.2,4.685l.124-.3L2.358,4.3l.414-1,5.854-.759,4.3-.558,1.309-.169.887-.115,1.693-.22.637-.082A7.923,7.923,0,0,1,18.641,1.3a1.66,1.66,0,0,1,.632.094,21.379,21.379,0,0,0,4.037-.37A15.031,15.031,0,0,1,28.539.454,29.074,29.074,0,0,0,32.17.478h0l.3-.014.389-.016h.084C36.109.3,39.621,0,39.621,0Z" transform="translate(161.992 143.197)" fill="#444053"/>
        <path id="Shape-131" data-name="Shape" d="M3.013.255S.2,6.653.086,6.765a5.76,5.76,0,0,0,0,1.991C.2,8.639,4.095,0,4.095,0Z" transform="translate(177.538 148.826)" opacity="0.1"/>
        <path id="Shape-132" data-name="Shape" d="M9.349.028A7.312,7.312,0,0,0,7.5,1.687c-.426.74-4.32,8.1-5.285,9.182A23.586,23.586,0,0,0,.056,13.945c-.112.194-.112,1.417.569.251a9.54,9.54,0,0,1,1.847-2.811c1.335-1.448,2.81-4.72,3.381-5.374s1.365-2.617,2.36-3.783L10.119,0Z" transform="translate(184.816 143.642)" opacity="0.1"/>
        <path id="Shape-133" data-name="Shape" d="M2.12.2A1.411,1.411,0,0,0,.188.681C-.749,1.845,2.12.2,2.12.2Z" transform="translate(192.387 156.105)" opacity="0.1"/>
        <path id="Shape-134" data-name="Shape" d="M1.285,0S.461,1.438.063,1.553,1.285,0,1.285,0Z" transform="translate(194.444 156.655)" opacity="0.1"/>
        <path id="Shape-135" data-name="Shape" d="M1.222,0S.569,1.138,0,1.024Z" transform="translate(193.284 157.013)" opacity="0.1"/>
        <path id="Shape-136" data-name="Shape" d="M1.25,1.335S7.275,1.08,7.872.881,13.754,0,13.754,0s15.66,1.108,11.2,2.446-10.516.766-10.516.766S8.525,4.748,7.617,5.554,0,6.379,0,6.379Z" transform="translate(188.655 124.942)" fill="#efb7b9"/>
        <path id="Shape-137" data-name="Shape" d="M1.25,1.335S7.275,1.08,7.872.881,13.754,0,13.754,0s15.66,1.108,11.2,2.446-10.516.766-10.516.766S8.525,4.748,7.617,5.554,0,6.379,0,6.379Z" transform="translate(188.655 124.942)" opacity="0.05"/>
        <path id="Shape-138" data-name="Shape" d="M3.573.13S-1.941,2,.731,6.783A21.314,21.314,0,0,0,6.842,13.81l8.867,6.142s3.723,2.132,5.428,1.251l2.784-.234.468-7.308s-2.342,1.82-4.889-.7-5.685-4.238-5.94-5.6S6.783-1.037,3.573.13Z" transform="translate(164.9 112.416)" fill="#a36468"/>
        <path id="Shape-139" data-name="Shape" d="M0,2.19S2.871,3.214,2.758,3.27,0,4.322,0,4.322l.2,3.9L4.093,8S5.514.911,4.292.2L0,0Z" transform="translate(185.894 125.823)" fill="#67647e"/>
        <path id="Shape-140" data-name="Shape" d="M0,2.19S2.871,3.214,2.758,3.27,0,4.322,0,4.322l.2,3.9L4.093,8S5.514.911,4.292.2L0,0Z" transform="translate(185.894 125.823)" opacity="0.1"/>
        <path id="Shape-141" data-name="Shape" d="M6.966,4.317a5.463,5.463,0,0,0-.9,1.391c-.035.077-.07.152-.1.234-2.091,0-3.594-1.626-4.877-3.08C.852,2.593.26,3,.066,2.7.044,2.663.023,2.628,0,2.593l.066-.122C.768,1.138,1.281,0,1.281,0s.234.075.613.208C3.643.827,8.46,2.727,6.966,4.317Z" transform="translate(173.105 102.656)" opacity="0.1"/>
        <path id="Shape-142" data-name="Shape" d="M16.184,0s-.536.656-1.129,1.267a4.4,4.4,0,0,1-1.232,1.007A40.1,40.1,0,0,0,9.9,4.975S7.345,6.711,6.692,7.222s-3.014.2-3.014.2A13.533,13.533,0,0,1,0,6.015a9.149,9.149,0,0,1,.468-.974L1.946,1.457,7.8.7Z" transform="translate(162.805 145.043)" opacity="0.1"/>
        <path id="Shape-143" data-name="Shape" d="M17.212,0s-.534.656-1.126,1.267a4.573,4.573,0,0,1-1.232,1.007,39.7,39.7,0,0,0-3.922,2.7S8.373,6.711,7.72,7.222s-3.011.2-3.011.2S1.468,6.718.33,5.43c-.8-.9.028-2.56.59-3.476a7.026,7.026,0,0,1,.433-.647Z" transform="translate(161.662 144.589)" fill="#67647e"/>
        <path id="Shape-144" data-name="Shape" d="M8.3,8.163C6.367,7.992,0,.2,0,.2L.145,0a35.96,35.96,0,0,1,3.21,3.354C8.015,8.84,8.938,7.308,9.1,6.831,9.371,7.8,9.111,8.236,8.3,8.163Z" transform="translate(174.782 114.39)" opacity="0.1"/>
        <path id="Shape-145" data-name="Shape" d="M16.292,0s-.534.656-1.126,1.267a3.193,3.193,0,0,1-.976.211,7,7,0,0,0-2.445,1.138,14.644,14.644,0,0,0-3.58.141,10.826,10.826,0,0,1-2.758.37C1.4,4.27.293,2.535,0,1.956a7.026,7.026,0,0,1,.433-.647Z" transform="translate(162.582 144.589)" opacity="0.1"/>
        <path id="Shape-146" data-name="Shape" d="M23.325,16.219a2.473,2.473,0,0,1-.035.326c-.014.105-.028.213-.044.314a5.155,5.155,0,0,1-.513,1.661c-.51.853-2.075,4.179-2.075,4.179l-.105.614-.054.321-.056.316-.382,2.242L19.89,28.78s-.937,1.307-1.335,1.874a2.567,2.567,0,0,0-.2,1.991c.143.6-1.307.682-1.307.682a10.493,10.493,0,0,1-2.786.967,7.012,7.012,0,0,0-2.445,1.134s-3.011-.171-3.58.143a10.72,10.72,0,0,1-2.758.37c-4.29,1.22-5.257-.855-5.456-1.281S.877,32.5.877,32.5s.234-2.19.681-2.361,1-3.069,1-3.069a2.028,2.028,0,0,1,.2-1.366c.37-.483.342-1.848.824-2.5s-.51-2.844-.34-3.413S2.7,16.917,2.753,16.32a5.152,5.152,0,0,0-.6-2.275C1.767,13.026,1.877,8.5,1.922,7.2c0-.22.012-.347.012-.347s.4-1.281,1.449-3.839A5.21,5.21,0,0,1,6.792.105,4.279,4.279,0,0,1,7.221,0a3.008,3.008,0,0,1,.6.152,14.192,14.192,0,0,1,4.852,3.279,36.377,36.377,0,0,1,2.957,3.12C20.965,12.82,21.4,9.895,21.4,9.895s.234.534,1.332,2.666A6.785,6.785,0,0,1,23.325,16.219Z" transform="translate(162.508 111.438)" fill="#a36468"/>
        <path id="Shape-147" data-name="Shape" d="M8.071,4.268,2.723,0S.8.234,0,3.472L5.5,8.295Z" transform="translate(168.984 107.929)" opacity="0.1"/>
        <path id="Shape-148" data-name="Shape" d="M24.942,2.446c-4.463,1.335-10.516.768-10.516.768S8.514,4.748,7.605,5.556c-.585.513-3.575.7-5.62.78C.85,6.379,0,6.381,0,6.381L1.248,1.338,1.969,1.3C3.587,1.23,7.4,1.038,7.87.881,8.467.682,13.752,0,13.752,0S29.4,1.108,24.942,2.446Z" transform="translate(188.892 126.648)" fill="#efb7b9"/>
        <path id="Shape-149" data-name="Shape" d="M20.626,13.827a5.155,5.155,0,0,1-.513,1.661c-.51.853-2.075,4.179-2.075,4.179l-.215,1.263a15.4,15.4,0,0,1-2.107-.97L6.842,13.811A21.282,21.282,0,0,1,.731,6.784C-1.941,2,3.573.131,3.573.131c3.21-1.171,9.72,5.856,9.975,7.222s3.383,3.071,5.94,5.6a5.2,5.2,0,0,0,1.138.874Z" transform="translate(165.127 114.458)" opacity="0.1"/>
        <path id="Shape-150" data-name="Shape" d="M20.706,13.884c-.021.223-.047.436-.08.639a5.155,5.155,0,0,1-.513,1.661c-.51.853-2.075,4.179-2.075,4.179l-.105.614a15.186,15.186,0,0,1-2.224-1.012L6.842,13.813A21.282,21.282,0,0,1,.731,6.786C-1.941,2.005,3.573.131,3.573.131c3.21-1.171,9.72,5.856,9.975,7.222s3.383,3.071,5.94,5.6a5.126,5.126,0,0,0,1.218.928Z" transform="translate(165.127 113.774)" opacity="0.1"/>
        <path id="Shape-151" data-name="Shape" d="M24.378,13.671l-.454,7.306-2.786.234a1.362,1.362,0,0,1-.19.082c-1.775.651-5.238-1.333-5.238-1.333L6.842,13.811A21.282,21.282,0,0,1,.731,6.784C-1.941,2,3.573.131,3.573.131c3.21-1.171,9.72,5.856,9.975,7.222s3.383,3.071,5.94,5.6a5.1,5.1,0,0,0,1.278.937,3.49,3.49,0,0,0,3.611-.22Z" transform="translate(165.127 114.116)" fill="#a36468"/>
        <path id="Shape-152" data-name="Shape" d="M3.611,0,3.156,7.306.37,7.54a1.362,1.362,0,0,1-.19.082L0,4.071s2.644-1,2.758-1.052S0,1.94,0,1.94V.241A3.49,3.49,0,0,0,3.611,0Z" transform="translate(185.894 127.786)" opacity="0.1"/>
        <path id="Shape-153" data-name="Shape" d="M1.986,5.02C.85,5.062,0,5.064,0,5.064L1.26.033,1.981,0C2.445.8,2.246,3.146,1.986,5.02Z" transform="translate(188.88 127.953)" opacity="0.1"/>
        <path id="Shape-154" data-name="Shape" d="M0,2.19S2.871,3.214,2.758,3.27,0,4.322,0,4.322l.2,3.9L4.093,8S5.514.911,4.292.2L0,0Z" transform="translate(186.122 127.529)" fill="#67647e"/>
        <path id="Shape-155" data-name="Shape" d="M1.763,0A5.881,5.881,0,0,1,0,1.15Z" transform="translate(167.336 134.383)" opacity="0.1"/>
        <path id="Shape-156" data-name="Shape" d="M0,.7S2.358.609,2.641.127,0,.7,0,.7Z" transform="translate(166.797 136.388)" opacity="0.1"/>
        <path id="Shape-157" data-name="Shape" d="M0,.768C.143.768,2.983.37,3.1,0Z" transform="translate(165.631 139.698)" opacity="0.1"/>
        <path id="Shape-158" data-name="Shape" d="M0,1.138A7.778,7.778,0,0,0,2.756,0Z" transform="translate(164.751 141.49)" opacity="0.1"/>
        <path id="Shape-159" data-name="Shape" d="M0,1.454s6.168,0,6.451-1.136S0,1.454,0,1.454Z" transform="translate(171.372 141.741)" opacity="0.1"/>
        <path id="Shape-160" data-name="Shape" d="M0,.837c.115,0,4.861,0,5.315-.654S0,.837,0,.837Z" transform="translate(176.004 126.465)" opacity="0.1"/>
        <path id="Shape-161" data-name="Shape" d="M6.353.548a4.539,4.539,0,0,1,.061.7,4.354,4.354,0,0,1-.07.78A6.755,6.755,0,0,1,5.9,3.453l-.049.115c-.07.164-.145.323-.222.483A13.271,13.271,0,0,1,4.4,6.074,22.128,22.128,0,0,1,.724,9.9q-.358.3-.724.6c0-.22.012-.347.012-.347s.4-1.281,1.449-3.839A5.21,5.21,0,0,1,4.87,3.406l-.424-.361A4.951,4.951,0,0,1,6.242,0C6.28.173,6.324.356,6.353.548Z" transform="translate(164.425 108.135)" opacity="0.1"/>
        <path id="Shape-162" data-name="Shape" d="M13.1,3.418a.824.824,0,0,0-.206.082c-.445.246-.574.829-.937,1.2a2.7,2.7,0,0,1-1.672.574,2.059,2.059,0,0,0-1.581.736,3.768,3.768,0,0,0-.3,1.3.415.415,0,0,1-.091.216.421.421,0,0,1-.286.094,9.089,9.089,0,0,1-3.119-.6A1.666,1.666,0,0,0,3.4,7.248a1.716,1.716,0,0,0-.445,1.326v.042A9.055,9.055,0,0,1,3,10.022a2.319,2.319,0,0,1-1.225,1.717,2.165,2.165,0,0,1-.885.253A.716.716,0,0,1,.54,11.94c.208-.356.407-.7.59-1.056a7.051,7.051,0,1,1,11.96-7.468Z" transform="translate(172.029 94.237)" opacity="0.1"/>
        <path id="Shape-163" data-name="Shape" d="M1.04,0C.829.97.539,2.23.321,2.879a3.515,3.515,0,0,1-.056-.41A.578.578,0,0,0,0,2.579C0,1.9.082.883.152.124A.59.59,0,0,1,.766.445,4.069,4.069,0,0,1,1.04,0Z" transform="translate(169.864 94.863)" opacity="0.1"/>
        <path id="Shape-164" data-name="Shape" d="M1.042,0C.831.97.541,2.23.323,2.879a3.079,3.079,0,0,1-.056-.41A.585.585,0,0,0,0,2.579C0,1.9.082.883.155.124A.588.588,0,0,1,.766.445C.85.3.955.145,1.042,0Z" transform="translate(169.75 94.863)" fill="#67647e"/>
        <g id="Group_2" data-name="Group 2" transform="translate(161 90)">
          <path id="Shape-165" data-name="Shape" d="M9.764,4.455a5.65,5.65,0,0,0-.9,1.434c-.035.08-.07.157-.1.241a23.984,23.984,0,0,0-1.386,5.828s-.642-.3-1.55-.76A23.341,23.341,0,0,1,.464,7.75C0,7.231-.173,6.772.216,6.451A2.914,2.914,0,0,0,.473,6.21a7.623,7.623,0,0,0,.817-1c.337-.483.67-1.021.983-1.574.185-.323.361-.649.524-.965l.066-.125C3.567,1.173,4.079,0,4.079,0s.234.077.613.215C6.442.859,11.258,2.816,9.764,4.455Z" transform="translate(9.307 13.033)" fill="#efb7b9"/>
          <path id="Shape-166" data-name="Shape" d="M14.1,7.273a7.161,7.161,0,0,1-6.982,7.262H7.05a6.947,6.947,0,0,1-5.287-2.462,7.4,7.4,0,0,1-.252-9.3A6.924,6.924,0,0,1,9.361.4,7.255,7.255,0,0,1,14.1,7.273Z" transform="translate(11.058 4.386)" fill="#efb7b9"/>
          <path id="Shape-167" data-name="Shape" d="M8.3,10.315C6.367,10.139,0,2.109,0,2.109L.145,1.9,1.48,0H4.6l.344,1.757C7.32,5.189,8.717,7.576,9.1,8.942,9.371,9.936,9.111,10.39,8.3,10.315Z" transform="translate(13.782 23.224)" fill="#67647e"/>
          <path id="Shape-168" data-name="Shape" d="M8.179,4.617,7.242,5.966,6.292,7.349,5.575,8.433,1.18,4.617.424,3.941,0,3.569A5.123,5.123,0,0,1,1.8.432,2.2,2.2,0,0,1,2.733,0Z" transform="translate(7.876 18.253)" fill="#67647e"/>
          <path id="Shape-169" data-name="Shape" d="M25.166,6.538a1.219,1.219,0,0,1-.391.495c-.534.357-1.3-.036-1.857.282-.447.253-.574.854-.937,1.233a2.638,2.638,0,0,1-1.672.591A2.036,2.036,0,0,0,18.73,9.9a4.024,4.024,0,0,0-.3,1.342.414.414,0,0,1-.091.222.42.42,0,0,1-.286.1,8.909,8.909,0,0,1-3.119-.623,1.622,1.622,0,0,0-1.506.241,1.714,1.714,0,0,0-.447,1.368,10.9,10.9,0,0,1,.044,1.487,2.372,2.372,0,0,1-2.107,2.03.563.563,0,0,1-.433-.113.645.645,0,0,1-.143-.265c-.78-2.259-.773-4.767-1.719-6.958a8,8,0,0,1-.4-.965c-.019-.068-.037-.138-.052-.208a3.263,3.263,0,0,1-.056-.422.576.576,0,0,0-.267.113.5.5,0,0,0-.075.082,1.465,1.465,0,0,0-.2.765,29.816,29.816,0,0,0,.843,8.971,9.637,9.637,0,0,1,.405,2.252A6.168,6.168,0,0,1,8.27,21.7C6.8,25.189,3.852,27.745.918,30.055a3.424,3.424,0,0,0,.871-2.493.966.966,0,0,1-.742.685A2.778,2.778,0,0,1,0,28.23c.45-.152.625-.7.738-1.171q.344-1.448.639-2.923a18.933,18.933,0,0,0,.412-2.853c.035-.816-.026-1.634-.059-2.452a51.148,51.148,0,0,1,.234-6.721c.173-1.931.487-4.018,1.861-5.336A8.054,8.054,0,0,1,5.793,5.51c0-.241,1.716-.724,1.943-.758a1.792,1.792,0,0,1,.286-.034.584.584,0,0,1,.611.331c.084-.157.178-.311.276-.459a5.321,5.321,0,0,1,.445-.577,25.9,25.9,0,0,1,3.081-2.587A7.942,7.942,0,0,1,13.663.495,4.312,4.312,0,0,1,15.5.012a7.256,7.256,0,0,1,3.1.5c1.424.565,2.667,1.578,4.14,1.989a9.621,9.621,0,0,1,1.075.307A2.647,2.647,0,0,1,25.3,4.36a2.758,2.758,0,0,1-.121,2.171Z" transform="translate(0.892 0.422)" fill="#444053"/>
          <path id="Shape-170" data-name="Shape" d="M1.463,1.424A3.429,3.429,0,0,0,1.677,0,.971.971,0,0,1,.932.685,1.477,1.477,0,0,1,.66.726,1.207,1.207,0,0,1,0,1.6a2.78,2.78,0,0,0,1.047.019A1.155,1.155,0,0,0,1.463,1.424Z" transform="translate(0.882 27.154)" opacity="0.1"/>
          <path id="Shape-171" data-name="Shape" d="M17.918,0a2.764,2.764,0,0,1-.281,1.1,1.234,1.234,0,0,1-.393.483c-.532.357-1.3-.034-1.857.282-.445.253-.574.857-.937,1.233a2.634,2.634,0,0,1-1.672.591,2.067,2.067,0,0,0-1.581.758,3.98,3.98,0,0,0-.3,1.342.342.342,0,0,1-.119.247.321.321,0,0,1-.258.074A8.858,8.858,0,0,1,7.4,5.481,1.626,1.626,0,0,0,5.9,5.722a1.807,1.807,0,0,0-.445,1.368,10.491,10.491,0,0,1,.042,1.484,2.358,2.358,0,0,1-2.107,2.032.57.57,0,0,1-.433-.113.655.655,0,0,1-.143-.268C2.031,7.967,2.036,5.459,1.09,3.27A8.591,8.591,0,0,1,.7,2.3a2.912,2.912,0,0,1-.11-.63.511.511,0,0,0-.342.2,1.517,1.517,0,0,0-.2.765A30.014,30.014,0,0,0,.282,8.428,30.1,30.1,0,0,1,.167,3.567a1.465,1.465,0,0,1,.2-.765.488.488,0,0,1,.342-.2,2.932,2.932,0,0,0,.108.63,8.4,8.4,0,0,0,.4.965c.937,2.191.937,4.7,1.719,6.956a.672.672,0,0,0,.145.268.555.555,0,0,0,.431.133,2.372,2.372,0,0,0,2.107-2.03,10.9,10.9,0,0,0-.044-1.487,1.847,1.847,0,0,1,.447-1.368,1.589,1.589,0,0,1,1.506-.241,8.888,8.888,0,0,0,3.119.623.327.327,0,0,0,.377-.321,3.954,3.954,0,0,1,.3-1.339,2.042,2.042,0,0,1,1.581-.76,2.653,2.653,0,0,0,1.674-.589c.354-.379.48-.98.937-1.236.555-.316,1.323.077,1.857-.28a1.219,1.219,0,0,0,.391-.495A2.813,2.813,0,0,0,17.918,0Z" transform="translate(8.309 5.037)" opacity="0.1"/>
          <path id="Shape-172" data-name="Shape" d="M7.8.1a6.185,6.185,0,0,1-.56,2.387C5.926,5.609,3.426,7.984.815,10.1A3.42,3.42,0,0,1,0,11.79C2.932,9.482,5.887,6.927,7.352,3.437A6.168,6.168,0,0,0,7.914,1.05,5.441,5.441,0,0,0,7.795,0C7.8.024,7.8.063,7.8.1Z" transform="translate(1.812 18.81)" opacity="0.1"/>
        </g>
      </g>
    </g>
  </g>
</svg>
