<svg xmlns="http://www.w3.org/2000/svg" width="90" height="45" viewBox="0 0 90 45">
  <g id="Group_17137" data-name="Group 17137" transform="translate(-150 -568)">
    <g id="Path_4935" data-name="Path 4935" transform="translate(150 568)" fill="#fff">
      <path d="M 85 44.97499847412109 L 5 44.97499847412109 C 2.256777763366699 44.97499847412109 0.02500000037252903 42.74322128295898 0.02500000037252903 40 L 0.02500000037252903 5 C 0.02500000037252903 2.256777763366699 2.256777763366699 0.02500000037252903 5 0.02500000037252903 L 85 0.02500000037252903 C 87.74322509765625 0.02500000037252903 89.97499847412109 2.256777763366699 89.97499847412109 5 L 89.97499847412109 40 C 89.97499847412109 42.74322128295898 87.74322509765625 44.97499847412109 85 44.97499847412109 Z" stroke="none"/>
      <path d="M 5 0.04999923706054688 C 2.270553588867188 0.04999923706054688 0.0500030517578125 2.270557403564453 0.0500030517578125 5 L 0.0500030517578125 40 C 0.0500030517578125 42.72944641113281 2.270553588867188 44.95000076293945 5 44.95000076293945 L 85 44.95000076293945 C 87.72944641113281 44.95000076293945 89.94999694824219 42.72944641113281 89.94999694824219 40 L 89.94999694824219 5 C 89.94999694824219 2.270557403564453 87.72944641113281 0.04999923706054688 85 0.04999923706054688 L 5 0.04999923706054688 M 5 0 L 85 0 C 87.76142120361328 0 90 2.238578796386719 90 5 L 90 40 C 90 42.76142120361328 87.76142120361328 45 85 45 L 5 45 C 2.238578796386719 45 0 42.76142120361328 0 40 L 0 5 C 0 2.238578796386719 2.238578796386719 0 5 0 Z" stroke="none" fill="#faba52"/>
    </g>
    <path id="Icon_awesome-facebook-f" data-name="Icon awesome-facebook-f" d="M12.127,11.821l.584-3.8H9.061V5.55a1.9,1.9,0,0,1,2.144-2.055h1.659V.257A20.231,20.231,0,0,0,9.92,0C6.914,0,4.95,1.822,4.95,5.119v2.9H1.609v3.8H4.95v9.194H9.061V11.821Z" transform="translate(187.391 580)" fill="#395693"/>
  </g>
</svg>
