<svg xmlns="http://www.w3.org/2000/svg" width="52" height="52" viewBox="0 0 52 52">
  <g id="Group_17136" data-name="Group 17136" transform="translate(-169)">
    <circle id="Ellipse_123" data-name="Ellipse 123" cx="26" cy="26" r="26" transform="translate(169)" fill="#ffa00a"/>
    <g id="dashboard" transform="translate(182.5 13.5)">
      <path id="Path_4047" data-name="Path 4047" d="M9.767,0H1.953A1.956,1.956,0,0,0,0,1.953V12.892a1.956,1.956,0,0,0,1.953,1.953H9.767a1.956,1.956,0,0,0,1.953-1.953V1.953A1.956,1.956,0,0,0,9.767,0Zm1.172,12.892a1.173,1.173,0,0,1-1.172,1.172H1.953A1.173,1.173,0,0,1,.781,12.892V1.953A1.173,1.173,0,0,1,1.953.781H9.767a1.173,1.173,0,0,1,1.172,1.172Z" fill="#fff"/>
      <path id="Path_4047_-_Outline" data-name="Path 4047 - Outline" d="M1.953-.5H9.767A2.456,2.456,0,0,1,12.22,1.953V12.892a2.456,2.456,0,0,1-2.453,2.453H1.953A2.456,2.456,0,0,1-.5,12.892V1.953A2.456,2.456,0,0,1,1.953-.5ZM9.767,13.564a.673.673,0,0,0,.672-.672V1.953a.673.673,0,0,0-.672-.672H1.953a.673.673,0,0,0-.672.672V12.892a.673.673,0,0,0,.672.672Z" transform="translate(0 -1)" fill="#fff"/>
      <path id="Path_4048" data-name="Path 4048" d="M9.767,336H1.953A1.956,1.956,0,0,0,0,337.953v4.688a1.956,1.956,0,0,0,1.953,1.953H9.767a1.956,1.956,0,0,0,1.953-1.953v-4.688A1.956,1.956,0,0,0,9.767,336Zm1.172,6.641a1.173,1.173,0,0,1-1.172,1.172H1.953a1.173,1.173,0,0,1-1.172-1.172v-4.688a1.173,1.173,0,0,1,1.172-1.172H9.767a1.173,1.173,0,0,1,1.172,1.172Z" transform="translate(0 -319.592)" fill="#fff"/>
      <path id="Path_4048_-_Outline" data-name="Path 4048 - Outline" d="M1.953,335.5H9.767a2.456,2.456,0,0,1,2.453,2.453v4.688a2.456,2.456,0,0,1-2.453,2.453H1.953A2.456,2.456,0,0,1-.5,342.641v-4.688A2.456,2.456,0,0,1,1.953,335.5Zm7.813,7.813a.673.673,0,0,0,.672-.672v-4.688a.673.673,0,0,0-.672-.672H1.953a.673.673,0,0,0-.672.672v4.688a.673.673,0,0,0,.672.672Z" transform="translate(0 -319.592)" fill="#fff"/>
      <path id="Path_4049" data-name="Path 4049" d="M283.72,220.892V209.953A1.956,1.956,0,0,0,281.767,208h-7.813A1.956,1.956,0,0,0,272,209.953v10.939a1.956,1.956,0,0,0,1.953,1.953h7.813A1.956,1.956,0,0,0,283.72,220.892Zm-.781,0a1.173,1.173,0,0,1-1.172,1.172h-7.813a1.173,1.173,0,0,1-1.172-1.172V209.953a1.173,1.173,0,0,1,1.172-1.172h7.813a1.173,1.173,0,0,1,1.172,1.172Z" transform="translate(-258.717 -197.843)" fill="#fff"/>
      <path id="Path_4049_-_Outline" data-name="Path 4049 - Outline" d="M281.767,223.345h-7.813a2.456,2.456,0,0,1-2.453-2.453V209.953a2.456,2.456,0,0,1,2.453-2.453h7.813a2.456,2.456,0,0,1,2.453,2.453v10.939A2.456,2.456,0,0,1,281.767,223.345Zm-7.813-14.064a.673.673,0,0,0-.672.672v10.939a.673.673,0,0,0,.672.672h7.813a.673.673,0,0,0,.672-.672V209.953a.673.673,0,0,0-.672-.672Z" transform="translate(-258.717 -197.843)" fill="#fff"/>
      <path id="Path_4050" data-name="Path 4050" d="M283.72,6.641V1.953A1.956,1.956,0,0,0,281.767,0h-7.813A1.956,1.956,0,0,0,272,1.953V6.641a1.956,1.956,0,0,0,1.953,1.953h7.813A1.956,1.956,0,0,0,283.72,6.641Zm-.781,0a1.173,1.173,0,0,1-1.172,1.172h-7.813a1.173,1.173,0,0,1-1.172-1.172V1.953A1.173,1.173,0,0,1,273.953.781h7.813a1.173,1.173,0,0,1,1.172,1.172Z" transform="translate(-258.717)" fill="#fff"/>
      <path id="Path_4050_-_Outline" data-name="Path 4050 - Outline" d="M281.767,9.095h-7.813A2.456,2.456,0,0,1,271.5,6.641V1.953A2.456,2.456,0,0,1,273.953-.5h7.813a2.456,2.456,0,0,1,2.453,2.453V6.641A2.456,2.456,0,0,1,281.767,9.095Zm-7.813-7.813a.673.673,0,0,0-.672.672V6.641a.673.673,0,0,0,.672.672h7.813a.673.673,0,0,0,.672-.672V1.953a.673.673,0,0,0-.672-.672Z" transform="translate(-258.717 -1)" fill="#fff"/>
    </g>
  </g>
</svg>
