<svg xmlns="http://www.w3.org/2000/svg" width="69" height="65.298" viewBox="0 0 69 65.298">
  <path id="Path_4014" data-name="Path 4014" d="M12.808,2.211A4.3,4.3,0,0,1,16.086.688H52.914a4.3,4.3,0,0,1,3.278,1.524L67.443,15.462A6.564,6.564,0,0,1,69,19.711v1.11a10.41,10.41,0,0,1-1.907,6.009A10.253,10.253,0,0,1,62.081,30.6a10.185,10.185,0,0,1-11.409-3.434,10.191,10.191,0,0,1-8.086,3.992A10.186,10.186,0,0,1,34.5,27.168a10.186,10.186,0,0,1-16.172,0A10.189,10.189,0,0,1,1.907,26.83,10.406,10.406,0,0,1,0,20.821v-1.11a6.566,6.566,0,0,1,1.557-4.249L12.812,2.207Zm7.676,18.61a6.015,6.015,0,0,0,1.737,4.233,5.891,5.891,0,0,0,8.386,0,6.014,6.014,0,0,0,1.737-4.233,2.187,2.187,0,0,1,.632-1.539,2.142,2.142,0,0,1,3.049,0,2.187,2.187,0,0,1,.632,1.539,6.014,6.014,0,0,0,1.737,4.233,5.891,5.891,0,0,0,8.386,0,6.015,6.015,0,0,0,1.737-4.233,2.187,2.187,0,0,1,.632-1.539,2.142,2.142,0,0,1,3.049,0,2.187,2.187,0,0,1,.632,1.539,6.015,6.015,0,0,0,1.737,4.233,5.891,5.891,0,0,0,8.386,0,6.014,6.014,0,0,0,1.737-4.233v-1.11A2.189,2.189,0,0,0,64.17,18.3L52.914,5.041H16.086L4.83,18.3a2.189,2.189,0,0,0-.517,1.415v1.11a6.015,6.015,0,0,0,1.737,4.233,5.891,5.891,0,0,0,8.386,0,6.015,6.015,0,0,0,1.737-4.233,2.187,2.187,0,0,1,.632-1.539,2.142,2.142,0,0,1,3.049,0A2.187,2.187,0,0,1,20.484,20.821ZM6.469,33.336a2.146,2.146,0,0,1,1.525.637,2.187,2.187,0,0,1,.632,1.539V61.632h4.313V39.866A4.374,4.374,0,0,1,14.2,36.788a4.292,4.292,0,0,1,3.049-1.275H30.188a4.292,4.292,0,0,1,3.049,1.275A4.374,4.374,0,0,1,34.5,39.866V61.632H60.375V35.513a2.187,2.187,0,0,1,.632-1.539,2.142,2.142,0,0,1,3.049,0,2.187,2.187,0,0,1,.632,1.539V61.632h2.157a2.146,2.146,0,0,1,1.525.638,2.192,2.192,0,0,1,0,3.078,2.146,2.146,0,0,1-1.525.637H2.156a2.146,2.146,0,0,1-1.525-.637,2.191,2.191,0,0,1,0-3.078,2.146,2.146,0,0,1,1.525-.638H4.313V35.513a2.187,2.187,0,0,1,.632-1.539A2.146,2.146,0,0,1,6.469,33.336Zm10.781,28.3H30.188V39.866H17.25ZM38.813,39.866a4.374,4.374,0,0,1,1.263-3.078,4.292,4.292,0,0,1,3.049-1.275H51.75A4.292,4.292,0,0,1,54.8,36.788a4.374,4.374,0,0,1,1.263,3.078v13.06A4.374,4.374,0,0,1,54.8,56a4.292,4.292,0,0,1-3.049,1.275H43.125A4.292,4.292,0,0,1,40.076,56a4.374,4.374,0,0,1-1.263-3.078Zm12.938,0H43.125v13.06H51.75Z" transform="translate(0 -0.688)" fill="#cf1818"/>
</svg>
