<svg xmlns="http://www.w3.org/2000/svg" width="43.509" height="37.294" viewBox="0 0 43.509 37.294">
  <g id="Icon_ionic-md-images" data-name="Icon ionic-md-images" transform="translate(-2.252 -4.502)" opacity="0.2">
    <path id="Path_565" data-name="Path 565" d="M43.583,11.9l-8.012-.388L35.1,6.286a2.005,2.005,0,0,0-2.224-1.777L4.143,6.869A1.982,1.982,0,0,0,2.259,8.976l2.059,22.9a2.011,2.011,0,0,0,2.224,1.777L8,33.538l-.233,4.448a2.206,2.206,0,0,0,2.175,2.282L42,41.793a2.228,2.228,0,0,0,2.409-2.059l1.35-25.572A2.2,2.2,0,0,0,43.583,11.9Zm-34.468.515-.69,13.092-1.7,2.4L5.163,10.618v-.1A1.052,1.052,0,0,1,6.1,9.608L31.443,7.529a.937.937,0,0,1,1.02.767c0,.019.029.019.029.039s.029.019.029.039l.262,2.991-21.269-1.02A2.24,2.24,0,0,0,9.115,12.414ZM41.553,35.422l-8.236-9.663L29.685,29.09l-6.721-7.847L11.048,33.936,12.058,14.6v-.039a1.111,1.111,0,0,1,1.156-.874L41.5,15.046a1.032,1.032,0,0,1,1.01.991c0,.019.029.029.029.049Z" transform="translate(0 0)"/>
    <path id="Path_566" data-name="Path 566" d="M27.858,19.716a3.108,3.108,0,1,0-3.108-3.108A3.117,3.117,0,0,0,27.858,19.716Z" transform="translate(8.577 3.431)"/>
  </g>
</svg>
