<svg id="Group_14718" data-name="Group 14718" xmlns="http://www.w3.org/2000/svg" width="215.787" height="185.289" viewBox="0 0 215.787 185.289">
  <path id="Path_3801" data-name="Path 3801" d="M216.308,172.621l-8.642,67.665,4.531-.059,8.642-66.973Z" transform="translate(-68.634 -56.83)" fill="#d2d2d2" fill-rule="evenodd"/>
  <path id="Path_3802" data-name="Path 3802" d="M219.323,172.621l8.643,67.665-4.531-.059-8.642-66.973Z" transform="translate(-67.975 -56.83)" fill="#d2d2d2" fill-rule="evenodd"/>
  <path id="Path_3803" data-name="Path 3803" d="M243.441,172.621l8.642,67.665-4.531-.059-8.642-66.973Z" transform="translate(-65.746 -56.83)" fill="#d2d2d2" fill-rule="evenodd"/>
  <path id="Path_3804" data-name="Path 3804" d="M190.069,188.892a7.069,7.069,0,1,1,0-14.138h25.192a12.112,12.112,0,0,0,12.058-10.968l3.907-41.152a12.112,12.112,0,0,1,12.058-10.968h10.46a12.113,12.113,0,0,1,12.077,13.049l-4.11,53a12.113,12.113,0,0,1-12.077,11.176Z" transform="translate(-70.914 -62.465)" fill="#d2d2d2" fill-rule="evenodd"/>
  <path id="Path_3805" data-name="Path 3805" d="M183,181.763h59.45a12.113,12.113,0,0,0,12.076-11.173l4.1-52.785a12.047,12.047,0,0,0-.8-5.361,12.066,12.066,0,0,0-4.285-.779H243.176a12.112,12.112,0,0,0-12.058,10.965l-3.9,40.979a12.113,12.113,0,0,1-12.058,10.965H190.051A7.051,7.051,0,0,0,183,181.625C183,181.672,183,181.718,183,181.763Z" transform="translate(-70.914 -62.465)" fill="#b2b0b0" fill-rule="evenodd"/>
  <path id="Path_3806" data-name="Path 3806" d="M189.176,214.72s3.762,8.916.678,11.281-9.095,8.211-9.095,8.211l19.461-4.173-4.8-16.359Z" transform="translate(-71.121 -53.035)" fill="#fff" fill-rule="evenodd"/>
  <path id="Path_3807" data-name="Path 3807" d="M190.376,220.229s.478,4.184-.9,5.612-8.852,6.863-9.438,7.894.462,2.171.462,2.171,8.071.693,11.7-1.488c2.621-1.574,6.529-4.4,6.529-4.4l1.035,2.781,2.934-.119s.389-3.426-.307-5.069-4.282-10.006-4.282-10.006a12.18,12.18,0,0,1-2.847,1.843,14.932,14.932,0,0,0-3.3,2.307Z" transform="translate(-71.205 -52.672)" fill="#323740" fill-rule="evenodd"/>
  <path id="Path_3808" data-name="Path 3808" d="M223.232,154.118c-6.544.288-42.96,8.24-49.577,9.591s-12.209,8.662-7.164,17.127c5.666,9.5,20.288,36.488,23.837,42.572,1.758,3.011,10.622,1.323,8.54-3.731-3.881-9.421-5.684-33.089-15.58-41.718,0,0,33.279,5.718,47.654-.832C241.389,172.366,239.025,153.42,223.232,154.118Z" transform="translate(-72.62 -58.543)" fill="#42474f" fill-rule="evenodd"/>
  <path id="Path_3809" data-name="Path 3809" d="M177.735,117.058s.073-5.257-1.789-8-1.936-5.664-3.345-5.569-.014,6.878-.014,6.878a18.223,18.223,0,0,1-3.073-1.528c-1.285-.853-5.18-5.059-6.09-4.314-1.544,1.27.943,8.434,2.3,9.866s8.78,6.144,8.78,6.144l18.178,18.351,3.413-9.323Z" transform="translate(-72.769 -63.221)" fill="#ffe0d1" fill-rule="evenodd"/>
  <path id="Path_3810" data-name="Path 3810" d="M215.773,115.359c-3.043,6.969-8.616,19.773-10.913,23.592-2.88,4.784-7.42,6.891-12.736,3.342-1.411-.942-5.71-4.542-5.71-4.542l5.2-11.3,3.375,2.75S200.7,114.74,205.3,106.366C209.278,99.121,220.406,104.763,215.773,115.359Z" transform="translate(-70.599 -63.256)" fill="#ffa00a" fill-rule="evenodd"/>
  <path id="Path_3811" data-name="Path 3811" d="M194.381,127.11s-1.534,5.137-1.893,4.839.274-6.182.274-6.182Z" transform="translate(-70.047 -61.161)" fill="rgba(0,0,0,0.16)" fill-rule="evenodd"/>
  <path id="Path_3812" data-name="Path 3812" d="M193.118,125.209l-4.35,14.386-4.621-3.581,6.431-12.753Z" transform="translate(-70.808 -61.393)" fill="#fff" fill-rule="evenodd"/>
  <path id="Path_3813" data-name="Path 3813" d="M218.494,70.1s2.293-3.733,5.916-3.462,8.005,5.724,7.761,11.777,1.11,7,3.7,10.5c6.963,9.4-3.856,20.45-3.856,20.45l-14.344.037L217.185,83Z" transform="translate(-67.754 -66.628)" fill="#42474f" fill-rule="evenodd"/>
  <path id="Path_3814" data-name="Path 3814" d="M224.132,71.8c9.759,6.579,4.139,14.254,3.156,16.055-1.912,13.094,1.964,13.757,7.808,16.669l-2.043,3.6-8.381-1.541-6.992-34.11Z" transform="translate(-67.709 -66.15)" fill="rgba(0,0,0,0.2)" fill-rule="evenodd"/>
  <path id="Path_3815" data-name="Path 3815" d="M229.4,102.419s-4.984-.99-5.132-7.892.673-9.259.673-9.259l-9.4-.167s-.1,7.693-.1,10.476c0,6.766-5.279,7.551-5.279,7.551s1.1,5.352,9.613,5.825C226.425,109.322,229.4,102.419,229.4,102.419Z" transform="translate(-68.404 -64.921)" fill="#f9c7b0" fill-rule="evenodd"/>
  <path id="Path_3816" data-name="Path 3816" d="M224.034,71.884c.351-3.984-6.29-4.938-7.528-1.858,0,0-.344,2.743,1.816,3.808C221.243,75.269,224.034,71.884,224.034,71.884Z" transform="translate(-67.819 -66.483)" fill="#ffa00a" fill-rule="evenodd"/>
  <path id="Path_3817" data-name="Path 3817" d="M225.95,81.52c4.068-1.029,4.659,5.041.4,5.939,0,0-.685,8.947-9.277,10.773-6.977,1.483-9.517-8.235-10-10.179-.511-2.073-1.977-8.929-1.977-8.929l19.623-4.181Z" transform="translate(-68.872 -65.86)" fill="#ffe0d1" fill-rule="evenodd"/>
  <path id="Path_3818" data-name="Path 3818" d="M224.678,86.145c-.738-.04-1.741-3.828-1.741-3.828-2.177.035-2.644-.353-4.766-2.575-6.7,2.967-11.365,4.43-10.9,9.63,0,0-7.755-10.587.588-16.71,7.34-5.38,16.634-3.767,19.485,2.3a15.1,15.1,0,0,1,1.506,7.847,2.857,2.857,0,0,0-3.075-.657C224.115,82.94,225.415,86.185,224.678,86.145Z" transform="translate(-68.974 -66.372)" fill="#42474f" fill-rule="evenodd"/>
  <path id="Path_3819" data-name="Path 3819" d="M216.845,90.761a3.806,3.806,0,0,1-4.394,1.048" transform="translate(-68.192 -64.397)" fill="none" stroke="#f77b7b" stroke-linecap="round" stroke-width="1.5"/>
  <path id="Path_3820" data-name="Path 3820" d="M215.773,92.837a2.012,2.012,0,0,1-1.793.4" transform="translate(-68.051 -64.205)" fill="none" stroke="#f49494" stroke-linecap="round" stroke-width="1"/>
  <path id="Path_3821" data-name="Path 3821" d="M224.433,84.142c-.245-.942-.111-1.759.839-2.12" transform="translate(-67.094 -65.205)" fill="none" stroke="#f77b7b" stroke-linecap="round" stroke-width="1"/>
  <path id="Path_3822" data-name="Path 3822" d="M213.1,100.827c-.115-.005-4.134,1.736-4.6,2.408-3.015,4.373-8.552,19.764-8.837,23.1-.321,3.851,5.3,9.986,5.365,15.562s-2.4,22.367-1.448,23.935,7.18,9.018,8.48,9.049,2.283-3.881,4.264-3.8,6.086,5.271,7.859,5.234,20.07-11.5,18.672-14.766-7.937-11.382-7.271-15.833,5.91-20.873,7.805-26.463,3.411-10.044-.115-12.448-14.993-6.806-14.993-6.806l-10.269,5.679S213.694,100.855,213.1,100.827Z" transform="translate(-69.375 -63.543)" fill="#ffa00a" fill-rule="evenodd"/>
  <path id="Path_3823" data-name="Path 3823" d="M216.064,105.058c-3.08,10.125-7.306,20.1-9,29.594l4.924-2.623,4.541,3.4c-.32-9.87,1.356-20.233,2.127-30.373Z" transform="translate(-68.69 -63.076)" fill="#fff" fill-rule="evenodd"/>
  <path id="Path_3824" data-name="Path 3824" d="M233.214,112.593l.118.819c1.38,10.166-.253,22.5-3.083,24.385-2.888,1.922-14.131.036-14.131,1.558s15.536,15.467,12.986,22.133a9.229,9.229,0,0,0,1.408,9.779l.681-.452c5.306-3.558,10.94-8.1,10.14-9.966-1.407-3.266-7.937-11.382-7.271-15.833.631-4.27,5.5-19.579,7.563-25.742l.659-1.954a28.552,28.552,0,0,0,1.554-6.157l-.474-.3Q231.981,103.647,233.214,112.593Z" transform="translate(-67.853 -62.837)" fill="rgba(0,0,0,0.16)" fill-rule="evenodd"/>
  <path id="Path_3825" data-name="Path 3825" d="M228.642,100.722l-1.9-.717-10.494,5.385s1.973,4.963,5.468,2.492c2.994-2.114,1.732-3.973,4.079-4.933S228.642,100.722,228.642,100.722Z" transform="translate(-67.84 -63.543)" fill="#fff" fill-rule="evenodd"/>
  <path id="Path_3826" data-name="Path 3826" d="M216.728,105.33c-.76,1.67-2.307,2.646-3.107,2.342-1.32-.5-.753-2.5-1.273-3.506-.372-.716-.613-.824-.94-1.5a2.58,2.58,0,0,1-.237-1.56l1.032-.464s1.418,1.323,2.078,2.024C215.1,103.545,216.728,105.33,216.728,105.33Z" transform="translate(-68.314 -63.483)" fill="#fff" fill-rule="evenodd"/>
  <path id="Path_3827" data-name="Path 3827" d="M228.6,130.056s-6.178-5.4-8.07-6.025-12.967-1.38-12.9.036c.08,1.516,6.029,1.429,6.645,2.175s.756,5.846,3.086,6.418,9.3,1.56,9.3,1.56l16.676,9.929.713-9.073Z" transform="translate(-68.637 -61.393)" fill="#ffe0d1" fill-rule="evenodd"/>
  <path id="Path_3828" data-name="Path 3828" d="M242.9,108.847c6.509,9.069,12.066,22.884,14.2,28.27s-.019,13.509-9.4,11.914c-1.584-.269-5.137-1.349-5.137-1.349l-2.242-12.473,2.892,1.2s-9.323-16.314-11.6-20.687C227.817,108.416,237.172,100.856,242.9,108.847Z" transform="translate(-66.502 -63.042)" fill="#ffa00a" fill-rule="evenodd"/>
  <path id="Path_3829" data-name="Path 3829" d="M242.312,134.054s4.736,2.283,4.14,1.279-5.926-4.452-5.926-4.452Z" transform="translate(-65.597 -60.689)" fill="rgba(0,0,0,0.16)" fill-rule="evenodd"/>
  <path id="Path_3830" data-name="Path 3830" d="M242.136,133.4l1.548,13.489-6.123-1.923.924-13.218Z" transform="translate(-65.871 -60.609)" fill="#fff" fill-rule="evenodd"/>
  <path id="Path_3831" data-name="Path 3831" d="M169.288,214.908s.114,8.828-7.255,12.129-12.611,3.1-11.943,5.653,19.834,2.448,21.625.452c1.525-1.7,4.843-17.505,5.756-16.3Z" transform="translate(-73.962 -52.922)" fill="#fff" fill-rule="evenodd"/>
  <path id="Path_3832" data-name="Path 3832" d="M176.376,221.438a25.284,25.284,0,0,0-1.685,6.022c-.137,2.273-3.662,8.734-3.662,8.734l-2.785.345-.255-2.343a31.072,31.072,0,0,1-6.56,1.967c-2.528.271-11.2-.747-12.926-2.162s-.854-3.407,4.124-4.621,12.713-4.762,14.184-7.33a27.735,27.735,0,0,1,1.481-2.5l-.029,4.28s1.274-2.254,2.777-2.554A26.264,26.264,0,0,1,176.376,221.438Z" transform="translate(-74.178 -52.493)" fill="#323740" fill-rule="evenodd"/>
  <path id="Path_3833" data-name="Path 3833" d="M242.855,151.617s12.381,18.417-2.421,26.645c-12.642,7.024-51.63-1.2-51.63-1.2a45.785,45.785,0,0,1,0,10.4c-1.807,12.8-10.4,34.137-12.215,36.818-2.513,3.707-10.169.911-10.314-2.175s5.772-42.508,6.672-50.026,3.721-8.609,11.973-10.664c1.9-.472,24.317-5.973,26.37-5.813A79.54,79.54,0,0,0,242.855,151.617Z" transform="translate(-72.46 -58.772)" fill="#42474f" fill-rule="evenodd"/>
  <path id="Path_3834" data-name="Path 3834" d="M232.546,175.359c-12.8,1.416-46.684-1.5-48.045-.177-1.3,1.266-1.082,23.3-4,36.045,2.872-7.725,5.98-17.5,6.985-24.625a45.784,45.784,0,0,0,0-10.4l1.324.261c6.909,1.324,38.934,7.012,50.306.943q10.006-5.342,7.742-16.537Q244.131,174.077,232.546,175.359Z" transform="translate(-71.145 -57.917)" fill="rgba(255,255,255,0.19)" fill-rule="evenodd" opacity="0.44"/>
  <ellipse id="Ellipse_19" data-name="Ellipse 19" cx="2.15" cy="3.896" rx="2.15" ry="3.896" transform="translate(98.001 117.625) rotate(167)" fill="rgba(255,255,255,0.19)"/>
  <ellipse id="Ellipse_20" data-name="Ellipse 20" cx="2.865" cy="4.252" rx="2.865" ry="4.252" transform="translate(106.65 116.712) rotate(-164)" fill="rgba(255,255,255,0.19)"/>
  <path id="Path_3835" data-name="Path 3835" d="M147.889,107.563a2.692,2.692,0,0,1,2.082-3.954l18.009-1.932a2.691,2.691,0,0,1,2.63,1.35l11.915,21.043a2.691,2.691,0,0,1-1.886,3.979l-17.954,3.092a2.7,2.7,0,0,1-2.826-1.375Z" transform="translate(-74.19 -63.39)" fill="#cf1818"/>
  <path id="Path_3836" data-name="Path 3836" d="M148.659,107.487a2.692,2.692,0,0,1,1.957-3.923l17.553-2.774a2.691,2.691,0,0,1,2.8,1.4l11.443,21.521a2.692,2.692,0,0,1-1.957,3.923L162.9,130.4a2.693,2.693,0,0,1-2.8-1.4Z" transform="translate(-74.118 -63.473)" fill="#fff" fill-rule="evenodd"/>
  <path id="Path_3837" data-name="Path 3837" d="M148.738,105.261l20.772-3.539,12.755,23.99-20.671,3.147Z" transform="translate(-74.081 -63.384)" fill="#fff"/>
  <path id="Path_3838" data-name="Path 3838" d="M153.774,102.74a.875.875,0,0,1,.636-1.31l7.228-.984a1.749,1.749,0,0,1,1.742.846l1,1.7a.873.873,0,0,1-.635,1.309l-7.228.984a1.749,1.749,0,0,1-1.742-.844Z" transform="translate(-73.627 -63.504)" fill="#cf1818"/>
  <path id="Path_3839" data-name="Path 3839" d="M164.381,108.145a.566.566,0,0,1,.588.966l-.057.034-9.244,1.558a.566.566,0,0,1-.588-.966l.057-.034Z" transform="translate(-73.518 -62.797)" fill="#cf1818" fill-rule="evenodd"/>
  <path id="Path_3840" data-name="Path 3840" d="M166.812,112.72a.566.566,0,0,1,.589.966l-.057.034-9.244,1.558a.566.566,0,0,1-.588-.966l.057-.034Z" transform="translate(-73.293 -62.374)" fill="#cf1818" fill-rule="evenodd"/>
  <path id="Path_3841" data-name="Path 3841" d="M169.246,117.295a.566.566,0,0,1,.588.966l-.057.034-9.243,1.558a.566.566,0,0,1-.589-.966l.057-.034Z" transform="translate(-73.068 -61.951)" fill="#cf1818" fill-rule="evenodd"/>
  <path id="Path_3842" data-name="Path 3842" d="M147.01,154.862h14.313v88.9H147.01Z" transform="translate(-74.241 -58.472)" fill="#d2d2d2" fill-rule="evenodd"/>
  <path id="Path_3843" data-name="Path 3843" d="M147.01,151.665H155.6v92.392H147.01Z" transform="translate(-74.241 -58.768)" fill="#ebebeb" fill-rule="evenodd"/>
  <path id="Path_3844" data-name="Path 3844" d="M87.4,154.862h70.85v26.664H101.715v62.235H87.4Z" transform="translate(-79.751 -58.472)" fill="#d2d2d2" fill-rule="evenodd"/>
  <path id="Path_3845" data-name="Path 3845" d="M87.4,154.862H95.99v88.9H87.4Z" transform="translate(-79.751 -58.472)" fill="#ebebeb" fill-rule="evenodd"/>
  <path id="Path_3846" data-name="Path 3846" d="M249.588,154.862H263.9v88.9H249.588Z" transform="translate(-64.759 -58.472)" fill="#c5c5c5" fill-rule="evenodd"/>
  <path id="Path_3847" data-name="Path 3847" d="M189.98,154.862h70.85v33.006H204.293v55.893H189.98Z" transform="translate(-70.269 -58.472)" fill="#d2d2d2" fill-rule="evenodd"/>
  <path id="Path_3848" data-name="Path 3848" d="M97.879,151.665H207V188.1H97.879Z" transform="translate(-78.783 -58.768)" fill="#ebebeb" fill-rule="evenodd"/>
  <path id="Path_3849" data-name="Path 3849" d="M188.014,154.862H196.6V187.8h-8.588Z" transform="translate(-70.451 -58.472)" fill="#c3c3c3" fill-rule="evenodd"/>
  <path id="Path_3850" data-name="Path 3850" d="M189.98,154.862h8.589v88.9H189.98Z" transform="translate(-70.269 -58.472)" fill="#ebebeb" fill-rule="evenodd"/>
  <path id="Path_3851" data-name="Path 3851" d="M192.631,156.9a5.239,5.239,0,0,1,5.238-5.239H271.8a5.239,5.239,0,1,1,0,10.478H197.869A5.239,5.239,0,0,1,192.631,156.9Z" transform="translate(-70.024 -58.768)" fill="#c5c5c5" fill-rule="evenodd"/>
  <path id="Path_3852" data-name="Path 3852" d="M90.094,153.583H199.213v10.478H90.094Z" transform="translate(-79.502 -58.59)" fill="#d2d2d2" fill-rule="evenodd"/>
  <path id="Path_3853" data-name="Path 3853" d="M80.4,156.9a5.239,5.239,0,0,1,5.239-5.239H210.614a5.239,5.239,0,1,1,0,10.478H85.637A5.239,5.239,0,0,1,80.4,156.9Z" transform="translate(-80.398 -58.768)" fill="#ebebeb" fill-rule="evenodd"/>
  <path id="Path_3854" data-name="Path 3854" d="M215.629,141.857H219.2a1.223,1.223,0,0,1,1.25,1.2v1.637a2.9,2.9,0,0,1-2.963,2.832h-1.861a.512.512,0,1,1,0-1.024h1.861a1.851,1.851,0,0,0,1.891-1.808v-1.637a.174.174,0,0,0-.178-.17h-3.574a.513.513,0,1,1,0-1.025Z" transform="translate(-67.948 -59.674)" fill="#cf1818" fill-rule="evenodd"/>
  <path id="Path_3855" data-name="Path 3855" d="M204.839,140.665a1.4,1.4,0,0,0-1.429,1.366v3.414a4.865,4.865,0,0,0,4.437,4.75v.712H214.1v-.729a4.856,4.856,0,0,0,4.309-4.734v-3.414a1.4,1.4,0,0,0-1.429-1.366Z" transform="translate(-69.028 -59.784)" fill="#cf1818" fill-rule="evenodd"/>
  <path id="Path_3856" data-name="Path 3856" d="M218.654,149.767a.353.353,0,0,0-.353-.352h-14.3a.352.352,0,0,0-.022.7l5.274.335h3.749l5.317-.335A.352.352,0,0,0,218.654,149.767Z" transform="translate(-69.005 -58.976)" fill="#cf1818" fill-rule="evenodd"/>
  <path id="Path_3857" data-name="Path 3857" d="M128.385,149.579a.974.974,0,0,1,.974-.974h68.6a.974.974,0,1,1,0,1.949h-68.6A.974.974,0,0,1,128.385,149.579Z" transform="translate(-75.963 -59.05)" fill="#cf1818" fill-rule="evenodd"/>
  <path id="Path_3858" data-name="Path 3858" d="M170.928,149.579a.974.974,0,0,1,.974-.974H194.03a.974.974,0,0,1,0,1.949H171.9A.974.974,0,0,1,170.928,149.579Z" transform="translate(-72.03 -59.05)" fill="#cf1818" fill-rule="evenodd"/>
  <path id="Path_3859" data-name="Path 3859" d="M125.526,126.1a3.933,3.933,0,0,1,3.9-4.435h39.981a3.933,3.933,0,0,1,3.9,3.43l2.789,21.649a3.933,3.933,0,0,1-3.9,4.435H132.216a3.933,3.933,0,0,1-3.9-3.43Z" transform="translate(-76.23 -61.541)" fill="#cf1818" fill-rule="evenodd"/>
  <path id="Path_3860" data-name="Path 3860" d="M125.526,126.1a3.933,3.933,0,0,1,3.9-4.435h38.46a3.932,3.932,0,0,1,3.9,3.43l2.79,21.649a3.933,3.933,0,0,1-3.9,4.435h-38.46a3.933,3.933,0,0,1-3.9-3.43Z" transform="translate(-76.23 -61.541)" fill="#fff" fill-rule="evenodd"/>
  <ellipse id="Ellipse_21" data-name="Ellipse 21" cx="3.02" cy="3.291" rx="3.02" ry="3.291" transform="matrix(0.799, -0.602, 0.602, 0.799, 68.648, 74.54)" fill="#fff"/>
  <path id="Path_3861" data-name="Path 3861" d="M263.161,206.336q6.52-14.491,11.911-29.723c-8.328,7.71-14.8,17.1-13.881,29.723Z" transform="translate(-63.695 -56.461)" fill="#51cf66" fill-rule="evenodd"/>
  <path id="Path_3862" data-name="Path 3862" d="M260.9,208.173c-1.029-16.473-.593-31.771,8.031-40.508-1.19,18.086-3.415,30.827-6.232,40.508Z" transform="translate(-63.75 -57.289)" fill="#51cf66" fill-rule="evenodd"/>
  <path id="Path_3863" data-name="Path 3863" d="M261.66,205.427C256.842,193.916,252,190.617,248,178.8c13.1,6.672,13.917,12.18,16.487,26.626Z" transform="translate(-64.906 -56.259)" fill="#51cf66" fill-rule="evenodd"/>
  <path id="Path_3864" data-name="Path 3864" d="M258.861,204.148l-8.642-11.511c4.173,1.169,11.15,3.062,11.15,11.511Z" transform="translate(-64.701 -54.98)" fill="#51cf66" fill-rule="evenodd"/>
  <path id="Path_3865" data-name="Path 3865" d="M265.529,203.86h2.883c1.833-3.758,4.415-6.345,10.661-3.209C274.979,194.524,266.578,192.67,265.529,203.86Z" transform="translate(-63.286 -54.692)" fill="#51cf66" fill-rule="evenodd"/>
  <path id="Path_3866" data-name="Path 3866" d="M263.1,204.372h2.4a158.152,158.152,0,0,1,10.846-14.155C270.346,192.453,264.189,195.5,263.1,204.372Z" transform="translate(-63.51 -55.204)" fill="#51cf66" fill-rule="evenodd"/>
  <path id="Path_3867" data-name="Path 3867" d="M258.182,201.934h11.923a.815.815,0,0,1,.822.807v2.22q4.523,5.6,4.523,11.2a18.646,18.646,0,0,1-3.862,10.857.827.827,0,0,1-.674.345h-13.54a.827.827,0,0,1-.674-.345,18.647,18.647,0,0,1-3.862-10.857q0-5.5,4.353-10.991l.169-.212v-2.22A.815.815,0,0,1,258.182,201.934Z" transform="translate(-64.459 -54.121)" fill="#cf1818" fill-rule="evenodd"/>
  <g id="Group_14686" data-name="Group 14686" transform="translate(185.501 147.114)">
    <path id="Path_3868" data-name="Path 3868" d="M250.2,201.294h10.69c-5.118,11.7,4.977,18.623,0,30.276H250.2Z" transform="translate(-250.203 -201.294)" fill="#cf1818" fill-rule="evenodd"/>
  </g>
</svg>
