<svg xmlns="http://www.w3.org/2000/svg" xmlns:xlink="http://www.w3.org/1999/xlink" width="340" height="231.697" viewBox="0 0 340 231.697">
  <defs>
    <linearGradient id="linear-gradient" x1="0.5" y1="1" x2="0.5" gradientUnits="objectBoundingBox">
      <stop offset="0" stop-color="gray" stop-opacity="0.251"/>
      <stop offset="0.535" stop-color="gray" stop-opacity="0.122"/>
      <stop offset="1" stop-color="gray" stop-opacity="0.102"/>
    </linearGradient>
  </defs>
  <g id="undraw_Designer_by46" transform="translate(0 0)">
    <path id="Path_4018" data-name="Path 4018" d="M234.329,622.294c-2.445,9.309-11.011,15.127-11.011,15.127s-4.6-9.276-2.158-18.585,11.01-15.127,11.01-15.127S236.773,612.985,234.329,622.294Z" transform="translate(-183.287 -434.063)" fill="#51cf66"/>
    <path id="Path_4019" data-name="Path 4019" d="M235.382,637.43c-6.847,6.764-7.613,17.091-7.613,17.091s10.335-.641,17.182-7.405,7.613-17.091,7.613-17.091S242.228,630.665,235.382,637.43Z" transform="translate(-188.048 -451.168)" fill="#51cf66"/>
    <rect id="Rectangle_836" data-name="Rectangle 836" width="37.42" height="15.923" rx="7.962" transform="translate(23.818 200.632)" fill="#ffa00a"/>
    <g id="Group_14810" data-name="Group 14810" transform="translate(284.73 184.723)" opacity="0.7">
      <path id="Path_4020" data-name="Path 4020" d="M956.492,652.523v-5.737H927.805v26.537a5.594,5.594,0,0,0,5.594,5.594h17.5a5.594,5.594,0,0,0,5.594-5.594v-5.881a7.459,7.459,0,1,0,0-14.918Zm0,12.049v-9.18a4.59,4.59,0,0,1,0,9.18Z" transform="translate(-927.805 -646.785)" fill="url(#linear-gradient)"/>
    </g>
    <path id="Path_4021" data-name="Path 4021" d="M994.492,665.744a6.81,6.81,0,1,0,6.81,6.81A6.811,6.811,0,0,0,994.492,665.744Zm0,11a4.191,4.191,0,1,1,4.191-4.191,4.191,4.191,0,0,1-4.191,4.191Z" transform="translate(-681.994 -474.386)" fill="#cf1818"/>
    <path id="Path_4022" data-name="Path 4022" d="M994.492,665.744a6.81,6.81,0,1,0,6.81,6.81A6.811,6.811,0,0,0,994.492,665.744Zm0,11a4.191,4.191,0,1,1,4.191-4.191,4.191,4.191,0,0,1-4.191,4.191Z" transform="translate(-681.994 -474.386)" opacity="0.1"/>
    <path id="Path_4023" data-name="Path 4023" d="M818.016,531.776H844.21V557.7a3.412,3.412,0,0,1-3.412,3.413H821.428a3.412,3.412,0,0,1-3.412-3.413Z" transform="translate(-531.714 -345.657)" fill="#ffa00a"/>
    <rect id="Rectangle_837" data-name="Rectangle 837" width="340" height="11.525" transform="translate(0 215.457)" fill="#cecece"/>
    <g id="Group_14811" data-name="Group 14811" transform="translate(108.638 0)" opacity="0.7">
      <path id="Path_4024" data-name="Path 4024" d="M539.676,257.341c-3.644-13.227-24.3-22.886-39.847-25.027,0-.1.007-.194.007-.292V220.7l.05-.017v-.429a38.828,38.828,0,0,0,23.454-24.581,41.974,41.974,0,0,0,2.5-5.4c1.659-.6,2.913-3.341,2.913-6.629a11.581,11.581,0,0,0-.468-3.323,42.537,42.537,0,0,0,.311-5.047A42.062,42.062,0,0,0,514.7,143.994a8.215,8.215,0,0,0,.131-2.057c-.352-5.434-6.156-9.127-11.6-9.373a11.48,11.48,0,0,0,1.936-12.123c-3.469,5.054-10.59,5.591-16.72,5.631a5.015,5.015,0,0,0,2.3-7.072c-6.406,8.587-18.895,10.177-26.514,17.708a22.353,22.353,0,0,0-4.123,5.623,42.084,42.084,0,0,0-15.862,32.947,42.55,42.55,0,0,0,.305,5,11.536,11.536,0,0,0-.483,3.369c0,3.3,1.265,6.048,2.936,6.635a41.96,41.96,0,0,0,2.514,5.413,38.82,38.82,0,0,0,23.289,24.495v11.831c0,.091.005.181.007.272-15.6,2.1-36.427,11.84-40.039,25.173-3.119,11.514-6.448,24.16-8.1,31.584,14.2,9.977,43.992,15.835,62.664,15.835,17.74,0,46.736-5.287,60.517-14.372C546.365,282.355,542.931,269.155,539.676,257.341Z" transform="translate(-424.678 -119)" fill="url(#linear-gradient)"/>
    </g>
    <path id="Path_4025" data-name="Path 4025" d="M491.345,509.9c17.113,0,45.084-5.1,58.378-13.864-1.44-7.869-4.753-20.6-7.892-32-4-14.514-29.234-24.575-44.289-24.575H483.036c-15.1,0-40.373,10.12-44.321,24.7-3.009,11.107-6.22,23.306-7.818,30.468C444.593,504.253,473.334,509.9,491.345,509.9Z" transform="translate(-320.082 -327.304)" fill="#cf1818"/>
    <circle id="Ellipse_27" data-name="Ellipse 27" cx="40.682" cy="40.682" r="40.682" transform="translate(129.698 16.891)" fill="#191919"/>
    <path id="Path_4026" data-name="Path 4026" d="M449.291,261.311h26.067v20.854A13.034,13.034,0,0,1,462.325,295.2h0a13.034,13.034,0,0,1-13.034-13.034V261.311Z" transform="translate(-292.041 -169.853)" opacity="0.1"/>
    <path id="Path_4027" data-name="Path 4027" d="M453.03,258.553H471.62a3.739,3.739,0,0,1,3.739,3.739v17.115a13.034,13.034,0,0,1-13.034,13.034h0a13.034,13.034,0,0,1-13.034-13.034V262.292A3.739,3.739,0,0,1,453.03,258.553Z" transform="translate(-292.041 -168.06)" fill="#8f6856"/>
    <path id="Path_4028" data-name="Path 4028" d="M563.709,402.621a37.516,37.516,0,0,0,26.067.072v-3.2H563.709Z" transform="translate(-406.411 -301.32)" opacity="0.1"/>
    <circle id="Ellipse_28" data-name="Ellipse 28" cx="37.363" cy="37.363" r="37.363" transform="translate(133.017 28.32)" fill="#8f6856"/>
    <path id="Path_4029" data-name="Path 4029" d="M525.046,192.106s15.746,31.963,60.165,13.4L574.87,189.286l-18.331-6.581Z" transform="translate(-381.28 -160.409)" opacity="0.1"/>
    <path id="Path_4030" data-name="Path 4030" d="M525.046,190.763s15.746,31.963,60.165,13.4L574.87,187.943l-18.331-6.581Z" transform="translate(-381.28 -159.535)" fill="#191919"/>
    <path id="Path_4031" data-name="Path 4031" d="M523.2,154.167a21.584,21.584,0,0,1,5.35-8.7c7.35-7.265,19.4-8.8,25.577-17.082a4.837,4.837,0,0,1-2.216,6.822c5.913-.038,12.783-.557,16.129-5.432a11.074,11.074,0,0,1-1.867,11.694c5.248.238,10.847,3.8,11.187,9.042.226,3.492-1.964,6.8-4.834,8.8s-6.342,2.922-9.76,3.676C552.788,165.188,516.688,174.407,523.2,154.167Z" transform="translate(-379.572 -125.099)" fill="#191919"/>
    <path id="Path_4032" data-name="Path 4032" d="M569.087,307.6H568.1l-19.271,17.156c-18.566-8.7-32.2,0-32.2,0l-20.212-16.451-2.038.256a37.36,37.36,0,1,0,74.714-.961Zm-37.419,23.737c-7.269,0-13.161-1.473-13.161-3.29s5.892-3.29,13.161-3.29,13.161,1.473,13.161,3.29S538.937,331.339,531.669,331.339Z" transform="translate(-361.345 -241.592)" fill="#191919"/>
    <ellipse id="Ellipse_29" data-name="Ellipse 29" cx="3.476" cy="6.517" rx="3.476" ry="6.517" transform="translate(129.527 59.131)" fill="#8f6856"/>
    <ellipse id="Ellipse_30" data-name="Ellipse 30" cx="3.476" cy="6.517" rx="3.476" ry="6.517" transform="translate(204.263 59.131)" fill="#8f6856"/>
    <g id="Group_14812" data-name="Group 14812" transform="translate(97.704 132.195)" opacity="0.7">
      <rect id="Rectangle_838" data-name="Rectangle 838" width="144.592" height="83.262" rx="14.5" fill="url(#linear-gradient)"/>
    </g>
    <rect id="Rectangle_839" data-name="Rectangle 839" width="139.353" height="81.726" rx="17" transform="translate(100.324 133.731)" fill="#191919"/>
    <circle id="Ellipse_31" data-name="Ellipse 31" cx="4.715" cy="4.715" r="4.715" transform="translate(165.285 169.879)" fill="#cf1818"/>
    <rect id="Rectangle_840" data-name="Rectangle 840" width="311.187" height="4.715" transform="translate(14.407 226.983)" fill="#cecece"/>
    <rect id="Rectangle_841" data-name="Rectangle 841" width="311.187" height="1.572" transform="translate(14.407 226.983)" opacity="0.1"/>
    <path id="Path_4033" data-name="Path 4033" d="M984.179,650.776v24.23a5.108,5.108,0,0,1-5.108,5.108h2.619a5.108,5.108,0,0,0,5.108-5.108v-24.23Z" transform="translate(-676.397 -464.657)" opacity="0.1"/>
    <path id="Path_4034" data-name="Path 4034" d="M944.733,593.734a1.529,1.529,0,0,0-1.157.587c-.344.623.279,1.325.847,1.753a11.269,11.269,0,0,1,2.87,2.671,3.348,3.348,0,0,1,.158,3.7c-1.018,1.381-3.448,1.678-3.683,3.378-.151,1.091.792,2.022,1.748,2.57,2.359,1.352,5.4,1.712,7.11,3.827a5.512,5.512,0,0,1,3.865-2.653c1.576-.359,3.214-.332,4.812-.576a1.663,1.663,0,0,0,1.328-.7c.447-.907-.826-1.994-.387-2.9.334-.693,1.317-.639,2.034-.917a2.65,2.65,0,0,0,1.319-3.163,5.954,5.954,0,0,0-2.253-2.926,25.238,25.238,0,0,0-9.074-4.195,23.259,23.259,0,0,0-4.823-1.116A24.121,24.121,0,0,0,944.733,593.734Z" transform="translate(-653.262 -427.143)" fill="#eee"/>
  </g>
</svg>
