<svg xmlns="http://www.w3.org/2000/svg" xmlns:xlink="http://www.w3.org/1999/xlink" width="24.606" height="22.671" viewBox="0 0 24.606 22.671">
  <defs>
    <clipPath id="clip-path">
      <rect id="Rectangle_713" data-name="Rectangle 713" width="24.606" height="22.671" fill="#fff"/>
    </clipPath>
  </defs>
  <g id="Group_14605" data-name="Group 14605" clip-path="url(#clip-path)">
    <path id="Path_3617" data-name="Path 3617" d="M218.073,43.033h2.461V45.3h11.072s-.183-5.055-.246-6.636c-.062-1.5-.646-2.433-2.461-2.433h-3.947l-1.473-2.557c-.407-.706-.546-.843-1.451-.843h-5.454c-.9,0-1.042.137-1.451.843-.2.353-.861,1.494-1.471,2.557h-3.948c-1.816,0-2.393.93-2.46,2.433S207,45.3,207,45.3h11.073ZM216.41,35c.283-.49.379-.585,1.005-.585h3.773c.626,0,.723.1,1,.585l.707,1.229h-7.2Zm4.123,13.7h-2.461V46.434H207.615s.153,2.037.245,3.766c.038.718.268,1.9,2.215,1.9H228.53c1.946,0,2.172-1.187,2.214-1.9.107-1.777.246-3.766.246-3.766H220.534Z" transform="translate(-207 -31.698)" fill="#fff"/>
  </g>
</svg>
