<svg xmlns="http://www.w3.org/2000/svg" width="183.55" height="164.867" viewBox="0 0 183.55 164.867">
  <g id="Layer_2" data-name="Layer 2" transform="translate(0 -0.021)">
    <g id="character" transform="translate(0 0.021)">
      <path id="Path_4832" data-name="Path 4832" d="M1928.651,560.722a16.6,16.6,0,0,1,6.883-10.291,24.812,24.812,0,0,1,13.193-4.628l3.282-.144-1.717,2.8a36.4,36.4,0,0,1-9.4,10.242c-4.325,3.163-8.6,4.547-10.906,4.035l-1.64-.363.3-1.648Zm8.948-7.474a14.231,14.231,0,0,0-4.864,5.89,20.641,20.641,0,0,0,6.1-3.257,32.456,32.456,0,0,0,6.247-6.049A21.126,21.126,0,0,0,1937.6,553.248Z" transform="translate(-1818.753 -514.649)" fill="#111d38"/>
      <path id="Path_4833" data-name="Path 4833" d="M1963.82,592.343c1.449-7.943,10.446-13.134,18.436-13.483C1976.432,588.345,1967.187,593.089,1963.82,592.343Z" transform="translate(-1852.207 -545.962)" fill="#585b63" fill-rule="evenodd"/>
      <path id="Path_4834" data-name="Path 4834" d="M2005.459,697.6a19.194,19.194,0,0,1,19.681-13.389l1.832.14-.232,1.819-.052.4v.006a15.188,15.188,0,0,1-7.069,10.682,18.748,18.748,0,0,1-12.29,2.637l-.462-.057-2.007-.307Zm9.469-7.228a15.609,15.609,0,0,0-5.329,6.2,15.082,15.082,0,0,0,8.161-2.257,11.8,11.8,0,0,0,5.105-6.635A15.663,15.663,0,0,0,2014.928,690.374Z" transform="translate(-1890.915 -645.276)" fill="#111d38"/>
      <path id="Path_4835" data-name="Path 4835" d="M2044.75,727.121a17.432,17.432,0,0,1,17.883-12.158c-1.137,8.837-9.855,13.4-17.882,12.158Z" transform="translate(-1928.537 -674.283)" fill="#585b63" fill-rule="evenodd"/>
      <path id="Path_4836" data-name="Path 4836" d="M2441.66,1513.528a31,31,0,0,1-12.7.455,31.655,31.655,0,0,1-11.7-4.742,2.1,2.1,0,0,1-.26-3.312h0a23.157,23.157,0,0,1,8.026-4.933,13.856,13.856,0,0,1,8.2-.346,13.468,13.468,0,0,1,6.425,4.046,17.41,17.41,0,0,1,3.511,6.131,2.094,2.094,0,0,1-1.321,2.65c-.06.021-.121.037-.182.052v.006Zm-11.961-3.683a26.094,26.094,0,0,0,8.531.077,12.358,12.358,0,0,0-1.7-2.426,9.314,9.314,0,0,0-4.425-2.814,9.734,9.734,0,0,0-5.755.28,16.393,16.393,0,0,0-4.276,2.247A26.594,26.594,0,0,0,2429.7,1509.845Z" transform="translate(-2278.98 -1414.925)" fill="#111d38"/>
      <path id="Path_4837" data-name="Path 4837" d="M2475.894,1546.162a28.276,28.276,0,0,1-22.774-4C2463.591,1532.711,2472.939,1537.376,2475.894,1546.162Z" transform="translate(-2313.698 -1449.601)" fill="#363b47" fill-rule="evenodd"/>
      <path id="Path_4838" data-name="Path 4838" d="M2268.626,1444.085c-.6,2.766-1.293,5.327-2.062,7.716a70.583,70.583,0,0,1-3.281,8.351,2.093,2.093,0,0,1-2.042,1.2v.005a21.925,21.925,0,0,0-6.407.7,20.782,20.782,0,0,0-1.167,2.7c-.417,1.175-.725,2.324-1,3.434a1.464,1.464,0,0,0,.193,1.11,14.623,14.623,0,0,1,1.2-2.379,15.1,15.1,0,0,1,1.958-2.493,2.086,2.086,0,0,1,1.25-.618v0a7.593,7.593,0,0,1,4.48.739,9.237,9.237,0,0,1,3.494,3.282,2.086,2.086,0,0,1,.221,1.854h0a24.431,24.431,0,0,1-1.842,3.968,28.972,28.972,0,0,1-2.409,3.524.86.86,0,0,1-.336.277,1,1,0,0,0,.2.068,1.662,1.662,0,0,0,.539.083,1.4,1.4,0,0,1,.089-.11l2.111-2.8,2.472-3.288a2.092,2.092,0,0,1,3.7,1.78h0a36.135,36.135,0,0,1-1.336,4.092c-.462,1.179-.987,2.335-1.545,3.478l.125.065a.992.992,0,0,0,.584.13l1.1-1.753a2.09,2.09,0,0,1,3.419-.179h0a4.065,4.065,0,0,0,1.524,1.372h.008a.3.3,0,0,1,.049.021l.021.008s0-.009.023-.027a3.45,3.45,0,0,0,.853-1.5,2.1,2.1,0,0,1,3.212-1,2.307,2.307,0,0,0,1.157.428h.064c0-.042.009-.1.011-.17.037-1.05.087-2.031.181-2.98a21.243,21.243,0,0,1,.483-2.922,12.466,12.466,0,0,1,.409-1.357c.148-.419-.152.428-.442.164-.04-.037-.08-.076-.117-.114l-.183-.167a53.314,53.314,0,0,0-5.657-4.644,2.094,2.094,0,0,1-.77-2.461h0a85.571,85.571,0,0,0,2.951-9.135,66.208,66.208,0,0,0,1.5-7.735l-8.976-2.7Zm-6.05,6.437a79.064,79.064,0,0,0,2.38-9.4,2.237,2.237,0,0,1,.066-.3,2.1,2.1,0,0,1,2.609-1.411l12.863,3.875h0a2.1,2.1,0,0,1,1.485,2.23,70.726,70.726,0,0,1-1.827,10.046c-.7,2.724-1.543,5.373-2.525,8.078,2,1.508,3.653,3.021,4.774,4.045l.182.166c.041.032.081.065.119.1,2.348,2.143,2.33,2.188,1.573,4.331a9.218,9.218,0,0,0-.293.946,17.2,17.2,0,0,0-.384,2.348c-.085.856-.129,1.754-.164,2.717a4.649,4.649,0,0,1-.682,2.362,1.949,1.949,0,0,1-.1.165,3.808,3.808,0,0,1-1.478,1.25,2.257,2.257,0,0,1-.239.114,4.6,4.6,0,0,1-1.9.314,5.821,5.821,0,0,1-1.256-.189,5.735,5.735,0,0,1-1.242,1.377,4.209,4.209,0,0,1-1.962.864,4.281,4.281,0,0,1-2.119-.211h0a5.806,5.806,0,0,1-1.394-.745,4.024,4.024,0,0,1-2.539,1.49,5.182,5.182,0,0,1-3.212-.54,4.767,4.767,0,0,1-2.055-1.862,3.623,3.623,0,0,1-.413-1.147,5.413,5.413,0,0,1-2.75.057,5.042,5.042,0,0,1-1.653-.721,4.01,4.01,0,0,1-1.349-1.539c-.645-1.315-.573-2.955.844-4.747a24.907,24.907,0,0,0,2.066-3.012,20.482,20.482,0,0,0,1.127-2.264,4.3,4.3,0,0,0-1.262-1.014,3.278,3.278,0,0,0-1.369-.341,10.779,10.779,0,0,0-1.869,3.248,3.737,3.737,0,0,1-2.9,2.667,3.692,3.692,0,0,1-2.087-.267,4.861,4.861,0,0,1-1.542-1.07,5.757,5.757,0,0,1-1.492-5.328c.306-1.235.65-2.515,1.115-3.828a24.287,24.287,0,0,1,1.9-4.116,2.089,2.089,0,0,1,1.313-1.027,30.674,30.674,0,0,1,7.139-1.089,66.946,66.946,0,0,0,2.517-6.613Z" transform="translate(-2120.653 -1357.515)" fill="#111d38"/>
      <path id="Path_4839" data-name="Path 4839" d="M2301.724,1476.2a74,74,0,0,1-5.644,17.852,25.509,25.509,0,0,0-7.941.984,26.946,26.946,0,0,0-2.815,7.445c-.739,2.988,2.906,5.885,4.016,2.792a12.73,12.73,0,0,1,2.868-4.593c2.376-.3,4.384.669,5.972,3.084a24.081,24.081,0,0,1-3.922,6.9c-2.671,3.382,2.359,4.782,3.713,2.988,1.388-1.841,2.925-3.885,4.673-6.211a38.519,38.519,0,0,1-2.814,7.341c-.677,1.375.135,2.172,1.124,2.683a2.445,2.445,0,0,0,3.276-.563q.568-.909,1.137-1.815c2.473,3.169,4.807,2.917,6.1-.721,1.745,1.225,4.463,1.334,4.56-1.364a26.909,26.909,0,0,1,.606-5.485c.516-2.123,1.084-1.648-.656-3.235a57.809,57.809,0,0,0-6.178-5.1,74.626,74.626,0,0,0,4.787-19.108l-12.864-3.875Z" transform="translate(-2155.345 -1392.302)" fill="#fbc49d" fill-rule="evenodd"/>
      <path id="Path_4840" data-name="Path 4840" d="M2298.691,1885.719c.988,1.289,2.658,1.68,3.347-.241a12.73,12.73,0,0,1,2.868-4.593c2.376-.3,4.384.669,5.972,3.084-.26-2.962-2.709-4.945-6.79-4.619-1.854.652-3.29,7.252-5.4,6.369Z" transform="translate(-2168.045 -1772.506)" fill="#e69071" fill-rule="evenodd"/>
      <path id="Path_4841" data-name="Path 4841" d="M2493.286,1515.3c-.83,3.666-3.359,10.835-4.446,13.916,4.478-1.08,10.246,1.444,13.684,4.87a64.889,64.889,0,0,0,4.1-17.261l-5.466-1.648-5.69-.015-2.187.136Z" transform="translate(-2347.388 -1429.047)" fill="#e69071" fill-rule="evenodd"/>
      <path id="Path_4842" data-name="Path 4842" d="M2516.743,1519.458c-.541,2.342-1.792,6.113-2.913,9.335,5.066-1.323,11.17.019,14.342,3.657a59.46,59.46,0,0,0,2.2-11.467l-5.583-1.648-5.812-.015-2.234.136Z" transform="translate(-2370.958 -1432.971)" fill="#111d38" fill-rule="evenodd"/>
      <path id="Path_4843" data-name="Path 4843" d="M2732.9,1961.295a4.6,4.6,0,0,0,2.027.8c-1.705-2.565,1.421-7.524-.015-9.732a6.77,6.77,0,0,0-2.862-2.305c.853,1.036,2.333,2.994,2.086,4.393C2733.7,1956.921,2733.29,1959.187,2732.9,1961.295Z" transform="translate(-2576.775 -1839.23)" fill="#e69071" fill-rule="evenodd"/>
      <path id="Path_4844" data-name="Path 4844" d="M2639.59,1939.672a8.615,8.615,0,0,0,1.906,1.8c-1.4-3.078,3.154-8.419,2.612-11.221a6.8,6.8,0,0,0-2.25-3.884,7.52,7.52,0,0,1,.6,6.072Z" transform="translate(-2489.57 -1816.887)" fill="#e69071" fill-rule="evenodd"/>
      <path id="Path_4845" data-name="Path 4845" d="M2540.848,1898.2a38.49,38.49,0,0,1-2.814,7.341,1.663,1.663,0,0,0,.431,2.238c.75-3.017,3.1-6.479,4.172-9.951,1.089-3.542,1.62-5.854-2.835-7.323C2542.281,1892.476,2542.313,1895.667,2540.848,1898.2Z" transform="translate(-2393.551 -1783.065)" fill="#e69071" fill-rule="evenodd"/>
      <path id="Path_4846" data-name="Path 4846" d="M343.906,1509.79a25.9,25.9,0,0,0,8.531-.077,26.3,26.3,0,0,0,7.621-2.637,16.546,16.546,0,0,0-4.276-2.247,9.733,9.733,0,0,0-5.755-.28,9.313,9.313,0,0,0-4.425,2.814A12.343,12.343,0,0,0,343.906,1509.79Zm9.269,4.058a30.9,30.9,0,0,1-12.7-.455v-.006c-.06-.015-.121-.031-.181-.052a2.093,2.093,0,0,1-1.321-2.65,17.409,17.409,0,0,1,3.511-6.131,13.493,13.493,0,0,1,6.426-4.046,13.856,13.856,0,0,1,8.2.346,23.157,23.157,0,0,1,8.025,4.933h0a2.094,2.094,0,0,1-.26,3.312,31.651,31.651,0,0,1-11.7,4.742Z" transform="translate(-319.605 -1414.793)" fill="#111d38"/>
      <path id="Path_4847" data-name="Path 4847" d="M375.73,1546.162a28.274,28.274,0,0,0,22.773-4C388.033,1532.711,378.684,1537.376,375.73,1546.162Z" transform="translate(-354.376 -1449.601)" fill="#363b47" fill-rule="evenodd"/>
      <path id="Path_4848" data-name="Path 4848" d="M362.5,1441.245a79.1,79.1,0,0,0,2.379,9.4,66.79,66.79,0,0,0,2.516,6.613,30.707,30.707,0,0,1,7.139,1.089,2.088,2.088,0,0,1,1.314,1.027,24.309,24.309,0,0,1,1.9,4.117c.465,1.313.809,2.593,1.115,3.828a5.766,5.766,0,0,1-1.492,5.328,4.867,4.867,0,0,1-1.542,1.07,3.7,3.7,0,0,1-2.088.267,3.739,3.739,0,0,1-2.9-2.667,10.763,10.763,0,0,0-1.868-3.248,3.274,3.274,0,0,0-1.37.341,4.421,4.421,0,0,0-1.261,1.02,20.524,20.524,0,0,0,1.13,2.261,24.936,24.936,0,0,0,2.065,3.012c1.417,1.793,1.489,3.432.845,4.747a4.011,4.011,0,0,1-1.349,1.538,5.043,5.043,0,0,1-1.653.721,5.408,5.408,0,0,1-2.75-.057,3.64,3.64,0,0,1-.413,1.147,4.77,4.77,0,0,1-2.056,1.863,5.179,5.179,0,0,1-3.211.54,4.028,4.028,0,0,1-2.539-1.49,5.8,5.8,0,0,1-1.395.744h0a4.274,4.274,0,0,1-2.119.211,4.207,4.207,0,0,1-1.964-.859,5.733,5.733,0,0,1-1.242-1.377,5.823,5.823,0,0,1-1.255.189,4.6,4.6,0,0,1-1.9-.314,2.254,2.254,0,0,1-.239-.114,3.807,3.807,0,0,1-1.478-1.25c-.038-.057-.072-.109-.1-.165a4.683,4.683,0,0,1-.682-2.362c-.035-.966-.079-1.861-.164-2.717a16.928,16.928,0,0,0-.384-2.348,9.293,9.293,0,0,0-.293-.946c-.759-2.144-.775-2.189,1.573-4.331.039-.036.078-.069.119-.1l.181-.166c1.118-1.023,2.77-2.536,4.774-4.045-.983-2.7-1.826-5.354-2.526-8.078a70.751,70.751,0,0,1-1.827-10.046,2.1,2.1,0,0,1,1.485-2.23h0l12.863-3.875a2.1,2.1,0,0,1,2.671,1.707Zm-1.608,10.685c-.77-2.387-1.462-4.95-2.062-7.716l-8.979,2.7a66.087,66.087,0,0,0,1.5,7.735,86.7,86.7,0,0,0,2.951,9.136h0a2.1,2.1,0,0,1-.771,2.461,53.271,53.271,0,0,0-5.656,4.644l-.183.167a1.558,1.558,0,0,1-.118.114c-.289.264-.59-.584-.441-.164a12.587,12.587,0,0,1,.408,1.357,21.065,21.065,0,0,1,.487,2.923c.095.949.144,1.932.181,2.98a1.514,1.514,0,0,0,.011.17h.065a2.276,2.276,0,0,0,1.157-.428,2.1,2.1,0,0,1,3.212,1,3.452,3.452,0,0,0,.853,1.5c.023.018.019.025.024.027l.021-.009a.322.322,0,0,1,.048-.021h.007a4.065,4.065,0,0,0,1.524-1.372h0a2.089,2.089,0,0,1,3.419.179l1.1,1.753a.992.992,0,0,0,.584-.13l.125-.065c-.558-1.143-1.083-2.3-1.546-3.478a36.235,36.235,0,0,1-1.336-4.092h0a2.092,2.092,0,0,1,3.7-1.78l2.471,3.288,2.115,2.805c.031.036.06.072.089.11a1.667,1.667,0,0,0,.538-.084,1.009,1.009,0,0,0,.2-.068.852.852,0,0,1-.336-.277,29.074,29.074,0,0,1-2.41-3.524A24.445,24.445,0,0,1,362,1469.81h0a2.088,2.088,0,0,1,.221-1.854,9.242,9.242,0,0,1,3.495-3.282,7.606,7.606,0,0,1,4.479-.739v0a2.083,2.083,0,0,1,1.247.618,15.07,15.07,0,0,1,1.959,2.493,14.689,14.689,0,0,1,1.2,2.384,1.463,1.463,0,0,0,.192-1.11c-.275-1.11-.583-2.259-1-3.434a20.706,20.706,0,0,0-1.167-2.7,21.873,21.873,0,0,0-6.407-.7v-.005a2.093,2.093,0,0,1-2.043-1.2A70.609,70.609,0,0,1,360.893,1451.93Z" transform="translate(-323.253 -1357.643)" fill="#111d38"/>
      <path id="Path_4849" data-name="Path 4849" d="M397.957,1476.23a74.047,74.047,0,0,0,5.644,17.852,25.5,25.5,0,0,1,7.941.984,26.925,26.925,0,0,1,2.815,7.445c.739,2.988-2.905,5.885-4.016,2.792a12.724,12.724,0,0,0-2.866-4.591c-2.376-.3-4.384.669-5.972,3.084a24.091,24.091,0,0,0,3.922,6.9c2.671,3.382-2.36,4.782-3.714,2.988-1.387-1.841-2.924-3.885-4.672-6.211a38.486,38.486,0,0,0,2.814,7.341c.676,1.375-.136,2.172-1.124,2.682a2.445,2.445,0,0,1-3.277-.562l-1.137-1.815c-2.473,3.169-4.807,2.917-6.1-.721-1.746,1.225-4.463,1.334-4.56-1.364a27.011,27.011,0,0,0-.606-5.485c-.517-2.123-1.084-1.648.656-3.235a57.754,57.754,0,0,1,6.178-5.1,74.614,74.614,0,0,1-4.787-19.108Z" transform="translate(-360.787 -1392.33)" fill="#fbc49d" fill-rule="evenodd"/>
      <path id="Path_4850" data-name="Path 4850" d="M728.577,1885.776c-.987,1.289-2.657,1.68-3.347-.241a12.725,12.725,0,0,0-2.868-4.589c-2.376-.3-4.384.669-5.972,3.084.26-2.962,2.708-4.945,6.79-4.619,1.853.652,3.29,7.252,5.4,6.369Z" transform="translate(-675.674 -1772.563)" fill="#e69071" fill-rule="evenodd"/>
      <path id="Path_4851" data-name="Path 4851" d="M441.052,1515.3c.844,3.712,3.081,10.144,4.126,13.171-4.813-1.569-11.9,1.391-13.3,5.785-1.693-4.259-3.9-12.983-4.165-17.431l5.465-1.648,5.691-.015,2.186.136Z" transform="translate(-403.401 -1429.047)" fill="#e69071" fill-rule="evenodd"/>
      <path id="Path_4852" data-name="Path 4852" d="M439.548,1515.3c.658,2.863,1.869,6.659,2.874,9.635-4.878-1.211-10.812.182-14.1,3.694a59.4,59.4,0,0,1-2.271-11.8l5.529-1.648,5.756-.015,2.213.136Z" transform="translate(-401.836 -1429.047)" fill="#111d38" fill-rule="evenodd"/>
      <path id="Path_4853" data-name="Path 4853" d="M442.7,1961.295a4.6,4.6,0,0,1-2.027.8c1.7-2.565-1.421-7.524.015-9.732a6.773,6.773,0,0,1,2.862-2.305c-.853,1.036-2.33,2.994-2.085,4.393C441.9,1956.921,442.309,1959.187,442.7,1961.295Z" transform="translate(-415.273 -1839.23)" fill="#e69071" fill-rule="evenodd"/>
      <path id="Path_4854" data-name="Path 4854" d="M514.278,1939.672a8.614,8.614,0,0,1-1.907,1.8c1.4-3.078-3.154-8.419-2.611-11.221a6.8,6.8,0,0,1,2.25-3.884,7.523,7.523,0,0,0-.6,6.072Z" transform="translate(-480.746 -1816.887)" fill="#e69071" fill-rule="evenodd"/>
      <path id="Path_4855" data-name="Path 4855" d="M595.605,1898.2a38.49,38.49,0,0,0,2.814,7.341,1.662,1.662,0,0,1-.432,2.238c-.75-3.017-3.1-6.479-4.172-9.951-1.09-3.542-1.621-5.854,2.835-7.323C594.173,1892.476,594.14,1895.667,595.605,1898.2Z" transform="translate(-559.352 -1783.065)" fill="#e69071" fill-rule="evenodd"/>
      <path id="Path_4856" data-name="Path 4856" d="M395.065,744.359a137.263,137.263,0,0,0,18.422-3.726,92.051,92.051,0,0,0,17.152-7.1,139.57,139.57,0,0,1,17.807-7.984c4.642-1.575,8.556-2.118,10.606-.7,4.537,3.132,7.031,10.619,8.3,19.243,1.943,13.232,1.142,29.477.427,35.613a2.307,2.307,0,0,1-3.8,1.488,22.769,22.769,0,0,0-9.488-3.694,28.293,28.293,0,0,0-11.248.178,2.3,2.3,0,0,1-2.762-2.8h-.008a79.264,79.264,0,0,0,1.849-9.884c.279-2.265.485-4.655.6-7.2-18.18,16.166-20.2,39.9-22.329,65.006-.312,3.674-.625,7.377-1.057,11.672a2.3,2.3,0,0,1-2.292,2.078v.007H372.881a2.311,2.311,0,0,1-2.31-2.259c-.421-4.221-.731-7.873-1.039-11.5-2.132-25.1-4.149-48.84-22.328-65.007.117,2.541.323,4.932.6,7.2a79.26,79.26,0,0,0,1.849,9.884,2.31,2.31,0,0,1-2.962,2.761,28.415,28.415,0,0,0-11.057-.134,22.585,22.585,0,0,0-9.586,3.768,2.3,2.3,0,0,1-3.694-1.562h0c-.714-6.135-1.516-22.38.427-35.613,1.267-8.624,3.761-16.111,8.3-19.243,2.05-1.416,5.968-.872,10.606.7a139.9,139.9,0,0,1,17.808,7.984,92.035,92.035,0,0,0,17.152,7.1,137.26,137.26,0,0,0,18.422,3.726Zm19.7.7a142.385,142.385,0,0,1-19.328,3.914,2.3,2.3,0,0,1-.709.006,142.247,142.247,0,0,1-19.369-3.922,96.64,96.64,0,0,1-18-7.424,135.66,135.66,0,0,0-17.158-7.714c-3.339-1.133-5.854-1.734-6.509-1.28-3.3,2.28-5.249,8.633-6.349,16.121-1.571,10.7-1.283,23.447-.742,30.8a31.18,31.18,0,0,1,8.241-2.607,34.61,34.61,0,0,1,9.545-.358c-.462-2.209-.858-4.547-1.166-7.048a103.445,103.445,0,0,1-.731-12.594,2.3,2.3,0,0,1,3.673-1.939c23.383,17.391,25.609,43.592,27.971,71.406.276,3.254.555,6.532.836,9.515h40.189c.284-2.982.56-6.26.837-9.515,2.361-27.814,4.588-54.013,27.97-71.406h0a2.3,2.3,0,0,1,3.671,1.848,103.34,103.34,0,0,1-.731,12.684c-.309,2.5-.7,4.837-1.166,7.047a34.608,34.608,0,0,1,9.544.358,31.122,31.122,0,0,1,8.241,2.607c.54-7.352.829-20.1-.742-30.8-1.1-7.491-3.047-13.842-6.348-16.121-.658-.455-3.17.147-6.51,1.28a135.688,135.688,0,0,0-17.157,7.714A96.492,96.492,0,0,1,414.768,745.056Z" transform="translate(-303.29 -682.88)" fill="#111d38"/>
      <path id="Path_4857" data-name="Path 4857" d="M433.29,784.082c15-2.224,23.623-4.335,36.639-11.11,9.652-5.025,22.887-11.017,26.04-8.84,10.244,7.074,8.88,42.924,7.741,52.7-5.028-3.881-14.9-5.9-22.774-4a89.8,89.8,0,0,0,2.625-22.576c-25.726,19.136-24.934,49.9-28.088,81.381H411.106c-3.154-31.479-2.363-62.245-28.089-81.382a89.771,89.771,0,0,0,2.625,22.576c-7.872-1.9-17.745.122-22.773,4-1.137-9.776-2.5-45.626,7.741-52.7,3.153-2.177,16.388,3.815,26.04,8.84C409.667,779.747,418.293,781.857,433.29,784.082Z" transform="translate(-341.515 -720.27)" fill="#585b63" fill-rule="evenodd"/>
      <path id="Path_4858" data-name="Path 4858" d="M989.574,929.535l1.276-.192c-2.717,8.388-.214,18.7-4.154,26.637-16.512-2.522-31.35-18.949-34.8-38.091l1.036.535C965.951,925.2,974.577,927.31,989.574,929.535Z" transform="translate(-897.799 -865.723)" fill="#363b47" fill-rule="evenodd"/>
      <path id="Path_4859" data-name="Path 4859" d="M1087.078,978.221c12.759-1.893,20.907-3.7,31.069-8.373-11.522,22.991-13.7,34.561-29.574,35.07-16.19.519-24.325-14.155-33.294-35.408C1065.786,974.432,1074.016,976.284,1087.078,978.221Z" transform="translate(-995.304 -914.409)" fill="#111d38" fill-rule="evenodd"/>
      <path id="Path_4860" data-name="Path 4860" d="M1853.155,1156.218v-.011a96.9,96.9,0,0,0,1.154-15.225v-.234c-25.726,19.136-24.934,49.9-28.088,81.381h-10.087c.233-9.363-1.943-9.745.418-20.747,3.6-16.792,3.1-10.278,3.41-1.5.071,1.957,3.073-15.186,8.716-32.632,3.265-10.093,8.241-20.071,11.9-27.073,2.257-4.319,3.684-6.031,2.321-.265a26.539,26.539,0,0,0-.648,5.689c5.286-6.176,9.334-8.764,14.668-10.309.2,3.7,0,13.811-3.771,20.928Z" transform="translate(-1712.262 -1070.767)" fill="#363b47" fill-rule="evenodd"/>
      <path id="Path_4861" data-name="Path 4861" d="M720.168,1222.13h-6.149c-3.154-31.479-2.363-62.245-28.089-81.381v.234a96.9,96.9,0,0,0,1.154,15.225v.011c-3.771-7.119-3.97-17.228-3.771-20.928,5.335,1.545,9.776,6.167,15.061,12.343a14.041,14.041,0,0,0-.682-4.115c-1.364-5.765.625-3.725,2.879.593,15.217,29.117,18.777,45.283,19.591,78.018Z" transform="translate(-644.428 -1070.767)" fill="#363b47" fill-rule="evenodd"/>
      <path id="Path_4862" data-name="Path 4862" d="M401.771,772.436c-9.539-4.9-21.963-10.405-25.007-8.3-5.131,3.542-7.35,14.3-8.143,25.389,3.648-14.952,5.352-22.53,9.752-23.889C382.557,764.339,389.19,768.805,401.771,772.436Z" transform="translate(-347.67 -720.27)" fill="#8c93a8" fill-rule="evenodd"/>
      <path id="Path_4863" data-name="Path 4863" d="M2277.64,772.436c9.54-4.9,21.963-10.405,25.007-8.3,5.13,3.542,7.349,14.3,8.143,25.389-3.648-14.952-5.352-22.53-9.752-23.889C2296.854,764.339,2290.221,768.805,2277.64,772.436Z" transform="translate(-2148.191 -720.27)" fill="#a3a7b5" fill-rule="evenodd"/>
      <path id="Path_4864" data-name="Path 4864" d="M1978.491,728.191a10.419,10.419,0,0,1,4.831-2.935,6.235,6.235,0,0,1,4.185.37,6.568,6.568,0,0,1,2.988,2.934,11.3,11.3,0,0,1,1.107,6.012,14.132,14.132,0,0,1-3.978,9.3,13.542,13.542,0,0,1-9.312,4.029,2.092,2.092,0,0,1-2.1-2.083,2.058,2.058,0,0,1,.011-.221h0l1.648-16.122a2.085,2.085,0,0,1,.62-1.285Zm5.816,1.133a5.691,5.691,0,0,0-2.348,1.35l-1.3,12.671a9.509,9.509,0,0,0,3.978-2.408,10.042,10.042,0,0,0,2.779-6.612,7.237,7.237,0,0,0-.615-3.8,2.45,2.45,0,0,0-1.068-1.112,2.145,2.145,0,0,0-1.429-.092Z" transform="translate(-1863.892 -683.851)" fill="#111d38"/>
      <path id="Path_4865" data-name="Path 4865" d="M2014.758,764.451c4.928-4.976,9.985-2.236,9.557,4.759a11.586,11.586,0,0,1-11.2,11.363Q2013.935,772.512,2014.758,764.451Z" transform="translate(-1898.696 -718.611)" fill="#fbc49d" fill-rule="evenodd"/>
      <path id="Path_4866" data-name="Path 4866" d="M2041.908,828.558c2.813-3.5,1.2-4.918-.52-4.079l-.978-6.624c3.509-1.284,6.365-1.107,6.864,2.2A7.5,7.5,0,0,1,2041.908,828.558Z" transform="translate(-1924.444 -770.674)" fill="#e69071" fill-rule="evenodd"/>
      <path id="Path_4867" data-name="Path 4867" d="M971.9,730.67a5.709,5.709,0,0,0-2.348-1.35,2.144,2.144,0,0,0-1.429.091,2.45,2.45,0,0,0-1.068,1.112,7.237,7.237,0,0,0-.615,3.8,10.039,10.039,0,0,0,2.779,6.612,9.513,9.513,0,0,0,3.978,2.408l-1.3-12.671Zm-1.364-5.419a10.414,10.414,0,0,1,4.831,2.936,2.086,2.086,0,0,1,.62,1.285l1.648,16.122h0a2.027,2.027,0,0,1,.011.221,2.092,2.092,0,0,1-2.1,2.083,13.536,13.536,0,0,1-9.311-4.029,14.159,14.159,0,0,1-3.978-9.3,11.307,11.307,0,0,1,1.108-6.012,6.568,6.568,0,0,1,2.988-2.934,6.239,6.239,0,0,1,4.185-.37Z" transform="translate(-907.537 -683.846)" fill="#111d38"/>
      <path id="Path_4868" data-name="Path 4868" d="M1008.715,764.447c-4.929-4.977-9.985-2.236-9.557,4.759a11.586,11.586,0,0,0,11.2,11.363Q1009.539,772.507,1008.715,764.447Z" transform="translate(-942.348 -718.607)" fill="#fbc49d" fill-rule="evenodd"/>
      <path id="Path_4869" data-name="Path 4869" d="M1052.445,828.558c-2.813-3.5-1.2-4.918.52-4.079l.978-6.624c-3.509-1.284-6.365-1.107-6.864,2.2A7.5,7.5,0,0,0,1052.445,828.558Z" transform="translate(-987.478 -770.674)" fill="#e69071" fill-rule="evenodd"/>
      <path id="Path_4870" data-name="Path 4870" d="M1119.885,407.147c.118,8.883,1.64,16.762,5.57,22.339,3.812,5.407,10.046,8.709,19.721,8.709,9.441,0,14.787-3.616,17.83-9.525,3.209-6.23,4.083-15.077,4.44-25.011a24.084,24.084,0,0,0-15.382-20,26.238,26.238,0,0,0-10.595-1.841,22.758,22.758,0,0,0-10.091,2.706c-6.593,3.608-11.449,10.974-11.494,22.624Zm2.141,24.751c-4.473-6.344-6.2-15.031-6.326-24.712h0v-.025c.046-13.427,5.829-22.017,13.676-26.314a26.935,26.935,0,0,1,11.945-3.215,30.414,30.414,0,0,1,12.284,2.12,28.208,28.208,0,0,1,18.022,23.57h0a2.23,2.23,0,0,1,.011.3c-.371,10.539-1.318,20-4.906,26.962-3.772,7.324-10.25,11.806-21.554,11.806-11.219,0-18.555-3.978-23.15-10.5Z" transform="translate(-1052.29 -356.153)" fill="#111d38"/>
      <path id="Path_4871" data-name="Path 4871" d="M1152.52,441.9c.245,18.57,6.489,33.135,27.384,33.135,20.745,0,23.643-16.194,24.368-36.742C1200.9,407.763,1152.653,404.023,1152.52,441.9Z" transform="translate(-1087.017 -390.89)" fill="#fbc49d" fill-rule="evenodd"/>
      <path id="Path_4872" data-name="Path 4872" d="M1336.45,777.549a14.7,14.7,0,0,0-1.337-1.148c-3.63-2.376-4.517-2.955-10.525-3.895,1.907,1.837,1.121,3.667-1.389,5.209a29.8,29.8,0,0,1,12.371,2.3q.312,3.61.625,7.218c4.376-1.776,3.369-1.449,7.876.131q-.918-3.643-1.838-7.285c4.1-2.487,9.88-3.443,14.5-3.74-3.612-.5-4.778-2.07-3.216-4.4a15.243,15.243,0,0,0-9.057,3.41c-2.946,5.012-3.692,5.964-8.014,2.2Z" transform="translate(-1247.996 -728.068)" fill="#e69071" fill-rule="evenodd"/>
      <path id="Path_4873" data-name="Path 4873" d="M1794.14,707.542c12.581-4.276,14.684-18.337,15.288-35.4a26.851,26.851,0,0,0-2.974-9.759c1.622,23.652-2.2,39.282-12.312,45.162Z" transform="translate(-1692.171 -624.735)" fill="#ffdbc5" fill-rule="evenodd"/>
      <path id="Path_4874" data-name="Path 4874" d="M1152.52,597.319c.227,17.373,5.711,31.24,23.526,32.955-10.431-3.012-26.353-16.795-11.713-51.044l-7.627,1.628-4,12.747C1152.588,594.8,1152.525,596.032,1152.52,597.319Z" transform="translate(-1087.017 -546.311)" fill="#e69071" fill-rule="evenodd"/>
      <path id="Path_4875" data-name="Path 4875" d="M1040.319,152.768a26.745,26.745,0,0,1-2.842-5.857,36.18,36.18,0,0,1-1.744-15.956l.009-.066c.692-5.378,2.805-10.092,6.546-12.582a10.726,10.726,0,0,1,1.091-.639,11.18,11.18,0,0,1,.46-3.9,16.008,16.008,0,0,1,2.383-4.79,2.1,2.1,0,0,1,3.406.035c4.328-3.294,10.117-4.774,16.077-5.137,9.936-.6,20.507,1.923,25.131,4.23a2.1,2.1,0,0,1-.021,3.766l-1.408.763a23.917,23.917,0,0,1,8.021,13.619,43.361,43.361,0,0,1-1.716,23.353,2.1,2.1,0,0,1-4.02-.227,25.4,25.4,0,0,0-5.294-9.8,26.427,26.427,0,0,0-7.248-5.683,14.051,14.051,0,0,0,.568,2.948,2.091,2.091,0,0,1-2.361,2.668v.007a56.837,56.837,0,0,1-8.6-2.178c-1.245-.427-2.456-.9-3.615-1.428a5.847,5.847,0,0,0,.439,1.374,2.091,2.091,0,0,1-2.042,3.035v.009l-.1-.009c-4.91-.429-8.6-.752-13.147-2.92-.26.726-.5,1.49-.721,2.3-.446,1.607-.873,3.517-1.357,5.747a2.1,2.1,0,0,1-2.86,1.493l-.131.488c-.341,1.295-.674,2.81-1.04,4.664a2.1,2.1,0,0,1-3.861.673Zm-.438-21.291a31.853,31.853,0,0,0,1.531,14c.3-1.056.615-2.034.966-3a2.1,2.1,0,0,1,2.517-1.424c.2-.853.411-1.674.633-2.475a31.005,31.005,0,0,1,1.8-5h0q.033-.071.073-.14a2.094,2.094,0,0,1,2.855-.788,24.9,24.9,0,0,0,10.608,3.2v-.007a16.26,16.26,0,0,1-.138-3.694h0a2.095,2.095,0,0,1,3.179-1.616,31.652,31.652,0,0,0,6.205,2.827,49.562,49.562,0,0,0,4.9,1.395q-.036-.314-.057-.625a15.781,15.781,0,0,1,.176-3.857h0a2.091,2.091,0,0,1,2.891-1.576,31.983,31.983,0,0,1,11.5,8.1,28.174,28.174,0,0,1,3.823,5.548,37,37,0,0,0-.012-15.165c-1.26-5.483-4.092-10.2-8.891-12.856a2.1,2.1,0,0,1-.084-3.735l.531-.288a57.007,57.007,0,0,0-18.948-2.251c-6.052.369-11.817,1.976-15.413,5.72a2.1,2.1,0,0,1-2.5.615c-.062.177-.122.356-.175.538a6.6,6.6,0,0,0-.244,2.868,2.084,2.084,0,0,1,0,.935c-.036.155-.066.284-.083.364-.035.161-.061.284-.074.362h0a2.091,2.091,0,0,1-1.368,1.591,6.665,6.665,0,0,0-1.483.745c-2.642,1.759-4.171,5.385-4.712,9.624l-.006.057Z" transform="translate(-976.634 -97.889)" fill="#111d38"/>
      <path id="Path_4876" data-name="Path 4876" d="M1076.762,186.48c-6.565-9.86-6.479-29.187,3.273-32.615.052-.278.114-.549.174-.817l0,0c-.56-3.178,1.121-6.369,2.348-8.048l.978,2.263c9.823-10.5,33.571-6.208,41.011-2.5l-4.542,2.46c11.748,6.4,12.984,23.4,8.374,36.466-2.349-8.1-7.526-14.389-16.529-18.288a14.69,14.69,0,0,0,.511,6.825,44.1,44.1,0,0,1-14.9-5.12,12.417,12.417,0,0,0,.9,5.907c-5.434-.475-9.29-.8-14.493-3.755-1.349,2.85-2.1,6.074-3.065,10.524a6.555,6.555,0,0,1-1.773-1.912,53.966,53.966,0,0,0-2.266,8.6Z" transform="translate(-1011.276 -132.676)" fill="#363b47" fill-rule="evenodd"/>
      <path id="Path_4877" data-name="Path 4877" d="M1863.351,300.49c8.449,7.6,8.907,22.343,4.811,33.946A27.373,27.373,0,0,0,1856.58,319c0-.756,7.977,3.034,8.381,2.53,1.6-1.989-1.864-7.957-2.774-8.884-.691-.7,1.777-.326,3.2,1.246.648.716,1.364,1.421,1.836,1.053C1868.63,313.859,1866.941,305.64,1863.351,300.49Z" transform="translate(-1751.062 -283.413)" fill="#111d38" fill-rule="evenodd"/>
      <path id="Path_4878" data-name="Path 4878" d="M1076.762,405.465c-6.565-9.86-6.479-29.187,3.273-32.615-2.592,3.77-5.917,12.487-4.376,14.7.824,1.187,3.983-2.759,4.241-2.261,1.313,2.531-.882,8.371,3.968,2.961-1.349,2.85-2.1,6.074-3.069,10.524a6.562,6.562,0,0,1-1.773-1.912,53.914,53.914,0,0,0-2.265,8.6Z" transform="translate(-1011.276 -351.66)" fill="#111d38" fill-rule="evenodd"/>
      <path id="Path_4879" data-name="Path 4879" d="M926.612,2004.611h-30.97v-.008h-1.483a24.26,24.26,0,0,0-5.1.221c-.319.108.546.484,1.075,2.01h0l10.78,29.705H952.3l10.78-29.705.007-.02c.53-1.51,1.387-1.883,1.069-1.989a24.305,24.305,0,0,0-5.1-.221h-1.483v.008Zm-30.97-4.192v-.009h61.94v.009h1.483c3.141-.009,5.094-.013,6.422.434,3.245,1.092,3.038,2.925,1.568,7.3-.01.035-.022.069-.035.1l-11.228,30.94a2.1,2.1,0,0,1-2.024,1.539H899.453v-.006a2.1,2.1,0,0,1-1.969-1.381L886.2,2008.258h0l-.017-.049c-1.487-4.418-1.71-6.261,1.549-7.358,1.331-.447,3.283-.443,6.422-.434h1.483Z" transform="translate(-834.837 -1886.719)" fill="#111d38"/>
      <path id="Path_4880" data-name="Path 4880" d="M963.331,2037.293h-30.97c-8.587,0-9.284-.351-7.471,5.034l11.283,31.092H990.49l11.283-31.092c1.813-5.385,1.115-5.034-7.471-5.034Z" transform="translate(-871.556 -1921.501)" fill="#a3a7b5" fill-rule="evenodd"/>
      <path id="Path_4881" data-name="Path 4881" d="M1006.73,2213.48l8.128,22.29,5.928,2.794h39.153l-53.209-25.084Z" transform="translate(-949.513 -2087.679)" fill="#7e8396" fill-rule="evenodd"/>
      <path id="Path_4882" data-name="Path 4882" d="M974.611,2064.355c-5.555-.009-6.279.142-5.129,3.784l61.761,29.116,1.929-5.292Z" transform="translate(-913.943 -1947.029)" fill="#7e8396" fill-rule="evenodd"/>
      <path id="Path_4883" data-name="Path 4883" d="M1051.637,2560.74h57.148a3.628,3.628,0,0,1,2.566,1.068l0,0,0,0a3.638,3.638,0,0,1,1.069,2.573v1.2a3.638,3.638,0,0,1-1.069,2.573,2.2,2.2,0,0,1-.17.153,3.617,3.617,0,0,1-2.4.915h-57.148a3.627,3.627,0,0,1-2.564-1.068l0,0,0,0a3.635,3.635,0,0,1-1.065-2.573v-1.2a3.634,3.634,0,0,1,1.068-2.573,2.116,2.116,0,0,1,.171-.153,3.618,3.618,0,0,1,2.4-.915Zm56.589,4.2H1052.2v.08h56.028v-.08Z" transform="translate(-988.437 -2415.202)" fill="#111d38"/>
      <path id="Path_4884" data-name="Path 4884" d="M1086.44,2597.7h57.148a1.545,1.545,0,0,1,1.541,1.54v1.2a1.545,1.545,0,0,1-1.541,1.54H1086.44a1.545,1.545,0,0,1-1.54-1.54v-1.2A1.545,1.545,0,0,1,1086.44,2597.7Z" transform="translate(-1023.24 -2450.062)" fill="#a3a7b5" fill-rule="evenodd"/>
      <path id="Path_4885" data-name="Path 4885" d="M1300.186,747.537a23.122,23.122,0,0,0-15.436-4.409,9.108,9.108,0,0,1,3.073-3.009,27.186,27.186,0,0,1,12.117,3.514A7.362,7.362,0,0,1,1300.186,747.537Z" transform="translate(-1211.732 -698.057)" fill="#111d38" fill-rule="evenodd"/>
      <path id="Path_4886" data-name="Path 4886" d="M1175.471,1018.7a20.175,20.175,0,0,0,7,8.385c3.751,2.527,8.731,3.994,15.236,4.206,5.8.188,10.177-1.25,13.405-3.8a20.354,20.354,0,0,0,6.572-10.4c-9.6-.164-13.474-3.222-16.457-5.576-1.595-1.259-2.87-2.265-4.764-2.164-2.257.121-3.513,1.3-5.031,2.724-2.758,2.588-6.214,5.828-15.96,6.622Zm5.122,11.167a24.242,24.242,0,0,1-9.125-12.06,1.675,1.675,0,0,1,1.489-2.313c10.337-.378,13.607-3.446,16.178-5.858,2.007-1.883,3.668-3.441,7.157-3.628,3.139-.171,4.858,1.189,7.009,2.886,2.785,2.2,6.457,5.094,16.425,4.844a1.678,1.678,0,0,1,1.768,2.046c-1.346,5.844-3.978,10.906-8.311,14.331-3.831,3.028-8.936,4.736-15.583,4.521-7.181-.233-12.747-1.9-17.009-4.769Z" transform="translate(-1104.768 -948.821)" fill="#111d38"/>
      <path id="Path_4887" data-name="Path 4887" d="M1200.83,1044.985c3.544,9.539,10.952,15.352,24.638,15.8,13.279.43,19.826-7.218,22.208-17.553-17.293.467-16.942-8.078-23.485-7.729-7.392.4-5.418,8.829-23.359,9.486Z" transform="translate(-1132.581 -976.637)" fill="#585b63" fill-rule="evenodd"/>
      <path id="Path_4888" data-name="Path 4888" d="M1807.264,1171.623q-1.312.035-2.491,0c-2,7.754-5.513,13.234-10.633,16.212,7.366-2.5,11.14-8.363,13.124-16.214Z" transform="translate(-1692.171 -1105.033)" fill="#a3a7b5" fill-rule="evenodd"/>
      <path id="Path_4889" data-name="Path 4889" d="M1181.524,845.573c-8.4.331-8.882-3.478-25.789.389a10.937,10.937,0,0,0,.114,2.861c.935.8,2.709,1.46,3.034,2.808a21.345,21.345,0,0,0,2.826,6.612c2.7,3.353,10.006,3.05,13.462.94,1.994-1.218,3.607-5.418,4.218-7.74.322-1.224.662-2.095,2.283-2.16,1.678-.066,2.055.838,2.49,2.1.757,2.2,2.792,6.264,4.786,7.275,3.611,1.833,10.923,1.56,13.348-2a21.42,21.42,0,0,0,2.28-6.833c.219-1.37,1.378-2.142,2.247-3.012a10.939,10.939,0,0,0-.114-2.86c-17.159-2.526-16.781,1.284-25.184,1.615Z" transform="translate(-1090.004 -795.184)" fill="#111d38" fill-rule="evenodd"/>
      <path id="Path_4890" data-name="Path 4890" d="M1258.508,895.092c-1.341-3.32-15.516-4.048-17.056-.379-.805,1.922,1.2,7.117,2.053,8.411,2.3,3.5,8.913,3.012,11.928.758,2.422-1.813,3.47-7.31,3.075-8.789Z" transform="translate(-1170.719 -841.555)" fill="#faba52" fill-rule="evenodd"/>
      <path id="Path_4891" data-name="Path 4891" d="M1244.41,927.833a19.928,19.928,0,0,0,2.061,5.632c2.3,3.5,8.913,3.012,11.928.758,1.605-1.2,2.606-4.019,2.984-6.215C1260.734,923.234,1245.011,923.323,1244.41,927.833Z" transform="translate(-1173.684 -871.9)" fill="#ffa00a" fill-rule="evenodd"/>
      <path id="Path_4892" data-name="Path 4892" d="M1679.6,876.373c1.075-3.416,15.151-5.256,16.973-1.719.954,1.853-.625,7.211-1.369,8.565-2.014,3.672-8.658,3.78-11.831,1.693C1680.869,883.269,1679.334,877.9,1679.6,876.373Z" transform="translate(-1584.11 -823.142)" fill="#faba52" fill-rule="evenodd"/>
      <path id="Path_4893" data-name="Path 4893" d="M1702.2,901.423a19.7,19.7,0,0,1-1.652,6.41c-2.014,3.672-8.658,3.779-11.831,1.693-1.671-1.1-2.911-3.865-3.471-6.031C1684.824,898.657,1701.06,896.981,1702.2,901.423Z" transform="translate(-1589.458 -847.756)" fill="#ffa00a" fill-rule="evenodd"/>
      <path id="Path_4894" data-name="Path 4894" d="M2398.9,2464.9a14.227,14.227,0,0,1,9.165,3.269,11.733,11.733,0,0,1,4.284,8.269,2.106,2.106,0,0,1-1.979,2.226l-.124,0v0h-22.695a2.11,2.11,0,0,1-2.11-2.11,2.214,2.214,0,0,1,.02-.284,11.75,11.75,0,0,1,4.273-8.107,14.228,14.228,0,0,1,9.165-3.269Zm6.461,6.485a10.357,10.357,0,0,0-12.922,0,7.983,7.983,0,0,0-2.273,3.069h17.466a7.975,7.975,0,0,0-2.273-3.069Z" transform="translate(-2249.865 -2324.809)" fill="#111d38"/>
      <path id="Path_4895" data-name="Path 4895" d="M2433.917,2502c6.07,0,11.026,4.229,11.347,9.548H2422.57C2422.889,2506.227,2427.848,2502,2433.917,2502Z" transform="translate(-2284.884 -2359.801)" fill="#7e8396" fill-rule="evenodd"/>
      <path id="Path_4896" data-name="Path 4896" d="M2487.763,2502a4.614,4.614,0,1,1-8.1,3.019A12.067,12.067,0,0,1,2487.763,2502Z" transform="translate(-2338.729 -2359.801)" fill="#a3a7b5" fill-rule="evenodd"/>
      <path id="Path_4897" data-name="Path 4897" d="M1676.81,733.695a23.126,23.126,0,0,1,15.324-4.781,9.075,9.075,0,0,0-3.144-2.934,27.165,27.165,0,0,0-12.028,3.808,7.389,7.389,0,0,0-.152,3.909Z" transform="translate(-1581.335 -684.72)" fill="#111d38" fill-rule="evenodd"/>
      <path id="Path_4898" data-name="Path 4898" d="M1274.084,195.01c5.9-7.13,23.04-8.84,32.931-5.333a21.582,21.582,0,0,0-5.607,3.3c3.494.752,6.019,2.038,7.539,3.884,4.367,5.3,2.206,3.951-1.219,2.35-4.628-2.164-10.078-2.134-15.984-.612-2.891.745-3.694.841-1.613-2.267a11.3,11.3,0,0,1,1.791-2.122c-6.309-.591-11.456,1.524-17.062,3.45-3.527,1.212-3.322.433-.775-2.644Z" transform="translate(-1199.885 -177.238)" fill="#585b63" fill-rule="evenodd"/>
      <path id="Path_4899" data-name="Path 4899" d="M1139.8,2627.63h52.24a.931.931,0,0,1,.928.928v.723a.931.931,0,0,1-.928.928H1139.8a.93.93,0,0,1-.927-.928v-.72a.93.93,0,0,1,.927-.928Z" transform="translate(-1074.143 -2478.291)" fill="#7e8396" fill-rule="evenodd"/>
      <path id="Path_4900" data-name="Path 4900" d="M2604.536,2499.72c.359,0,.716.015,1.066.045v6.719a.789.789,0,0,1-.787.787h-.558a.789.789,0,0,1-.787-.787v-6.718Q2604,2499.721,2604.536,2499.72Z" transform="translate(-2455.502 -2357.651)" fill="#111d38" fill-rule="evenodd"/>
      <path id="Path_4901" data-name="Path 4901" d="M1277.593,1065.14c-1.093,1.478-2.9,5.593-2.558,6.869.227.853,2.223,1.4,3.876,1.245a25.863,25.863,0,0,0,.606,13.895c-8.262-.379-19.21-3.448-21.318-12.987,14.177.218,14.7-8.7,19.391-9.021Z" transform="translate(-1186.691 -1004.604)" fill="#363b47" fill-rule="evenodd"/>
      <path id="Path_4902" data-name="Path 4902" d="M4.289,2679.13H179.262a4.278,4.278,0,0,1,3.022,1.259l0,0,0,0,0,0a4.281,4.281,0,0,1,1.255,3.018v4.024a4.279,4.279,0,0,1-1.259,3.022l0,0,0,0,0,0a4.279,4.279,0,0,1-3.017,1.254H4.289a4.277,4.277,0,0,1-3.022-1.258l0,0,0,0,0,0A4.28,4.28,0,0,1,0,2687.442v-4.024a4.283,4.283,0,0,1,1.258-3.022l0,0,0,0,0,0a4.283,4.283,0,0,1,3.018-1.254Zm174.973,4.2H4.289a.087.087,0,0,0-.061.019l-.008.008a.087.087,0,0,0-.019.061v4.024a.089.089,0,0,0,.019.061l.008.008a.087.087,0,0,0,.061.02H179.262a.09.09,0,0,0,.061-.02l.008-.008a.088.088,0,0,0,.019-.061v-4.024a.086.086,0,0,0-.019-.061l-.008-.008a.09.09,0,0,0-.061-.019Z" transform="translate(0 -2526.864)" fill="#111d38"/>
      <path id="Path_4903" data-name="Path 4903" d="M39.186,2716.08H214.159a2.2,2.2,0,0,1,2.188,2.189v4.024a2.194,2.194,0,0,1-2.188,2.188H39.186A2.195,2.195,0,0,1,37,2722.292v-4.024a2.2,2.2,0,0,1,2.189-2.189Z" transform="translate(-34.897 -2561.713)" fill="#363b47" fill-rule="evenodd"/>
      <path id="Path_4904" data-name="Path 4904" d="M216.688,2716.08H371.483a2.2,2.2,0,0,1,2.189,2.189v4.024a2.195,2.195,0,0,1-2.189,2.188H216.688a2.194,2.194,0,0,1-2.188-2.188v-4.024A2.2,2.2,0,0,1,216.688,2716.08Z" transform="translate(-202.309 -2561.713)" fill="#585b63" fill-rule="evenodd"/>
      <path id="Path_4905" data-name="Path 4905" d="M1459.772,1747.35c-8.442,13.112-16.6,14.614-25.852,2.427C1444.7,1754.182,1451.321,1752.8,1459.772,1747.35Z" transform="translate(-1352.424 -1648.041)" fill="#363b47" fill-rule="evenodd"/>
      <path id="Path_4906" data-name="Path 4906" d="M1451.489,945.632c1.488,2.259,1.237,6.272-.889,8.692a5.2,5.2,0,0,0,2.884-2.092c1.035-1.5,1.875-4,1.116-4.945a6.132,6.132,0,0,0-3.112-1.658Z" transform="translate(-1368.156 -891.887)" fill="#faba52" fill-rule="evenodd"/>
      <path id="Path_4907" data-name="Path 4907" d="M1899.4,914.82c1.842,1.981,2.261,5.98.568,8.72a5.2,5.2,0,0,0,2.5-2.542c.772-1.648,1.186-4.259.281-5.058a6.141,6.141,0,0,0-3.344-1.119Z" transform="translate(-1791.448 -862.828)" fill="#faba52" fill-rule="evenodd"/>
      <path id="Path_4908" data-name="Path 4908" d="M287.81,87.536c-1.221,6.164-6.2,3.291-4.444-.943-1.25,1.793-3.094,3.59-4.3,3.069-1.107-.476-2.124-2.551.335-5.429-8.758-1.031-7.989-7-5.383-13.032,2.415-5.591,8.639-11.594,17.236-10.144a16.944,16.944,0,0,1,14.169,14.493c.849,6.593-.872,13.156-9.523,11.356,1.567,3.533.335,4.667-.853,4.77-1.294.114-2.5-1.591-3.2-3.7.528,4.609-4.547,5.847-4.035-.433Z" transform="translate(-256.79 -57.38)" fill="#111d38" fill-rule="evenodd"/>
      <path id="Path_4909" data-name="Path 4909" d="M603.276,233.436a5.67,5.67,0,1,1-6.509,4.687,5.67,5.67,0,0,1,6.509-4.687Z" transform="translate(-562.779 -220.099)" fill="#faba52" fill-rule="evenodd"/>
      <path id="Path_4910" data-name="Path 4910" d="M371.619,219.962a4.785,4.785,0,1,1-5.491,3.955A4.785,4.785,0,0,1,371.619,219.962Z" transform="translate(-345.26 -207.402)" fill="#ffa00a" fill-rule="evenodd"/>
      <path id="Path_4911" data-name="Path 4911" d="M2428.466,177.313l17.358-5a2.065,2.065,0,0,1,2.549,1.409l4.528,15.719a2.065,2.065,0,0,1-1.408,2.549l-17.358,5a2.065,2.065,0,0,1-2.549-1.412l-4.528-15.718a2.065,2.065,0,0,1,1.409-2.549Zm9.776,1.315a3.682,3.682,0,0,1,4.386,2.425,3.365,3.365,0,0,1-1.374,3.886l1.126,3.9-2.208.636-1.124-3.9a3.363,3.363,0,0,1-3.23-2.558,3.682,3.682,0,0,1,2.424-4.387Z" transform="translate(-2289.041 -162.445)" fill="#111d38" fill-rule="evenodd"/>
      <path id="Path_4912" data-name="Path 4912" d="M2435.5,15.536l-1.271-4.415a8.111,8.111,0,0,1,2.89-9.12,9.674,9.674,0,0,1,3.212-1.6,9.912,9.912,0,0,1,3.581-.348,8.186,8.186,0,0,1,7.407,6.138l-4.035,1.163a4.149,4.149,0,0,0-3.74-3.132,5.7,5.7,0,0,0-2.053.2,5.536,5.536,0,0,0-1.839.909,4.09,4.09,0,0,0-1.386,4.621l1.272,4.415-4.035,1.163Z" transform="translate(-2295.511 -0.021)" fill="#111d38"/>
      <path id="Path_4913" data-name="Path 4913" d="M196.789,2560.41h30.7a3.651,3.651,0,0,1,2.577,1.073l0,0,0,0,.006.006a3.649,3.649,0,0,1,1.068,2.572v1.2a3.651,3.651,0,0,1-1.08,2.582l0,0a3.646,3.646,0,0,1-2.585,1.073h-30.7a3.665,3.665,0,0,1-3.659-3.66v-1.2a3.649,3.649,0,0,1,1.072-2.586,2.19,2.19,0,0,1,.178-.159,3.642,3.642,0,0,1,2.407-.915Zm30.122,4.238H197.368v.043h29.545v-.041Z" transform="translate(-182.154 -2414.891)" fill="#111d38"/>
      <path id="Path_4914" data-name="Path 4914" d="M231.95,2597.7h30.7a1.544,1.544,0,0,1,1.54,1.54v1.2a1.544,1.544,0,0,1-1.54,1.541h-30.7a1.544,1.544,0,0,1-1.54-1.541v-1.2A1.544,1.544,0,0,1,231.95,2597.7Z" transform="translate(-217.315 -2450.062)" fill="#a3a7b5" fill-rule="evenodd"/>
      <path id="Path_4915" data-name="Path 4915" d="M261.6,2627.63h28.488a.93.93,0,0,1,.928.93v.723a.93.93,0,0,1-.928.925H261.6a.931.931,0,0,1-.928-.928v-.72A.93.93,0,0,1,261.6,2627.63Z" transform="translate(-245.855 -2478.291)" fill="#7e8396" fill-rule="evenodd"/>
    </g>
  </g>
</svg>
