<svg xmlns="http://www.w3.org/2000/svg" xmlns:xlink="http://www.w3.org/1999/xlink" width="110.053" height="89.55" viewBox="0 0 110.053 89.55">
  <defs>
    <linearGradient id="linear-gradient" x1="0.5" y1="1" x2="0.5" gradientUnits="objectBoundingBox">
      <stop offset="0" stop-color="gray" stop-opacity="0.251"/>
      <stop offset="0.54" stop-color="gray" stop-opacity="0.122"/>
      <stop offset="1" stop-color="gray" stop-opacity="0.102"/>
    </linearGradient>
    <linearGradient id="linear-gradient-3" x1="0.5" x2="0.5" xlink:href="#linear-gradient"/>
    <linearGradient id="linear-gradient-4" x1="0.5" x2="0.5" xlink:href="#linear-gradient"/>
    <linearGradient id="linear-gradient-6" x1="0.5" x2="0.5" xlink:href="#linear-gradient"/>
    <linearGradient id="linear-gradient-7" x1="0.5" x2="0.5" xlink:href="#linear-gradient"/>
  </defs>
  <g id="undraw_taking_notes_tjaf" transform="translate(0 0)">
    <path id="Oval" d="M11.249,0C17.461,0,22.5.843,22.5,1.884S17.461,3.768,11.249,3.768,0,2.924,0,1.884,5.036,0,11.249,0Z" transform="translate(55.326 85.782)" fill="#897edc" opacity="0.1"/>
    <path id="Shape" d="M66.1,11.073c-4.605,3.9-10.58,3.652-15.81,1.621S40.245,7.046,35.146,4.475A42.543,42.543,0,0,0,21.839.275c-6.5-.9-13.76.2-18.289,6.509-5.044,7.029-4.656,19.707.8,26.163,2.775,3.282,6.408,4.893,9.577,7.456s6.1,6.818,5.832,11.764c-.249,4.58-3.156,8.1-6.16,10.3-2.324,1.7-5.185,3.564-5.47,7.093-.271,3.415,2.134,6.09,4.433,7.613a21.376,21.376,0,0,0,24.193-.125c2.664-1.8,5.112-4.191,7.906-5.593,7.334-3.68,15.416.024,23.181,1.379A38.615,38.615,0,0,0,87.559,71.1c3.846-1.375,7.706-3.478,10.408-7.4,1.948-2.825,3.162-6.4,4.3-9.931q1.824-5.648,3.5-11.374a33.6,33.6,0,0,0,1.508-7.08,25.383,25.383,0,0,0-2.818-12.586C100.179,13.823,92.956,7.562,85.137,5.971s-16.1,1.516-22.17,8.313" transform="translate(0 0)" fill="#ffa00a" opacity="0.3"/>
    <g id="Group" transform="translate(35.487 20.752)" opacity="0.35">
      <path id="Shape-2" data-name="Shape" d="M17.211.7V0H6.187c-.507,0-.2.7-.2.7H0V16.384H26.3V.7Z" transform="translate(0 0)" fill="#897edc" opacity="0.2"/>
    </g>
    <path id="Shape-3" data-name="Shape" d="M0,14.172S3.314,8.3,8.31,6.613a10.212,10.212,0,0,0,5.174-3.869A17.107,17.107,0,0,0,15.01,0" transform="translate(87.664 18.975)" fill="none" stroke="#535461" stroke-miterlimit="10" stroke-width="0.5"/>
    <path id="Shape-4" data-name="Shape" d="M3.217,2.463C2.649,3.015,0,3.586,0,3.586S.649.958,1.218.4a1.435,1.435,0,1,1,2,2.059Z" transform="translate(102.592 15.427)" fill="#897edc"/>
    <path id="Shape-5" data-name="Shape" d="M3.311,2.841C2.534,3,0,2.035,0,2.035S1.975.182,2.753.027a1.434,1.434,0,1,1,.559,2.813Z" transform="translate(101 19.804)" fill="#897edc"/>
    <path id="Shape-6" data-name="Shape" d="M2.451,2.775C1.7,2.517,0,.41,0,.41s2.641-.6,3.39-.345a1.434,1.434,0,1,1-.939,2.71Z" transform="translate(96.404 25.021)" fill="#897edc"/>
    <path id="Shape-7" data-name="Shape" d="M2.816,2.838C2.034,2.711,0,.924,0,.924S2.5-.117,3.284.011a1.434,1.434,0,1,1-.468,2.83Z" transform="translate(91.033 27.924)" fill="#897edc"/>
    <path id="Shape-8" data-name="Shape" d="M0,1.473c0,.793,1.434,3.09,1.434,3.09s1.437-2.3,1.437-3.089A1.436,1.436,0,1,0,0,1.474Z" transform="translate(98.79 18.315)" fill="#897edc"/>
    <path id="Shape-9" data-name="Shape" d="M.084,1.926c.237.756,2.293,2.523,2.293,2.523s.683-2.621.446-3.377a1.435,1.435,0,1,0-2.735.857Z" transform="translate(92.897 21.405)" fill="#897edc"/>
    <path id="Shape-10" data-name="Shape" d="M.023,1.718C.128,2.5,1.857,4.589,1.857,4.589S2.973,2.122,2.868,1.336a1.436,1.436,0,1,0-2.84.382Z" transform="translate(87.783 25.831)" fill="#897edc"/>
    <path id="Shape-11" data-name="Shape" d="M3.217,2.463C2.649,3.015,0,3.586,0,3.586S.649.958,1.218.4a1.435,1.435,0,1,1,2,2.059Z" transform="translate(102.592 15.427)" fill="#51cf66" opacity="0.85"/>
    <path id="Shape-12" data-name="Shape" d="M3.311,2.841C2.534,3,0,2.035,0,2.035S1.975.182,2.753.027a1.434,1.434,0,1,1,.559,2.813Z" transform="translate(101 19.804)" fill="#51cf66" opacity="0.85"/>
    <path id="Shape-13" data-name="Shape" d="M2.451,2.775C1.7,2.517,0,.41,0,.41s2.641-.6,3.39-.345a1.434,1.434,0,1,1-.939,2.71Z" transform="translate(96.404 25.021)" fill="#51cf66" opacity="0.85"/>
    <path id="Shape-14" data-name="Shape" d="M2.816,2.838C2.034,2.711,0,.924,0,.924S2.5-.117,3.284.011a1.434,1.434,0,1,1-.468,2.83Z" transform="translate(91.033 27.924)" fill="#51cf66" opacity="0.95"/>
    <path id="Shape-15" data-name="Shape" d="M0,1.473c0,.793,1.434,3.09,1.434,3.09s1.437-2.3,1.437-3.089A1.436,1.436,0,1,0,0,1.474Z" transform="translate(98.79 18.315)" fill="#51cf66" opacity="0.85"/>
    <path id="Shape-16" data-name="Shape" d="M.084,1.926c.237.756,2.293,2.523,2.293,2.523s.683-2.621.446-3.377a1.435,1.435,0,1,0-2.735.857Z" transform="translate(92.897 21.405)" fill="#51cf66" opacity="0.85"/>
    <path id="Shape-17" data-name="Shape" d="M.023,1.718C.128,2.5,1.857,4.589,1.857,4.589S2.973,2.122,2.868,1.336a1.436,1.436,0,1,0-2.84.382Z" transform="translate(87.783 25.831)" opacity="0.25"/>
    <path id="Shape-18" data-name="Shape" d="M0,19.034S.65,12.327,4.523,8.76A10.2,10.2,0,0,0,7.684,3.128,17.091,17.091,0,0,0,7.967,0" transform="translate(87.855 13.996)" fill="none" stroke="#535461" stroke-miterlimit="10" stroke-width="0.5"/>
    <path id="Shape-19" data-name="Shape" d="M2.76,1.973C2.464,2.709.274,4.3.274,4.3S-.2,1.634.1.9A1.435,1.435,0,0,1,2.76,1.971Z" transform="translate(95.498 9.761)" fill="#51cf66"/>
    <path id="Shape-20" data-name="Shape" d="M3.353,2.607c-.648.456-3.353.6-3.353.6S1.052.717,1.7.261A1.434,1.434,0,1,1,3.353,2.607Z" transform="translate(95.464 14.083)" fill="#51cf66"/>
    <path id="Shape-21" data-name="Shape" d="M3.2,2.864C2.41,2.93,0,1.693,0,1.693S2.17.071,2.96.005A1.434,1.434,0,1,1,3.2,2.864Z" transform="translate(92.716 20.743)" fill="#51cf66"/>
    <path id="Shape-22" data-name="Shape" d="M3.352,2.823C2.585,3.023,0,2.21,0,2.21S1.865.245,2.63.046A1.434,1.434,0,1,1,3.35,2.823Z" transform="translate(89.19 25.522)" fill="#51cf66"/>
    <path id="Shape-23" data-name="Shape" d="M.127,2.02c.321.724,2.563,2.244,2.563,2.244s.382-2.681.061-3.405A1.436,1.436,0,0,0,.122,2.014Z" transform="translate(92.484 14.292)" fill="#51cf66"/>
    <path id="Shape-24" data-name="Shape" d="M.357,2.381c.526.6,3.118,1.375,3.118,1.375S3.036,1.084,2.513.488A1.434,1.434,0,0,0,.357,2.38Z" transform="translate(88.379 19.527)" fill="#51cf66"/>
    <path id="Shape-25" data-name="Shape" d="M.2,2.16a11.484,11.484,0,0,0,2.84,1.882S3.064,1.333,2.643.658A1.436,1.436,0,0,0,.2,2.16Z" transform="translate(85.517 25.695)" fill="#897edc"/>
    <path id="Shape-26" data-name="Shape" d="M7.409,18.576S3.307,13.495,3.565,8.4A9.893,9.893,0,0,0,1.928,2.355,16.637,16.637,0,0,0,0,0" transform="translate(8.736 41.588)" fill="none" stroke="#535461" stroke-miterlimit="10" stroke-width="0.5"/>
    <path id="Shape-27" data-name="Shape" d="M2.674.857a11.018,11.018,0,0,1-.136,3.3S.4,2.632.106,1.922A1.391,1.391,0,0,1,2.676.858Z" transform="translate(6.206 37.517)" fill="#51cf66"/>
    <path id="Shape-28" data-name="Shape" d="M2.749,1.66A11.013,11.013,0,0,1,.84,4.353a10.9,10.9,0,0,1-.826-3.2,1.391,1.391,0,1,1,2.735.5Z" transform="translate(9.887 39.764)" fill="#51cf66"/>
    <path id="Shape-29" data-name="Shape" d="M3.009,2.254A11.012,11.012,0,0,1,0,3.616,11.008,11.008,0,0,1,.9.44a1.39,1.39,0,0,1,2.1,1.815Z" transform="translate(12.313 45.922)" fill="#51cf66"/>
    <path id="Shape-30" data-name="Shape" d="M2.736,2.092A11.019,11.019,0,0,1,0,3.943,10.973,10.973,0,0,1,.353.66,1.39,1.39,0,0,1,2.736,2.092Z" transform="translate(13.47 51.651)" fill="#897edc"/>
    <path id="Shape-31" data-name="Shape" d="M.843,2.67a11.046,11.046,0,0,0,3.3-.187S2.584.369,1.871.085A1.391,1.391,0,0,0,.843,2.67Z" transform="translate(7.238 42.703)" fill="#51cf66"/>
    <path id="Shape-32" data-name="Shape" d="M1.29,2.776A11.036,11.036,0,0,0,4.38,1.613,11.024,11.024,0,0,0,1.5,0a1.39,1.39,0,1,0-.21,2.772Z" transform="translate(7.909 49.095)" fill="#51cf66"/>
    <path id="Shape-33" data-name="Shape" d="M1.055,2.736A10.984,10.984,0,0,0,4.3,2.105,10.98,10.98,0,0,0,1.727.042a1.39,1.39,0,1,0-.672,2.7Z" transform="translate(10.096 55.299)" fill="#51cf66"/>
    <path id="Shape-34" data-name="Shape" d="M2.208,0s.8,1.051-.37,2.628S-.3,5.549.088,6.537c0,0,1.77-2.944,3.21-2.983S3.793,1.768,2.208,0Z" transform="translate(101.573 68.693)" fill="#51cf66"/>
    <path id="Shape-35" data-name="Shape" d="M2.163,0a1.3,1.3,0,0,1,.164.329c1.405,1.651,2.154,3.191.8,3.23C1.868,3.594.362,5.843,0,6.412a1.242,1.242,0,0,0,.043.129S1.813,3.6,3.253,3.559,3.748,1.768,2.163,0Z" transform="translate(101.618 68.693)" opacity="0.1"/>
    <path id="Shape-36" data-name="Shape" d="M.185.236C.185.606.143.9.093.9S0,.606,0,.236.052.042.105.042.185-.133.185.236Z" transform="translate(105.088 69.793)" fill="#ffd037"/>
    <path id="Shape-37" data-name="Shape" d="M.633.253C.309.43.026.536,0,.492S.22.267.544.09s.2-.048.221,0S.958.077.633.253Z" transform="translate(105.152 70.217)" fill="#ffd037"/>
    <path id="Shape-38" data-name="Shape" d="M1.8,0s-.8,1.051.37,2.628S4.312,5.549,3.921,6.537c0,0-1.77-2.944-3.21-2.983S.216,1.768,1.8,0Z" transform="translate(97.741 68.693)" fill="#51cf66"/>
    <path id="Shape-39" data-name="Shape" d="M1.8,0a1.261,1.261,0,0,0-.164.329C.231,1.98-.517,3.52.833,3.559,2.1,3.594,3.6,5.843,3.964,6.412c-.013.043-.026.086-.043.129,0,0-1.77-2.944-3.21-2.983S.216,1.768,1.8,0Z" transform="translate(97.741 68.693)" opacity="0.1"/>
    <path id="Shape-40" data-name="Shape" d="M0,.236C0,.606.042.9.093.9S.185.606.185.236.134.042.08.042,0-.133,0,.236Z" transform="translate(98.048 69.793)" fill="#ffd037"/>
    <path id="Shape-41" data-name="Shape" d="M.2.253C.522.43.805.536.828.492S.609.267.286.09.089.042.065.09-.127.077.2.253Z" transform="translate(97.34 70.217)" fill="#ffd037"/>
    <path id="Oval-2" data-name="Oval" d="M8.392,0c4.635,0,8.392.576,8.392,1.287S13.027,2.574,8.392,2.574,0,2,0,1.287,3.757,0,8.392,0Z" transform="translate(93.269 80.684)" fill="#897edc" opacity="0.1"/>
    <path id="Shape-42" data-name="Shape" d="M8.641.49,8.6.817l-.057.463-.023.193-.056.463-.025.193-.056.463L7.741,7.848c-.057.47-.825.841-1.751.841H2.653C1.727,8.689.96,8.323.9,7.848L.259,2.592.2,2.129.179,1.935.123,1.473.1,1.279.043.817,0,.49C-.03.224.386,0,.909,0H7.734C8.258,0,8.673.224,8.641.49Z" transform="translate(97.339 73.33)" fill="#191919"/>
    <path id="Shape-43" data-name="Shape" d="M8.558,0,8.5.463H.056L0,0Z" transform="translate(97.382 74.147)" fill="#ffa00a"/>
    <path id="Shape-44" data-name="Shape" d="M8.4,0,8.342.463H.058L0,0Z" transform="translate(97.461 74.803)" fill="#ffa00a"/>
    <path id="Shape-45" data-name="Shape" d="M8.237,0,8.181.462H.057L0,0Z" transform="translate(97.542 75.459)" fill="#ffa00a"/>
    <path id="Shape-46" data-name="Shape" d="M12.908,2.471h-.088a.646.646,0,0,0,.2-.455l-.8-.8.305-.683H11.5L11.686,0h-.609L4.339,2.244a1.883,1.883,0,0,0,0,.227H0V22.01H18.845V2.471Z" transform="translate(71.629 17.08)" fill="url(#linear-gradient)"/>
    <path id="Rectangle-path" d="M0,0H18.561V19.265H0Z" transform="translate(71.769 19.619)" fill="#f6f7f9"/>
    <path id="Shape-47" data-name="Shape" d="M8.446,0C7.566,1.294,1.693,3,1.693,3L1.73,1.65H.643a.615.615,0,0,0-.3-.675C.027.8,0,.239,0,0Z" transform="translate(76.039 19.619)" opacity="0.1"/>
    <path id="Shape-48" data-name="Shape" d="M6.642.005.005,2.213S-.07,3.075.342,3.3a.617.617,0,0,1,.3.675H1.729L1.693,5.323S8.667,3.3,8.554,1.988L7.767,1.2l.3-.675H7.054L7.242,0Z" transform="translate(76.039 17.178)" fill="#9d9cb5"/>
    <g id="Group-2" data-name="Group" transform="translate(75.2 25.864)" opacity="0.35">
      <path id="Rectangle-path-2" data-name="Rectangle-path" d="M0,0H11.7V.328H0Z" transform="translate(0 0)" fill="#897edc" opacity="0.2"/>
    </g>
    <g id="Group-3" data-name="Group" transform="translate(75.2 27.593)" opacity="0.35">
      <path id="Rectangle-path-3" data-name="Rectangle-path" d="M0,0H11.7V.328H0Z" transform="translate(0 0)" fill="#897edc" opacity="0.2"/>
    </g>
    <g id="Group-4" data-name="Group" transform="translate(75.2 29.322)" opacity="0.35">
      <path id="Rectangle-path-4" data-name="Rectangle-path" d="M0,0H11.7V.328H0Z" transform="translate(0 0)" fill="#897edc" opacity="0.2"/>
    </g>
    <g id="Group-5" data-name="Group" transform="translate(75.2 31.05)" opacity="0.35">
      <path id="Rectangle-path-5" data-name="Rectangle-path" d="M0,0H11.7V.328H0Z" transform="translate(0 0)" fill="#897edc" opacity="0.2"/>
    </g>
    <g id="Group-6" data-name="Group" transform="translate(75.2 32.778)" opacity="0.35">
      <path id="Rectangle-path-6" data-name="Rectangle-path" d="M0,0H11.7V.328H0Z" transform="translate(0 0)" fill="#897edc" opacity="0.2"/>
    </g>
    <g id="Group-7" data-name="Group" transform="translate(75.2 34.508)" opacity="0.35">
      <path id="Rectangle-path-7" data-name="Rectangle-path" d="M0,0H11.7V.328H0Z" transform="translate(0 0)" fill="#897edc" opacity="0.2"/>
    </g>
    <path id="Shape-49" data-name="Shape" d="M9.422,2.463H9.377A11.012,11.012,0,0,0,10,.622c-.029-.315-.662.37-.691.2S9.312,0,9.025,0s-.461.337-.631.337S7.53.224,7.53.224L6.648,2.463H0V23.331H16.5V2.463Z" transform="translate(12.226 15.504)" fill="url(#linear-gradient)"/>
    <path id="Rectangle-path-8" data-name="Rectangle-path" d="M0,0H16.124V20.612H0Z" transform="translate(12.411 18.083)" fill="#f6f7f9"/>
    <path id="Shape-50" data-name="Shape" d="M3.4,0c-.34.882-.723,1.811-.81,2.033-.169.421-.281.2-.479.141s-.449.056-.562,0a3.544,3.544,0,0,0-.773,0,2.174,2.174,0,0,0,0-.31c-.015-.111-.774,0-.774,0L.724,0Z" transform="translate(18.224 18.083)" opacity="0.1"/>
    <path id="Shape-51" data-name="Shape" d="M1.547.221,0,4.184s.759-.112.773,0a2.008,2.008,0,0,1,0,.309,3.488,3.488,0,0,1,.774,0c.113.057.365-.057.562,0s.309.281.479-.141A36.074,36.074,0,0,0,3.966.614C3.937.3,3.319.98,3.29.811S3.29,0,3.009,0s-.45.333-.619.333S1.547.221,1.547.221Z" transform="translate(18.224 15.651)" fill="#9d9cb5"/>
    <g id="Group-8" data-name="Group" transform="translate(14.624 23.554)" opacity="0.35">
      <path id="Rectangle-path-9" data-name="Rectangle-path" d="M0,0H11.7V.328H0Z" transform="translate(0 0)" fill="#897edc" opacity="0.2"/>
    </g>
    <g id="Group-9" data-name="Group" transform="translate(14.624 24.791)" opacity="0.35">
      <path id="Rectangle-path-10" data-name="Rectangle-path" d="M0,0H11.7V.328H0Z" transform="translate(0 0)" fill="#897edc" opacity="0.2"/>
    </g>
    <g id="Group-10" data-name="Group" transform="translate(14.624 26.028)" opacity="0.35">
      <path id="Rectangle-path-11" data-name="Rectangle-path" d="M0,0H11.7V.328H0Z" transform="translate(0 0)" fill="#897edc" opacity="0.2"/>
    </g>
    <g id="Group-11" data-name="Group" transform="translate(14.624 27.265)" opacity="0.35">
      <path id="Rectangle-path-12" data-name="Rectangle-path" d="M0,0H11.7V.328H0Z" transform="translate(0 0)" fill="#897edc" opacity="0.2"/>
    </g>
    <g id="Group-12" data-name="Group" transform="translate(14.624 28.501)" opacity="0.35">
      <path id="Rectangle-path-13" data-name="Rectangle-path" d="M0,0H11.7V.328H0Z" transform="translate(0 0)" fill="#897edc" opacity="0.2"/>
    </g>
    <g id="Group-13" data-name="Group" transform="translate(14.624 29.738)" opacity="0.35">
      <path id="Rectangle-path-14" data-name="Rectangle-path" d="M0,0H11.7V.328H0Z" transform="translate(0 0)" fill="#897edc" opacity="0.2"/>
    </g>
    <path id="Shape-52" data-name="Shape" d="M11.539,3.038h-.044A13.58,13.58,0,0,0,12.262.767c-.035-.386-.811.456-.841.246S11.42,0,11.068,0s-.564.421-.775.421S9.234.28,9.234.28L8.147,3.038H0V28.784H20.22V3.038Z" transform="translate(70.954 45.784)" fill="url(#linear-gradient-3)"/>
    <path id="Rectangle-path-15" data-name="Rectangle-path" d="M0,0H19.868V25.4H0Z" transform="translate(71.116 49.001)" fill="#f6f7f9"/>
    <path id="Shape-53" data-name="Shape" d="M4.176,0C3.761,1.079,3.3,2.208,3.188,2.479c-.21.519-.346.242-.589.173s-.554.068-.693,0a4.39,4.39,0,0,0-.953,0,2.673,2.673,0,0,0,0-.382c-.018-.138-.953,0-.953,0L.887,0Z" transform="translate(78.278 49.001)" opacity="0.1"/>
    <path id="Shape-54" data-name="Shape" d="M1.906.272,0,5.156s.935-.139.953,0a2.657,2.657,0,0,1,0,.381,4.39,4.39,0,0,1,.953,0c.139.068.45-.068.693,0s.381.347.589-.172A44.625,44.625,0,0,0,4.886.757c-.035-.381-.8.45-.832.243s0-1-.346-1-.554.411-.763.411S1.906.272,1.906.272Z" transform="translate(78.278 46.004)" fill="#9d9cb5"/>
    <g id="Group-14" data-name="Group" transform="translate(75.2 56.099)" opacity="0.35">
      <path id="Rectangle-path-16" data-name="Rectangle-path" d="M0,0H11.7V.834H0Z" transform="translate(0 0)" fill="#897edc" opacity="0.2"/>
    </g>
    <g id="Group-15" data-name="Group" transform="translate(75.2 61.514)" opacity="0.35">
      <path id="Rectangle-path-17" data-name="Rectangle-path" d="M0,0H11.7V.834H0Z" transform="translate(0 0)" fill="#897edc" opacity="0.2"/>
    </g>
    <g id="Group-16" data-name="Group" transform="translate(75.2 66.931)" opacity="0.35">
      <path id="Rectangle-path-18" data-name="Rectangle-path" d="M0,0H11.7V.834H0Z" transform="translate(0 0)" fill="#897edc" opacity="0.2"/>
    </g>
    <path id="Shape-55" data-name="Shape" d="M13.483,3.109V0H9.117V3.109H0V27.6H21.413V3.109Z" transform="translate(11.548 46.594)" fill="url(#linear-gradient-4)"/>
    <path id="Rectangle-path-19" data-name="Rectangle-path" d="M0,0H20.961V24.21H0Z" transform="translate(11.775 49.827)" fill="#f6f7f9"/>
    <path id="Rectangle-path-20" data-name="Rectangle-path" d="M0,0H4.275V3.3H0Z" transform="translate(20.699 49.827)" opacity="0.1"/>
    <path id="Rectangle-path-21" data-name="Rectangle-path" d="M0,0H4.275V6.259H0Z" transform="translate(20.699 46.754)" fill="#9d9cb5"/>
    <g id="Group-17" data-name="Group" transform="translate(16.405 55.682)" opacity="0.35">
      <path id="Rectangle-path-22" data-name="Rectangle-path" d="M0,0H11.7V.834H0Z" transform="translate(0 0)" fill="#897edc" opacity="0.2"/>
    </g>
    <g id="Group-18" data-name="Group" transform="translate(16.405 57.34)" opacity="0.35">
      <path id="Rectangle-path-23" data-name="Rectangle-path" d="M0,0H11.7V.834H0Z" transform="translate(0 0)" fill="#897edc" opacity="0.2"/>
    </g>
    <g id="Group-19" data-name="Group" transform="translate(16.405 58.999)" opacity="0.35">
      <path id="Rectangle-path-24" data-name="Rectangle-path" d="M0,0H11.7V.834H0Z" transform="translate(0 0)" fill="#897edc" opacity="0.2"/>
    </g>
    <g id="Group-20" data-name="Group" transform="translate(16.405 60.657)" opacity="0.35">
      <path id="Rectangle-path-25" data-name="Rectangle-path" d="M0,0H11.7V.834H0Z" transform="translate(0 0)" fill="#897edc" opacity="0.2"/>
    </g>
    <g id="Group-21" data-name="Group" transform="translate(24.973 62.503)" opacity="0.35">
      <path id="Rectangle-path-26" data-name="Rectangle-path" d="M0,0H3.131V2.529H0Z" transform="translate(0 0)" fill="#897edc" opacity="0.2"/>
    </g>
    <g id="Group-22" data-name="Group" transform="translate(16.405 65.632)" opacity="0.35">
      <path id="Rectangle-path-27" data-name="Rectangle-path" d="M0,0H3.131V2.529H0Z" transform="translate(0 0)" fill="#897edc" opacity="0.2"/>
    </g>
    <path id="Shape-56" data-name="Shape" d="M13.847,2.874h-.029c.341-1.332.6-2.393.6-2.393l-1.454.683S11.929-.2,11.547.026s-1.22.8-1.22.8L9.214.253,8.788,2.874H0V21.786l.565.337c.466-.167,1.233-.451,1.233-.451l-.352.978.238.141.4-.363.148.693.476.285.752-.478-.21.805.706.421,2.052-.771L5.39,25.01l.407.244.929-.163s-.042.325-.068.677l.932.557c.382-.148.742-.294.742-.294s-.037.355-.054.7l.625.374c.493-.288,1.121-.68,1.121-.68l-.526.978H21.373V2.874Z" transform="translate(41.256 46.79)" fill="url(#linear-gradient-4)"/>
    <path id="Shape-57" data-name="Shape" d="M20.96,0V24.21H9.312l.52-.964s-.615.386-1.1.671l-.612-.37c.017-.344.054-.695.054-.695s-.353.144-.728.29l-.914-.55c.026-.347.066-.668.066-.668l-.91.161-.4-.241L5.9,20.238,3.884,21l-.693-.421.2-.795-.736.472-.467-.281-.145-.683-.393.36-.234-.14.346-.964s-.752.28-1.21.445L0,18.66V0Z" transform="translate(41.436 49.827)" fill="#f6f7f9"/>
    <g id="Group-23" data-name="Group" transform="translate(46.066 57.34)" opacity="0.35">
      <path id="Rectangle-path-28" data-name="Rectangle-path" d="M0,0H11.7V.834H0Z" transform="translate(0 0)" fill="#897edc" opacity="0.2"/>
    </g>
    <g id="Group-24" data-name="Group" transform="translate(46.066 59.833)" opacity="0.35">
      <path id="Rectangle-path-29" data-name="Rectangle-path" d="M0,0H11.7V.834H0Z" transform="translate(0 0)" fill="#897edc" opacity="0.2"/>
    </g>
    <g id="Group-25" data-name="Group" transform="translate(46.066 62.325)" opacity="0.35">
      <path id="Rectangle-path-30" data-name="Rectangle-path" d="M0,0H11.7V.834H0Z" transform="translate(0 0)" fill="#897edc" opacity="0.2"/>
    </g>
    <g id="Group-26" data-name="Group" transform="translate(46.066 64.817)" opacity="0.35">
      <path id="Rectangle-path-31" data-name="Rectangle-path" d="M0,0H2.344V.834H0Z" transform="translate(0 0)" fill="#897edc" opacity="0.2"/>
    </g>
    <path id="Shape-58" data-name="Shape" d="M5.742,0c-.57,2.248-1.4,5.362-1.618,5.307-.337-.091-.863-.736-.863-.736s-1.237,1.162-1.837.562A1.293,1.293,0,0,0,0,4.946L.8,0Z" transform="translate(49.272 49.826)" opacity="0.1"/>
    <path id="Shape-59" data-name="Shape" d="M1.2.25,0,7.671a1.289,1.289,0,0,1,1.424.188c.6.6,1.838-.565,1.838-.565s.526.643.863.736S6.3.475,6.3.475L4.874,1.15S3.862-.2,3.487.025s-1.2.787-1.2.787Z" transform="translate(49.272 46.995)" fill="#9d9cb5"/>
    <path id="Shape-60" data-name="Shape" d="M17.426.712V0H6.264c-.512,0-.2.712-.2.712H0V16.58H26.623V.705Z" transform="translate(42.849 14.159)" fill="url(#linear-gradient-6)"/>
    <path id="Rectangle-path-32" data-name="Rectangle-path" d="M0,0H26.295V15.685H0Z" transform="translate(43.017 14.947)" fill="#f6f7f9"/>
    <path id="Shape-61" data-name="Shape" d="M11.262,2.558H.829s-.113-1.209.254-1.433S.041.112.041.112A1.172,1.172,0,0,1,0,0H11.262V.366S12.7,1.631,11.262,2.558Z" transform="translate(48.967 14.947)" opacity="0.1"/>
    <path id="Shape-62" data-name="Shape" d="M.29,0H11.315V.956s1.435,1.262,0,2.192H.881s-.113-1.209.254-1.433S.094.7.094.7-.216,0,.29,0Z" transform="translate(48.914 14.244)" fill="#9d9cb5"/>
    <g id="Group-27" data-name="Group" transform="translate(46.248 19.866)" opacity="0.35">
      <path id="Rectangle-path-33" data-name="Rectangle-path" d="M0,0H19.836V.328H0Z" transform="translate(0 0)" fill="#897edc" opacity="0.2"/>
    </g>
    <g id="Group-28" data-name="Group" transform="translate(46.248 21.102)" opacity="0.35">
      <path id="Rectangle-path-34" data-name="Rectangle-path" d="M0,0H11.849V.328H0Z" transform="translate(0 0)" fill="#897edc" opacity="0.2"/>
    </g>
    <g id="Group-29" data-name="Group" transform="translate(46.248 22.34)" opacity="0.35">
      <path id="Rectangle-path-35" data-name="Rectangle-path" d="M0,0H19.836V.328H0Z" transform="translate(0 0)" fill="#897edc" opacity="0.2"/>
    </g>
    <g id="Group-30" data-name="Group" transform="translate(46.248 23.576)" opacity="0.35">
      <path id="Rectangle-path-36" data-name="Rectangle-path" d="M0,0H19.836V.328H0Z" transform="translate(0 0)" fill="#897edc" opacity="0.2"/>
    </g>
    <g id="Group-31" data-name="Group" transform="translate(46.248 24.812)" opacity="0.35">
      <path id="Rectangle-path-37" data-name="Rectangle-path" d="M0,0H19.836V.328H0Z" transform="translate(0 0)" fill="#897edc" opacity="0.2"/>
    </g>
    <path id="Shape-63" data-name="Shape" d="M33.068,68.763c-.188-.8-.3-1.5-.3-1.5a3.1,3.1,0,0,0-.348-1.525v-.218h0v-1.61a5.431,5.431,0,0,1,.406-.841,6.293,6.293,0,0,0,0-2.361,10.414,10.414,0,0,1-.813-4.273c.262-1.658-2.209-7.365-2.209-7.365a7.238,7.238,0,0,1,.232-1.631,1.294,1.294,0,0,0,.032-.342v-.028a12.663,12.663,0,0,0-.9-3.143l.116-3.908a11.479,11.479,0,0,0-.348-5.4c-.316-1.08-.516-1.943-.644-2.609q-.022-.114-.041-.218c1.854-.283,3.27-.518,3.27-.518s-1.076-4.5-1.8-5.286a10.38,10.38,0,0,1-1.307-3.259s-.379-3.176.232-4.1a6.147,6.147,0,0,0,.7-2.531s1.395-1.011,1.569-1.461a7.428,7.428,0,0,0,.465-2c0-.536-.175-1.012-.116-1.293S30.847,10,31.079,9.49A1.366,1.366,0,0,0,31.172,9a.062.062,0,0,0,0-.015V8.982a6.876,6.876,0,0,0-.123-1.319,3.718,3.718,0,0,0-1.379-.736l-.031-.121L29.56,6.49a1.481,1.481,0,0,0-.138-.082V6.294l-.013-.456.219-1.027c.428-1.787-1.954-2.051-1.954-2.051a1.246,1.246,0,0,0-.674-.6c-.48-.169-.08,2.685.144,2.867a10.637,10.637,0,0,1,.94,1.472h0l.041.073a.985.985,0,0,0-.105.115l.09.619.014.095a2.574,2.574,0,0,0-.38.649,1.38,1.38,0,0,1,.349,1.011,3.09,3.09,0,0,0,.144,1.236c-.026-.029-.332-.362-.638-.281s-1.157.337-1.157.337-.64.112-.581.253-.437.759-.437.759L23.708,9.742c-.017-.048-.034-.1-.049-.147a3.954,3.954,0,0,1-.149-.713,3.918,3.918,0,0,0,.549-.175,1.186,1.186,0,0,0,.475-.3,1.831,1.831,0,0,0,.277-.736,10.381,10.381,0,0,1,.637-1.42A4.624,4.624,0,0,0,25.791,3.7a1.675,1.675,0,0,0-.264-.746c-.28-.386-.789-.542-1.157-.851s-.608-.777-1.039-1.008a2.055,2.055,0,0,0-1.3-.112,7.02,7.02,0,0,0-2.435.885,1.269,1.269,0,0,1-.814.267,1.081,1.081,0,0,1-.586-.43.21.21,0,0,1,.007-.024l-.019-.022a3.028,3.028,0,0,0-.267,1.285,1.8,1.8,0,0,0,.008.21v.073a.372.372,0,0,1,0,.059h0a.329.329,0,0,1-.013.09.671.671,0,0,1-.161.232,1.267,1.267,0,0,0-.14.19c.007-.023.015-.046.023-.069a1.014,1.014,0,0,0-.178.54.54.54,0,0,0,.129.388,1.821,1.821,0,0,0,.28.225,3.275,3.275,0,0,0,1.567,3.4c.02.048.039.1.059.147A4.194,4.194,0,0,1,19.8,10.3c-.006.046-.013.091-.021.137-.022.023-.043.047-.062.071h0s-2.84.027-3.5-.577S14.534,11.4,14.534,11.4s-1.017.2-1.22,0-1.395-.027-1.395-.027a2.563,2.563,0,0,0-1.772-.647,5.251,5.251,0,0,0-1.3-.723h0L8.813,10h0a1.473,1.473,0,0,0-.64-.081,13.275,13.275,0,0,1-1.8-1.77C5.967,7.53,4.028,5.232,4.02,5.221l-.007-.105-.022-.334a1.218,1.218,0,0,1-.174.015l-.039-.116a6.287,6.287,0,0,0-.412-.946s0-.421.123-.526a7.219,7.219,0,0,0-.05-1.652S2.181-1.38,1.056.813c0,0-2.128,1.418-.342,3.07,0,0,.712.346.813.619.066.178.308.673.471,1l.073.147-.02.017.026.275.011.105c-.337.191-.565.38-.509.526a3.117,3.117,0,0,1,.2.759s2.47,3.092,2.79,4.416c0,0,6.627,3.935,8.8,4.217L13,17.934a15.776,15.776,0,0,0-.087,1.6c.029.422-.262,2.334-.262,2.334a15.534,15.534,0,0,1-.7,3.2,5.385,5.385,0,0,0-.261,2.081,14.193,14.193,0,0,1-.437,2.39,6.156,6.156,0,0,0-.086,2.389s-1.1,2.531,1.54.816c0,0,1.3-.081,2.793-.131v.148c0,.192-.006.4-.008.62-.02,1.449-.028,3.445.037,4.956.116,2.67.93,7.955.93,7.955v2.655a3.584,3.584,0,0,0-.077.759,4.939,4.939,0,0,0,.716,2.658l.18,1.753a6.928,6.928,0,0,1,.487,1.864,1.02,1.02,0,0,1-.021.169,1.221,1.221,0,0,0-.023.271,15.229,15.229,0,0,0,.458,2.727s.029,1.94.316,2.052c.248.1-.331,1.118-.5,1.411a.346.346,0,0,0-.011-.056c-.022.038-.036.059-.036.059a1.376,1.376,0,0,0-.09.49.705.705,0,0,0,.322.682c.552.337.849.618.381.736a5.112,5.112,0,0,0-.512.105c-.008-.022-.017-.044-.024-.065a.315.315,0,0,0-.191.34,1.436,1.436,0,0,0,.174.658A7.056,7.056,0,0,0,18.787,67l.223-.025a1.213,1.213,0,0,1-.129.24.931.931,0,0,1-.329.291.991.991,0,0,1-.4.136,1.125,1.125,0,0,0-.824.4.853.853,0,0,0,.105,1.333l2.078.717s3.576.464,3.384-.337-.3-1.5-.3-1.5a3.173,3.173,0,0,0-.29-1.421,1.7,1.7,0,0,0-.126-.21L22.3,66.6a6.494,6.494,0,0,1,.61-2.1c.08-.078.1-.138.079-.183.037-.1-.055-.153-.171-.185L22.8,64.2a1.7,1.7,0,0,0-.347-.039s-.117-.927.261-1.262a.353.353,0,0,0,.074-.275,1.488,1.488,0,0,0-.039-.377c0,.006-.008.015-.014.021A13.693,13.693,0,0,0,21.9,60.09a2.666,2.666,0,0,1,.2-1.18,29.8,29.8,0,0,0-.028-4.583,13.862,13.862,0,0,0-.175-3.007,3.38,3.38,0,0,1,.316-2.081.424.424,0,0,0-.006-.061l.007-.015s-.013-.126-.034-.323a.141.141,0,0,0-.007.019c-.058-.542-.169-1.527-.25-1.982-.117-.647.028-3.739.028-3.739l.526-1.32.93,2.276.989,3.036a2.593,2.593,0,0,1,.5,1.291.477.477,0,0,1-.006.095,1.7,1.7,0,0,0-.012.2,1.8,1.8,0,0,0,.3,1.082,4.711,4.711,0,0,0,.669,1.8,1.618,1.618,0,0,1,.406,1.068,18.042,18.042,0,0,0,.727,2.445,3.561,3.561,0,0,1,.2,1.414h0v.076s.068.743.066,1.367a2.17,2.17,0,0,1-.007.222v-.016a2.24,2.24,0,0,1-.06.506.224.224,0,0,0-.008.028.444.444,0,0,1,.008-.105,5.33,5.33,0,0,0-.145,1.3,3.359,3.359,0,0,0,.553,2.153c.785.9,1.279.787,1.279.787s-.379,1.124-.841,1.349a.3.3,0,0,0-.049.032.47.47,0,0,0-.012-.065.546.546,0,0,0-.136.421,2.993,2.993,0,0,0,.575,1.666.931.931,0,0,0,.392.229.86.86,0,0,1-.074.045,1.4,1.4,0,0,1-.16.075.766.766,0,0,1-.237.062,1.113,1.113,0,0,0-.826.4.852.852,0,0,0,.105,1.332l2.078.717S33.259,69.564,33.068,68.763Z" transform="translate(41.175 18.567)" fill="url(#linear-gradient-7)"/>
    <path id="Shape-64" data-name="Shape" d="M2.374,3.942.363,3.225a.871.871,0,0,1-.1-1.333,1.074,1.074,0,0,1,.8-.4.941.941,0,0,0,.384-.136.912.912,0,0,0,.316-.291A1.482,1.482,0,0,0,1.99.287S4.2-.359,4.8.287A1.618,1.618,0,0,1,5.07.68,3.345,3.345,0,0,1,5.352,2.1s.113.7.295,1.5S2.374,3.942,2.374,3.942Z" transform="translate(58.22 84.716)" fill="#2d293d"/>
    <path id="Shape-65" data-name="Shape" d="M2.374,3.942.362,3.225a.872.872,0,0,1-.1-1.332,1.069,1.069,0,0,1,.8-.4.722.722,0,0,0,.23-.062,1.353,1.353,0,0,0,.155-.075A1.272,1.272,0,0,0,1.994.287S4.2-.359,4.807.287a1.565,1.565,0,0,1,.21.287A3.187,3.187,0,0,1,5.354,2.1s.113.7.3,1.5S2.374,3.942,2.374,3.942Z" transform="translate(68.063 83.725)" fill="#2d293d"/>
    <path id="Shape-66" data-name="Shape" d="M3.042.287a1.618,1.618,0,0,1,.267.392h0L0,1.063A1.482,1.482,0,0,0,.229.286S2.438-.358,3.042.287Z" transform="translate(59.984 84.716)" opacity="0.1"/>
    <path id="Shape-67" data-name="Shape" d="M3.727.574v.619c-.514.847-3,.662-3.727.237a1.353,1.353,0,0,0,.155-.075A1.272,1.272,0,0,0,.7.287s2.209-.647,2.813,0a1.565,1.565,0,0,1,.211.287Z" transform="translate(69.354 83.725)" opacity="0.1"/>
    <path id="Shape-68" data-name="Shape" d="M16.811,32.856a5.571,5.571,0,0,0-.393.841V35.92c-.563.927-3.488.618-3.881.112s-.815-1.827-.366-2.052.814-1.349.814-1.349-.479.112-1.238-.787-.534-2.9-.392-3.373a9.889,9.889,0,0,0,0-2.081,4.165,4.165,0,0,0-.2-1.49,18.306,18.306,0,0,1-.7-2.445,1.654,1.654,0,0,0-.394-1.068,4.8,4.8,0,0,1-.647-1.8,1.845,1.845,0,0,1-.281-1.208,2.451,2.451,0,0,0-.479-1.462L7.7,13.883l-.9-2.277L6.3,12.927s-.141,3.092-.028,3.739.281,2.361.281,2.361a3.469,3.469,0,0,0-.309,2.08,14.409,14.409,0,0,1,.169,3.008A30.761,30.761,0,0,1,6.438,28.7a2.747,2.747,0,0,0-.2,1.181s1.157,2.473.788,2.81-.254,1.262-.254,1.262.788,0,.45.337a6.711,6.711,0,0,0-.591,2.1l-3.4.394a6.859,6.859,0,0,1-.762-1.434c-.446-1.04.084-.927.536-1.04s.166-.393-.368-.736-.225-1.1-.225-1.1.815-1.377.534-1.49-.309-2.052-.309-2.052a12.469,12.469,0,0,1-.421-2.923,5.521,5.521,0,0,0-.455-2.1l-.2-1.771A4.862,4.862,0,0,1,.95,18.8V16.075S.162,10.791.05,8.12C-.022,6.41,0,4.076.021,2.62.035,1.8.05,1.262.05,1.262L12.2,0a9.974,9.974,0,0,0,.221,1.8c.123.667.316,1.53.623,2.609a11.845,11.845,0,0,1,.338,5.4l-.113,3.906s1.069,2.615.841,3.514a7.47,7.47,0,0,0-.225,1.631s2.393,5.7,2.14,7.367a10.686,10.686,0,0,0,.788,4.273A6.478,6.478,0,0,1,16.811,32.856Z" transform="translate(56.663 48.774)" fill="#575988"/>
    <path id="Shape-69" data-name="Shape" d="M0,.492,3.7,0S1.6,2.136,0,.492Z" transform="translate(66.528 66.493)" opacity="0.05"/>
    <path id="Shape-70" data-name="Shape" d="M.675,0S.8,1.307,0,1.8C0,1.8,1.435,1.574.675,0Z" transform="translate(69.016 62.882)" opacity="0.1"/>
    <path id="Shape-71" data-name="Shape" d="M4.371,0S1.28,2.543.156,2.333,4.371,0,4.371,0Z" transform="translate(65.093 58.722)" opacity="0.1"/>
    <path id="Shape-72" data-name="Shape" d="M2.421,0S.073.533,0,1.472,2.421,0,2.421,0Z" transform="translate(59.523 68.181)" opacity="0.1"/>
    <path id="Shape-73" data-name="Shape" d="M2.545,0S-.774.619.168,1.041A16.031,16.031,0,0,0,2.657,1.8S3.726,1.856,2.545,0Z" transform="translate(59.915 79.901)" opacity="0.05"/>
    <g id="Group-32" data-name="Group" transform="translate(56.658 49.951)" opacity="0.05">
      <path id="Shape-74" data-name="Shape" d="M.427.48A.654.654,0,0,1,.123,0L.089.059s-.309.759.225,1.1l.174.114c.1-.018.2-.032.307-.058C1.247,1.1.961.818.427.48Z" transform="translate(2.33 31.179)"/>
      <path id="Shape-75" data-name="Shape" d="M.157.577C.247.493.244.278.188,0A1.564,1.564,0,0,0,0,.814.67.67,0,0,1,.157.577Z" transform="translate(6.874 30.858)"/>
      <path id="Shape-76" data-name="Shape" d="M.224,0A3.766,3.766,0,0,0,0,1.033,4.064,4.064,0,0,1,.257.324S.244.2.224,0Z" transform="translate(6.296 17.451)"/>
      <path id="Shape-77" data-name="Shape" d="M.085.307A.9.9,0,0,0,.128,0C.07.21.029.4,0,.575.025.488.053.4.085.307Z" transform="translate(14.056 15.668)"/>
      <path id="Shape-78" data-name="Shape" d="M.078.624A1.81,1.81,0,0,0,.162,0,2.2,2.2,0,0,0,0,.788.766.766,0,0,1,.078.624Z" transform="translate(6.362 26.819)"/>
      <path id="Shape-79" data-name="Shape" d="M4.833,0a11.007,11.007,0,0,0-.388,1.726l-3.4.393A6.824,6.824,0,0,1,.283.687C.244.6.212.513.187.438c-.2.094-.284.3-.017.922A7.131,7.131,0,0,0,.932,2.794l3.4-.4A6.674,6.674,0,0,1,4.924.3C5.09.127,4.983.042,4.833,0Z" transform="translate(2.304 32.745)"/>
      <path id="Shape-80" data-name="Shape" d="M2.644,27.7s.028,1.94.309,2.052h0c.142-.321.237-.631.105-.676-.281-.111-.309-2.051-.309-2.051A12.48,12.48,0,0,1,2.328,24.1a5.6,5.6,0,0,0-.45-2.108l-.2-1.77a4.865,4.865,0,0,1-.619-3.345V14.149S.275,8.864.162,6.193C.091,4.484.111,2.15.134.694.134.43.143.2.148,0L.05.009S.035.551.021,1.368C0,2.824-.022,5.153.05,6.868c.113,2.67.9,7.954.9,7.954V17.55a4.862,4.862,0,0,0,.619,3.344l.2,1.771a5.637,5.637,0,0,1,.45,2.1A12.613,12.613,0,0,0,2.644,27.7Z" transform="translate(0 0)"/>
      <path id="Shape-81" data-name="Shape" d="M.672,1.335A3.275,3.275,0,0,1,.133,0C-.214.315.185,1.53.554,2.01c.393.506,3.319.815,3.881-.112V1.363C3.68,2.116,1.044,1.814.672,1.335Z" transform="translate(11.984 32.77)"/>
      <path id="Shape-82" data-name="Shape" d="M.394.024A5.523,5.523,0,0,0,0,.865v.394C.064,1.115.156.923.282.7A1.706,1.706,0,0,0,.4,0Z" transform="translate(16.536 30.905)"/>
      <path id="Shape-83" data-name="Shape" d="M1.61,4.153a5.332,5.332,0,0,0,.278-.668S1.409,3.6.649,2.7A4,4,0,0,1,.145,0C0,.478-.222,2.474.537,3.373A2,2,0,0,0,1.61,4.153Z" transform="translate(11.218 27.219)"/>
      <path id="Shape-84" data-name="Shape" d="M4.97,15.459a14.972,14.972,0,0,1,.056,1.666,2.393,2.393,0,0,1,.058-.261,9.879,9.879,0,0,0,0-2.08,4.163,4.163,0,0,0-.2-1.49,18.565,18.565,0,0,1-.708-2.445,1.656,1.656,0,0,0-.393-1.068,4.814,4.814,0,0,1-.647-1.8,1.85,1.85,0,0,1-.281-1.209,2.45,2.45,0,0,0-.479-1.461L1.423,2.276.524,0,.017,1.32S.009,1.487,0,1.747L.411.674l.9,2.277.956,3.035a2.451,2.451,0,0,1,.479,1.462,1.845,1.845,0,0,0,.281,1.208,4.814,4.814,0,0,0,.647,1.8,1.681,1.681,0,0,1,.4,1.068,18.443,18.443,0,0,0,.7,2.445A4.135,4.135,0,0,1,4.97,15.459Z" transform="translate(6.392 9.68)"/>
    </g>
    <path id="Shape-85" data-name="Shape" d="M2.768,2.653,2.557,3.68l.013.456.008.337L1.4,4.589l-.131-.243h0A10.726,10.726,0,0,0,.358,2.874C.141,2.691-.246-.162.219.007A1.229,1.229,0,0,1,.872.6S3.18.866,2.768,2.653Z" transform="translate(67.616 20.727)" fill="#ffcdd3"/>
    <path id="Shape-86" data-name="Shape" d="M1.305.478.131.6,0,.356H0A1.032,1.032,0,0,1,1.3.145Z" transform="translate(68.885 24.718)" opacity="0.1"/>
    <path id="Shape-87" data-name="Shape" d="M1.669.919.12,1.282.087,1.051,0,.432A1.065,1.065,0,0,1,1.5.227l.077.315Z" transform="translate(68.82 24.831)" fill="#dce6f2"/>
    <path id="Shape-88" data-name="Shape" d="M3.733,4.933,2.083,5.82S2.02,5.69,1.934,5.5c-.158-.329-.391-.825-.455-1-.1-.273-.788-.618-.788-.618C-1.038,2.232,1.022.813,1.022.813c1.09-2.192,2.306.744,2.306.744a7.472,7.472,0,0,1,.049,1.652c-.119.1-.119.526-.119.526a6.38,6.38,0,0,1,.4.946C3.705,4.838,3.733,4.933,3.733,4.933Z" transform="translate(41.688 18.553)" fill="#ffcdd3"/>
    <path id="Shape-89" data-name="Shape" d="M1.8.263.149,1.15S.086,1.02,0,.835C.232.64,1.059-.029,1.331,0A1.979,1.979,0,0,0,1.722.01C1.771.168,1.8.263,1.8.263Z" transform="translate(43.622 23.223)" opacity="0.1"/>
    <path id="Shape-90" data-name="Shape" d="M1.924.651.067,1.565l-.037-.4L0,.886S1.075-.035,1.393,0a1.664,1.664,0,0,0,.485,0L1.9.335Z" transform="translate(43.666 23.335)" fill="#dce6f2"/>
    <path id="Shape-91" data-name="Shape" d="M6.769,6.277S-1.324,7.189.188,6.7A2.027,2.027,0,0,0,1.747,4.943a4.223,4.223,0,0,0-.3-1.871A8.049,8.049,0,0,0,.723,1.61s6.187-3.4,4.944-.315a4.961,4.961,0,0,0-.35,1.466,4.116,4.116,0,0,0,.159,1.483A4.415,4.415,0,0,0,6.769,6.277Z" transform="translate(59.112 23.915)" fill="#ffcdd3"/>
    <path id="Shape-92" data-name="Shape" d="M4.949,1.3A4.961,4.961,0,0,0,4.6,2.764a2.855,2.855,0,0,1-2.043.457A3.65,3.65,0,0,1,.724,3.07,8.049,8.049,0,0,0,0,1.608S6.187-1.794,4.949,1.3Z" transform="translate(59.835 23.918)" opacity="0.1"/>
    <path id="Oval-3" data-name="Oval" d="M3.347,0A3.345,3.345,0,1,1,0,3.345,3.346,3.346,0,0,1,3.347,0Z" transform="translate(58.934 20.663)" fill="#ffcdd3"/>
    <path id="Shape-93" data-name="Shape" d="M6.769,2.379S-1.324,3.291.188,2.8A2.027,2.027,0,0,0,1.747,1.045,4.449,4.449,0,0,1,3.48.127,2.428,2.428,0,0,1,4.952.1a2.023,2.023,0,0,1,.533.248A4.415,4.415,0,0,0,6.769,2.379Z" transform="translate(59.112 27.813)" opacity="0.1"/>
    <path id="Shape-94" data-name="Shape" d="M1.582.424.033.787,0,.556A1.368,1.368,0,0,1,1.487.048Z" transform="translate(68.907 25.326)" opacity="0.1"/>
    <path id="Shape-95" data-name="Shape" d="M1.893.313.037,1.228,0,.828A13.645,13.645,0,0,1,1.872,0Z" transform="translate(43.697 23.673)" opacity="0.1"/>
    <path id="Shape-96" data-name="Shape" d="M12.4,1.8c-3.135.494-7.6,1.139-8.3.923A20.774,20.774,0,0,0,0,2.62C.014,1.8.028,1.262.028,1.262L12.178,0A9.965,9.965,0,0,0,12.4,1.8Z" transform="translate(56.684 48.773)" opacity="0.1"/>
    <path id="Shape-97" data-name="Shape" d="M29,26.054s-10.321,1.771-11.43,1.434-6.794.028-6.794.028C8.219,29.23,9.288,26.7,9.288,26.7a6.276,6.276,0,0,1,.084-2.389,14.607,14.607,0,0,0,.421-2.39,5.566,5.566,0,0,1,.254-2.08,16.057,16.057,0,0,0,.674-3.2s.282-1.911.253-2.333.084-1.6.084-1.6l.367-1.964c-2.1-.281-8.52-4.216-8.52-4.216C2.6,5.2.2,2.108.2,2.108a3.258,3.258,0,0,0-.2-.759C-.161.9,2.371,0,2.371,0S4.255,2.3,4.648,2.923A12.837,12.837,0,0,0,6.392,4.694a1.353,1.353,0,0,1,.619.081.127.127,0,0,1,.033.009h0a5.114,5.114,0,0,1,1.262.722,2.444,2.444,0,0,1,1.716.647s1.157-.168,1.35.028,1.181,0,1.181,0S13.536,4.1,14.183,4.71s3.391.576,3.391.576a4.06,4.06,0,0,1,1.812-1.013,2.428,2.428,0,0,1,1.473-.024,1.867,1.867,0,0,1,.579.28L23.1,6.158s.479-.618.421-.759.563-.252.563-.252.815-.253,1.124-.337.593.25.619.28a3.268,3.268,0,0,1-.14-1.235,1.455,1.455,0,0,0-.338-1.012c.985-2.418,3.206-.393,3.206-.393a4.623,4.623,0,0,1,.028,1.827c-.225.506.225,1.577.168,1.855s.113.759.113,1.293a7.65,7.65,0,0,1-.45,2c-.169.451-1.524,1.456-1.524,1.456a6.356,6.356,0,0,1-.675,2.529c-.59.927-.225,4.1-.225,4.1a10.627,10.627,0,0,0,1.262,3.259C27.954,21.55,29,26.054,29,26.054Z" transform="translate(43.207 23.785)" fill="#656691"/>
    <path id="Shape-98" data-name="Shape" d="M1.406,1.723S1.1.8.816.711A6.559,6.559,0,0,1,0,.346L.181,0S1.238.289,1.406.6A2.434,2.434,0,0,1,1.406,1.723Z" transform="translate(55.756 29.621)" opacity="0.1"/>
    <path id="Shape-99" data-name="Shape" d="M2.559.734C2.5,1.016,0,1.268,0,1.268L1.262,0h0l.032.011h0A5,5,0,0,1,2.559.734Z" transform="translate(48.951 28.558)" opacity="0.1"/>
    <path id="Oval-4" data-name="Oval" d="M.225,0A.225.225,0,1,1,0,.225.225.225,0,0,1,.225,0Z" transform="translate(44.043 25.209)" fill="#575988"/>
    <path id="Oval-5" data-name="Oval" d="M.225,0A.225.225,0,1,1,0,.225.225.225,0,0,1,.225,0Z" transform="translate(44.331 25.659)" fill="#575988"/>
    <path id="Oval-6" data-name="Oval" d="M.225,0A.225.225,0,1,1,0,.225.225.225,0,0,1,.225,0Z" transform="translate(44.613 26.074)" fill="#575988"/>
    <path id="Oval-7" data-name="Oval" d="M.225,0A.225.225,0,1,1,0,.225.225.225,0,0,1,.225,0Z" transform="translate(44.907 26.523)" fill="#575988"/>
    <path id="Oval-8" data-name="Oval" d="M.183,0A.183.183,0,1,1,0,.183.183.183,0,0,1,.183,0Z" transform="translate(71.459 26.541)" fill="#575988"/>
    <path id="Oval-9" data-name="Oval" d="M.183,0A.183.183,0,1,1,0,.183.183.183,0,0,1,.183,0Z" transform="translate(71.487 26.955)" fill="#575988"/>
    <path id="Oval-10" data-name="Oval" d="M.183,0A.183.183,0,1,1,0,.183.183.183,0,0,1,.183,0Z" transform="translate(71.512 27.37)" fill="#575988"/>
    <path id="Shape-100" data-name="Shape" d="M0,0C-.025-.032,6.311,7.969,11.235,3.345,11.235,3.343,3.46,4.4,0,0Z" transform="translate(57.176 38.961)" opacity="0.1"/>
    <path id="Shape-101" data-name="Shape" d="M0,0S3.793.105,4.191,1.194V2.329a.723.723,0,0,1-.706,0C3.1,2.118.809.962,0,1.518Z" transform="translate(53.535 43.121)" opacity="0.1"/>
    <path id="Shape-102" data-name="Shape" d="M0,0S3.628.1,4.008,1.139V2.22a.692.692,0,0,1-.675,0C2.967,2.024.773.914,0,1.448Z" transform="translate(53.605 43.121)" fill="#656691"/>
    <path id="Shape-103" data-name="Shape" d="M0,0A12.2,12.2,0,0,0,1.473,2.523a9.9,9.9,0,0,0,2.3,2.223S.063.521,0,0Z" transform="translate(55.606 34.888)" opacity="0.1"/>
    <path id="Shape-104" data-name="Shape" d="M0,0S.631,2.733,2.264,3.659Z" transform="translate(54.365 30.482)" opacity="0.1"/>
    <path id="Shape-105" data-name="Shape" d="M.056,0C.041-.05-.505,2.16,2.16,3.383,2.159,3.383,1.027,3,.056,0Z" transform="translate(53.338 30.758)" opacity="0.1"/>
    <path id="Shape-106" data-name="Shape" d="M0,0A19.452,19.452,0,0,1,1.684,1.263S.8-.055,0,0Z" transform="translate(69.962 28.925)" opacity="0.1"/>
    <path id="Shape-107" data-name="Shape" d="M2.789,7.544A.7.7,0,0,0,3.05,8a.715.715,0,0,0,.316.07,6.807,6.807,0,0,0,3.026-.285,1.142,1.142,0,0,0,.46-.3,1.877,1.877,0,0,0,.267-.736,10.588,10.588,0,0,1,.619-1.42A4.77,4.77,0,0,0,8.068,2.77a1.727,1.727,0,0,0-.256-.747c-.271-.386-.764-.542-1.122-.849S6.1.4,5.685.164A1.934,1.934,0,0,0,4.423.052,6.656,6.656,0,0,0,2.066.936a1.173,1.173,0,0,1-.788.268A1.083,1.083,0,0,1,.7.761,3.107,3.107,0,0,0,.449,2.218a.617.617,0,0,1-.007.22.652.652,0,0,1-.156.231A.852.852,0,0,0,.126,3.72c.105.128.275.2.38.329.189.235.125.573.121.874a.445.445,0,0,0,.074.3.434.434,0,0,0,.413.1,1.144,1.144,0,0,1,.44-.042.736.736,0,0,1,.383.294A5.2,5.2,0,0,1,2.789,7.544Z" transform="translate(58.588 19.496)" fill="#2d293d"/>
    <g id="Group-33" data-name="Group" transform="translate(58.588 20.22)" opacity="0.1">
      <path id="Shape-108" data-name="Shape" d="M6.964,4.433a1.142,1.142,0,0,1-.46.3,6.749,6.749,0,0,1-3.026.284.7.7,0,0,1-.316-.069A.719.719,0,0,1,2.9,4.5a5.225,5.225,0,0,0-.853-1.979.736.736,0,0,0-.383-.294,1.144,1.144,0,0,0-.44.042.436.436,0,0,1-.413-.1.445.445,0,0,1-.074-.3c0-.3.067-.639-.121-.874C.513.869.346.8.237.672A.662.662,0,0,1,.173,0,.766.766,0,0,0,.126.9c.105.129.275.2.38.33C.694,1.46.63,1.8.626,2.1A.445.445,0,0,0,.7,2.4a.434.434,0,0,0,.413.1,1.144,1.144,0,0,1,.44-.042.736.736,0,0,1,.383.294,5.253,5.253,0,0,1,.853,1.979.7.7,0,0,0,.261.452.7.7,0,0,0,.316.069,6.806,6.806,0,0,0,3.026-.284,1.142,1.142,0,0,0,.46-.3A.889.889,0,0,0,7,4.387C6.986,4.4,6.975,4.419,6.964,4.433Z" transform="translate(0 2.062)"/>
      <path id="Shape-109" data-name="Shape" d="M.008,1.621a.477.477,0,0,0,.105-.169.617.617,0,0,0,.007-.22A3.127,3.127,0,0,1,.277.022L.259,0A3.105,3.105,0,0,0,.008,1.457.855.855,0,0,1,.008,1.621Z" transform="translate(0.444 0)"/>
    </g>
    <path id="Shape-110" data-name="Shape" d="M0,.074S4.181.628,4.557,0" transform="translate(60.779 28.993)" opacity="0.1"/>
    <path id="Shape-111" data-name="Shape" d="M0,0S2.323,0,2.834.873" transform="translate(68.911 27.339)" opacity="0.1"/>
  </g>
</svg>
