<svg xmlns="http://www.w3.org/2000/svg" width="12.952" height="13.762" viewBox="0 0 12.952 13.762">
  <path id="Path_4008" data-name="Path 4008" d="M8.5,10.762l4.192,4.292c.42.434.694.438,1.122,0l.841-.861c.412-.422.44-.7,0-1.149L10.219,8.5l4.439-4.543c.416-.427.424-.715,0-1.15l-.841-.861c-.436-.447-.706-.426-1.122,0L8.5,6.238,4.309,1.946c-.417-.426-.686-.447-1.122,0l-.841.861c-.424.434-.416.723,0,1.15L6.784,8.5,2.346,13.043c-.44.451-.416.727,0,1.149l.841.861c.425.438.7.434,1.122,0Z" transform="translate(-2.024 -1.619)" fill="#cf1818" fill-rule="evenodd"/>
</svg>
