<svg xmlns="http://www.w3.org/2000/svg" xmlns:xlink="http://www.w3.org/1999/xlink" width="300" height="300" viewBox="0 0 300 300">
  <defs>
    <clipPath id="clip-path">
      <rect id="Rectangle_834" data-name="Rectangle 834" width="300" height="300" transform="translate(-0.119 -0.119)" fill="#ffa00a"/>
    </clipPath>
    <linearGradient id="linear-gradient" x1="0.5" x2="0.5" y2="1" gradientUnits="objectBoundingBox">
      <stop offset="0" stop-color="#ffa13d"/>
      <stop offset="1" stop-color="#ffc400"/>
    </linearGradient>
  </defs>
  <g id="Group_17076" data-name="Group 17076" transform="translate(-28.881 -191.881)">
    <g id="Group_17074" data-name="Group 17074" transform="translate(29 192)">
      <g id="Group_17073" data-name="Group 17073" transform="translate(0 0)" clip-path="url(#clip-path)">
        <path id="Path_2346" data-name="Path 2346" d="M0,288Z" transform="translate(-0.267 12.028)" fill="#ffa00a"/>
        <path id="Path_2047" data-name="Path 2047" d="M84.045,108.6l-7.205,1.367-2.958,6.711-3.526-6.43-7.3-.74,5.026-5.341L66.534,97l6.632,3.129,6.339-3.69-.927,7.275Z" transform="translate(2.425 3.85)" fill="#ffa00a" fill-rule="evenodd"/>
        <path id="Path_2048" data-name="Path 2048" d="M193.737,52.38l2.477-3.85-1.766-4.223,4.427,1.167,3.471-2.985.258,4.571,3.911,2.378L202.249,51.1l-1.054,4.454L198.3,52.006Z" transform="translate(8.004 1.547)" fill="#ffa00a" fill-rule="evenodd"/>
        <path id="Path_2049" data-name="Path 2049" d="M260.17,153.38l-5.792-.205-3.453,4.655-1.594-5.572-5.494-1.846,4.807-3.239.057-5.8,4.565,3.571,5.531-1.737-1.986,5.446Z" transform="translate(10.143 5.769)" fill="#ffa00a" fill-rule="evenodd"/>
        <path id="Path_2050" data-name="Path 2050" d="M53.908,207.428l-6.839-1.44L42.006,210.8l-.744-6.949-6.147-3.326,6.379-2.855,1.265-6.875,4.687,5.185,6.929-.922-3.484,6.06Z" transform="translate(1.232 7.879)" fill="#ffa00a" fill-rule="evenodd"/>
        <path id="Path_2051" data-name="Path 2051" d="M258.1,236.321l-5.092.324-2.62,4.38-1.882-4.743-4.975-1.139,3.929-3.256L247,226.8l4.312,2.731,4.693-2-1.265,4.944Z" transform="translate(10.13 9.416)" fill="#ffa00a" fill-rule="evenodd"/>
        <path id="Path_2052" data-name="Path 2052" d="M99.312,247.514l-5.783-1.961-4.894,3.653.078-6.106-4.986-3.526,5.832-1.812,1.812-5.832,3.526,4.986,6.106-.078-3.653,4.894Z" transform="translate(3.308 9.635)" fill="#ffa00a" fill-rule="evenodd"/>
        <path id="Path_2053" data-name="Path 2053" d="M86.021,53.527l4.059-4.193-1.152-5.72,5.242,2.565,5.085-2.863-.82,5.778,4.294,3.951-5.748,1.006L94.55,59.356,91.817,54.2Z" transform="translate(3.406 1.583)" fill="#ffa00a" fill-rule="evenodd"/>
        <path id="Path_2054" data-name="Path 2054" d="M30.433,145.85l-4.567.5L23.691,150.4,21.8,146.212l-4.521-.818,3.4-3.091-.62-4.552,3.991,2.277,4.138-2-.933,4.5Z" transform="translate(0.471 5.614)" fill="#ffa00a" fill-rule="evenodd"/>
        <path id="Path_2055" data-name="Path 2055" d="M250.714,72.477l3-3.671L252.4,64.25l4.42,1.723,3.924-2.665-.272,4.736,3.747,2.909-4.588,1.2-1.609,4.462-2.563-3.99Z" transform="translate(10.437 2.436)" fill="#ffa00a" fill-rule="evenodd"/>
        <path id="Path_2056" data-name="Path 2056" d="M205.642,114.563l3.181-4.2-1.653-5,4.975,1.73,4.245-3.118-.107,5.266,4.276,3.073-5.04,1.525-1.6,5.017-3.008-4.323Z" transform="translate(8.512 4.172)" fill="#ffa00a" fill-rule="evenodd"/>
        <path id="Path_2057" data-name="Path 2057" d="M245.2,201.189l-8.6.307-4.624,7.261-2.951-8.088-8.335-2.155,6.781-5.305-.526-8.593,7.141,4.809,8.01-3.155-2.368,8.277Z" transform="translate(9.155 7.615)" fill="#ffa00a" fill-rule="evenodd"/>
        <path id="Path_2058" data-name="Path 2058" d="M38.7,78.271l-2.633-.014-1.5,2.161-.8-2.509-2.52-.762,2.139-1.537-.054-2.633,2.123,1.559,2.487-.864-.827,2.5Z" transform="translate(1.067 2.849)" fill="#ffa00a" fill-rule="evenodd"/>
        <path id="Path_2059" data-name="Path 2059" d="M270.273,175.768l1.649-1.981-.7-2.482,2.393.956,2.145-1.429-.17,2.571,2.023,1.6-2.5.633-.895,2.417-1.374-2.18Z" transform="translate(11.272 7.026)" fill="#ffa00a" fill-rule="evenodd"/>
        <path id="Path_2060" data-name="Path 2060" d="M160.012,54.872l-2.572-.482-1.855,1.847-.337-2.6-2.329-1.194,2.365-1.123.415-2.584,1.8,1.9,2.585-.4-1.252,2.3Z" transform="translate(6.262 1.814)" fill="#ffa00a" fill-rule="evenodd"/>
        <path id="Path_2061" data-name="Path 2061" d="M104.831,210.938l-2.572-.482L100.4,212.3l-.337-2.6-2.329-1.194,2.365-1.123.415-2.584,1.8,1.9,2.585-.4-1.252,2.3Z" transform="translate(3.906 8.477)" fill="#ffa00a" fill-rule="evenodd"/>
        <path id="Path_2062" data-name="Path 2062" d="M185.445,204.609l1.185-2.92-1.733-2.632,3.143.225,1.968-2.462.757,3.058,2.95,1.111-2.676,1.665-.145,3.148-2.411-2.03Z" transform="translate(7.627 8.136)" fill="#ffa00a" fill-rule="evenodd"/>
        <path id="Path_2063" data-name="Path 2063" d="M212.044,74.38l-1.405.11-.706,1.22-.538-1.3-1.378-.3,1.072-.914-.145-1.4,1.2.737,1.288-.572-.33,1.37Z" transform="translate(8.614 2.798)" fill="#ffa00a" fill-rule="evenodd"/>
        <path id="Path_2064" data-name="Path 2064" d="M59.253,154.681l.247-2.457-1.884-1.6,2.413-.523.935-2.286,1.245,2.133,2.462.183-1.643,1.842.586,2.4-2.261-.994Z" transform="translate(2.193 6.044)" fill="#ffa00a" fill-rule="evenodd"/>
        <path id="Path_2065" data-name="Path 2065" d="M163.065,231.086l-3.276-.133-1.968,2.622-.885-3.157-3.1-1.061,2.73-1.817.05-3.278,2.572,2.034,3.133-.966-1.14,3.075Z" transform="translate(6.301 9.307)" fill="#ffa00a" fill-rule="evenodd"/>
        <g id="Group_17072" data-name="Group 17072" transform="translate(16.125 29.888)">
          <g id="Group_17075" data-name="Group 17075">
            <path id="Path_2066" data-name="Path 2066" d="M88.305,84.154a.26.26,0,0,1-.195-.433c1.366-1.544.792-4.107-.6-5.531-1.5-1.536-3.731-2.156-5.713-2.56-.333-.068-.666-.131-1-.2a17.543,17.543,0,0,1-5.307-1.62,9.048,9.048,0,0,1-4.528-7.964,17.55,17.55,0,0,1,.509-3.271,14.3,14.3,0,0,0,.486-3.753c-.149-2.93-2.066-5.721-5.859-8.535-.548-.408-1.112-.806-1.675-1.205-2.432-1.724-4.945-3.506-6.5-6.089a.26.26,0,1,1,.446-.268c1.5,2.49,3.965,4.24,6.353,5.932.566.4,1.132.8,1.685,1.213,3.926,2.912,5.91,5.832,6.069,8.926a14.726,14.726,0,0,1-.5,3.892,17.2,17.2,0,0,0-.5,3.173,8.513,8.513,0,0,0,4.261,7.494A17.129,17.129,0,0,0,80.9,74.922c.336.065.671.129,1,.2,2.06.42,4.383,1.07,5.983,2.707,1.557,1.592,2.177,4.479.617,6.241a.258.258,0,0,1-.195.088" transform="translate(-13.921 -28.336)" fill="#ffa00a"/>
            <path id="Path_2067" data-name="Path 2067" d="M61.793,127.361a32.014,32.014,0,0,1-15.222-3.879c-1.24-.68-2.452-1.455-3.625-2.2a34.734,34.734,0,0,0-6.579-3.564c-3.453-1.266-8.086-1.229-10.646,1.7a.261.261,0,0,1-.393-.343c2.725-3.116,7.6-3.171,11.218-1.847a35.183,35.183,0,0,1,6.681,3.615c1.166.744,2.371,1.514,3.6,2.184A31.472,31.472,0,0,0,63.385,126.8a.244.244,0,0,1,.275.246.261.261,0,0,1-.246.273c-.539.029-1.081.044-1.621.044" transform="translate(-15.314 -25.185)" fill="#ffa00a"/>
            <path id="Path_2068" data-name="Path 2068" d="M60.257,229.053a.261.261,0,0,1-.133-.485,27.694,27.694,0,0,0,12-14.939,55.359,55.359,0,0,0,1.745-7.742,64.777,64.777,0,0,1,1.433-6.743c1.663-5.779,4.983-9.9,9.107-11.3a.261.261,0,0,1,.167.494c-3.959,1.346-7.157,5.338-8.773,10.95a64.894,64.894,0,0,0-1.42,6.688,55.615,55.615,0,0,1-1.764,7.815A28.213,28.213,0,0,1,60.39,229.016a.257.257,0,0,1-.133.036" transform="translate(-13.831 -22.136)" fill="#ffa00a"/>
            <path id="Path_2069" data-name="Path 2069" d="M267.039,177.936a.231.231,0,0,1-.046,0,.257.257,0,0,1-.211-.3c.844-4.809-3.3-9.228-7.7-10.338-5.1-1.284-10.289.784-13.749,2.746l-.276.157c-1.86,1.058-3.963,2.262-6.08,1.635-1.774-.523-2.823-2.1-3.838-3.633-.32-.484-.652-.983-1-1.433a11.166,11.166,0,0,0-13.989-2.7.261.261,0,0,1-.264-.449,11.707,11.707,0,0,1,14.665,2.827c.358.464.694.972,1.019,1.462,1.008,1.518,1.959,2.952,3.553,3.422,1.906.563,3.9-.582,5.672-1.588l.278-.157c3.542-2.01,8.869-4.128,14.135-2.8,4.63,1.168,8.984,5.839,8.085,10.933a.26.26,0,0,1-.255.216" transform="translate(-7.01 -23.231)" fill="#ffa00a"/>
            <path id="Path_2070" data-name="Path 2070" d="M211.516,127.463a16.688,16.688,0,0,1-2.583-.2.261.261,0,1,1,.082-.515c6.466,1.02,12.8-2.188,17.608-5.094.932-.564,1.861-1.144,2.791-1.726,4.411-2.759,8.972-5.611,14.114-6.7,1.426-.3,2.9-.467,4.321-.628a35.526,35.526,0,0,0,5.289-.864c3.615-.976,6.206-3.15,6.932-5.816a.265.265,0,0,1,.32-.182.261.261,0,0,1,.184.32c-.776,2.847-3.5,5.157-7.3,6.182a36.041,36.041,0,0,1-5.368.879c-1.41.159-2.868.322-4.27.62-5.052,1.073-9.573,3.9-13.945,6.634-.933.584-1.864,1.166-2.8,1.731-4.244,2.566-9.675,5.362-15.377,5.362" transform="translate(-7.482 -25.641)" fill="#ffa00a"/>
            <path id="Path_2071" data-name="Path 2071" d="M190.347,81a.261.261,0,0,1-.248-.341,24.165,24.165,0,0,1,16.1-15.5c1.474-.413,3-.683,4.479-.946,1.263-.223,2.567-.455,3.825-.772a27.309,27.309,0,0,0,15.057-10.127.261.261,0,1,1,.42.309,27.831,27.831,0,0,1-15.349,10.323c-1.276.322-2.59.556-3.861.781-1.465.26-2.98.528-4.43.934a23.63,23.63,0,0,0-15.742,15.153.261.261,0,0,1-.248.18" transform="translate(-8.277 -27.883)" fill="#ffa00a"/>
            <path id="Path_2072" data-name="Path 2072" d="M135.607,72.665a.261.261,0,0,1-.2-.43c1.887-2.221,3.838-4.518,4.822-7.3,1.07-3.03.609-6.21-1.173-8.1a11.885,11.885,0,0,0-2.565-1.894c-.439-.267-.894-.544-1.323-.842-.989-.688-2.653-2.133-2.668-4.08-.013-1.857,1.369-3.184,2.707-4.468.444-.426.9-.869,1.294-1.316a8.928,8.928,0,0,0-1.333-12.495.261.261,0,1,1,.312-.418,9.447,9.447,0,0,1,1.414,13.256c-.406.465-.874.914-1.326,1.348-1.316,1.264-2.558,2.457-2.546,4.089.014,1.711,1.537,3.024,2.444,3.655.418.29.864.563,1.3.826a12.4,12.4,0,0,1,2.674,1.981c1.915,2.034,2.419,5.423,1.285,8.635-1.014,2.878-3.087,5.317-4.916,7.469a.26.26,0,0,1-.2.092" transform="translate(-10.735 -28.82)" fill="#ffa00a"/>
            <path id="Path_2073" data-name="Path 2073" d="M33.591,174.336a.266.266,0,0,1-.112-.025.262.262,0,0,1-.125-.347c2.237-4.762,4.309-6.317,7-7.991,3.046-1.9,7.042-1.875,9.151-1.691,1.091.095,2.191.246,3.256.392a37.329,37.329,0,0,0,5.608.487c1.977-.027,5.628-.463,7.88-3.077a.261.261,0,0,1,.4.34c-2.385,2.768-6.2,3.23-8.266,3.258a38.9,38.9,0,0,1-5.687-.491c-1.058-.146-2.153-.3-3.23-.39a14.755,14.755,0,0,0-8.831,1.614c-2.609,1.628-4.624,3.137-6.8,7.771a.259.259,0,0,1-.236.15" transform="translate(-14.969 -23.239)" fill="#ffa00a"/>
            <path id="Path_2074" data-name="Path 2074" d="M118.713,94.886l-.034,0a.261.261,0,0,1-.224-.294c.591-4.354.99-9.271-1.782-12.519a15.885,15.885,0,0,0-2.981-2.5,13.7,13.7,0,0,1-3.476-3.107,7.257,7.257,0,0,1,1.43-9.566.261.261,0,0,1,.319.413,6.716,6.716,0,0,0-1.323,8.852,13.1,13.1,0,0,0,3.352,2.982,16.28,16.28,0,0,1,3.077,2.584c2.91,3.412,2.508,8.462,1.9,12.928a.262.262,0,0,1-.259.225" transform="translate(-11.738 -27.301)" fill="#ffa00a"/>
            <path id="Path_2075" data-name="Path 2075" d="M168.429,93.5a.261.261,0,0,1-.241-.161,14.424,14.424,0,0,1,1.692-13.857,28.164,28.164,0,0,1,2.091-2.42c.613-.657,1.248-1.336,1.808-2.05a7.691,7.691,0,0,0,1.914-5.245.261.261,0,0,1,.519-.053,8,8,0,0,1-2.024,5.62c-.573.731-1.216,1.419-1.836,2.084a27.735,27.735,0,0,0-2.053,2.373,13.893,13.893,0,0,0-1.631,13.347.259.259,0,0,1-.14.341.264.264,0,0,1-.1.02" transform="translate(-9.257 -27.188)" fill="#ffa00a"/>
            <path id="Path_2076" data-name="Path 2076" d="M128.9,254.315a.261.261,0,0,1-.243-.168c-1.893-4.983-.219-10.569,1.5-15.413l.055-.155c1.743-4.915,3.546-10,2.256-14.912a.261.261,0,0,1,.5-.132c1.33,5.069-.5,10.229-2.271,15.218l-.054.155c-1.686,4.758-3.331,10.236-1.5,15.053a.26.26,0,0,1-.15.337.267.267,0,0,1-.093.017" transform="translate(-10.936 -20.62)" fill="#ffa00a"/>
            <path id="Path_2077" data-name="Path 2077" d="M176.435,253.627a.263.263,0,0,1-.2-.1c-2.337-2.957-1.548-7.042-.87-9.215.376-1.209.864-2.4,1.335-3.548a28.942,28.942,0,0,0,1.773-5.264c1.095-5.532-1.263-11.261-3.13-15.089-.536-1.1-1.1-2.185-1.662-3.275-1.855-3.584-3.772-7.288-4.654-11.291a.26.26,0,0,1,.2-.311.264.264,0,0,1,.311.2c.867,3.935,2.768,7.61,4.608,11.163.565,1.093,1.13,2.185,1.667,3.287,1.9,3.9,4.3,9.732,3.173,15.417a29.285,29.285,0,0,1-1.8,5.361c-.466,1.141-.95,2.32-1.321,3.507-1.1,3.531-.815,6.714.782,8.737a.261.261,0,0,1-.2.422" transform="translate(-9.177 -21.38)" fill="#ffa00a"/>
            <path id="Path_2078" data-name="Path 2078" d="M217.906,237.226a.265.265,0,0,1-.15-.047c-5.111-3.569-7.561-9.826-9.456-15.41l-.259-.763c-1.865-5.514-3.794-11.215-8-15.128a.261.261,0,0,1,.355-.383c4.3,4,6.253,9.769,8.14,15.344l.258.762c1.87,5.505,4.279,11.672,9.263,15.15a.261.261,0,0,1-.15.474" transform="translate(-7.856 -21.385)" fill="#ffa00a"/>
            <path id="Path_2308" data-name="Path 2308" d="M56.638,88.307a1.182,1.182,0,1,1-1.182-1.182,1.183,1.183,0,0,1,1.182,1.182" transform="translate(-14.075 -26.435)" fill="#ffa00a"/>
            <path id="Path_2309" data-name="Path 2309" d="M124.15,39.859a1.774,1.774,0,1,1-1.774-1.774,1.774,1.774,0,0,1,1.774,1.774" transform="translate(-11.243 -28.529)" fill="#ffa00a"/>
            <path id="Path_2310" data-name="Path 2310" d="M162.949,66.061a1.33,1.33,0,1,1-1.33-1.33,1.331,1.331,0,0,1,1.33,1.33" transform="translate(-9.549 -27.391)" fill="#ffa00a"/>
            <path id="Path_2311" data-name="Path 2311" d="M238.41,81.824a2.069,2.069,0,1,1-2.069-2.069,2.068,2.068,0,0,1,2.069,2.069" transform="translate(-6.391 -26.75)" fill="#ffa00a"/>
            <path id="Path_2312" data-name="Path 2312" d="M204.877,89.009a1.034,1.034,0,1,1-1.034-1.034,1.034,1.034,0,0,1,1.034,1.034" transform="translate(-7.734 -26.399)" fill="#ffa00a"/>
            <path id="Path_2313" data-name="Path 2313" d="M261.359,128.164a1.921,1.921,0,1,1-1.921-1.921,1.921,1.921,0,0,1,1.921,1.921" transform="translate(-5.398 -24.765)" fill="#ffa00a"/>
            <path id="Path_2314" data-name="Path 2314" d="M270.334,156.745a.739.739,0,1,1-.739-.739.739.739,0,0,1,.739.739" transform="translate(-4.914 -23.494)" fill="#ffa00a"/>
            <path id="Path_2315" data-name="Path 2315" d="M230.956,157.608a1.034,1.034,0,1,1-1.034-1.034,1.034,1.034,0,0,1,1.034,1.034" transform="translate(-6.621 -23.47)" fill="#ffa00a"/>
            <path id="Path_2316" data-name="Path 2316" d="M217.374,178.029a1.33,1.33,0,1,1-1.331-1.33,1.331,1.331,0,0,1,1.331,1.33" transform="translate(-7.226 -22.611)" fill="#ffa00a"/>
            <path id="Path_2317" data-name="Path 2317" d="M222.229,211.922a1.774,1.774,0,1,1-1.774-1.774,1.774,1.774,0,0,1,1.774,1.774" transform="translate(-7.056 -21.183)" fill="#ffa00a"/>
            <path id="Path_2318" data-name="Path 2318" d="M260.72,206.647a1.034,1.034,0,1,1-1.034-1.034,1.034,1.034,0,0,1,1.034,1.034" transform="translate(-5.35 -21.377)" fill="#ffa00a"/>
            <path id="Path_2319" data-name="Path 2319" d="M234.394,232.32a1.478,1.478,0,1,1-1.477-1.478,1.477,1.477,0,0,1,1.477,1.478" transform="translate(-6.512 -20.3)" fill="#ffa00a"/>
            <path id="Path_2320" data-name="Path 2320" d="M195.831,238.408a1.33,1.33,0,1,1-1.331-1.331,1.33,1.33,0,0,1,1.331,1.331" transform="translate(-8.145 -20.033)" fill="#ffa00a"/>
            <path id="Path_2321" data-name="Path 2321" d="M198.074,208.631a1.034,1.034,0,1,1-1.034-1.034,1.034,1.034,0,0,1,1.034,1.034" transform="translate(-8.024 -21.292)" fill="#ffa00a"/>
            <path id="Path_2322" data-name="Path 2322" d="M143.39,226.785a1.33,1.33,0,1,1-1.331-1.33,1.331,1.331,0,0,1,1.331,1.33" transform="translate(-10.384 -20.53)" fill="#ffa00a"/>
            <path id="Path_2323" data-name="Path 2323" d="M161.779,247.6a.887.887,0,1,1-.886-.886.886.886,0,0,1,.886.886" transform="translate(-9.561 -19.622)" fill="#ffa00a"/>
            <path id="Path_2324" data-name="Path 2324" d="M85.539,211.749a1.034,1.034,0,1,1-1.034-1.034,1.034,1.034,0,0,1,1.034,1.034" transform="translate(-12.829 -21.159)" fill="#ffa00a"/>
            <path id="Path_2325" data-name="Path 2325" d="M119.319,249.191a1.626,1.626,0,1,1-1.626-1.626,1.626,1.626,0,0,1,1.626,1.626" transform="translate(-11.437 -19.586)" fill="#ffa00a"/>
            <path id="Path_2326" data-name="Path 2326" d="M117.2,206.807a1.478,1.478,0,1,0,1.477-1.477,1.477,1.477,0,0,0-1.477,1.477" transform="translate(-11.389 -21.389)" fill="#ffa00a"/>
            <path id="Path_2327" data-name="Path 2327" d="M56.426,218.737a2.069,2.069,0,1,1-2.069-2.069,2.068,2.068,0,0,1,2.069,2.069" transform="translate(-14.16 -20.905)" fill="#ffa00a"/>
            <path id="Path_2328" data-name="Path 2328" d="M51.252,176.181A1.182,1.182,0,1,1,50.069,175a1.183,1.183,0,0,1,1.182,1.182" transform="translate(-14.305 -22.684)" fill="#ffa00a"/>
            <path id="Path_2329" data-name="Path 2329" d="M67.114,186.238a1.034,1.034,0,1,1-1.034-1.034,1.034,1.034,0,0,1,1.034,1.034" transform="translate(-13.615 -22.248)" fill="#ffa00a"/>
            <path id="Path_2330" data-name="Path 2330" d="M40.516,156.215a1.626,1.626,0,1,1-1.626-1.625,1.626,1.626,0,0,1,1.626,1.625" transform="translate(-14.801 -23.555)" fill="#ffa00a"/>
            <path id="Path_2331" data-name="Path 2331" d="M38.472,127.413a.887.887,0,1,1-.886-.886.886.886,0,0,1,.886.886" transform="translate(-14.825 -24.753)" fill="#ffa00a"/>
            <path id="Path_2332" data-name="Path 2332" d="M61.185,143.446a1.33,1.33,0,1,1-1.33-1.33,1.331,1.331,0,0,1,1.33,1.33" transform="translate(-13.894 -24.087)" fill="#ffa00a"/>
            <path id="Path_2333" data-name="Path 2333" d="M37.989,106.338a1.921,1.921,0,1,1-1.922-1.922,1.921,1.921,0,0,1,1.922,1.922" transform="translate(-14.934 -25.697)" fill="#ffa00a"/>
            <path id="Path_2334" data-name="Path 2334" d="M80.153,83.056a1.034,1.034,0,1,1-1.034-1.033,1.034,1.034,0,0,1,1.034,1.033" transform="translate(-13.059 -26.653)" fill="#ffa00a"/>
            <path id="Path_2335" data-name="Path 2335" d="M146.212,84.338a1.182,1.182,0,1,1-1.182-1.182,1.183,1.183,0,0,1,1.182,1.182" transform="translate(-10.251 -26.605)" fill="#ffa00a"/>
            <path id="Path_2336" data-name="Path 2336" d="M88.657,64.348a1.034,1.034,0,1,1-1.034-1.034,1.034,1.034,0,0,1,1.034,1.034" transform="translate(-12.696 -27.452)" fill="#ffa00a"/>
            <path id="Path_2337" data-name="Path 2337" d="M156.984,201.409a1.182,1.182,0,1,1-1.182-1.182,1.183,1.183,0,0,1,1.182,1.182" transform="translate(-9.791 -21.607)" fill="#ffa00a"/>
            <path id="Path_2338" data-name="Path 2338" d="M28.323,216.826a1.577,1.577,0,1,1-1.577-1.575,1.576,1.576,0,0,1,1.577,1.575" transform="translate(-15.318 -20.965)" fill="#ffa00a"/>
            <path id="Path_2339" data-name="Path 2339" d="M18.48,188.283A1.379,1.379,0,1,1,17.1,186.9a1.379,1.379,0,0,1,1.379,1.38" transform="translate(-15.721 -22.175)" fill="#ffa00a"/>
            <path id="Path_2340" data-name="Path 2340" d="M50.26,51.481a1.774,1.774,0,1,1-1.774-1.774,1.774,1.774,0,0,1,1.774,1.774" transform="translate(-14.398 -28.033)" fill="#ffa00a"/>
            <path id="Path_2341" data-name="Path 2341" d="M160.294,31.285a2.364,2.364,0,1,1-2.365-2.365,2.365,2.365,0,0,1,2.365,2.365" transform="translate(-9.751 -28.92)" fill="#ffa00a"/>
            <path id="Path_2342" data-name="Path 2342" d="M273.221,93.039a1.38,1.38,0,1,1-1.381-1.379,1.379,1.379,0,0,1,1.381,1.379" transform="translate(-4.846 -26.242)" fill="#ffa00a"/>
            <path id="Path_2343" data-name="Path 2343" d="M254.134,182.236a1.379,1.379,0,1,1-1.38-1.379,1.379,1.379,0,0,1,1.38,1.379" transform="translate(-5.661 -22.434)" fill="#ffa00a"/>
            <path id="Path_2344" data-name="Path 2344" d="M195.74,260.473a1.379,1.379,0,1,1-1.379-1.38,1.379,1.379,0,0,1,1.379,1.38" transform="translate(-8.154 -19.094)" fill="#ffa00a"/>
            <path id="Path_2345" data-name="Path 2345" d="M159.835,257.826a1.379,1.379,0,1,1-1.379-1.38,1.379,1.379,0,0,1,1.379,1.38" transform="translate(-9.686 -19.206)" fill="#ffa00a"/>
          </g>
        </g>
      </g>
    </g>
    <g id="Group_1599" data-name="Group 1599" transform="translate(95.63 289.162)">
      <path id="Path_4435" data-name="Path 4435" d="M141.014,55.987a1.129,1.129,0,1,1,0-2.259h1.655v-2.6h-1.655a1.13,1.13,0,0,1,0-2.26h1.655v-2.6h-1.655a1.13,1.13,0,1,1,0-2.259h1.655v-2.6h-1.655a1.13,1.13,0,0,1-1.13-1.13h0a1.13,1.13,0,0,1,1.13-1.13h1.655v-2.6h-1.655a1.13,1.13,0,0,1-1.13-1.13h0a1.13,1.13,0,0,1,1.13-1.13h1.655V31.7h-1.655a1.13,1.13,0,1,1,0-2.259h1.655v-2.6h-1.655a1.13,1.13,0,1,1,0-2.259h1.655v-2.6h-1.655a1.13,1.13,0,1,1,0-2.259h1.655v-2.6h-1.655a1.129,1.129,0,1,1,0-2.259h1.655v-2.6h-1.655a1.13,1.13,0,0,1,0-2.26h1.655V7.256h-3.141a5.467,5.467,0,0,1-5.461-5.461V0H8.6V1.794A5.467,5.467,0,0,1,3.141,7.256H0v2.763H1.655a1.13,1.13,0,0,1,0,2.26H0v2.6H1.655a1.129,1.129,0,0,1,0,2.259H0v2.6H1.655a1.13,1.13,0,0,1,0,2.259H0v2.6H1.655a1.13,1.13,0,0,1,0,2.259H0v2.6H1.655a1.13,1.13,0,0,1,0,2.259H0v2.6H1.655a1.129,1.129,0,0,1,1.129,1.13h0a1.129,1.129,0,0,1-1.129,1.13H0v2.6H1.655a1.129,1.129,0,0,1,1.129,1.13h0a1.129,1.129,0,0,1-1.129,1.13H0v2.6H1.655a1.13,1.13,0,0,1,0,2.259H0v2.6H1.655a1.13,1.13,0,0,1,0,2.26H0v2.6H1.655a1.129,1.129,0,0,1,0,2.259H0V58.75H3.141A5.468,5.468,0,0,1,8.6,64.211v1.795H134.067V64.211a5.468,5.468,0,0,1,5.461-5.462h3.141V55.987Z" transform="translate(0 32.093) rotate(-13)" fill="#ffa13d"/>
      <path id="Path_4436" data-name="Path 4436" d="M7.078,58.827H125.72A9.08,9.08,0,0,1,132.8,51.75V7.077A9.079,9.079,0,0,1,125.72,0H7.078A9.079,9.079,0,0,1,0,7.077V51.75A9.08,9.08,0,0,1,7.078,58.827Z" transform="translate(5.617 34.48) rotate(-13)" fill="none" stroke="#fff" stroke-miterlimit="10" stroke-width="2"/>
      <line id="Line_7" data-name="Line 7" y2="57.788" transform="translate(25.916 30.327) rotate(-13)" fill="none" stroke="#fff" stroke-miterlimit="10" stroke-width="2" stroke-dasharray="7.486 6.55"/>
      <path id="Path_4441" data-name="Path 4441" d="M2.281,6.844H3.374V.077H2.426v4.05L1.334.077H0V6.844H.957v-4.9Zm2.832-5.21c0-.483.213-.667.551-.667s.551.184.551.667V5.288c0,.483-.213.667-.551.667s-.551-.184-.551-.667ZM4.05,5.22a1.5,1.5,0,0,0,1.614,1.7,1.5,1.5,0,0,0,1.614-1.7V1.7A1.5,1.5,0,0,0,5.665,0,1.5,1.5,0,0,0,4.05,1.7ZM12.586,1.7A1.5,1.5,0,0,0,10.971,0,1.5,1.5,0,0,0,9.357,1.7V2.939c0,1,.4,1.547,1.179,1.547a1.012,1.012,0,0,0,.986-.6V5.123c0,.648-.213.831-.59.831-.338,0-.551-.184-.551-.667V5.046H9.376V5.22c0,1.083.541,1.7,1.585,1.7,1.1,0,1.624-.619,1.624-1.759ZM10.971,3.519c-.338,0-.551-.184-.551-.667V1.634c0-.483.213-.657.551-.657s.551.174.551.657V2.852C11.522,3.335,11.31,3.519,10.971,3.519Zm3.3-1.885c0-.483.213-.667.551-.667s.551.184.551.667V5.288c0,.483-.213.667-.551.667s-.551-.184-.551-.667ZM13.2,5.22a1.5,1.5,0,0,0,1.614,1.7,1.5,1.5,0,0,0,1.614-1.7V1.7A1.5,1.5,0,0,0,14.819,0,1.5,1.5,0,0,0,13.2,1.7Zm5.964-3.1c0,.541-.242.715-.638.715h-.416V3.8h.358c.483,0,.7.232.7.86v.532c0,.6-.213.764-.551.764s-.551-.184-.551-.667V4.659H17.061V5.22c0,1.083.541,1.7,1.585,1.7s1.585-.619,1.585-1.7V4.688a1.38,1.38,0,0,0-.744-1.421,1.318,1.318,0,0,0,.744-1.392V1.7c0-1.083-.541-1.7-1.585-1.7s-1.585.619-1.585,1.7v.367h1.005V1.634c0-.483.213-.667.551-.667s.551.164.551.773ZM20.9,4.659V5.22c0,1.083.541,1.7,1.585,1.7s1.585-.619,1.585-1.7V3.712c0-1-.4-1.547-1.179-1.547a1.014,1.014,0,0,0-.928.493l.087-1.614H23.9V.077h-2.8L20.9,4H21.9V3.8c0-.483.213-.667.551-.667s.551.184.551.667V5.288c0,.483-.213.657-.551.657s-.551-.174-.551-.657V4.659Zm3.625.957h2.049V6.844h1.044V5.616h.5V4.65h-.5V.077h-1.16L24.524,4.65ZM25.5,4.65l1.073-2.542V4.65Zm3.055.01V5.22c0,1.083.541,1.7,1.585,1.7s1.585-.619,1.585-1.7V3.712c0-1-.4-1.547-1.179-1.547a1.014,1.014,0,0,0-.928.493L29.7,1.044h1.846V.077h-2.8L28.555,4H29.56V3.8c0-.483.213-.667.551-.667s.551.184.551.667V5.288c0,.483-.213.657-.551.657s-.551-.174-.551-.657V4.659Zm4.853-3.026c0-.483.213-.667.551-.667s.551.184.551.667V5.288c0,.483-.213.667-.551.667s-.551-.184-.551-.667ZM32.344,5.22a1.617,1.617,0,1,0,3.229,0V1.7a1.617,1.617,0,1,0-3.229,0Zm3.847,0a1.617,1.617,0,1,0,3.229,0V3.983c0-1-.4-1.547-1.179-1.547a1.012,1.012,0,0,0-.986.6V1.8c0-.648.213-.831.59-.831.338,0,.551.184.551.667v.242H39.4V1.7C39.4.619,38.859,0,37.815,0c-1.1,0-1.624.619-1.624,1.759ZM37.805,3.4c.338,0,.551.184.551.667V5.288c0,.483-.213.657-.551.657s-.551-.174-.551-.657V4.07C37.254,3.586,37.467,3.4,37.805,3.4ZM40.019.077v.967h2.117l-1.556,5.8h1.063l1.566-5.838V.077Z" transform="translate(26.023 82.013) rotate(-103)" fill="#fff"/>
      <path id="Path_4437" data-name="Path 4437" d="M56.695,59.954l-6.714-7.829c-2.192-2.556-4.407-3.771-6.413-3.492a5.406,5.406,0,0,0-3.907,3.1l-3.9,8.307L35,50.89a7.933,7.933,0,0,0-.3-1.713,11.56,11.56,0,0,0-2.618,2.382L24.8,59.833l3.085-10.581a11.851,11.851,0,0,0,.554-2.805,13.46,13.46,0,0,0-3.246,1.1L6.935,55.625,22.7,43.364c1.656-1.289,2.362-2.765,1.936-4.049a3.777,3.777,0,0,0-3.667-2.221L.53,36.677l19.954-4.431c2.234-.5,2.936-1.258,2.994-1.591.1-.548-.679-2.009-3.172-3.6L0,14.114,22.5,22.7c4.835,1.845,6.662,1.241,6.82,1.045.11-.138.277-1.275-1-3.944L22.893,8.417l9.3,8.516c2.753,2.521,4.674,3.043,5.556,2.691,2.391-.957,2.263-7.439,3.067-19.624,2.5,11.263,3.534,18.206,5.693,18.752.671.171,2.168-.448,4.131-2.76L61.089,3.683,54.767,18.54a7,7,0,0,0-.6,2,9.785,9.785,0,0,0,4.35-1.692L73.766,8.9,61.7,22.527c-.991,1.118-2.546,3.228-1.832,4.8.631,1.387,2.957,2.457,5.294,2.436l22.306-.2L65.733,34.6c-2.869.665-4.539,2.525-4.92,4.072a2.843,2.843,0,0,0,1.079,2.978L72.052,50.41l-12.6-4.6c-4.117-1.5-5.144-.727-5.247-.634-.35.315-.74,1.672.022,4.762ZM34.514,48.744Zm9-3.387a11.609,11.609,0,0,1,6.556,1.5,7.051,7.051,0,0,1,2.177-4.05,7.677,7.677,0,0,1,5.714-1.775,9.1,9.1,0,0,1,.245-2.912,11.1,11.1,0,0,1,3.122-5.272,9.557,9.557,0,0,1-3.879-4.2,8.221,8.221,0,0,1-.657-4.6,6.168,6.168,0,0,1-4.671-1.225,4.847,4.847,0,0,1-1.251-1.59,7.546,7.546,0,0,1-5.162.617,7.215,7.215,0,0,1-3.293-1.909,7.624,7.624,0,0,1-3.375,2.689,8.367,8.367,0,0,1-6.184-.127,5.956,5.956,0,0,1-1.546,3.489,7.345,7.345,0,0,1-5.564,2.114,6.6,6.6,0,0,1,.2,3.049A6.469,6.469,0,0,1,24.32,34.39a8.977,8.977,0,0,1,2.762,4.049,8.5,8.5,0,0,1,.27,4.4,4.919,4.919,0,0,1,2.714,1.178A4.812,4.812,0,0,1,31.5,46.264a5.322,5.322,0,0,1,3.822-.247,4.775,4.775,0,0,1,2.315,1.657,11.131,11.131,0,0,1,5.282-2.255Q43.207,45.38,43.513,45.356Z" transform="translate(37.811 26.189) rotate(-13)" fill="#ef9230"/>
      <path id="Path_4438" data-name="Path 4438" d="M20.979,0c-.464,6.772-4.751,9.468-11.458,3.326,3.931,8.241-1.583,9.042-8.912,6.247C6.281,13.188,6.641,17.751,0,19.225c5.734.117,8.88,6.231,3.187,10.659C9.2,27.221,11,28.421,9.225,34.522c3.7-4.2,6.708-5.131,7.2.747,1.948-4.15,7.986-7.64,14.4-.158-1.241-5.034-.853-10.411,8.447-7.019-4.336-3.739-1.222-9.88,4.889-11.3-5.247.046-11.649-4.167-5.319-11.312-4.261,2.778-10.353,3.735-7.35-3.32C26.412,8.149,22.313,6.326,20.979,0Z" transform="translate(61.757 36.482) rotate(-13)" fill="url(#linear-gradient)"/>
      <path id="Path_4439" data-name="Path 4439" d="M17.592,36.953l-.047-.567c-.192-2.3-.774-3.624-1.729-3.94-1.173-.388-2.973.746-5.2,3.28l-.452.513.191-.657c.846-2.9.86-4.658.043-5.373-.871-.763-2.739-.471-5.874.917l-1.133.5.978-.761c2.472-1.923,3.459-4.325,2.707-6.59a5.979,5.979,0,0,0-5.8-3.8L0,20.455l1.238-.275C4.027,19.56,5.718,18.339,6,16.742c.323-1.835-1.247-4.055-4.2-5.937L.539,10l1.4.533c4.584,1.748,7.985,1.914,9.33.455,1.088-1.179.882-3.364-.611-6.494l-.337-.706.577.529c3.14,2.875,5.895,3.958,7.964,3.13,1.859-.744,3.01-3,3.24-6.354L22.174,0,22.4,1.071c.666,3.158,2.015,5.146,3.8,5.6,1.873.474,4.1-.737,6.45-3.5L33.3,2.4l-.392.922c-.993,2.334-1.048,3.963-.158,4.709,1.384,1.16,4.786.054,7.286-1.575l.946-.617-.749.845c-2.384,2.691-3.146,5.206-2.2,7.275,1.135,2.493,4.529,3.784,7.328,3.784h.079l1.384-.012-1.349.313c-3.358.779-5.963,3.041-6.634,5.762a5.112,5.112,0,0,0,1.811,5.271l.63.544-.782-.285c-3.67-1.339-6.217-1.4-7.572-.185-1.308,1.174-1.535,3.537-.675,7.025l.153.621-.417-.486c-3.443-4.015-6.506-4.541-8.469-4.274a7.645,7.645,0,0,0-5.68,4.4ZM15.33,32.066a1.839,1.839,0,0,1,.581.091c1,.331,1.636,1.57,1.885,3.686a7.864,7.864,0,0,1,5.677-4.1c1.961-.266,4.97.219,8.34,3.924-.72-3.286-.416-5.55.9-6.735,1.358-1.219,3.782-1.255,7.211-.108a5.3,5.3,0,0,1-1.39-5.082,8.594,8.594,0,0,1,5.921-5.725c-2.628-.231-5.6-1.474-6.712-3.922-.646-1.42-.841-3.734,1.654-6.889-2.518,1.436-5.487,2.212-6.851,1.068-.9-.758-.985-2.188-.243-4.257-2.221,2.4-4.349,3.418-6.184,2.953-1.724-.437-3.06-2.179-3.809-4.942C21.94,5,20.769,7.011,18.972,7.73c-1.456.582-3.96.556-7.741-2.706C12.5,7.93,12.588,10,11.49,11.2c-1.339,1.451-4.35,1.455-8.54.029,2.45,1.811,3.661,3.8,3.35,5.57-.272,1.543-1.717,2.751-4.1,3.453a6.088,6.088,0,0,1,5.163,3.934c.7,2.111-.066,4.405-2.056,6.281,2.721-1.1,4.412-1.25,5.289-.482s.937,2.371.223,5.062C12.645,33.063,14.158,32.066,15.33,32.066Z" transform="translate(60.27 35.693) rotate(-13)" fill="#fff"/>
      <g id="Path_4440" data-name="Path 4440" transform="translate(40.21 31.229) rotate(-14)" fill="#fff" stroke-linecap="round">
        <path d="M 39.6266975402832 24.92795562744141 L 39.1266975402832 24.92795562744141 L 34.82726669311523 24.92795562744141 L 34.32726669311523 24.92795562744141 L 34.32726669311523 24.42795562744141 L 34.32726669311523 4.464345932006836 L 34.32726669311523 3.964345932006836 L 34.82726669311523 3.964345932006836 L 39.1266975402832 3.964345932006836 L 39.6266975402832 3.964345932006836 L 39.6266975402832 4.464345932006836 L 39.6266975402832 5.026631355285645 L 39.80824661254883 4.758845806121826 L 39.85365676879883 4.691865921020508 L 39.91787719726562 4.64262580871582 C 40.78498840332031 3.977845907211304 42.30122756958008 3.580955982208252 43.97382736206055 3.580955982208252 C 46.07062911987305 3.580955982208252 47.84158706665039 4.357775688171387 49.09523773193359 5.827445983886719 C 50.29991912841797 7.239696025848389 50.93666839599609 9.183075904846191 50.93666839599609 11.44749546051025 C 50.93666839599609 14.05175590515137 50.1732063293457 16.23496627807617 48.72882843017578 17.76110649108887 C 47.39663696289062 19.1686954498291 45.53288650512695 19.94389533996582 43.48089599609375 19.94389533996582 C 42.1136360168457 19.94389533996582 40.60770797729492 19.59696578979492 39.81876754760742 19.10023498535156 L 39.72185897827148 19.03922653198242 L 39.66116714477539 18.94211578369141 L 39.6266975402832 18.88696479797363 L 39.6266975402832 24.42795562744141 L 39.6266975402832 24.92795562744141 Z M 42.60458755493164 7.538526058197021 C 40.62860870361328 7.538526058197021 39.6266975402832 8.899765968322754 39.6266975402832 11.5844259262085 L 39.6266975402832 12.24166584014893 C 39.6266975402832 15.62144565582275 41.61346817016602 15.98632621765137 42.46765899658203 15.98632621765137 C 44.41235733032227 15.98632621765137 45.5276985168457 14.43180561065674 45.5276985168457 11.72135543823242 C 45.5276985168457 9.180385589599609 44.38030624389648 7.538526058197021 42.60458755493164 7.538526058197021 Z M 22.45562744140625 20.16235542297363 C 20.92805671691895 20.16235542297363 19.58394813537598 19.74611663818359 18.56861686706543 18.9586353302002 C 17.62551689147949 18.22717666625977 17.00233840942383 17.19295501708984 16.81387710571289 16.04649543762207 L 16.8132381439209 16.0425853729248 L 16.81265830993652 16.03866577148438 C 16.69414710998535 15.23872566223145 16.67033767700195 14.38021564483643 16.67033767700195 13.25429630279541 L 16.67033767700195 4.682816028594971 L 16.67033767700195 4.182816028594971 L 17.17033767700195 4.182816028594971 L 21.44238662719727 4.182816028594971 L 21.94238662719727 4.182816028594971 L 21.94238662719727 4.682816028594971 L 21.94238662719727 12.32320594787598 C 21.94238662719727 12.7768669128418 21.97014236450195 13.55629920959473 22.04833602905273 14.26240062713623 C 22.22357368469238 15.60458946228027 22.86155891418457 16.17740631103516 24.18087768554688 16.17740631103516 C 25.68543815612793 16.17740631103516 26.58367729187012 14.79800605773926 26.58367729187012 12.48751544952393 L 26.58367729187012 4.682816028594971 L 26.58367729187012 4.182816028594971 L 27.08367729187012 4.182816028594971 L 31.35572814941406 4.182816028594971 L 31.85572814941406 4.182816028594971 L 31.85572814941406 4.682816028594971 L 31.85572814941406 19.27897644042969 L 31.85572814941406 19.77897644042969 L 31.35572814941406 19.77897644042969 L 27.08367729187012 19.77897644042969 L 26.58367729187012 19.77897644042969 L 26.58367729187012 19.27897644042969 L 26.58367729187012 18.50983428955078 L 26.27367782592773 18.99894523620605 L 26.21691703796387 19.0884952545166 L 26.12870788574219 19.14730644226074 C 25.07570838928223 19.84930610656738 23.9428882598877 20.16235542297363 22.45562744140625 20.16235542297363 Z M 8.023787498474121 20.16235542297363 C 5.55645751953125 20.16235542297363 3.56560754776001 19.62713623046875 2.10652756690979 18.57155609130859 C 0.5503475666046143 17.44573593139648 -0.3260724246501923 15.79002571105957 -0.4983924329280853 13.65043544769287 L -0.541892409324646 13.11029624938965 L -2.426757873763563e-06 13.11029624938965 L 4.326817512512207 13.11029624938965 L 4.737857341766357 13.11029624938965 L 4.817367553710938 13.51356601715088 C 5.122607707977295 15.06154632568359 6.290557384490967 15.9857063293457 7.941627502441406 15.9857063293457 C 9.046127319335938 15.9857063293457 10.23488712310791 15.48231601715088 10.23488712310791 14.37707614898682 C 10.23488712310791 13.53744602203369 9.8636474609375 12.67359638214111 7.17044734954834 12.04326629638672 L 7.166777610778809 12.04241561889648 L 7.163117408752441 12.04149627685547 C 4.782497406005859 11.44634628295898 3.248747587203979 10.79662609100342 2.190067529678345 9.934825897216797 C 0.895887553691864 8.881336212158203 0.2667775750160217 7.458995819091797 0.2667775750160217 5.5865159034729 C 0.2667775750160217 3.753475904464722 1.057987570762634 2.191175937652588 2.554877519607544 1.06851589679718 C 3.903517484664917 0.0570359081029892 5.729037761688232 -0.5000041127204895 7.695167541503906 -0.5000041127204895 C 10.04908752441406 -0.5000041127204895 11.91802787780762 0.1315659135580063 13.25006771087646 1.377155900001526 C 14.43840789794922 2.488375902175903 15.15967750549316 4.041195869445801 15.39383792877197 5.992486000061035 L 15.46098804473877 6.552055835723877 L 14.89739799499512 6.552055835723877 L 10.57057762145996 6.552055835723877 L 10.12918758392334 6.552055835723877 L 10.07443714141846 6.114076137542725 C 9.872267723083496 4.496726036071777 9.025697708129883 3.676656007766724 7.558237552642822 3.676656007766724 C 6.736927509307861 3.676656007766724 5.75789737701416 3.936735868453979 5.75789737701416 5.175745964050293 C 5.75789737701416 6.193875789642334 6.333547592163086 6.880445957183838 9.370137214660645 7.591725826263428 C 13.64738750457764 8.604745864868164 15.72601795196533 10.70771598815918 15.72601795196533 14.0210657119751 C 15.72601795196533 15.91093635559082 14.89862728118896 17.502685546875 13.33327770233154 18.62424659729004 C 11.94894790649414 19.61611557006836 10.0633373260498 20.16235542297363 8.023787498474121 20.16235542297363 Z M 59.14507675170898 19.94389533996582 C 56.90870666503906 19.94389533996582 55.00002670288086 19.24194526672363 53.62535858154297 17.91393661499023 C 52.143798828125 16.48267555236816 51.36068725585938 14.36971569061279 51.36068725585938 11.80350589752197 C 51.36068725585938 9.515505790710449 52.13515853881836 7.438516139984131 53.54143905639648 5.955135822296143 C 55.01390838623047 4.401936054229736 57.04630661010742 3.580955982208252 59.41892623901367 3.580955982208252 C 61.7470588684082 3.580955982208252 63.70308685302734 4.419615745544434 65.07553863525391 6.006266117095947 C 66.30638885498047 7.429205894470215 66.98424530029297 9.38106632232666 66.98424530029297 11.50226593017578 C 66.98424530029297 11.91030597686768 66.9556884765625 12.38859558105469 66.89934539794922 12.92384624481201 L 66.85223388671875 13.37151622772217 L 66.402099609375 13.37151622772217 L 56.72241973876953 13.37151622772217 C 57.068359375 15.66110992431641 58.17307662963867 15.98632621765137 59.22723770141602 15.98632621765137 C 60.48696899414062 15.98632621765137 61.29447937011719 15.35440635681152 61.50101852416992 14.206955909729 L 61.57506942749023 13.79553604125977 L 61.99310684204102 13.79553604125977 L 66.23777770996094 13.79553604125977 L 66.86937713623047 13.79553604125977 L 66.72443389892578 14.41027545928955 C 65.90748596191406 17.8752555847168 63.07408905029297 19.94389533996582 59.14507675170898 19.94389533996582 Z M 56.88406753540039 9.660406112670898 L 61.43360900878906 9.660406112670898 C 61.13604354858398 8.233924865722656 60.41071701049805 7.538526058197021 59.22723770141602 7.538526058197021 C 58.02198791503906 7.538526058197021 57.25166320800781 8.233980178833008 56.88406753540039 9.660406112670898 Z M 73.66614532470703 19.56050682067871 L 73.16614532470703 19.56050682067871 L 68.86672973632812 19.56050682067871 L 68.36672973632812 19.56050682067871 L 68.36672973632812 19.06050682067871 L 68.36672973632812 4.464345932006836 L 68.36672973632812 3.964345932006836 L 68.86672973632812 3.964345932006836 L 73.16614532470703 3.964345932006836 L 73.66614532470703 3.964345932006836 L 73.66614532470703 4.464345932006836 L 73.66614532470703 5.281132221221924 L 73.82170104980469 4.99336576461792 L 73.85418701171875 4.93324613571167 L 73.90162658691406 4.884056091308594 C 74.67669677734375 4.080276012420654 75.83245849609375 3.580955982208252 76.91787719726562 3.580955982208252 C 77.40042877197266 3.580955982208252 77.72761535644531 3.635725975036621 78.04402923583984 3.688695907592773 L 78.09547424316406 3.697295904159546 L 78.51327514648438 3.7669358253479 L 78.51327514648438 4.19049596786499 L 78.51327514648438 7.668385982513428 L 78.51327514648438 8.201685905456543 L 77.98108673095703 8.167346000671387 C 77.76248931884766 8.15324592590332 77.55152893066406 8.146096229553223 77.35406494140625 8.146096229553223 C 75.07725524902344 8.146096229553223 73.66614532470703 8.950335502624512 73.66614532470703 12.95367622375488 L 73.66614532470703 19.06050682067871 L 73.66614532470703 19.56050682067871 Z" stroke="none"/>
        <path d="M 7.695167541503906 -1.9073486328125e-06 C 4.025581359863281 -1.9073486328125e-06 0.7667694091796875 2.053865432739258 0.7667694091796875 5.586521148681641 C 0.7667694091796875 9.201320648193359 3.231414794921875 10.54318714141846 7.284393310546875 11.55643177032471 C 9.858558654785156 12.15889835357666 10.73487854003906 13.06259822845459 10.73487854003906 14.37707614898682 C 10.73487854003906 15.66416454315186 9.5025634765625 16.48571014404297 7.941627502441406 16.48571014404297 C 6.21636962890625 16.48571014404297 4.710205078125 15.55462074279785 4.326812744140625 13.61029815673828 L -7.62939453125e-06 13.61029815673828 C 0.32861328125 17.69064331054688 3.395729064941406 19.662353515625 8.023780822753906 19.662353515625 C 11.80289459228516 19.662353515625 15.22601699829102 17.69064331054688 15.22601699829102 14.02106475830078 C 15.22601699829102 11.03610897064209 13.41860198974609 9.064397811889648 9.256103515625 8.078542709350586 C 6.21636962890625 7.366531372070312 5.257896423339844 6.599754333496094 5.257896423339844 5.175743103027344 C 5.257896423339844 3.806497573852539 6.21636962890625 3.176652908325195 7.558235168457031 3.176652908325195 C 9.365638732910156 3.176652908325195 10.35150146484375 4.299419403076172 10.57057952880859 6.052053451538086 L 14.89739227294922 6.052053451538086 C 14.48661422729492 2.628942489624023 12.40535736083984 -1.9073486328125e-06 7.695167541503906 -1.9073486328125e-06 M 43.97382736206055 4.080953598022461 C 42.49503707885742 4.080953598022461 41.04363632202148 4.409576416015625 40.22209167480469 5.039430618286133 L 39.12670516967773 6.655141830444336 L 39.12670516967773 4.46434211730957 L 34.8272590637207 4.46434211730957 L 34.8272590637207 24.42795372009277 L 39.12670516967773 24.42795372009277 L 39.12670516967773 17.14356422424316 L 40.08517074584961 18.67712020874023 C 40.82456970214844 19.14266586303711 42.27597045898438 19.44389724731445 43.48089218139648 19.44389724731445 C 47.23262786865234 19.44389724731445 50.43666839599609 16.70541000366211 50.43666839599609 11.4474983215332 C 50.43666839599609 7.148065567016602 47.99940490722656 4.080953598022461 43.97382736206055 4.080953598022461 M 42.46765899658203 16.48632049560547 C 40.82456970214844 16.48632049560547 39.12670516967773 15.39093112945557 39.12670516967773 12.24166488647461 L 39.12670516967773 11.5844202041626 C 39.12670516967773 8.243465423583984 40.63286972045898 7.038532257080078 42.60458374023438 7.038532257080078 C 44.63106918334961 7.038532257080078 46.02769470214844 8.845931053161621 46.02769470214844 11.72135353088379 C 46.02769470214844 14.89799785614014 44.54891586303711 16.48632049560547 42.46765899658203 16.48632049560547 M 59.41892623901367 4.080953598022461 C 54.7908821105957 4.080953598022461 51.86069488525391 7.421920776367188 51.86069488525391 11.80350971221924 C 51.86069488525391 16.95186424255371 55.06472778320312 19.44389724731445 59.14508056640625 19.44389724731445 C 62.70511627197266 19.44389724731445 65.44361877441406 17.66387557983398 66.23777008056641 14.29553127288818 L 61.99311447143555 14.29553127288818 C 61.74665069580078 15.66477584838867 60.73340606689453 16.48632049560547 59.22723770141602 16.48632049560547 C 57.61151504516602 16.48632049560547 56.40659332275391 15.66477584838867 56.16012573242188 12.87152004241943 L 66.40209197998047 12.87152004241943 C 66.45686340332031 12.35120964050293 66.4842529296875 11.88565349578857 66.4842529296875 11.50226497650146 C 66.4842529296875 7.613609313964844 64.07437133789062 4.080953598022461 59.41892623901367 4.080953598022461 M 62.02049255371094 10.16040897369385 L 56.26966857910156 10.16040897369385 C 56.62567138671875 7.996997833251953 57.69367980957031 7.038532257080078 59.22723770141602 7.038532257080078 C 60.81555938720703 7.038532257080078 61.77402496337891 8.106542587280273 62.02049255371094 10.16040897369385 M 76.91786956787109 4.080953598022461 C 76.06894683837891 4.080953598022461 75.00093841552734 4.46434211730957 74.26153564453125 5.231121063232422 L 73.16614532470703 7.257608413696289 L 73.16614532470703 4.46434211730957 L 68.86671447753906 4.46434211730957 L 68.86671447753906 19.06050872802734 L 73.16614532470703 19.06050872802734 L 73.16614532470703 12.95367622375488 C 73.16614532470703 8.818552017211914 74.61753845214844 7.449308395385742 78.01326751708984 7.668375015258789 L 78.01326751708984 4.190498352050781 C 77.68466186523438 4.135730743408203 77.3834228515625 4.080953598022461 76.91786956787109 4.080953598022461 M 17.17033767700195 4.682809829711914 L 17.17033767700195 13.25428676605225 C 17.17033767700195 14.43184280395508 17.19771575927734 15.22600936889648 17.30725860595703 15.96539783477783 C 17.63587188720703 17.96449851989746 19.44328308105469 19.662353515625 22.45562744140625 19.662353515625 C 23.82487106323242 19.662353515625 24.86549377441406 19.38850975036621 25.85136032104492 18.73127555847168 L 27.08367156982422 16.78694152832031 L 27.08367156982422 19.27897644042969 L 31.35572814941406 19.27897644042969 L 31.35572814941406 4.682809829711914 L 27.08367156982422 4.682809829711914 L 27.08367156982422 12.48750877380371 C 27.08367156982422 15.17123126983643 25.93350601196289 16.67741012573242 24.18087005615234 16.67741012573242 C 22.51039123535156 16.67741012573242 21.74361419677734 15.80108737945557 21.55192565917969 14.32230949401855 C 21.46977233886719 13.58290958404541 21.4423828125 12.78875350952148 21.4423828125 12.32320880889893 L 21.4423828125 4.682809829711914 L 17.17033767700195 4.682809829711914 M 7.695167541503906 -1.000001907348633 C 10.18004608154297 -1.000001907348633 12.16387939453125 -0.3230800628662109 13.59156799316406 1.011953353881836 C 14.86830520629883 2.205820083618164 15.64169311523438 3.861474990844727 15.8902702331543 5.93290901184082 L 16.02457046508789 7.052053451538086 L 9.68780517578125 7.052053451538086 L 9.578300476074219 6.17608642578125 C 9.354278564453125 4.383920669555664 8.318122863769531 4.176652908325195 7.558235168457031 4.176652908325195 C 6.257896423339844 4.176652908325195 6.257896423339844 4.85145378112793 6.257896423339844 5.175743103027344 C 6.257896423339844 5.698541641235352 6.257896423339844 6.349187850952148 9.484169006347656 7.104898452758789 C 11.74757385253906 7.640964508056641 13.3924560546875 8.45667552947998 14.5152473449707 9.599231719970703 C 15.44644927978516 10.54682922363281 16.00107955932617 11.71806621551514 16.17033767700195 13.09040927886963 L 16.17033767700195 3.682809829711914 L 22.4423828125 3.682809829711914 L 22.4423828125 12.32320880889893 C 22.4423828125 12.76313877105713 22.46923446655273 13.51820278167725 22.54482269287109 14.20291233062744 C 22.68803024291992 15.29129028320312 23.1170539855957 15.67740917205811 24.18087005615234 15.67740917205811 C 25.89825820922852 15.67740917205811 26.08367156982422 13.44661998748779 26.08367156982422 12.48750877380371 L 26.08367156982422 3.682809829711914 L 32.35572814941406 3.682809829711914 L 32.35572814941406 20.27897644042969 L 26.08367156982422 20.27897644042969 L 26.08367156982422 19.76571655273438 C 25.03461074829102 20.38388824462891 23.89861679077148 20.662353515625 22.45562744140625 20.662353515625 C 20.81607055664062 20.662353515625 19.36600494384766 20.20984268188477 18.26218032836914 19.35373115539551 C 17.21905899047852 18.54469871520996 16.52949142456055 17.39896392822266 16.32050323486328 16.12759780883789 L 16.31805801391602 16.11195373535156 C 16.25121688842773 15.66079044342041 16.21339797973633 15.19535064697266 16.19279861450195 14.68003082275391 C 16.01392364501953 16.43337631225586 15.1177978515625 17.96074295043945 13.62449645996094 19.03068733215332 C 12.15595245361328 20.08288764953613 10.16691589355469 20.662353515625 8.023780822753906 20.662353515625 C 2.647926330566406 20.662353515625 -0.6399383544921875 18.12124252319336 -0.9967880249023438 13.69057559967041 L -1.083786010742188 12.61029815673828 L 5.148880004882812 12.61029815673828 L 5.307929992675781 13.41684246063232 C 5.676116943359375 15.28412055969238 7.272407531738281 15.48570919036865 7.941627502441406 15.48570919036865 C 8.805313110351562 15.48570919036865 9.734878540039062 15.13878726959229 9.734878540039062 14.37707614898682 C 9.734878540039062 13.95067596435547 9.734878540039062 13.15697574615479 7.056503295898438 12.53011989593506 L 7.041862487792969 12.52657604217529 C 4.553337097167969 11.90444278717041 3.0079345703125 11.2453088760376 1.874412536621094 10.32259845733643 C 0.4561843872070312 9.168120384216309 -0.2332305908203125 7.618942260742188 -0.2332305908203125 5.586521148681641 C -0.2332305908203125 3.618453979492188 0.650390625 1.871864318847656 2.254867553710938 0.6685085296630859 C 3.689491271972656 -0.4074459075927734 5.621559143066406 -1.000001907348633 7.695167541503906 -1.000001907348633 Z M 43.97382736206055 3.080953598022461 C 47.71832275390625 3.080953598022461 50.43209838867188 5.446769714355469 51.20944595336914 9.163331985473633 C 51.58383560180664 7.804437637329102 52.25222778320312 6.588283538818359 53.17857360839844 5.611143112182617 C 54.74779510498047 3.955875396728516 56.90567016601562 3.080953598022461 59.41892623901367 3.080953598022461 C 61.89661407470703 3.080953598022461 63.98340606689453 3.979398727416992 65.45368957519531 5.679153442382812 C 66.76311492919922 7.19293212890625 67.4842529296875 9.260953903198242 67.4842529296875 11.50226497650146 C 67.4842529296875 11.92774295806885 67.45475769042969 12.4236536026001 67.3966064453125 12.97619819641113 L 67.36299133300781 13.29553127288818 L 67.50096130371094 13.29553127288818 L 67.21108245849609 14.52500915527344 C 66.33727264404297 18.23123168945312 63.32193756103516 20.44389724731445 59.14508056640625 20.44389724731445 C 56.77652740478516 20.44389724731445 54.74770355224609 19.69339752197266 53.27796173095703 18.2735424041748 C 52.20465469360352 17.23666763305664 51.47480010986328 15.87307548522949 51.11658477783203 14.25807762145996 C 50.74809265136719 15.77244567871094 50.06574630737305 17.07591247558594 49.09197235107422 18.10479736328125 C 47.66439056396484 19.61318588256836 45.67166900634766 20.44389724731445 43.48089218139648 20.44389724731445 C 42.46390533447266 20.44389724731445 41.1290283203125 20.24854469299316 40.12670516967773 19.82003784179688 L 40.12670516967773 25.42795372009277 L 33.8272590637207 25.42795372009277 L 33.8272590637207 3.46434211730957 L 40.12670516967773 3.46434211730957 L 40.12670516967773 3.91334342956543 C 41.09646224975586 3.37983512878418 42.45904159545898 3.080953598022461 43.97382736206055 3.080953598022461 Z M 42.46765899658203 15.48632049560547 C 44.69510269165039 15.48632049560547 45.02769470214844 13.12745380401611 45.02769470214844 11.72135353088379 C 45.02769470214844 9.48412036895752 44.07657241821289 8.038532257080078 42.60458374023438 8.038532257080078 C 41.54087066650391 8.038532257080078 40.12670516967773 8.406108856201172 40.12670516967773 11.5844202041626 L 40.12670516967773 12.24166488647461 C 40.12670516967773 14.33400917053223 40.95807266235352 15.48632049560547 42.46765899658203 15.48632049560547 Z M 60.77147674560547 9.160408973693848 C 60.34267425537109 8.038602828979492 59.59110260009766 8.038532257080078 59.22723770141602 8.038532257080078 C 58.66069793701172 8.038532257080078 58.00537872314453 8.18964958190918 57.57856369018555 9.160408973693848 L 60.77147674560547 9.160408973693848 Z M 61.05337142944336 13.87152004241943 L 57.32997131347656 13.87152004241943 C 57.70332336425781 15.34282875061035 58.49198532104492 15.48632049560547 59.22723770141602 15.48632049560547 C 59.92770385742188 15.48632049560547 60.80541610717773 15.24899768829346 61.00893783569336 14.11837577819824 L 61.05337142944336 13.87152004241943 Z M 76.91786956787109 3.080953598022461 C 77.44192504882812 3.080953598022461 77.80559539794922 3.14183235168457 78.12644958496094 3.19554328918457 L 79.01326751708984 3.343364715576172 L 79.01326751708984 8.734953880310059 L 77.94890594482422 8.666297912597656 C 77.74076843261719 8.652875900268555 77.54065704345703 8.646076202392578 77.3541259765625 8.646086692810059 C 75.79553985595703 8.646142959594727 75.23080444335938 9.122864723205566 74.94160461425781 9.481442451477051 C 74.41980743408203 10.12840938568115 74.16614532470703 11.26418685913086 74.16614532470703 12.95367622375488 L 74.16614532470703 20.06050872802734 L 67.86671447753906 20.06050872802734 L 67.86671447753906 3.46434211730957 L 74.16614532470703 3.46434211730957 L 74.16614532470703 3.99870491027832 C 74.97003936767578 3.421476364135742 75.96751403808594 3.080953598022461 76.91786956787109 3.080953598022461 Z" stroke="none" fill="#ffa13d"/>
      </g>
      <g id="Path_4925" data-name="Path 4925" transform="translate(52.484 57.298) rotate(-14)" fill="#613279" stroke-linecap="round">
        <path d="M 66.73702239990234 21.53161430358887 C 64.50066375732422 21.53161430358887 62.59197235107422 20.82966613769531 61.21731185913086 19.50165557861328 C 59.73576354980469 18.07039451599121 58.95265197753906 15.95743560791016 58.95265197753906 13.39122486114502 C 58.95265197753906 11.10322570800781 59.72712326049805 9.026235580444336 61.13338470458984 7.542855262756348 C 62.60585403442383 5.989655017852783 64.63825225830078 5.168675422668457 67.01088714599609 5.168675422668457 C 69.33901214599609 5.168675422668457 71.29502105712891 6.007335186004639 72.66747283935547 7.593975067138672 C 73.89832305908203 9.016924858093262 74.57618713378906 10.96877479553223 74.57618713378906 13.08998489379883 C 74.57618713378906 13.4981050491333 74.54762268066406 13.97640514373779 74.49128723144531 14.51157569885254 L 74.44416046142578 14.95923519134521 L 73.99403381347656 14.95923519134521 L 64.31437683105469 14.95923519134521 C 64.66030120849609 17.24882888793945 65.76502227783203 17.57404518127441 66.81917572021484 17.57404518127441 C 68.07890319824219 17.57404518127441 68.88643646240234 16.94211578369141 69.09298706054688 15.79466533660889 L 69.16704559326172 15.38324546813965 L 69.58507537841797 15.38324546813965 L 73.82972717285156 15.38324546813965 L 74.46131134033203 15.38324546813965 L 74.31638336181641 15.99798488616943 C 73.49943542480469 19.46296501159668 70.66603088378906 21.53161430358887 66.73702239990234 21.53161430358887 Z M 64.47601318359375 11.24812507629395 L 69.02555847167969 11.24812507629395 C 68.72799682617188 9.821643829345703 68.00266265869141 9.126245498657227 66.81917572021484 9.126245498657227 C 65.61392974853516 9.126245498657227 64.84362030029297 9.82169246673584 64.47601318359375 11.24812507629395 Z M 21.46977424621582 21.53161430358887 C 20.09299278259277 21.53161430358887 18.81923294067383 21.09995460510254 17.88313293457031 20.31615447998047 C 16.83890342712402 19.44182586669922 16.28695297241211 18.21197509765625 16.28695297241211 16.75956535339355 C 16.28695297241211 15.01235485076904 17.076904296875 13.58357524871826 18.57141304016113 12.62769508361816 C 20.03107261657715 11.69411563873291 22.11185264587402 11.22074508666992 24.7559642791748 11.22074508666992 L 25.18647384643555 11.22074508666992 C 25.18446159362793 10.92812061309814 25.17547607421875 10.63100337982178 25.13534355163574 10.26979541778564 L 25.13486289978027 10.26552486419678 L 25.13446426391602 10.26124477386475 C 25.06684303283691 9.539935111999512 24.50966262817383 9.126245498657227 23.60579299926758 9.126245498657227 C 22.55906295776367 9.126245498657227 22.00553321838379 9.71849536895752 21.91358375549316 10.93682479858398 L 21.87869262695312 11.39919567108154 L 21.41500282287598 11.39919567108154 L 17.30726432800293 11.39919567108154 L 16.79481315612793 11.39919567108154 L 16.80741310119629 10.88690567016602 C 16.89152336120605 7.466655254364014 19.68961334228516 5.168675422668457 23.77010345458984 5.168675422668457 C 27.87636375427246 5.168675422668457 30.0986328125 6.833815097808838 30.37517356872559 10.11783504486084 C 30.43013381958008 10.80469512939453 30.45909309387207 11.6328649520874 30.45909309387207 12.51490497589111 L 30.45909309387207 16.95126533508301 C 30.45909309387207 17.96595573425293 30.50414276123047 18.92710494995117 30.72841262817383 20.58104515075684 L 30.80531311035156 21.14822578430176 L 30.23294448852539 21.14822578430176 L 26.04305267333984 21.14822578430176 L 25.60861396789551 21.14822578430176 L 25.54795265197754 20.71804618835449 L 25.49968147277832 20.37575149536133 L 25.48442268371582 20.41198539733887 L 25.35158348083496 20.49588584899902 C 24.26342391967773 21.18314552307129 22.95739364624023 21.53161430358887 21.46977424621582 21.53161430358887 Z M 24.74184417724609 14.72677516937256 C 23.7456226348877 14.72677516937256 22.94205284118652 14.88696479797363 22.41800308227539 15.1900053024292 C 21.93211364746094 15.47097492218018 21.6959228515625 15.86793518066406 21.6959228515625 16.403564453125 C 21.6959228515625 17.37097549438477 22.49625396728516 17.57404518127441 23.16764450073242 17.57404518127441 C 24.17281341552734 17.57404518127441 25.18705368041992 16.88188552856445 25.18705368041992 15.33555507659912 L 25.18705368041992 14.73676300048828 C 25.03464508056641 14.73012161254883 24.88586616516113 14.72677516937256 24.74184417724609 14.72677516937256 Z M 55.50921249389648 21.39468574523926 C 53.256103515625 21.39468574523926 51.95066452026367 20.26442527770996 51.8333740234375 18.21211433410645 L 51.83311462402344 18.20745468139648 L 51.83293533325195 18.20279502868652 C 51.80518341064453 17.48118591308594 51.80518341064453 16.75349617004395 51.80518341064453 15.74632549285889 L 51.80518341064453 3.539987325668335 C 51.45375823974609 3.471892595291138 51.09381484985352 3.45757532119751 50.57993316650391 3.45757532119751 C 48.13699340820312 3.45757532119751 48.04514312744141 4.421945095062256 48.01056289672852 4.784995079040527 L 48.00945281982422 4.796675205230713 L 48.00779342651367 4.808285236358643 C 47.96990203857422 5.073552131652832 47.96087646484375 5.380837917327881 47.95872497558594 5.661605358123779 L 50.4430046081543 5.661605358123779 L 50.9430046081543 5.661605358123779 L 50.9430046081543 6.161605358123779 L 50.9430046081543 8.900094985961914 L 50.9430046081543 9.400094985961914 L 50.4430046081543 9.400094985961914 L 47.95805358886719 9.400094985961914 L 47.95805358886719 20.64822578430176 L 47.95805358886719 21.14822578430176 L 47.45805358886719 21.14822578430176 L 43.18600463867188 21.14822578430176 L 42.68600463867188 21.14822578430176 L 42.68600463867188 20.64822578430176 L 42.68600463867188 9.400094985961914 L 41.8989143371582 9.400094985961914 L 41.46783447265625 9.400094985961914 L 40.96783447265625 9.400094985961914 L 38.48287200927734 9.400094985961914 L 38.48287200927734 20.64822578430176 L 38.48287200927734 21.14822578430176 L 37.98287200927734 21.14822578430176 L 33.71082305908203 21.14822578430176 L 33.21082305908203 21.14822578430176 L 33.21082305908203 20.64822578430176 L 33.21082305908203 9.400094985961914 L 32.14988327026367 9.400094985961914 L 31.64988327026367 9.400094985961914 L 31.64988327026367 8.900094985961914 L 31.64988327026367 6.161605358123779 L 31.64988327026367 5.661605358123779 L 32.14988327026367 5.661605358123779 L 33.21083831787109 5.661605358123779 C 33.21100616455078 5.202889442443848 33.21309661865234 4.5732741355896 33.23898315429688 4.107385158538818 L 33.23939514160156 4.100045204162598 L 33.24001312255859 4.092725276947021 C 33.49937438964844 1.045215249061584 35.62949371337891 -0.4999947547912598 39.57119369506836 -0.4999947547912598 C 40.11770248413086 -0.4999947547912598 40.72338485717773 -0.4295947551727295 41.3227653503418 -0.2963947653770447 L 41.71429443359375 -0.2093947529792786 L 41.71429443359375 0.1916952431201935 L 41.71429443359375 3.094495296478271 L 41.71429443359375 3.695255279541016 L 41.1235237121582 3.586185216903687 C 40.79745483398438 3.525985240936279 40.48918533325195 3.495465278625488 40.2072639465332 3.495465278625488 C 39.49766540527344 3.495465278625488 38.63147354125977 3.68232536315918 38.53471374511719 4.572545051574707 L 38.5338020324707 4.580905437469482 L 38.53261184692383 4.589225292205811 C 38.48563766479492 4.91808557510376 38.48302841186523 5.308826446533203 38.48288345336914 5.661605358123779 L 40.96783447265625 5.661605358123779 L 41.3989143371582 5.661605358123779 L 41.8989143371582 5.661605358123779 L 42.68630218505859 5.661605358123779 C 42.68735885620117 5.293177604675293 42.69218444824219 4.913713932037354 42.71416473388672 4.518155097961426 L 42.71465301513672 4.509385108947754 L 42.7154426574707 4.500625133514404 C 42.86061477661133 2.90379524230957 43.54805374145508 1.67347526550293 44.75868225097656 0.8438352346420288 C 46.07821273803711 -0.06042475625872612 47.99131393432617 -0.4999947547912598 50.60732269287109 -0.4999947547912598 C 53.1253547668457 -0.4999947547912598 55.18802261352539 -0.2330847531557083 56.73802185058594 0.2933352589607239 L 57.07723236083984 0.4085352420806885 L 57.07723236083984 0.7667752504348755 L 57.07723236083984 15.66416549682617 C 57.07723236083984 16.27866554260254 57.07723236083984 16.58711433410645 57.12697219848633 16.93532562255859 L 57.12869262695312 16.94731521606445 L 57.12982177734375 16.95936584472656 C 57.17062377929688 17.39457511901855 57.23782348632812 17.53526496887207 57.88020324707031 17.53526496887207 C 57.98653411865234 17.53526496887207 58.10377502441406 17.53047561645508 58.23860168457031 17.52060508728027 L 58.77509307861328 17.48135566711426 L 58.77509307861328 18.0192756652832 L 58.77509307861328 20.73038482666016 L 58.77509307861328 21.17343521118164 L 58.33526229858398 21.22675514221191 C 57.40300369262695 21.33975601196289 56.47859191894531 21.39468574523926 55.50921249389648 21.39468574523926 Z M 16.51496315002441 21.14822578430176 L 15.55463314056396 21.14822578430176 L 10.87181377410889 21.14822578430176 L 10.51846313476562 21.14822578430176 L 10.40050315856934 20.81515502929688 C 9.891299247741699 19.37740516662598 9.630633354187012 18.21715545654297 9.471176147460938 16.67807960510254 C 9.135936737060547 13.89450836181641 7.890047550201416 13.78557300567627 7.471100807189941 13.75328540802002 C 6.966394901275635 13.72691631317139 6.517140865325928 13.72691535949707 5.997303485870361 13.72691535949707 L 4.799433708190918 13.72691535949707 L 4.799433708190918 20.64822578430176 L 4.799433708190918 21.14822578430176 L 4.299433708190918 21.14822578430176 L 3.566894520190544e-06 21.14822578430176 L -0.4999964237213135 21.14822578430176 L -0.4999964237213135 20.64822578430176 L -0.4999964237213135 1.75263524055481 L -0.4999964237213135 1.25263524055481 L 3.566894520190544e-06 1.25263524055481 L 7.174843788146973 1.25263524055481 C 8.240623474121094 1.25263524055481 9.018963813781738 1.274945259094238 10.07809352874756 1.39261519908905 C 13.59814357757568 1.815005302429199 15.53432369232178 3.771065235137939 15.53432369232178 6.900995254516602 C 15.53432369232178 8.20257568359375 15.16540336608887 9.310365676879883 14.43780326843262 10.19359493255615 C 13.95130729675293 10.78415298461914 13.3118200302124 11.2640962600708 12.52903461456299 11.62752914428711 C 13.77827930450439 12.46399593353271 14.4467134475708 13.83166885375977 14.65527248382568 15.9131555557251 C 14.90057182312012 18.11907386779785 15.26763153076172 19.3663215637207 15.96425342559814 20.36149597167969 L 16.51496315002441 21.14822578430176 Z M 4.799433708190918 9.577645301818848 L 6.517613410949707 9.577645301818848 C 7.100879669189453 9.577645301818848 7.562335014343262 9.577643394470215 7.926923274993896 9.551994323730469 C 9.8026123046875 9.365914344787598 10.04319381713867 8.403585433959961 10.04319381713867 7.585625171661377 C 10.04319381713867 6.358923435211182 9.494204521179199 5.814443588256836 8.086015701293945 5.646262645721436 C 7.717781066894531 5.620071411132812 7.263443946838379 5.593595027923584 6.681923389434814 5.593595027923584 L 4.799433708190918 5.593595027923584 L 4.799433708190918 9.577645301818848 Z" stroke="none"/>
        <path d="M 66.73702239990234 21.03161430358887 C 70.29706573486328 21.03161430358887 73.03556060791016 19.25159454345703 73.82972717285156 15.88324546813965 L 69.58507537841797 15.88324546813965 C 69.33859252929688 17.25249481201172 68.32535552978516 18.07404518127441 66.81917572021484 18.07404518127441 C 65.20347595214844 18.07404518127441 63.99854278564453 17.25249481201172 63.7520751953125 14.45923519134521 L 73.99403381347656 14.45923519134521 C 74.04880523681641 13.93891525268555 74.07618713378906 13.47337532043457 74.07618713378906 13.08998489379883 C 74.07618713378906 9.201325416564941 71.66631317138672 5.668675422668457 67.01088714599609 5.668675422668457 C 62.3828239440918 5.668675422668457 59.45265197753906 9.009634971618652 59.45265197753906 13.39122486114502 C 59.45265197753906 18.53958511352539 62.65667343139648 21.03161430358887 66.73702239990234 21.03161430358887 M 69.61244201660156 11.74812507629395 L 63.86162185668945 11.74812507629395 C 64.21762084960938 9.584714889526367 65.28563690185547 8.626245498657227 66.81917572021484 8.626245498657227 C 68.40751647949219 8.626245498657227 69.36597442626953 9.694254875183105 69.61244201660156 11.74812507629395 M 21.46977424621582 21.03161430358887 C 22.8116340637207 21.03161430358887 24.04395294189453 20.73038482666016 25.0845832824707 20.07314491271973 L 25.74182319641113 18.51220512390137 L 26.04305267333984 20.64822578430176 L 30.23294448852539 20.64822578430176 C 30.01386451721191 19.03251457214355 29.95909309387207 18.04665565490723 29.95909309387207 16.95126533508301 L 29.95909309387207 12.51490497589111 C 29.95909309387207 11.66597557067871 29.93171310424805 10.84442520141602 29.87693405151367 10.15979480743408 C 29.65786361694336 7.558235168457031 28.096923828125 5.668675422668457 23.77010345458984 5.668675422668457 C 20.21006393432617 5.668675422668457 17.38942337036133 7.558235168457031 17.30726432800293 10.89919567108154 L 21.41500282287598 10.89919567108154 C 21.52454376220703 9.447794914245605 22.2639331817627 8.626245498657227 23.60579299926758 8.626245498657227 C 24.89288330078125 8.626245498657227 25.55012321472168 9.338254928588867 25.63228416442871 10.21457481384277 C 25.68705368041992 10.70750522613525 25.68705368041992 11.09088516235352 25.68705368041992 11.47428512573242 L 25.68705368041992 11.72074508666992 L 24.7559642791748 11.72074508666992 C 19.60759353637695 11.72074508666992 16.78695297241211 13.58291530609131 16.78695297241211 16.75956535339355 C 16.78695297241211 19.52544593811035 19.0051326751709 21.03161430358887 21.46977424621582 21.03161430358887 M 24.74184799194336 14.22677993774414 C 25.04314804077148 14.22677993774414 25.35873985290527 14.24046611785889 25.68705368041992 14.26754570007324 L 25.68705368041992 15.33555507659912 C 25.68705368041992 17.1429557800293 24.4547233581543 18.07404518127441 23.16764450073242 18.07404518127441 C 21.99008369445801 18.07404518127441 21.1959228515625 17.49896430969238 21.1959228515625 16.403564453125 C 21.1959228515625 14.91554546356201 22.60536766052246 14.22677993774414 24.74184799194336 14.22677993774414 M 55.50921249389648 20.89468574523926 C 56.46769332885742 20.89468574523926 57.37139511108398 20.83992576599121 58.27509307861328 20.73038482666016 L 58.27509307861328 18.0192756652832 C 57.15232086181641 18.10142135620117 56.71415328979492 17.88234519958496 56.63200378417969 17.00603485107422 C 56.57723236083984 16.62264442443848 56.57723236083984 16.29402542114258 56.57723236083984 15.66416549682617 L 56.57723236083984 0.7667752504348755 C 55.12582397460938 0.2738452553749084 53.12673187255859 5.244445674179588e-06 50.60732269287109 5.244445674179588e-06 C 45.37679290771484 5.244445674179588e-06 43.45985412597656 1.834785223007202 43.21339416503906 4.545895099639893 C 43.18600463867188 5.038825035095215 43.18600463867188 5.50436544418335 43.18600463867188 5.969915390014648 L 43.18600463867188 6.161605358123779 L 41.8989143371582 6.161605358123779 L 41.8989143371582 8.900094985961914 L 43.18600463867188 8.900094985961914 L 43.18600463867188 20.64822578430176 L 47.45805358886719 20.64822578430176 L 47.45805358886719 8.900094985961914 L 50.4430046081543 8.900094985961914 L 50.4430046081543 6.161605358123779 L 47.45805358886719 6.161605358123779 L 47.45805358886719 5.915135383605957 C 47.45805358886719 5.559135437011719 47.45805358886719 5.120975017547607 47.51281356811523 4.737585067749023 C 47.62236404418945 3.587425231933594 48.55344390869141 2.95757532119751 50.57993316650391 2.95757532119751 C 51.29194259643555 2.95757532119751 51.75749206542969 2.984955310821533 52.30518341064453 3.149265289306641 L 52.30518341064453 15.74632549285889 C 52.30518341064453 16.75956535339355 52.30518341064453 17.4715747833252 52.33256530761719 18.18358612060547 C 52.44211196899414 20.10052490234375 53.67443466186523 20.89468574523926 55.50921249389648 20.89468574523926 M 37.98287200927734 20.64822578430176 L 37.98287200927734 8.900094985961914 L 40.96783447265625 8.900094985961914 L 40.96783447265625 6.161605358123779 L 37.98287200927734 6.161605358123779 L 37.98287200927734 5.723445415496826 C 37.98287200927734 5.340055465698242 37.98287200927734 4.901895046234131 38.03764343261719 4.518515110015869 C 38.17456436157227 3.258805513381958 39.43426132202148 2.765874147415161 41.21429443359375 3.094495296478271 L 41.21429443359375 0.1916952431201935 C 40.72136306762695 0.08215524256229401 40.14628219604492 5.244445674179588e-06 39.57119369506836 5.244445674179588e-06 C 35.62777328491211 5.244445674179588e-06 33.95729446411133 1.560945272445679 33.73821258544922 4.135125160217285 C 33.71082305908203 4.628045082092285 33.71082305908203 5.312675476074219 33.71082305908203 5.778215408325195 L 33.71082305908203 6.161605358123779 L 32.14988327026367 6.161605358123779 L 32.14988327026367 8.900094985961914 L 33.71082305908203 8.900094985961914 L 33.71082305908203 20.64822578430176 L 37.98287200927734 20.64822578430176 M 15.55463314056396 20.64822578430176 C 14.7878532409668 19.55282592773438 14.40446376800537 18.18358612060547 14.15800380706787 15.96540546417236 C 13.93892383575439 13.77460479736328 13.19953346252441 12.26843547821045 11.28258323669434 11.55643558502197 C 13.66507339477539 10.87180519104004 15.03432369232178 9.31086540222168 15.03432369232178 6.900995254516602 C 15.03432369232178 3.587425231933594 12.76137351989746 2.218175172805786 10.02288341522217 1.889555215835571 C 9.037023544311523 1.780025243759155 8.297633171081543 1.75263524055481 7.174843788146973 1.75263524055481 L 3.566894520190544e-06 1.75263524055481 L 3.566894520190544e-06 20.64822578430176 L 4.299433708190918 20.64822578430176 L 4.299433708190918 13.22691535949707 L 5.997303485870361 13.22691535949707 C 6.517613410949707 13.22691535949707 6.983153343200684 13.22691535949707 7.50347375869751 13.25429534912109 C 8.927483558654785 13.36383533477783 9.721643447875977 14.56877517700195 9.968113899230957 16.62264442443848 C 10.13242340087891 18.21096611022949 10.40626335144043 19.3337459564209 10.87181377410889 20.64822578430176 L 15.55463314056396 20.64822578430176 M 4.299433708190918 5.093595027923584 L 6.681923389434814 5.093595027923584 C 7.284393787384033 5.093595027923584 7.74993371963501 5.120975017547607 8.133323669433594 5.148365020751953 C 9.529953956604004 5.312675476074219 10.54319381713867 5.86037540435791 10.54319381713867 7.585625171661377 C 10.54319381713867 9.31086540222168 9.365643501281738 9.913334846496582 7.969013690948486 10.05026531219482 C 7.585623741149902 10.07764530181885 7.120083332061768 10.07764530181885 6.517613410949707 10.07764530181885 L 4.299433708190918 10.07764530181885 L 4.299433708190918 5.093595027923584 M 66.73702239990234 22.03161430358887 C 64.36846160888672 22.03161430358887 62.33965301513672 21.28111457824707 60.86991500854492 19.86126518249512 C 60.20373153686523 19.21769142150879 59.66991806030273 18.44834136962891 59.27509307861328 17.57099914550781 L 59.27509307861328 21.61649513244629 L 58.39542388916016 21.72311592102051 C 57.4429931640625 21.83856582641602 56.4989128112793 21.89468574523926 55.50921249389648 21.89468574523926 C 52.98864364624023 21.89468574523926 51.46690368652344 20.56283569335938 51.33419418334961 18.24064445495605 L 51.33330535888672 18.22201538085938 C 51.30518341064453 17.49079513549805 51.30518341064453 16.75907516479492 51.30518341064453 15.74632549285889 L 51.30518341064453 9.900094985961914 L 48.45805358886719 9.900094985961914 L 48.45805358886719 21.64822578430176 L 42.18600463867188 21.64822578430176 L 42.18600463867188 9.900094985961914 L 38.98287200927734 9.900094985961914 L 38.98287200927734 21.64822578430176 L 32.71082305908203 21.64822578430176 L 32.71082305908203 9.900094985961914 L 31.14988327026367 9.900094985961914 L 31.14988327026367 5.161605358123779 L 32.71242141723633 5.161605358123779 C 32.71501922607422 4.796536445617676 32.72184371948242 4.401994705200195 32.73975372314453 4.079645156860352 L 32.74181365966797 4.050325393676758 C 32.88027191162109 2.423415184020996 33.52343368530273 1.163555264472961 34.65343475341797 0.3057452440261841 C 35.81086349487305 -0.572884738445282 37.41947174072266 -0.9999947547912598 39.57119369506836 -0.9999947547912598 C 40.15361404418945 -0.9999947547912598 40.79680252075195 -0.9254747629165649 41.43122482299805 -0.7844947576522827 L 42.21429443359375 -0.6104747653007507 L 42.21429443359375 4.296005249023438 L 41.03274536132812 4.077875137329102 C 40.73653411865234 4.023195266723633 40.45880508422852 3.995465278625488 40.2072639465332 3.995465278625488 C 39.10038375854492 3.995465278625488 39.04875183105469 4.470475196838379 39.03178405761719 4.626565456390381 L 39.02759170532227 4.659935474395752 C 39.0058708190918 4.81199836730957 38.99469757080078 4.984306812286377 38.98895263671875 5.161605358123779 L 42.1910514831543 5.161605358123779 C 42.19503784179688 4.94336462020874 42.20217132568359 4.72010612487793 42.21493530273438 4.490415096282959 L 42.21750259399414 4.455365180969238 C 42.37679290771484 2.703105211257935 43.13667297363281 1.349245190620422 44.47604370117188 0.4313952326774597 C 45.88153457641602 -0.5317847728729248 47.88709259033203 -0.9999947547912598 50.60732269287109 -0.9999947547912598 C 53.18015289306641 -0.9999947547912598 55.29692459106445 -0.7241447567939758 56.8988151550293 -0.1801047623157501 L 57.57723236083984 0.05029524490237236 L 57.57723236083984 15.66416549682617 C 57.57723236083984 16.27348518371582 57.57723236083984 16.55157470703125 57.62195205688477 16.86461448669434 L 57.62763214111328 16.91270446777344 C 57.63189315795898 16.95813941955566 57.63699340820312 16.99402046203613 57.6419792175293 17.02186012268066 C 57.69239044189453 17.02887153625488 57.76887512207031 17.03526496887207 57.88020324707031 17.03526496887207 C 57.97299194335938 17.03526496887207 58.08129501342773 17.03078460693359 58.20211410522461 17.02194595336914 L 59.02933502197266 16.96141052246094 C 58.64833068847656 15.89911842346191 58.45265197753906 14.69981861114502 58.45265197753906 13.39122486114502 C 58.45265197753906 10.97468566894531 59.27582168579102 8.775525093078613 60.77053451538086 7.198865413665771 C 62.33974456787109 5.543595314025879 64.49762725830078 4.668675422668457 67.01088714599609 4.668675422668457 C 69.48856353759766 4.668675422668457 71.57534027099609 5.567115306854248 73.04563140869141 7.266875267028809 C 74.35505676269531 8.780654907226562 75.07618713378906 10.84867477416992 75.07618713378906 13.08998489379883 C 75.07618713378906 13.51552486419678 75.04669189453125 14.01142501831055 74.98854064941406 14.56391525268555 L 74.95492553710938 14.88324546813965 L 75.09291076660156 14.88324546813965 L 74.80303192138672 16.11272430419922 C 73.92921447753906 19.81894493103027 70.91388702392578 22.03161430358887 66.73702239990234 22.03161430358887 Z M 64.92192077636719 15.45923519134521 C 65.29527282714844 16.9305477142334 66.08393096923828 17.07404518127441 66.81917572021484 17.07404518127441 C 67.51964569091797 17.07404518127441 68.39736175537109 16.83671569824219 68.60089111328125 15.70608520507812 L 68.64533233642578 15.45923519134521 L 64.92192077636719 15.45923519134521 Z M 65.17051696777344 10.74812507629395 L 68.36341857910156 10.74812507629395 C 67.93461608886719 9.626314163208008 67.18304443359375 9.626245498657227 66.81917572021484 9.626245498657227 C 66.25263977050781 9.626245498657227 65.59732818603516 9.777361869812012 65.17051696777344 10.74812507629395 Z M 48.47456741333008 5.161605358123779 L 51.30518341064453 5.161605358123779 L 51.30518341064453 3.977704763412476 C 51.09955596923828 3.96182107925415 50.86805725097656 3.95757532119751 50.57993316650391 3.95757532119751 C 49.57711410522461 3.95757532119751 49.082275390625 4.128955364227295 48.84374237060547 4.272725105285645 C 48.66408538818359 4.381015300750732 48.53829193115234 4.517625331878662 48.50830459594727 4.832405090332031 L 48.50276184082031 4.878985404968262 C 48.49013137817383 4.967429161071777 48.4810676574707 5.062886238098145 48.47456741333008 5.161605358123779 Z M 21.46977424621582 22.03161430358887 C 19.97583389282227 22.03161430358887 18.58808326721191 21.55853462219238 17.56214332580566 20.69951438903809 C 16.41739273071289 19.74101448059082 15.78695392608643 18.3417854309082 15.78695392608643 16.75956535339355 C 15.78695392608643 14.83327484130859 16.65664291381836 13.25884532928467 18.3020133972168 12.2064847946167 C 18.47135543823242 12.09817409515381 18.64825248718262 11.99575614929199 18.83272361755371 11.89919567108154 L 16.28237342834473 11.89919567108154 L 16.30756378173828 10.87461566925049 C 16.35444450378418 8.968315124511719 17.15611267089844 7.364855289459229 18.62590408325195 6.237585067749023 C 19.96415328979492 5.211195468902588 21.74298286437988 4.668675422668457 23.77010345458984 4.668675422668457 C 26.04563331604004 4.668675422668457 27.80642318725586 5.173785209655762 29.00357437133789 6.169975280761719 C 30.10310363769531 7.084945201873779 30.73220443725586 8.39908504486084 30.87340354919434 10.07588481903076 C 30.92958450317383 10.77783489227295 30.95909309387207 11.61979484558105 30.95909309387207 12.51490497589111 L 30.95909309387207 16.95126533508301 C 30.95909309387207 17.94512557983398 31.00338363647461 18.88776588439941 31.22387313842773 20.51386451721191 L 31.37768363952637 21.64822578430176 L 25.1741828918457 21.64822578430176 L 25.1121654510498 21.20845222473145 C 24.05313301086426 21.75502395629883 22.8307933807373 22.03161430358887 21.46977424621582 22.03161430358887 Z M 24.68705368041992 15.22692775726318 C 23.53733444213867 15.23336887359619 22.1959228515625 15.44619178771973 22.1959228515625 16.403564453125 C 22.1959228515625 16.60419464111328 22.1959228515625 17.07404518127441 23.16764450073242 17.07404518127441 C 23.86855316162109 17.07404518127441 24.68705368041992 16.61874580383301 24.68705368041992 15.33555507659912 L 24.68705368041992 15.22692775726318 Z M 23.60579299926758 9.626245498657227 C 23.05780029296875 9.626245498657227 22.53782844543457 9.778669357299805 22.42271995544434 10.85805511474609 C 23.12256813049316 10.76972579956055 23.87262344360352 10.72390460968018 24.67176818847656 10.72090339660645 C 24.66456985473633 10.59593200683594 24.65398025512695 10.46521377563477 24.63840293884277 10.32500553131104 L 24.63665390014648 10.3079252243042 C 24.5942440032959 9.855595588684082 24.24741363525391 9.626245498657227 23.60579299926758 9.626245498657227 Z M 17.47529411315918 21.64822578430176 L 10.16511344909668 21.64822578430176 L 9.929183959960938 20.98207473754883 C 9.406183242797852 19.50538444519043 9.138240814208984 18.31367301940918 8.974329948425293 16.73428726196289 C 8.68974494934082 14.37876415252686 7.762592315673828 14.2775707244873 7.43906307220459 14.25229549407959 C 6.949729442596436 14.22691440582275 6.508076667785645 14.22691535949707 5.997303485870361 14.22691535949707 L 5.299433708190918 14.22691535949707 L 5.299433708190918 21.64822578430176 L -0.9999964237213135 21.64822578430176 L -0.9999964237213135 0.7526352405548096 L 7.174843788146973 0.7526352405548096 C 8.258584022521973 0.7526352405548096 9.051033973693848 0.7754252552986145 10.13330364227295 0.8956752419471741 L 10.14203357696533 0.8966752290725708 C 11.84508323669434 1.101045250892639 13.21524333953857 1.648455262184143 14.21444320678711 2.523695230484009 C 15.42202377319336 3.581465244293213 16.03432273864746 5.054205417633057 16.03432273864746 6.900995254516602 C 16.03432273864746 9.016365051269531 15.1221170425415 10.67398929595947 13.4252758026123 11.71397304534912 C 14.68990039825439 12.91639232635498 15.02350997924805 14.57501888275146 15.15254020690918 15.86087703704834 C 15.38767147064209 17.97358322143555 15.73023319244385 19.15528869628906 16.37386322021484 20.07476615905762 L 17.47529411315918 21.64822578430176 Z M 5.299433708190918 9.077645301818848 L 6.517613410949707 9.077645301818848 C 7.087070941925049 9.077645301818848 7.538381099700928 9.077645301818848 7.884489059448242 9.053738594055176 C 9.414834022521973 8.899930953979492 9.543193817138672 8.215481758117676 9.543193817138672 7.585625171661377 C 9.543193817138672 6.733738422393799 9.31743049621582 6.299215316772461 8.038589477539062 6.144155979156494 C 7.681268692016602 6.118870735168457 7.241570472717285 6.093595027923584 6.681923389434814 6.093595027923584 L 5.299433708190918 6.093595027923584 L 5.299433708190918 9.077645301818848 Z" stroke="none" fill="#ffa13d"/>
      </g>
    </g>
  </g>
</svg>
